%TF.GenerationSoftware,KiCad,Pcbnew,9.0.6*%
%TF.CreationDate,2025-11-22T16:01:23+01:00*%
%TF.ProjectId,BlinkyBear-R2,426c696e-6b79-4426-9561-722d52322e6b,rev?*%
%TF.SameCoordinates,Original*%
%TF.FileFunction,Legend,Bot*%
%TF.FilePolarity,Positive*%
%FSLAX46Y46*%
G04 Gerber Fmt 4.6, Leading zero omitted, Abs format (unit mm)*
G04 Created by KiCad (PCBNEW 9.0.6) date 2025-11-22 16:01:23*
%MOMM*%
%LPD*%
G01*
G04 APERTURE LIST*
%ADD10C,0.300000*%
%ADD11C,0.150000*%
%ADD12C,0.000000*%
%ADD13C,0.120000*%
G04 APERTURE END LIST*
D10*
X157507142Y-74200198D02*
X157292856Y-74271626D01*
X157292856Y-74271626D02*
X157221427Y-74343055D01*
X157221427Y-74343055D02*
X157149999Y-74485912D01*
X157149999Y-74485912D02*
X157149999Y-74700198D01*
X157149999Y-74700198D02*
X157221427Y-74843055D01*
X157221427Y-74843055D02*
X157292856Y-74914484D01*
X157292856Y-74914484D02*
X157435713Y-74985912D01*
X157435713Y-74985912D02*
X158007142Y-74985912D01*
X158007142Y-74985912D02*
X158007142Y-73485912D01*
X158007142Y-73485912D02*
X157507142Y-73485912D01*
X157507142Y-73485912D02*
X157364285Y-73557341D01*
X157364285Y-73557341D02*
X157292856Y-73628769D01*
X157292856Y-73628769D02*
X157221427Y-73771626D01*
X157221427Y-73771626D02*
X157221427Y-73914484D01*
X157221427Y-73914484D02*
X157292856Y-74057341D01*
X157292856Y-74057341D02*
X157364285Y-74128769D01*
X157364285Y-74128769D02*
X157507142Y-74200198D01*
X157507142Y-74200198D02*
X158007142Y-74200198D01*
X156292856Y-74985912D02*
X156435713Y-74914484D01*
X156435713Y-74914484D02*
X156507142Y-74771626D01*
X156507142Y-74771626D02*
X156507142Y-73485912D01*
X155721428Y-74985912D02*
X155721428Y-73985912D01*
X155721428Y-73485912D02*
X155792856Y-73557341D01*
X155792856Y-73557341D02*
X155721428Y-73628769D01*
X155721428Y-73628769D02*
X155649999Y-73557341D01*
X155649999Y-73557341D02*
X155721428Y-73485912D01*
X155721428Y-73485912D02*
X155721428Y-73628769D01*
X155007142Y-73985912D02*
X155007142Y-74985912D01*
X155007142Y-74128769D02*
X154935713Y-74057341D01*
X154935713Y-74057341D02*
X154792856Y-73985912D01*
X154792856Y-73985912D02*
X154578570Y-73985912D01*
X154578570Y-73985912D02*
X154435713Y-74057341D01*
X154435713Y-74057341D02*
X154364285Y-74200198D01*
X154364285Y-74200198D02*
X154364285Y-74985912D01*
X153649999Y-74985912D02*
X153649999Y-73485912D01*
X153507142Y-74414484D02*
X153078570Y-74985912D01*
X153078570Y-73985912D02*
X153649999Y-74557341D01*
X152578570Y-73985912D02*
X152221427Y-74985912D01*
X151864284Y-73985912D02*
X152221427Y-74985912D01*
X152221427Y-74985912D02*
X152364284Y-75343055D01*
X152364284Y-75343055D02*
X152435713Y-75414484D01*
X152435713Y-75414484D02*
X152578570Y-75485912D01*
X149649999Y-74200198D02*
X149435713Y-74271626D01*
X149435713Y-74271626D02*
X149364284Y-74343055D01*
X149364284Y-74343055D02*
X149292856Y-74485912D01*
X149292856Y-74485912D02*
X149292856Y-74700198D01*
X149292856Y-74700198D02*
X149364284Y-74843055D01*
X149364284Y-74843055D02*
X149435713Y-74914484D01*
X149435713Y-74914484D02*
X149578570Y-74985912D01*
X149578570Y-74985912D02*
X150149999Y-74985912D01*
X150149999Y-74985912D02*
X150149999Y-73485912D01*
X150149999Y-73485912D02*
X149649999Y-73485912D01*
X149649999Y-73485912D02*
X149507142Y-73557341D01*
X149507142Y-73557341D02*
X149435713Y-73628769D01*
X149435713Y-73628769D02*
X149364284Y-73771626D01*
X149364284Y-73771626D02*
X149364284Y-73914484D01*
X149364284Y-73914484D02*
X149435713Y-74057341D01*
X149435713Y-74057341D02*
X149507142Y-74128769D01*
X149507142Y-74128769D02*
X149649999Y-74200198D01*
X149649999Y-74200198D02*
X150149999Y-74200198D01*
X148078570Y-74914484D02*
X148221427Y-74985912D01*
X148221427Y-74985912D02*
X148507142Y-74985912D01*
X148507142Y-74985912D02*
X148649999Y-74914484D01*
X148649999Y-74914484D02*
X148721427Y-74771626D01*
X148721427Y-74771626D02*
X148721427Y-74200198D01*
X148721427Y-74200198D02*
X148649999Y-74057341D01*
X148649999Y-74057341D02*
X148507142Y-73985912D01*
X148507142Y-73985912D02*
X148221427Y-73985912D01*
X148221427Y-73985912D02*
X148078570Y-74057341D01*
X148078570Y-74057341D02*
X148007142Y-74200198D01*
X148007142Y-74200198D02*
X148007142Y-74343055D01*
X148007142Y-74343055D02*
X148721427Y-74485912D01*
X146721428Y-74985912D02*
X146721428Y-74200198D01*
X146721428Y-74200198D02*
X146792856Y-74057341D01*
X146792856Y-74057341D02*
X146935713Y-73985912D01*
X146935713Y-73985912D02*
X147221428Y-73985912D01*
X147221428Y-73985912D02*
X147364285Y-74057341D01*
X146721428Y-74914484D02*
X146864285Y-74985912D01*
X146864285Y-74985912D02*
X147221428Y-74985912D01*
X147221428Y-74985912D02*
X147364285Y-74914484D01*
X147364285Y-74914484D02*
X147435713Y-74771626D01*
X147435713Y-74771626D02*
X147435713Y-74628769D01*
X147435713Y-74628769D02*
X147364285Y-74485912D01*
X147364285Y-74485912D02*
X147221428Y-74414484D01*
X147221428Y-74414484D02*
X146864285Y-74414484D01*
X146864285Y-74414484D02*
X146721428Y-74343055D01*
X146007142Y-74985912D02*
X146007142Y-73985912D01*
X146007142Y-74271626D02*
X145935713Y-74128769D01*
X145935713Y-74128769D02*
X145864285Y-74057341D01*
X145864285Y-74057341D02*
X145721427Y-73985912D01*
X145721427Y-73985912D02*
X145578570Y-73985912D01*
X155007142Y-77400828D02*
X155507142Y-76686542D01*
X155864285Y-77400828D02*
X155864285Y-75900828D01*
X155864285Y-75900828D02*
X155292856Y-75900828D01*
X155292856Y-75900828D02*
X155149999Y-75972257D01*
X155149999Y-75972257D02*
X155078570Y-76043685D01*
X155078570Y-76043685D02*
X155007142Y-76186542D01*
X155007142Y-76186542D02*
X155007142Y-76400828D01*
X155007142Y-76400828D02*
X155078570Y-76543685D01*
X155078570Y-76543685D02*
X155149999Y-76615114D01*
X155149999Y-76615114D02*
X155292856Y-76686542D01*
X155292856Y-76686542D02*
X155864285Y-76686542D01*
X153792856Y-77329400D02*
X153935713Y-77400828D01*
X153935713Y-77400828D02*
X154221428Y-77400828D01*
X154221428Y-77400828D02*
X154364285Y-77329400D01*
X154364285Y-77329400D02*
X154435713Y-77186542D01*
X154435713Y-77186542D02*
X154435713Y-76615114D01*
X154435713Y-76615114D02*
X154364285Y-76472257D01*
X154364285Y-76472257D02*
X154221428Y-76400828D01*
X154221428Y-76400828D02*
X153935713Y-76400828D01*
X153935713Y-76400828D02*
X153792856Y-76472257D01*
X153792856Y-76472257D02*
X153721428Y-76615114D01*
X153721428Y-76615114D02*
X153721428Y-76757971D01*
X153721428Y-76757971D02*
X154435713Y-76900828D01*
X153221428Y-76400828D02*
X152864285Y-77400828D01*
X152864285Y-77400828D02*
X152507142Y-76400828D01*
X150864285Y-76043685D02*
X150792857Y-75972257D01*
X150792857Y-75972257D02*
X150650000Y-75900828D01*
X150650000Y-75900828D02*
X150292857Y-75900828D01*
X150292857Y-75900828D02*
X150150000Y-75972257D01*
X150150000Y-75972257D02*
X150078571Y-76043685D01*
X150078571Y-76043685D02*
X150007142Y-76186542D01*
X150007142Y-76186542D02*
X150007142Y-76329400D01*
X150007142Y-76329400D02*
X150078571Y-76543685D01*
X150078571Y-76543685D02*
X150935714Y-77400828D01*
X150935714Y-77400828D02*
X150007142Y-77400828D01*
X149364286Y-77257971D02*
X149292857Y-77329400D01*
X149292857Y-77329400D02*
X149364286Y-77400828D01*
X149364286Y-77400828D02*
X149435714Y-77329400D01*
X149435714Y-77329400D02*
X149364286Y-77257971D01*
X149364286Y-77257971D02*
X149364286Y-77400828D01*
X148364285Y-75900828D02*
X148221428Y-75900828D01*
X148221428Y-75900828D02*
X148078571Y-75972257D01*
X148078571Y-75972257D02*
X148007143Y-76043685D01*
X148007143Y-76043685D02*
X147935714Y-76186542D01*
X147935714Y-76186542D02*
X147864285Y-76472257D01*
X147864285Y-76472257D02*
X147864285Y-76829400D01*
X147864285Y-76829400D02*
X147935714Y-77115114D01*
X147935714Y-77115114D02*
X148007143Y-77257971D01*
X148007143Y-77257971D02*
X148078571Y-77329400D01*
X148078571Y-77329400D02*
X148221428Y-77400828D01*
X148221428Y-77400828D02*
X148364285Y-77400828D01*
X148364285Y-77400828D02*
X148507143Y-77329400D01*
X148507143Y-77329400D02*
X148578571Y-77257971D01*
X148578571Y-77257971D02*
X148650000Y-77115114D01*
X148650000Y-77115114D02*
X148721428Y-76829400D01*
X148721428Y-76829400D02*
X148721428Y-76472257D01*
X148721428Y-76472257D02*
X148650000Y-76186542D01*
X148650000Y-76186542D02*
X148578571Y-76043685D01*
X148578571Y-76043685D02*
X148507143Y-75972257D01*
X148507143Y-75972257D02*
X148364285Y-75900828D01*
D11*
X143377200Y-82716667D02*
X143424819Y-82859524D01*
X143424819Y-82859524D02*
X143424819Y-83097619D01*
X143424819Y-83097619D02*
X143377200Y-83192857D01*
X143377200Y-83192857D02*
X143329580Y-83240476D01*
X143329580Y-83240476D02*
X143234342Y-83288095D01*
X143234342Y-83288095D02*
X143139104Y-83288095D01*
X143139104Y-83288095D02*
X143043866Y-83240476D01*
X143043866Y-83240476D02*
X142996247Y-83192857D01*
X142996247Y-83192857D02*
X142948628Y-83097619D01*
X142948628Y-83097619D02*
X142901009Y-82907143D01*
X142901009Y-82907143D02*
X142853390Y-82811905D01*
X142853390Y-82811905D02*
X142805771Y-82764286D01*
X142805771Y-82764286D02*
X142710533Y-82716667D01*
X142710533Y-82716667D02*
X142615295Y-82716667D01*
X142615295Y-82716667D02*
X142520057Y-82764286D01*
X142520057Y-82764286D02*
X142472438Y-82811905D01*
X142472438Y-82811905D02*
X142424819Y-82907143D01*
X142424819Y-82907143D02*
X142424819Y-83145238D01*
X142424819Y-83145238D02*
X142472438Y-83288095D01*
X142424819Y-83621429D02*
X143424819Y-83859524D01*
X143424819Y-83859524D02*
X142710533Y-84050000D01*
X142710533Y-84050000D02*
X143424819Y-84240476D01*
X143424819Y-84240476D02*
X142424819Y-84478572D01*
X143424819Y-85383333D02*
X143424819Y-84811905D01*
X143424819Y-85097619D02*
X142424819Y-85097619D01*
X142424819Y-85097619D02*
X142567676Y-85002381D01*
X142567676Y-85002381D02*
X142662914Y-84907143D01*
X142662914Y-84907143D02*
X142710533Y-84811905D01*
X152685714Y-97624009D02*
X152542857Y-97671628D01*
X152542857Y-97671628D02*
X152495238Y-97719247D01*
X152495238Y-97719247D02*
X152447619Y-97814485D01*
X152447619Y-97814485D02*
X152447619Y-97957342D01*
X152447619Y-97957342D02*
X152495238Y-98052580D01*
X152495238Y-98052580D02*
X152542857Y-98100200D01*
X152542857Y-98100200D02*
X152638095Y-98147819D01*
X152638095Y-98147819D02*
X153019047Y-98147819D01*
X153019047Y-98147819D02*
X153019047Y-97147819D01*
X153019047Y-97147819D02*
X152685714Y-97147819D01*
X152685714Y-97147819D02*
X152590476Y-97195438D01*
X152590476Y-97195438D02*
X152542857Y-97243057D01*
X152542857Y-97243057D02*
X152495238Y-97338295D01*
X152495238Y-97338295D02*
X152495238Y-97433533D01*
X152495238Y-97433533D02*
X152542857Y-97528771D01*
X152542857Y-97528771D02*
X152590476Y-97576390D01*
X152590476Y-97576390D02*
X152685714Y-97624009D01*
X152685714Y-97624009D02*
X153019047Y-97624009D01*
X152161904Y-97147819D02*
X151590476Y-97147819D01*
X151876190Y-98147819D02*
X151876190Y-97147819D01*
X150733333Y-98147819D02*
X151304761Y-98147819D01*
X151019047Y-98147819D02*
X151019047Y-97147819D01*
X151019047Y-97147819D02*
X151114285Y-97290676D01*
X151114285Y-97290676D02*
X151209523Y-97385914D01*
X151209523Y-97385914D02*
X151304761Y-97433533D01*
D12*
%TO.C,Lg1*%
G36*
X149290868Y-68966798D02*
G01*
X149626251Y-69168869D01*
X149903678Y-69415739D01*
X149930169Y-70989202D01*
X149956660Y-72562666D01*
X148926755Y-72562666D01*
X148926755Y-71297769D01*
X148617576Y-71506884D01*
X148545399Y-71552379D01*
X148301600Y-71669187D01*
X148103659Y-71716000D01*
X148040449Y-71712319D01*
X147760888Y-71635464D01*
X147494516Y-71489270D01*
X147319514Y-71313835D01*
X147289663Y-71280323D01*
X147256153Y-71330626D01*
X147237181Y-71520291D01*
X147230342Y-71864166D01*
X147227759Y-72562666D01*
X146293311Y-72562666D01*
X146293311Y-69416974D01*
X146541625Y-69169487D01*
X146778749Y-68999500D01*
X147131759Y-68907806D01*
X147497042Y-68960947D01*
X147831318Y-69159270D01*
X148097758Y-69396541D01*
X148335823Y-69159270D01*
X148577096Y-68989951D01*
X148926963Y-68907054D01*
X149290868Y-68966798D01*
G37*
G36*
X157506688Y-69853333D02*
G01*
X156253678Y-69854629D01*
X156058970Y-69855603D01*
X155629261Y-69863521D01*
X155270726Y-69878037D01*
X155016269Y-69897553D01*
X154898795Y-69920469D01*
X154905692Y-69942557D01*
X155037018Y-70007239D01*
X155298593Y-70100937D01*
X155668957Y-70216222D01*
X156126654Y-70345660D01*
X156429671Y-70428593D01*
X156843064Y-70544417D01*
X157177477Y-70641390D01*
X157404524Y-70711219D01*
X157495821Y-70745613D01*
X157503659Y-70776166D01*
X157491758Y-70932944D01*
X157447352Y-71167773D01*
X157424167Y-71285615D01*
X157406371Y-71493553D01*
X157433069Y-71595979D01*
X157462085Y-71651358D01*
X157494201Y-71838407D01*
X157506688Y-72101996D01*
X157506688Y-72562666D01*
X153768896Y-72562666D01*
X153768896Y-71655819D01*
X154342307Y-71601845D01*
X154462557Y-71591795D01*
X154859163Y-71568183D01*
X155319006Y-71550489D01*
X155765217Y-71541949D01*
X156614715Y-71536028D01*
X155213266Y-71153514D01*
X154844112Y-71051932D01*
X154427760Y-70935127D01*
X154093277Y-70838712D01*
X153868046Y-70770611D01*
X153779452Y-70738743D01*
X153774563Y-70703135D01*
X153796092Y-70542215D01*
X153849003Y-70303090D01*
X153880759Y-70165984D01*
X153904486Y-69953570D01*
X153859908Y-69869458D01*
X153823881Y-69819809D01*
X153784286Y-69640125D01*
X153768896Y-69380611D01*
X153768896Y-68922000D01*
X157506688Y-68922000D01*
X157506688Y-69853333D01*
G37*
G36*
X153321905Y-71622613D02*
G01*
X153282788Y-71913640D01*
X153216080Y-72122277D01*
X153115101Y-72278583D01*
X152973167Y-72412617D01*
X152967047Y-72417474D01*
X152693478Y-72539304D01*
X152355420Y-72567215D01*
X152023592Y-72504599D01*
X151768713Y-72354848D01*
X151560200Y-72147030D01*
X151560200Y-72354848D01*
X151560196Y-72358968D01*
X151548060Y-72472462D01*
X151485635Y-72533409D01*
X151333069Y-72558060D01*
X151050501Y-72562666D01*
X150540802Y-72562666D01*
X150540802Y-71546666D01*
X151560200Y-71546666D01*
X152324749Y-71546666D01*
X152324749Y-70748038D01*
X152322707Y-70419860D01*
X152311097Y-70162508D01*
X152282889Y-70011653D01*
X152231093Y-69933369D01*
X152148718Y-69893727D01*
X152002097Y-69870731D01*
X151766444Y-69889634D01*
X151747328Y-69894518D01*
X151658175Y-69928808D01*
X151603055Y-69997052D01*
X151573800Y-70133094D01*
X151562238Y-70370778D01*
X151560201Y-70743946D01*
X151560200Y-71546666D01*
X150540802Y-71546666D01*
X150540802Y-68922000D01*
X151050501Y-68922001D01*
X151060606Y-68922001D01*
X151338963Y-68926950D01*
X151488444Y-68952401D01*
X151548904Y-69014607D01*
X151560200Y-69129818D01*
X151560200Y-69337636D01*
X151768713Y-69129818D01*
X151859323Y-69050012D01*
X152070413Y-68949621D01*
X152368947Y-68922001D01*
X152638816Y-68934808D01*
X152898465Y-68996704D01*
X153087155Y-69128054D01*
X153215476Y-69348643D01*
X153294021Y-69678255D01*
X153333381Y-70136677D01*
X153344147Y-70743694D01*
X153340113Y-71219139D01*
X153325332Y-71546666D01*
X153321905Y-71622613D01*
G37*
D13*
%TO.C,SW1*%
X136540000Y-85250000D02*
X136540000Y-84350000D01*
X136750000Y-84150000D02*
X136540000Y-84350000D01*
X136750000Y-84150000D02*
X138040000Y-84150000D01*
X136750000Y-85450000D02*
X136540000Y-85250000D01*
X138040000Y-85450000D02*
X136750000Y-85450000D01*
X138040000Y-86900000D02*
X138040000Y-81200000D01*
X139050001Y-80600000D02*
X139840000Y-80600000D01*
X139840000Y-87500000D02*
X139050001Y-87500000D01*
X140890000Y-82650000D02*
X140890000Y-82450000D01*
X140890000Y-85650000D02*
X140890000Y-83950000D01*
D11*
%TO.C,BT1*%
X145296000Y-84878700D02*
X145296000Y-88269600D01*
X145296000Y-92130400D02*
X145296000Y-93375000D01*
X145296000Y-93375000D02*
X148331300Y-96943700D01*
X155468700Y-96943700D02*
X148331300Y-96943700D01*
X158504000Y-84878700D02*
X145296000Y-84878700D01*
X158504000Y-84878700D02*
X158504000Y-88269600D01*
X158504000Y-92130400D02*
X158504000Y-93375000D01*
X158504000Y-93375000D02*
X155468700Y-96943700D01*
%TD*%
M02*
