%TF.GenerationSoftware,KiCad,Pcbnew,9.0.6*%
%TF.CreationDate,2025-11-22T16:01:23+01:00*%
%TF.ProjectId,BlinkyBear-R2,426c696e-6b79-4426-9561-722d52322e6b,rev?*%
%TF.SameCoordinates,Original*%
%TF.FileFunction,Soldermask,Top*%
%TF.FilePolarity,Negative*%
%FSLAX46Y46*%
G04 Gerber Fmt 4.6, Leading zero omitted, Abs format (unit mm)*
G04 Created by KiCad (PCBNEW 9.0.6) date 2025-11-22 16:01:23*
%MOMM*%
%LPD*%
G01*
G04 APERTURE LIST*
%ADD10C,0.264582*%
%ADD11R,1.800000X1.800000*%
%ADD12C,1.800000*%
%ADD13C,0.900000*%
G04 APERTURE END LIST*
D10*
X155322522Y-74846883D02*
X155456982Y-74851014D01*
X155593900Y-74857859D01*
X155733334Y-74867373D01*
X155875342Y-74879508D01*
X156019982Y-74894219D01*
X156167311Y-74911460D01*
X156317386Y-74931183D01*
X156470265Y-74953344D01*
X156568842Y-74972259D01*
X156665925Y-74998700D01*
X156761414Y-75032291D01*
X156855207Y-75072657D01*
X156947201Y-75119426D01*
X157037296Y-75172223D01*
X157125389Y-75230673D01*
X157211379Y-75294402D01*
X157295164Y-75363037D01*
X157376643Y-75436202D01*
X157532273Y-75594630D01*
X157677456Y-75766691D01*
X157811378Y-75949393D01*
X157933225Y-76139742D01*
X158042183Y-76334745D01*
X158137439Y-76531407D01*
X158218179Y-76726736D01*
X158283590Y-76917739D01*
X158332857Y-77101420D01*
X158365166Y-77274789D01*
X158379704Y-77434850D01*
X158361579Y-77720686D01*
X158333518Y-78000628D01*
X158294265Y-78275995D01*
X158242561Y-78548109D01*
X158177149Y-78818289D01*
X158096772Y-79087855D01*
X158000173Y-79358128D01*
X157886093Y-79630429D01*
X157753276Y-79906077D01*
X157600463Y-80186392D01*
X157426398Y-80472696D01*
X157229823Y-80766307D01*
X157009481Y-81068548D01*
X156764113Y-81380737D01*
X156492463Y-81704195D01*
X156193273Y-82040242D01*
X156063985Y-82169957D01*
X155895371Y-82322259D01*
X155456947Y-82694105D01*
X154911569Y-83154735D01*
X154292807Y-83703106D01*
X153966397Y-84009869D01*
X153634230Y-84338175D01*
X153300501Y-84687895D01*
X152969407Y-85058898D01*
X152645143Y-85451054D01*
X152331907Y-85864232D01*
X152033894Y-86298301D01*
X151755300Y-86753132D01*
X151618949Y-86523264D01*
X151477709Y-86298829D01*
X151332073Y-86079826D01*
X151182532Y-85866252D01*
X150873703Y-85455394D01*
X150555158Y-85066246D01*
X150230829Y-84698802D01*
X149904652Y-84353055D01*
X149580560Y-84028997D01*
X149262488Y-83726620D01*
X148954370Y-83445918D01*
X148660140Y-83186883D01*
X148129081Y-82733784D01*
X147700786Y-82367266D01*
X147535011Y-82216456D01*
X147406729Y-82087269D01*
X147107537Y-81751228D01*
X146835886Y-81427786D01*
X146590518Y-81115623D01*
X146370175Y-80813416D01*
X146173600Y-80519843D01*
X145999535Y-80233583D01*
X145846722Y-79953314D01*
X145713905Y-79677714D01*
X145599826Y-79405461D01*
X145503227Y-79135234D01*
X145422851Y-78865710D01*
X145357440Y-78595568D01*
X145305736Y-78323486D01*
X145266483Y-78048142D01*
X145238422Y-77768214D01*
X145220297Y-77482381D01*
X145225290Y-77404199D01*
X145234829Y-77322314D01*
X145267134Y-77148929D01*
X145316397Y-76965220D01*
X145381806Y-76774184D01*
X145462545Y-76578815D01*
X145557801Y-76382108D01*
X145666761Y-76187057D01*
X145788609Y-75996659D01*
X145922533Y-75813908D01*
X145993769Y-75726337D01*
X146067718Y-75641800D01*
X146144279Y-75560672D01*
X146223351Y-75483328D01*
X146304830Y-75410142D01*
X146388617Y-75341489D01*
X146474608Y-75277742D01*
X146562702Y-75219277D01*
X146652798Y-75166467D01*
X146744793Y-75119688D01*
X146838586Y-75079312D01*
X146934075Y-75045715D01*
X147031159Y-75019272D01*
X147129736Y-75000356D01*
X147530218Y-74946171D01*
X147909616Y-74908878D01*
X148269263Y-74889537D01*
X148442098Y-74886929D01*
X148610497Y-74889205D01*
X148774626Y-74896499D01*
X148934653Y-74908941D01*
X149090744Y-74926666D01*
X149243067Y-74949804D01*
X149391788Y-74978488D01*
X149537075Y-75012851D01*
X149679094Y-75053025D01*
X149818013Y-75099141D01*
X149953998Y-75151333D01*
X150087216Y-75209733D01*
X150217835Y-75274473D01*
X150346022Y-75345685D01*
X150471943Y-75423501D01*
X150595765Y-75508055D01*
X150717655Y-75599478D01*
X150837781Y-75697902D01*
X150956309Y-75803460D01*
X151073407Y-75916284D01*
X151189241Y-76036506D01*
X151303978Y-76164259D01*
X151417786Y-76299675D01*
X151530831Y-76442887D01*
X151643280Y-76594025D01*
X151755300Y-76753224D01*
X151938208Y-76498274D01*
X152123767Y-76263735D01*
X152312553Y-76049113D01*
X152505143Y-75853915D01*
X152702112Y-75677646D01*
X152904037Y-75519813D01*
X153111493Y-75379923D01*
X153325055Y-75257482D01*
X153545301Y-75151995D01*
X153772806Y-75062971D01*
X154008145Y-74989914D01*
X154251896Y-74932331D01*
X154504632Y-74889728D01*
X154766932Y-74861613D01*
X155039370Y-74847491D01*
X155322522Y-74846868D01*
X155322522Y-74846883D01*
G36*
X155322522Y-74846883D02*
G01*
X155456982Y-74851014D01*
X155593900Y-74857859D01*
X155733334Y-74867373D01*
X155875342Y-74879508D01*
X156019982Y-74894219D01*
X156167311Y-74911460D01*
X156317386Y-74931183D01*
X156470265Y-74953344D01*
X156568842Y-74972259D01*
X156665925Y-74998700D01*
X156761414Y-75032291D01*
X156855207Y-75072657D01*
X156947201Y-75119426D01*
X157037296Y-75172223D01*
X157125389Y-75230673D01*
X157211379Y-75294402D01*
X157295164Y-75363037D01*
X157376643Y-75436202D01*
X157532273Y-75594630D01*
X157677456Y-75766691D01*
X157811378Y-75949393D01*
X157933225Y-76139742D01*
X158042183Y-76334745D01*
X158137439Y-76531407D01*
X158218179Y-76726736D01*
X158283590Y-76917739D01*
X158332857Y-77101420D01*
X158365166Y-77274789D01*
X158379704Y-77434850D01*
X158361579Y-77720686D01*
X158333518Y-78000628D01*
X158294265Y-78275995D01*
X158242561Y-78548109D01*
X158177149Y-78818289D01*
X158096772Y-79087855D01*
X158000173Y-79358128D01*
X157886093Y-79630429D01*
X157753276Y-79906077D01*
X157600463Y-80186392D01*
X157426398Y-80472696D01*
X157229823Y-80766307D01*
X157009481Y-81068548D01*
X156764113Y-81380737D01*
X156492463Y-81704195D01*
X156193273Y-82040242D01*
X156063985Y-82169957D01*
X155895371Y-82322259D01*
X155456947Y-82694105D01*
X154911569Y-83154735D01*
X154292807Y-83703106D01*
X153966397Y-84009869D01*
X153634230Y-84338175D01*
X153300501Y-84687895D01*
X152969407Y-85058898D01*
X152645143Y-85451054D01*
X152331907Y-85864232D01*
X152033894Y-86298301D01*
X151755300Y-86753132D01*
X151618949Y-86523264D01*
X151477709Y-86298829D01*
X151332073Y-86079826D01*
X151182532Y-85866252D01*
X150873703Y-85455394D01*
X150555158Y-85066246D01*
X150230829Y-84698802D01*
X149904652Y-84353055D01*
X149580560Y-84028997D01*
X149262488Y-83726620D01*
X148954370Y-83445918D01*
X148660140Y-83186883D01*
X148129081Y-82733784D01*
X147700786Y-82367266D01*
X147535011Y-82216456D01*
X147406729Y-82087269D01*
X147107537Y-81751228D01*
X146835886Y-81427786D01*
X146590518Y-81115623D01*
X146370175Y-80813416D01*
X146173600Y-80519843D01*
X145999535Y-80233583D01*
X145846722Y-79953314D01*
X145713905Y-79677714D01*
X145599826Y-79405461D01*
X145503227Y-79135234D01*
X145422851Y-78865710D01*
X145357440Y-78595568D01*
X145305736Y-78323486D01*
X145266483Y-78048142D01*
X145238422Y-77768214D01*
X145220297Y-77482381D01*
X145225290Y-77404199D01*
X145234829Y-77322314D01*
X145267134Y-77148929D01*
X145316397Y-76965220D01*
X145381806Y-76774184D01*
X145462545Y-76578815D01*
X145557801Y-76382108D01*
X145666761Y-76187057D01*
X145788609Y-75996659D01*
X145922533Y-75813908D01*
X145993769Y-75726337D01*
X146067718Y-75641800D01*
X146144279Y-75560672D01*
X146223351Y-75483328D01*
X146304830Y-75410142D01*
X146388617Y-75341489D01*
X146474608Y-75277742D01*
X146562702Y-75219277D01*
X146652798Y-75166467D01*
X146744793Y-75119688D01*
X146838586Y-75079312D01*
X146934075Y-75045715D01*
X147031159Y-75019272D01*
X147129736Y-75000356D01*
X147530218Y-74946171D01*
X147909616Y-74908878D01*
X148269263Y-74889537D01*
X148442098Y-74886929D01*
X148610497Y-74889205D01*
X148774626Y-74896499D01*
X148934653Y-74908941D01*
X149090744Y-74926666D01*
X149243067Y-74949804D01*
X149391788Y-74978488D01*
X149537075Y-75012851D01*
X149679094Y-75053025D01*
X149818013Y-75099141D01*
X149953998Y-75151333D01*
X150087216Y-75209733D01*
X150217835Y-75274473D01*
X150346022Y-75345685D01*
X150471943Y-75423501D01*
X150595765Y-75508055D01*
X150717655Y-75599478D01*
X150837781Y-75697902D01*
X150956309Y-75803460D01*
X151073407Y-75916284D01*
X151189241Y-76036506D01*
X151303978Y-76164259D01*
X151417786Y-76299675D01*
X151530831Y-76442887D01*
X151643280Y-76594025D01*
X151755300Y-76753224D01*
X151938208Y-76498274D01*
X152123767Y-76263735D01*
X152312553Y-76049113D01*
X152505143Y-75853915D01*
X152702112Y-75677646D01*
X152904037Y-75519813D01*
X153111493Y-75379923D01*
X153325055Y-75257482D01*
X153545301Y-75151995D01*
X153772806Y-75062971D01*
X154008145Y-74989914D01*
X154251896Y-74932331D01*
X154504632Y-74889728D01*
X154766932Y-74861613D01*
X155039370Y-74847491D01*
X155322522Y-74846868D01*
X155322522Y-74846883D01*
G37*
D11*
%TO.C,D1*%
X167460000Y-75000000D03*
D12*
X170000000Y-75000000D03*
%TD*%
D11*
%TO.C,D2*%
X133500000Y-75000000D03*
D12*
X136040000Y-75000000D03*
%TD*%
D13*
%TO.C,SW1*%
X139440000Y-85550000D03*
X139440000Y-82550000D03*
%TD*%
M02*
