%TF.GenerationSoftware,KiCad,Pcbnew,9.0.6*%
%TF.CreationDate,2025-11-22T16:01:23+01:00*%
%TF.ProjectId,BlinkyBear-R2,426c696e-6b79-4426-9561-722d52322e6b,rev?*%
%TF.SameCoordinates,Original*%
%TF.FileFunction,Copper,L2,Bot*%
%TF.FilePolarity,Positive*%
%FSLAX46Y46*%
G04 Gerber Fmt 4.6, Leading zero omitted, Abs format (unit mm)*
G04 Created by KiCad (PCBNEW 9.0.6) date 2025-11-22 16:01:23*
%MOMM*%
%LPD*%
G01*
G04 APERTURE LIST*
%TA.AperFunction,ComponentPad*%
%ADD10R,1.800000X1.800000*%
%TD*%
%TA.AperFunction,ComponentPad*%
%ADD11C,1.800000*%
%TD*%
%TA.AperFunction,SMDPad,CuDef*%
%ADD12R,0.800000X1.000000*%
%TD*%
%TA.AperFunction,SMDPad,CuDef*%
%ADD13R,1.500000X0.700000*%
%TD*%
%TA.AperFunction,SMDPad,CuDef*%
%ADD14C,6.000000*%
%TD*%
%TA.AperFunction,SMDPad,CuDef*%
%ADD15R,3.175000X3.175000*%
%TD*%
%TA.AperFunction,SMDPad,CuDef*%
%ADD16C,6.350000*%
%TD*%
%TA.AperFunction,Conductor*%
%ADD17C,0.304800*%
%TD*%
G04 APERTURE END LIST*
D10*
%TO.P,D1,1,K*%
%TO.N,GND*%
X167460000Y-75000000D03*
D11*
%TO.P,D1,2,A*%
%TO.N,Net-(D1-A)*%
X170000000Y-75000000D03*
%TD*%
D10*
%TO.P,D2,1,K*%
%TO.N,GND*%
X133500000Y-75000000D03*
D11*
%TO.P,D2,2,A*%
%TO.N,Net-(D1-A)*%
X136040000Y-75000000D03*
%TD*%
D12*
%TO.P,SW1,*%
%TO.N,*%
X138340000Y-87700000D03*
X140550000Y-87700000D03*
X138340000Y-80400000D03*
X140550000Y-80400000D03*
D13*
%TO.P,SW1,1,A*%
%TO.N,Net-(BT1-+)*%
X141200000Y-86300000D03*
%TO.P,SW1,2,B*%
%TO.N,Net-(D1-A)*%
X141200000Y-83300000D03*
%TO.P,SW1,3,C*%
%TO.N,unconnected-(SW1-C-Pad3)*%
X141200000Y-81800000D03*
%TD*%
D14*
%TO.P,H1,1*%
%TO.N,N/C*%
X151673000Y-60100000D03*
%TD*%
D15*
%TO.P,BT1,1,+*%
%TO.N,Net-(BT1-+)*%
X159774000Y-90200000D03*
X144026000Y-90200000D03*
D16*
%TO.P,BT1,2,-*%
%TO.N,GND*%
X151900000Y-90200000D03*
%TD*%
D17*
%TO.N,Net-(BT1-+)*%
X144026000Y-90200000D02*
X144026000Y-92526000D01*
X144026000Y-92526000D02*
X148500000Y-97000000D01*
X155200000Y-97000000D02*
X159774000Y-92426000D01*
X148500000Y-97000000D02*
X155200000Y-97000000D01*
X159774000Y-92426000D02*
X159774000Y-90200000D01*
X144026000Y-89126000D02*
X144026000Y-90200000D01*
X141200000Y-86300000D02*
X144026000Y-89126000D01*
%TO.N,Net-(D1-A)*%
X158000000Y-75000000D02*
X160100000Y-72900000D01*
X167900000Y-72900000D02*
X170000000Y-75000000D01*
X136040000Y-75000000D02*
X158000000Y-75000000D01*
X136040000Y-75000000D02*
X138500000Y-75000000D01*
X143300000Y-79800000D02*
X143300000Y-81600000D01*
X141600000Y-83300000D02*
X141200000Y-83300000D01*
X160100000Y-72900000D02*
X167900000Y-72900000D01*
X138500000Y-75000000D02*
X143300000Y-79800000D01*
X143300000Y-81600000D02*
X141600000Y-83300000D01*
%TD*%
%TA.AperFunction,Conductor*%
%TO.N,GND*%
G36*
X160030806Y-50013246D02*
G01*
X160551525Y-50048553D01*
X160565682Y-50050336D01*
X161012802Y-50133082D01*
X161084242Y-50146303D01*
X161097351Y-50149475D01*
X161609246Y-50303244D01*
X161621268Y-50307542D01*
X161769611Y-50369357D01*
X162121485Y-50515984D01*
X162132470Y-50521208D01*
X162615720Y-50780847D01*
X162625763Y-50786871D01*
X162914618Y-50979291D01*
X163086637Y-51093881D01*
X163095862Y-51100662D01*
X163528926Y-51450870D01*
X163537408Y-51458396D01*
X163937407Y-51847418D01*
X163945205Y-51855733D01*
X164307030Y-52278959D01*
X164314164Y-52288142D01*
X164501589Y-52554299D01*
X164582255Y-52668851D01*
X164632946Y-52740835D01*
X164639378Y-52750981D01*
X164680092Y-52822653D01*
X164910543Y-53228344D01*
X164916182Y-53239556D01*
X165135487Y-53736856D01*
X165140164Y-53749205D01*
X165303718Y-54261912D01*
X165307201Y-54275409D01*
X165411421Y-54799428D01*
X165413428Y-54813979D01*
X165454888Y-55345844D01*
X165455130Y-55361214D01*
X165430277Y-55898235D01*
X165428528Y-55914026D01*
X165333303Y-56454284D01*
X165329471Y-56469969D01*
X165158958Y-57012028D01*
X165153149Y-57027020D01*
X164901404Y-57569449D01*
X164893922Y-57583218D01*
X164554102Y-58124064D01*
X164545398Y-58136223D01*
X164110131Y-58672672D01*
X164100704Y-58683034D01*
X163562623Y-59211226D01*
X163552942Y-59219786D01*
X162904985Y-59735096D01*
X162895421Y-59741986D01*
X162122804Y-60244618D01*
X162122803Y-60244617D01*
X162119944Y-60246476D01*
X162074662Y-60272547D01*
X162064890Y-60282293D01*
X162054084Y-60289324D01*
X162054084Y-60289325D01*
X162053323Y-60289820D01*
X162053318Y-60289824D01*
X162020631Y-60326185D01*
X162015992Y-60331073D01*
X161981362Y-60365619D01*
X161981354Y-60365629D01*
X161980911Y-60366394D01*
X161980912Y-60366395D01*
X161974446Y-60377563D01*
X161965219Y-60387828D01*
X161941530Y-60434412D01*
X161939833Y-60437344D01*
X161939831Y-60437345D01*
X161915331Y-60479662D01*
X161915327Y-60479671D01*
X161915091Y-60480551D01*
X161911740Y-60492997D01*
X161905486Y-60505297D01*
X161894663Y-60556410D01*
X161893781Y-60559688D01*
X161893780Y-60559695D01*
X161881066Y-60606913D01*
X161881065Y-60606926D01*
X161881064Y-60607826D01*
X161878377Y-60633333D01*
X161878190Y-60634212D01*
X161878189Y-60634226D01*
X161880788Y-60683064D01*
X161880963Y-60689804D01*
X161880081Y-61410413D01*
X161880014Y-61414336D01*
X161857952Y-62085299D01*
X161857714Y-62089917D01*
X161814265Y-62708157D01*
X161813776Y-62713476D01*
X161748785Y-63284921D01*
X161747958Y-63290894D01*
X161661261Y-63821782D01*
X161660020Y-63828285D01*
X161551353Y-64325255D01*
X161549654Y-64332088D01*
X161418525Y-64802114D01*
X161416382Y-64809013D01*
X161261964Y-65259356D01*
X161259461Y-65266026D01*
X161080578Y-65703955D01*
X161077860Y-65710124D01*
X160873109Y-66142617D01*
X160870361Y-66148070D01*
X160638205Y-66581839D01*
X160635607Y-66586454D01*
X160374639Y-67027676D01*
X160372342Y-67031407D01*
X160081288Y-67486027D01*
X160079389Y-67488904D01*
X159758616Y-67960547D01*
X159756646Y-67963359D01*
X159032561Y-68967066D01*
X159032562Y-68967067D01*
X159028428Y-68972797D01*
X159003246Y-69000452D01*
X158990046Y-69026001D01*
X158984665Y-69033461D01*
X158973215Y-69049332D01*
X158962432Y-69077708D01*
X158962431Y-69077707D01*
X158959921Y-69084310D01*
X158942758Y-69117534D01*
X158936620Y-69145625D01*
X158933357Y-69154214D01*
X158933354Y-69154226D01*
X158926400Y-69172527D01*
X158926400Y-69172529D01*
X158925094Y-69185373D01*
X158922615Y-69209742D01*
X158914634Y-69246283D01*
X158915977Y-69275012D01*
X158915046Y-69284166D01*
X158915044Y-69284168D01*
X158913066Y-69303628D01*
X158913067Y-69303636D01*
X158917914Y-69333592D01*
X158919043Y-69340569D01*
X158920791Y-69377923D01*
X158929524Y-69405324D01*
X158930994Y-69414406D01*
X158934120Y-69433722D01*
X158934121Y-69433726D01*
X158946556Y-69461403D01*
X158951591Y-69474564D01*
X158959681Y-69499946D01*
X158960809Y-69503485D01*
X158976342Y-69527700D01*
X158988128Y-69553934D01*
X159011760Y-69582917D01*
X159031961Y-69614410D01*
X159053232Y-69633780D01*
X159071407Y-69656070D01*
X159101739Y-69677952D01*
X159106957Y-69682703D01*
X159129399Y-69703139D01*
X159129401Y-69703141D01*
X159146775Y-69712116D01*
X159162411Y-69721721D01*
X159178282Y-69733171D01*
X159206652Y-69743951D01*
X159219521Y-69749698D01*
X159361625Y-69823113D01*
X159673044Y-69984001D01*
X159674144Y-69984569D01*
X159675130Y-69985085D01*
X160033079Y-70174171D01*
X160035498Y-70175484D01*
X160171155Y-70251124D01*
X160173972Y-70252743D01*
X160289457Y-70321162D01*
X160293161Y-70323445D01*
X160392359Y-70387032D01*
X160396668Y-70389923D01*
X160486117Y-70452711D01*
X160490550Y-70455972D01*
X160496259Y-70460370D01*
X160577361Y-70522851D01*
X160581334Y-70526045D01*
X160672305Y-70602333D01*
X160675470Y-70605079D01*
X160776350Y-70695726D01*
X160778593Y-70697793D01*
X160857950Y-70772772D01*
X160892753Y-70805655D01*
X160894617Y-70807454D01*
X161185488Y-71094015D01*
X161186131Y-71094653D01*
X161488368Y-71396793D01*
X161538483Y-71446892D01*
X161545593Y-71457857D01*
X161584948Y-71493343D01*
X161587216Y-71495610D01*
X161622433Y-71530816D01*
X161622436Y-71530818D01*
X161622438Y-71530820D01*
X161633759Y-71537354D01*
X161643466Y-71546106D01*
X161690668Y-71570198D01*
X161736577Y-71596694D01*
X161749203Y-71600075D01*
X161760845Y-71606017D01*
X161812675Y-71617071D01*
X161815756Y-71617896D01*
X161815757Y-71617896D01*
X161815758Y-71617897D01*
X161848287Y-71626607D01*
X161863876Y-71630782D01*
X161876948Y-71630779D01*
X161889730Y-71633506D01*
X161942666Y-71630768D01*
X161995661Y-71630760D01*
X161995662Y-71630759D01*
X161995749Y-71630748D01*
X162021300Y-71626708D01*
X162021331Y-71626701D01*
X162021339Y-71626701D01*
X162071761Y-71610356D01*
X162122949Y-71596632D01*
X162134268Y-71590093D01*
X162146701Y-71586064D01*
X162188507Y-71558954D01*
X162193934Y-71555632D01*
X162237067Y-71530721D01*
X162246309Y-71521475D01*
X162257274Y-71514366D01*
X162292759Y-71475011D01*
X162330237Y-71437521D01*
X162330239Y-71437516D01*
X162330297Y-71437442D01*
X162345534Y-71416478D01*
X162586942Y-71148743D01*
X162592035Y-71143424D01*
X162872173Y-70867811D01*
X162877689Y-70862704D01*
X163068209Y-70696740D01*
X163163925Y-70613360D01*
X163169759Y-70608582D01*
X163461464Y-70384275D01*
X163467566Y-70379873D01*
X163764049Y-70179504D01*
X163770392Y-70175494D01*
X164071036Y-69997977D01*
X164077521Y-69994407D01*
X164381735Y-69838719D01*
X164388361Y-69835573D01*
X164695521Y-69700763D01*
X164702159Y-69698078D01*
X165011687Y-69583227D01*
X165018296Y-69580987D01*
X165329473Y-69485272D01*
X165336067Y-69483443D01*
X165648206Y-69406048D01*
X165654679Y-69404625D01*
X165967042Y-69344768D01*
X165973390Y-69343722D01*
X166285199Y-69300636D01*
X166291381Y-69299941D01*
X166601806Y-69272875D01*
X166607780Y-69272500D01*
X166915975Y-69260693D01*
X166921747Y-69260608D01*
X167225433Y-69263289D01*
X167231549Y-69263496D01*
X167536442Y-69281393D01*
X167542959Y-69281949D01*
X167843870Y-69315667D01*
X167850241Y-69316550D01*
X168147976Y-69365752D01*
X168154168Y-69366939D01*
X168448322Y-69431225D01*
X168454404Y-69432717D01*
X168744413Y-69511653D01*
X168750328Y-69513422D01*
X168939652Y-69575227D01*
X169035874Y-69606639D01*
X169041585Y-69608659D01*
X169228306Y-69679923D01*
X169322076Y-69715711D01*
X169327622Y-69717983D01*
X169602613Y-69838463D01*
X169607931Y-69840946D01*
X169876898Y-69974422D01*
X169882051Y-69977131D01*
X169933804Y-70005930D01*
X170144472Y-70123159D01*
X170149459Y-70126089D01*
X170229227Y-70175484D01*
X170404758Y-70284179D01*
X170409527Y-70287287D01*
X170657295Y-70457053D01*
X170661884Y-70460356D01*
X170765517Y-70538598D01*
X170901457Y-70641232D01*
X170905907Y-70644754D01*
X171136855Y-70836321D01*
X171141076Y-70839989D01*
X171362802Y-71041695D01*
X171366886Y-71045584D01*
X171578913Y-71256961D01*
X171582845Y-71261065D01*
X171784652Y-71481596D01*
X171788409Y-71485897D01*
X171979486Y-71715054D01*
X171983068Y-71719559D01*
X172162915Y-71956817D01*
X172166315Y-71961527D01*
X172334484Y-72206413D01*
X172337691Y-72211328D01*
X172493691Y-72463294D01*
X172496692Y-72468411D01*
X172640066Y-72726951D01*
X172642867Y-72732306D01*
X172773163Y-72996891D01*
X172775739Y-73002467D01*
X172892520Y-73272597D01*
X172894854Y-73278393D01*
X172997707Y-73553602D01*
X172999780Y-73559615D01*
X173088283Y-73839406D01*
X173090074Y-73845629D01*
X173163830Y-74129580D01*
X173165317Y-74136000D01*
X173182006Y-74217917D01*
X173208323Y-74347100D01*
X173223921Y-74423661D01*
X173225082Y-74430268D01*
X173268128Y-74721240D01*
X173268940Y-74728006D01*
X173296029Y-75021915D01*
X173296471Y-75028818D01*
X173307184Y-75325296D01*
X173307239Y-75332303D01*
X173301196Y-75628566D01*
X173300769Y-75636623D01*
X173261232Y-76098064D01*
X173260144Y-76106967D01*
X173184853Y-76580067D01*
X173183108Y-76588935D01*
X173070194Y-77069603D01*
X173067736Y-77078549D01*
X172915729Y-77560429D01*
X172912469Y-77569513D01*
X172795127Y-77860358D01*
X172720082Y-78046362D01*
X172715899Y-78055616D01*
X172478747Y-78527846D01*
X172474947Y-78534844D01*
X172345292Y-78756314D01*
X172342396Y-78761018D01*
X172198537Y-78983404D01*
X172195342Y-78988103D01*
X172040484Y-79205012D01*
X172036978Y-79209686D01*
X171870929Y-79420514D01*
X171867105Y-79425134D01*
X171689642Y-79629312D01*
X171685495Y-79633851D01*
X171496430Y-79830752D01*
X171491963Y-79835175D01*
X171291032Y-80024246D01*
X171286251Y-80028517D01*
X171073133Y-80209227D01*
X171068054Y-80213309D01*
X170842472Y-80385061D01*
X170837117Y-80388918D01*
X170598708Y-80551153D01*
X170593105Y-80554749D01*
X170341446Y-80706909D01*
X170335633Y-80710213D01*
X170070337Y-80851679D01*
X170064352Y-80854666D01*
X169784944Y-80984821D01*
X169778836Y-80987469D01*
X169484870Y-81105648D01*
X169478684Y-81107946D01*
X169169652Y-81213458D01*
X169163438Y-81215399D01*
X168838913Y-81307493D01*
X168832719Y-81309079D01*
X168492230Y-81386987D01*
X168486100Y-81388228D01*
X168129165Y-81451152D01*
X168123141Y-81452062D01*
X167749381Y-81499163D01*
X167743496Y-81499762D01*
X167362703Y-81529389D01*
X167362702Y-81529389D01*
X167357816Y-81529768D01*
X167311676Y-81529713D01*
X167292371Y-81534859D01*
X167281038Y-81535741D01*
X167281033Y-81535743D01*
X167272439Y-81536412D01*
X167272433Y-81536413D01*
X167233538Y-81550146D01*
X167228925Y-81551776D01*
X167184340Y-81563665D01*
X167167020Y-81573635D01*
X167156297Y-81577422D01*
X167156299Y-81577422D01*
X167148171Y-81580292D01*
X167148170Y-81580293D01*
X167114162Y-81603621D01*
X167105891Y-81608827D01*
X167070133Y-81629413D01*
X167064018Y-81635513D01*
X167064017Y-81635512D01*
X167055972Y-81643537D01*
X167039498Y-81654839D01*
X167009513Y-81689881D01*
X167006038Y-81693348D01*
X167006039Y-81693348D01*
X166976833Y-81722484D01*
X166976831Y-81722487D01*
X166972510Y-81729950D01*
X166959429Y-81748417D01*
X166953823Y-81754969D01*
X166953818Y-81754977D01*
X166936025Y-81792191D01*
X166936026Y-81792192D01*
X166933913Y-81796610D01*
X166910799Y-81836535D01*
X166905602Y-81855829D01*
X166900698Y-81866089D01*
X166900698Y-81866091D01*
X166896981Y-81873865D01*
X166889428Y-81914415D01*
X166887261Y-81923944D01*
X166876533Y-81963785D01*
X166876523Y-81972408D01*
X166876509Y-81983778D01*
X166872850Y-82003425D01*
X166876427Y-82049411D01*
X166876421Y-82054318D01*
X166875165Y-83077215D01*
X166875165Y-83077342D01*
X166874013Y-83589114D01*
X166873974Y-83591948D01*
X166861081Y-84105274D01*
X166860882Y-84109841D01*
X166827827Y-84642506D01*
X166827493Y-84646724D01*
X166801382Y-84917600D01*
X166801042Y-84920717D01*
X166766507Y-85203821D01*
X166766067Y-85207069D01*
X166722333Y-85500774D01*
X166721794Y-85504084D01*
X166667731Y-85810097D01*
X166667099Y-85813410D01*
X166601558Y-86133341D01*
X166600844Y-86136603D01*
X166536218Y-86413862D01*
X166533151Y-86427016D01*
X166528255Y-86437259D01*
X166518238Y-86490998D01*
X166517601Y-86493733D01*
X166505817Y-86544291D01*
X166505021Y-86552384D01*
X166504970Y-86552379D01*
X166504491Y-86558698D01*
X166504542Y-86558701D01*
X166504108Y-86566808D01*
X166508131Y-86618591D01*
X166508130Y-86618591D01*
X166508346Y-86621372D01*
X166510139Y-86676011D01*
X166513434Y-86686872D01*
X166514314Y-86698195D01*
X166514316Y-86698201D01*
X166531596Y-86747156D01*
X166533325Y-86752425D01*
X166548403Y-86802118D01*
X166554401Y-86811761D01*
X166558181Y-86822469D01*
X166589113Y-86867573D01*
X166618003Y-86914024D01*
X166618005Y-86914025D01*
X166618007Y-86914029D01*
X166623165Y-86920314D01*
X166623125Y-86920346D01*
X166627242Y-86925139D01*
X166627281Y-86925105D01*
X166632713Y-86931150D01*
X166672168Y-86964917D01*
X166672167Y-86964917D01*
X166674279Y-86966724D01*
X166714194Y-87004103D01*
X166724205Y-87009452D01*
X166732835Y-87016838D01*
X166732836Y-87016838D01*
X166732838Y-87016840D01*
X166782194Y-87040442D01*
X166830423Y-87066216D01*
X166841479Y-87068793D01*
X166851728Y-87073694D01*
X166902775Y-87083207D01*
X166908171Y-87084338D01*
X166958766Y-87096132D01*
X166958769Y-87096131D01*
X166958770Y-87096132D01*
X166966855Y-87096928D01*
X166966849Y-87096980D01*
X166983392Y-87098233D01*
X167296030Y-87156503D01*
X167300745Y-87157477D01*
X167653286Y-87237503D01*
X167658086Y-87238694D01*
X167752500Y-87264147D01*
X167995539Y-87329666D01*
X168000443Y-87331096D01*
X168315946Y-87430250D01*
X168323189Y-87432526D01*
X168328137Y-87434196D01*
X168636607Y-87545628D01*
X168641563Y-87547540D01*
X168866036Y-87639724D01*
X168936110Y-87668501D01*
X168941081Y-87670670D01*
X169222202Y-87800758D01*
X169227090Y-87803152D01*
X169325557Y-87854131D01*
X169495181Y-87941950D01*
X169500048Y-87944610D01*
X169755511Y-88091716D01*
X169760262Y-88094596D01*
X169853681Y-88154140D01*
X170003511Y-88249641D01*
X170008154Y-88252749D01*
X170239623Y-88415399D01*
X170244112Y-88418707D01*
X170464187Y-88588626D01*
X170468496Y-88592109D01*
X170677574Y-88768995D01*
X170681683Y-88772631D01*
X170880106Y-88956164D01*
X170883999Y-88959925D01*
X171072163Y-89149864D01*
X171075819Y-89153717D01*
X171098646Y-89178827D01*
X171253970Y-89349692D01*
X171257395Y-89353622D01*
X171425896Y-89555410D01*
X171429072Y-89559378D01*
X171548976Y-89715586D01*
X171584472Y-89761829D01*
X171588780Y-89767800D01*
X171883408Y-90202847D01*
X171888351Y-90210774D01*
X172144692Y-90658558D01*
X172148759Y-90666281D01*
X172372176Y-91129358D01*
X172375459Y-91136771D01*
X172567615Y-91612167D01*
X172570214Y-91619203D01*
X172732716Y-92103677D01*
X172734734Y-92110302D01*
X172869252Y-92600598D01*
X172870783Y-92606802D01*
X172978752Y-93098321D01*
X172979953Y-93104539D01*
X173047290Y-93508549D01*
X173048194Y-93515023D01*
X173093914Y-93919948D01*
X173094470Y-93926368D01*
X173119028Y-94332092D01*
X173119250Y-94338447D01*
X173122971Y-94744063D01*
X173122869Y-94750341D01*
X173106084Y-95154879D01*
X173105672Y-95161074D01*
X173068711Y-95563694D01*
X173067997Y-95569801D01*
X173011214Y-95969445D01*
X173010207Y-95975463D01*
X172933949Y-96371226D01*
X172932656Y-96377155D01*
X172837289Y-96768058D01*
X172835712Y-96773897D01*
X172721603Y-97158996D01*
X172719746Y-97164745D01*
X172587305Y-97543000D01*
X172585167Y-97548661D01*
X172434771Y-97919163D01*
X172432349Y-97924734D01*
X172264408Y-98286522D01*
X172261697Y-98292004D01*
X172076636Y-98644089D01*
X172073630Y-98649478D01*
X171871865Y-98990940D01*
X171868557Y-98996229D01*
X171650546Y-99326091D01*
X171646927Y-99331275D01*
X171413061Y-99648683D01*
X171409133Y-99653734D01*
X171272226Y-99820715D01*
X171159869Y-99957751D01*
X171155600Y-99962685D01*
X170891406Y-100252383D01*
X170886801Y-100257169D01*
X170608042Y-100531747D01*
X170603095Y-100536362D01*
X170310209Y-100794945D01*
X170304916Y-100799362D01*
X169998321Y-101041105D01*
X169992684Y-101045296D01*
X169672703Y-101269421D01*
X169666728Y-101273354D01*
X169333752Y-101479029D01*
X169327453Y-101482669D01*
X168981754Y-101669128D01*
X168975149Y-101672440D01*
X168617022Y-101838877D01*
X168610141Y-101841826D01*
X168239806Y-101987456D01*
X168232682Y-101990009D01*
X167850330Y-102114017D01*
X167843008Y-102116146D01*
X167448773Y-102217703D01*
X167441303Y-102219383D01*
X167035341Y-102297612D01*
X167027779Y-102298828D01*
X166610190Y-102352822D01*
X166602594Y-102353568D01*
X166171761Y-102382489D01*
X166164858Y-102382759D01*
X165698989Y-102388025D01*
X165692342Y-102387922D01*
X165221714Y-102367998D01*
X165214521Y-102367484D01*
X164740915Y-102319737D01*
X164733284Y-102318727D01*
X164256135Y-102240469D01*
X164248206Y-102238902D01*
X163766740Y-102127308D01*
X163758672Y-102125149D01*
X163272155Y-101977251D01*
X163264120Y-101974505D01*
X162771666Y-101787110D01*
X162763828Y-101783815D01*
X162264735Y-101553592D01*
X162257239Y-101549822D01*
X161750830Y-101273253D01*
X161743795Y-101269104D01*
X161229654Y-100942628D01*
X161223159Y-100938209D01*
X160835487Y-100656079D01*
X160700957Y-100558174D01*
X160695055Y-100553601D01*
X160164711Y-100116425D01*
X160159430Y-100111813D01*
X159810254Y-99788960D01*
X159620986Y-99613959D01*
X159616261Y-99609352D01*
X159076090Y-99053759D01*
X159069830Y-99047319D01*
X159065662Y-99042814D01*
X159024656Y-98996229D01*
X158511495Y-98413253D01*
X158507858Y-98408925D01*
X157938764Y-97699241D01*
X157898598Y-97648627D01*
X157897557Y-97647854D01*
X157896745Y-97646842D01*
X157885063Y-97638269D01*
X157854239Y-97615647D01*
X157844827Y-97608740D01*
X157844826Y-97608739D01*
X157844556Y-97608540D01*
X157792753Y-97570116D01*
X157791552Y-97569641D01*
X157790504Y-97568872D01*
X157730509Y-97545512D01*
X157730509Y-97545511D01*
X157729990Y-97545309D01*
X157670194Y-97521675D01*
X157668904Y-97521526D01*
X157667696Y-97521056D01*
X157667694Y-97521055D01*
X157667692Y-97521055D01*
X157603973Y-97514050D01*
X157603347Y-97513980D01*
X157539269Y-97506605D01*
X157537762Y-97506629D01*
X157537753Y-97506630D01*
X157536755Y-97506646D01*
X157473200Y-97516400D01*
X157472577Y-97516494D01*
X155845167Y-97757794D01*
X155842293Y-97758186D01*
X155622145Y-97785583D01*
X155553188Y-97774328D01*
X155501262Y-97727579D01*
X155482854Y-97660178D01*
X155503808Y-97593524D01*
X155537941Y-97559430D01*
X155616200Y-97507141D01*
X160281141Y-92842199D01*
X160352592Y-92735264D01*
X160401809Y-92616444D01*
X160409406Y-92578251D01*
X160426900Y-92490305D01*
X160426900Y-92405546D01*
X160427570Y-92399127D01*
X160438488Y-92372534D01*
X160446585Y-92344960D01*
X160451590Y-92340622D01*
X160454107Y-92334493D01*
X160477670Y-92318024D01*
X160499389Y-92299205D01*
X160506950Y-92297560D01*
X160511376Y-92294467D01*
X160523295Y-92294004D01*
X160550900Y-92287999D01*
X161409371Y-92287999D01*
X161409372Y-92287999D01*
X161468983Y-92281591D01*
X161603831Y-92231296D01*
X161719046Y-92145046D01*
X161805296Y-92029831D01*
X161855591Y-91894983D01*
X161862000Y-91835373D01*
X161861999Y-88564628D01*
X161855591Y-88505017D01*
X161848809Y-88486834D01*
X161805297Y-88370171D01*
X161805293Y-88370164D01*
X161719047Y-88254955D01*
X161719044Y-88254952D01*
X161603835Y-88168706D01*
X161603828Y-88168702D01*
X161468982Y-88118408D01*
X161468983Y-88118408D01*
X161409383Y-88112001D01*
X161409381Y-88112000D01*
X161409373Y-88112000D01*
X161409364Y-88112000D01*
X158138629Y-88112000D01*
X158138623Y-88112001D01*
X158079016Y-88118408D01*
X157944171Y-88168702D01*
X157944164Y-88168706D01*
X157828955Y-88254952D01*
X157828952Y-88254955D01*
X157742706Y-88370164D01*
X157742702Y-88370171D01*
X157692408Y-88505017D01*
X157686761Y-88557546D01*
X157686001Y-88564623D01*
X157686000Y-88564635D01*
X157686000Y-91835370D01*
X157686001Y-91835376D01*
X157692408Y-91894983D01*
X157742702Y-92029828D01*
X157742706Y-92029835D01*
X157828952Y-92145044D01*
X157828955Y-92145047D01*
X157944164Y-92231293D01*
X157944171Y-92231297D01*
X158079017Y-92281591D01*
X158079016Y-92281591D01*
X158085944Y-92282335D01*
X158138627Y-92288000D01*
X158689298Y-92287999D01*
X158756336Y-92307683D01*
X158802091Y-92360487D01*
X158812035Y-92429646D01*
X158783010Y-92493202D01*
X158776978Y-92499680D01*
X154965878Y-96310781D01*
X154904555Y-96344266D01*
X154878197Y-96347100D01*
X148821802Y-96347100D01*
X148754763Y-96327415D01*
X148734121Y-96310781D01*
X145432763Y-93009422D01*
X145393896Y-92970555D01*
X149482995Y-92970555D01*
X149482995Y-92970556D01*
X149708161Y-93155344D01*
X149708173Y-93155352D01*
X150008387Y-93355949D01*
X150008405Y-93355960D01*
X150326832Y-93526163D01*
X150326837Y-93526165D01*
X150660435Y-93664346D01*
X151005976Y-93769165D01*
X151360116Y-93839608D01*
X151360115Y-93839608D01*
X151719462Y-93875000D01*
X152080538Y-93875000D01*
X152439884Y-93839608D01*
X152794023Y-93769165D01*
X153139564Y-93664346D01*
X153473162Y-93526165D01*
X153473167Y-93526163D01*
X153791594Y-93355960D01*
X153791612Y-93355949D01*
X154091826Y-93155352D01*
X154091840Y-93155342D01*
X154317003Y-92970555D01*
X151900000Y-90553553D01*
X149482995Y-92970555D01*
X145393896Y-92970555D01*
X144923021Y-92499680D01*
X144889536Y-92438357D01*
X144894520Y-92368665D01*
X144936392Y-92312732D01*
X145001856Y-92288315D01*
X145010702Y-92287999D01*
X145661371Y-92287999D01*
X145661372Y-92287999D01*
X145720983Y-92281591D01*
X145855831Y-92231296D01*
X145971046Y-92145046D01*
X146057296Y-92029831D01*
X146107591Y-91894983D01*
X146114000Y-91835373D01*
X146113999Y-90019462D01*
X148225000Y-90019462D01*
X148225000Y-90380537D01*
X148260391Y-90739884D01*
X148330834Y-91094023D01*
X148435653Y-91439564D01*
X148573834Y-91773162D01*
X148573836Y-91773167D01*
X148744039Y-92091594D01*
X148744050Y-92091612D01*
X148944647Y-92391826D01*
X148944655Y-92391838D01*
X149129443Y-92617003D01*
X151546446Y-90200001D01*
X151546446Y-90199999D01*
X152253553Y-90199999D01*
X152253553Y-90200000D01*
X154670555Y-92617003D01*
X154855342Y-92391840D01*
X154855352Y-92391826D01*
X155055949Y-92091612D01*
X155055960Y-92091594D01*
X155226163Y-91773167D01*
X155226165Y-91773162D01*
X155364346Y-91439564D01*
X155469165Y-91094023D01*
X155539608Y-90739884D01*
X155575000Y-90380537D01*
X155575000Y-90019462D01*
X155539608Y-89660115D01*
X155469165Y-89305976D01*
X155364346Y-88960435D01*
X155226165Y-88626837D01*
X155226163Y-88626832D01*
X155055960Y-88308405D01*
X155055949Y-88308387D01*
X154855352Y-88008173D01*
X154855344Y-88008161D01*
X154670555Y-87782995D01*
X152253553Y-90199999D01*
X151546446Y-90199999D01*
X149129444Y-87782996D01*
X149129442Y-87782996D01*
X148944653Y-88008164D01*
X148944650Y-88008168D01*
X148744050Y-88308387D01*
X148744039Y-88308405D01*
X148573836Y-88626832D01*
X148573834Y-88626837D01*
X148435653Y-88960435D01*
X148330834Y-89305976D01*
X148260391Y-89660115D01*
X148225000Y-90019462D01*
X146113999Y-90019462D01*
X146113999Y-88564628D01*
X146107591Y-88505017D01*
X146100809Y-88486834D01*
X146057297Y-88370171D01*
X146057293Y-88370164D01*
X145971047Y-88254955D01*
X145971044Y-88254952D01*
X145855835Y-88168706D01*
X145855828Y-88168702D01*
X145720982Y-88118408D01*
X145720983Y-88118408D01*
X145661383Y-88112001D01*
X145661381Y-88112000D01*
X145661373Y-88112000D01*
X145661365Y-88112000D01*
X143986702Y-88112000D01*
X143919663Y-88092315D01*
X143899021Y-88075681D01*
X143252782Y-87429442D01*
X149482996Y-87429442D01*
X149482996Y-87429444D01*
X151899999Y-89846446D01*
X154317003Y-87429443D01*
X154317003Y-87429442D01*
X154091838Y-87244655D01*
X154091826Y-87244647D01*
X153791612Y-87044050D01*
X153791594Y-87044039D01*
X153473167Y-86873836D01*
X153473162Y-86873834D01*
X153139564Y-86735653D01*
X152794023Y-86630834D01*
X152439883Y-86560391D01*
X152439884Y-86560391D01*
X152080538Y-86525000D01*
X151719462Y-86525000D01*
X151360115Y-86560391D01*
X151005976Y-86630834D01*
X150660435Y-86735653D01*
X150326837Y-86873834D01*
X150326832Y-86873836D01*
X150008405Y-87044039D01*
X150008387Y-87044050D01*
X149708168Y-87244650D01*
X149708164Y-87244653D01*
X149482996Y-87429442D01*
X143252782Y-87429442D01*
X142486818Y-86663478D01*
X142453333Y-86602155D01*
X142450499Y-86575797D01*
X142450499Y-85902129D01*
X142450498Y-85902123D01*
X142448315Y-85881817D01*
X142444091Y-85842517D01*
X142432617Y-85811754D01*
X142393797Y-85707671D01*
X142393793Y-85707664D01*
X142307547Y-85592455D01*
X142307544Y-85592452D01*
X142192335Y-85506206D01*
X142192328Y-85506202D01*
X142057482Y-85455908D01*
X142057483Y-85455908D01*
X141997883Y-85449501D01*
X141997881Y-85449500D01*
X141997873Y-85449500D01*
X141997864Y-85449500D01*
X140402129Y-85449500D01*
X140402123Y-85449501D01*
X140342518Y-85455908D01*
X140286327Y-85476866D01*
X140216635Y-85481849D01*
X140155312Y-85448363D01*
X140121828Y-85387039D01*
X140121395Y-85384961D01*
X140113580Y-85345672D01*
X140113578Y-85345667D01*
X140060778Y-85218195D01*
X140060771Y-85218182D01*
X139984114Y-85103458D01*
X139984111Y-85103454D01*
X139886545Y-85005888D01*
X139886541Y-85005885D01*
X139771817Y-84929228D01*
X139771804Y-84929221D01*
X139644332Y-84876421D01*
X139644322Y-84876418D01*
X139508995Y-84849500D01*
X139508993Y-84849500D01*
X139371007Y-84849500D01*
X139371005Y-84849500D01*
X139235677Y-84876418D01*
X139235667Y-84876421D01*
X139108195Y-84929221D01*
X139108182Y-84929228D01*
X138993458Y-85005885D01*
X138993454Y-85005888D01*
X138895888Y-85103454D01*
X138895885Y-85103458D01*
X138819228Y-85218182D01*
X138819221Y-85218195D01*
X138766421Y-85345667D01*
X138766418Y-85345677D01*
X138739500Y-85481004D01*
X138739500Y-85481007D01*
X138739500Y-85618993D01*
X138739500Y-85618995D01*
X138739499Y-85618995D01*
X138766418Y-85754322D01*
X138766421Y-85754332D01*
X138819221Y-85881804D01*
X138819228Y-85881817D01*
X138895885Y-85996541D01*
X138895888Y-85996545D01*
X138993454Y-86094111D01*
X138993458Y-86094114D01*
X139108182Y-86170771D01*
X139108195Y-86170778D01*
X139235667Y-86223578D01*
X139235672Y-86223580D01*
X139235676Y-86223580D01*
X139235677Y-86223581D01*
X139371004Y-86250500D01*
X139371007Y-86250500D01*
X139508995Y-86250500D01*
X139600041Y-86232389D01*
X139644328Y-86223580D01*
X139692768Y-86203515D01*
X139777440Y-86168444D01*
X139778486Y-86170969D01*
X139835289Y-86159066D01*
X139900565Y-86183981D01*
X139942009Y-86240233D01*
X139949500Y-86282679D01*
X139949500Y-86662819D01*
X139929815Y-86729858D01*
X139899812Y-86762085D01*
X139792452Y-86842455D01*
X139706206Y-86957664D01*
X139706202Y-86957671D01*
X139655908Y-87092517D01*
X139649501Y-87152116D01*
X139649501Y-87152123D01*
X139649500Y-87152135D01*
X139649500Y-88247870D01*
X139649501Y-88247876D01*
X139655908Y-88307483D01*
X139706202Y-88442328D01*
X139706206Y-88442335D01*
X139792452Y-88557544D01*
X139792455Y-88557547D01*
X139907664Y-88643793D01*
X139907671Y-88643797D01*
X140042517Y-88694091D01*
X140042516Y-88694091D01*
X140049444Y-88694835D01*
X140102127Y-88700500D01*
X140997872Y-88700499D01*
X141057483Y-88694091D01*
X141192331Y-88643796D01*
X141307546Y-88557546D01*
X141393796Y-88442331D01*
X141444091Y-88307483D01*
X141450500Y-88247873D01*
X141450499Y-87773200D01*
X141470183Y-87706163D01*
X141522987Y-87660408D01*
X141592146Y-87650464D01*
X141655702Y-87679489D01*
X141662180Y-87685521D01*
X142069477Y-88092817D01*
X142102962Y-88154140D01*
X142097978Y-88223831D01*
X142081062Y-88254809D01*
X141994706Y-88370164D01*
X141994702Y-88370171D01*
X141944408Y-88505017D01*
X141938761Y-88557546D01*
X141938001Y-88564623D01*
X141938000Y-88564635D01*
X141938000Y-91835370D01*
X141938001Y-91835376D01*
X141944408Y-91894983D01*
X141994702Y-92029828D01*
X141994706Y-92029835D01*
X142080952Y-92145044D01*
X142080955Y-92145047D01*
X142196164Y-92231293D01*
X142196171Y-92231297D01*
X142331017Y-92281591D01*
X142331016Y-92281591D01*
X142337944Y-92282335D01*
X142390627Y-92288000D01*
X143249100Y-92287999D01*
X143316139Y-92307683D01*
X143361894Y-92360487D01*
X143373100Y-92411999D01*
X143373100Y-92590306D01*
X143382500Y-92637559D01*
X143382500Y-92637561D01*
X143398189Y-92716436D01*
X143398191Y-92716444D01*
X143405986Y-92735264D01*
X143447408Y-92835264D01*
X143465399Y-92862190D01*
X143518862Y-92942204D01*
X143518863Y-92942205D01*
X148083796Y-97507137D01*
X148083797Y-97507138D01*
X148083800Y-97507140D01*
X148177060Y-97569454D01*
X148190736Y-97578592D01*
X148309556Y-97627809D01*
X148309560Y-97627809D01*
X148309561Y-97627810D01*
X148435692Y-97652900D01*
X154687844Y-97652900D01*
X154754883Y-97672585D01*
X154800638Y-97725389D01*
X154810582Y-97794547D01*
X154781557Y-97858103D01*
X154722779Y-97895877D01*
X154703157Y-97899951D01*
X154396841Y-97938071D01*
X154392223Y-97938558D01*
X153049980Y-98054761D01*
X153045572Y-98055064D01*
X152396891Y-98087997D01*
X152393658Y-98088118D01*
X151739903Y-98104223D01*
X151736604Y-98104261D01*
X151071257Y-98102946D01*
X151068030Y-98102897D01*
X150381566Y-98083668D01*
X150378532Y-98083546D01*
X149661319Y-98045861D01*
X149658565Y-98045686D01*
X148903786Y-97989162D01*
X148900299Y-97988851D01*
X147224623Y-97815682D01*
X147221191Y-97815279D01*
X145295924Y-97561907D01*
X145295924Y-97561906D01*
X145291409Y-97561312D01*
X145244812Y-97551676D01*
X145226318Y-97552747D01*
X145214680Y-97551215D01*
X145214679Y-97551215D01*
X145207958Y-97550331D01*
X145207953Y-97550331D01*
X145165248Y-97555954D01*
X145165247Y-97555953D01*
X145160741Y-97556546D01*
X145113249Y-97559299D01*
X145095671Y-97565117D01*
X145084034Y-97566650D01*
X145084033Y-97566651D01*
X145077297Y-97567538D01*
X145037519Y-97584017D01*
X145029033Y-97587175D01*
X144988140Y-97600712D01*
X144983181Y-97603971D01*
X144982462Y-97604445D01*
X144982460Y-97604446D01*
X144982459Y-97604445D01*
X144972656Y-97610888D01*
X144955550Y-97617976D01*
X144917799Y-97646945D01*
X144914012Y-97649434D01*
X144914009Y-97649434D01*
X144878016Y-97673094D01*
X144878008Y-97673101D01*
X144873495Y-97678168D01*
X144873496Y-97678169D01*
X144865692Y-97686933D01*
X144851002Y-97698207D01*
X144822031Y-97735964D01*
X144819017Y-97739350D01*
X144819014Y-97739351D01*
X144790374Y-97771515D01*
X144787323Y-97777586D01*
X144782054Y-97788068D01*
X144770782Y-97802761D01*
X144752576Y-97846715D01*
X144750533Y-97850782D01*
X144750534Y-97850782D01*
X144591229Y-98167748D01*
X144588997Y-98171982D01*
X144417812Y-98482143D01*
X144415370Y-98486370D01*
X144237693Y-98780317D01*
X144235041Y-98784513D01*
X144051257Y-99062759D01*
X144048415Y-99066877D01*
X143858851Y-99330001D01*
X143855794Y-99334065D01*
X143660860Y-99582490D01*
X143657618Y-99586452D01*
X143457636Y-99820715D01*
X143454219Y-99824553D01*
X143249525Y-100045133D01*
X143245954Y-100048825D01*
X143036815Y-100256259D01*
X143033107Y-100259788D01*
X142819857Y-100454513D01*
X142816034Y-100457863D01*
X142598935Y-100640365D01*
X142595022Y-100643521D01*
X142374372Y-100814232D01*
X142370390Y-100817187D01*
X142146487Y-100976525D01*
X142142462Y-100979272D01*
X141920453Y-101124470D01*
X141914409Y-101128181D01*
X141447419Y-101396796D01*
X141439382Y-101401035D01*
X140969335Y-101627339D01*
X140961499Y-101630783D01*
X140485577Y-101820681D01*
X140478060Y-101823403D01*
X139998913Y-101979620D01*
X139991800Y-101981706D01*
X139512329Y-102106888D01*
X139505676Y-102108431D01*
X139028839Y-102205238D01*
X139022674Y-102206328D01*
X138551645Y-102277421D01*
X138545977Y-102278144D01*
X138083890Y-102326245D01*
X138078720Y-102326674D01*
X137632754Y-102354304D01*
X137626519Y-102354533D01*
X137212906Y-102359313D01*
X137205324Y-102359168D01*
X136800556Y-102339072D01*
X136793054Y-102338471D01*
X136394100Y-102294281D01*
X136386721Y-102293239D01*
X135994007Y-102225657D01*
X135986793Y-102224194D01*
X135600854Y-102133915D01*
X135593838Y-102132055D01*
X135215264Y-102019769D01*
X135208470Y-102017539D01*
X134892452Y-101903611D01*
X134837765Y-101883896D01*
X134831219Y-101881325D01*
X134468985Y-101726992D01*
X134462693Y-101724101D01*
X134109577Y-101549759D01*
X134103552Y-101546575D01*
X133760239Y-101352924D01*
X133754487Y-101349471D01*
X133421595Y-101137180D01*
X133416115Y-101133476D01*
X133403527Y-101124470D01*
X133268203Y-101027649D01*
X133094362Y-100903271D01*
X133089156Y-100899335D01*
X132779243Y-100651946D01*
X132774308Y-100647792D01*
X132476880Y-100383911D01*
X132472212Y-100379549D01*
X132188070Y-100100010D01*
X132183667Y-100095452D01*
X132035379Y-99933846D01*
X131913407Y-99800920D01*
X131909290Y-99796197D01*
X131653683Y-99487515D01*
X131649802Y-99482579D01*
X131526562Y-99317390D01*
X131409516Y-99160503D01*
X131405917Y-99155416D01*
X131181649Y-98820753D01*
X131178295Y-98815462D01*
X131163841Y-98791337D01*
X130970716Y-98468990D01*
X130967623Y-98463517D01*
X130923620Y-98380823D01*
X130777423Y-98106075D01*
X130774595Y-98100418D01*
X130748962Y-98045686D01*
X130602387Y-97732717D01*
X130599856Y-97726931D01*
X130446314Y-97349820D01*
X130444049Y-97343815D01*
X130436249Y-97321400D01*
X130309819Y-96958101D01*
X130307855Y-96951943D01*
X130193537Y-96558319D01*
X130191885Y-96552011D01*
X130159620Y-96414126D01*
X130128314Y-96280335D01*
X130098121Y-96151303D01*
X130096786Y-96144823D01*
X130066580Y-95975463D01*
X130024179Y-95737726D01*
X130023191Y-95731164D01*
X129972357Y-95318413D01*
X129971722Y-95311774D01*
X129943275Y-94894038D01*
X129943001Y-94887249D01*
X129942897Y-94879158D01*
X129937573Y-94465329D01*
X129937676Y-94458447D01*
X129940980Y-94381271D01*
X129955892Y-94032919D01*
X129956382Y-94026032D01*
X129999034Y-93596106D01*
X129999825Y-93589801D01*
X130075136Y-93093903D01*
X130076286Y-93087480D01*
X130092392Y-93009422D01*
X130177000Y-92599345D01*
X130178738Y-92592046D01*
X130205463Y-92493202D01*
X130307833Y-92114580D01*
X130310295Y-92106569D01*
X130471103Y-91640308D01*
X130474431Y-91631716D01*
X130670405Y-91176926D01*
X130674691Y-91167984D01*
X130909623Y-90724517D01*
X130914887Y-90715520D01*
X131192914Y-90283174D01*
X131199077Y-90274444D01*
X131529002Y-89847543D01*
X131534112Y-89841358D01*
X131711986Y-89639712D01*
X131715573Y-89635817D01*
X131911755Y-89431827D01*
X131915454Y-89428141D01*
X132126138Y-89226934D01*
X132129879Y-89223507D01*
X132355764Y-89025140D01*
X132359557Y-89021944D01*
X132601229Y-88826596D01*
X132605098Y-88823593D01*
X132863280Y-88631350D01*
X132867076Y-88628636D01*
X133142415Y-88439667D01*
X133146193Y-88437176D01*
X133439250Y-88251710D01*
X133443016Y-88249420D01*
X133754470Y-88067614D01*
X133758102Y-88065578D01*
X134088545Y-87887653D01*
X134092115Y-87885806D01*
X134442088Y-87712002D01*
X134445561Y-87710344D01*
X134811501Y-87542782D01*
X134816543Y-87540608D01*
X135623618Y-87213824D01*
X135629889Y-87211481D01*
X135803043Y-87152135D01*
X137439500Y-87152135D01*
X137439500Y-88247870D01*
X137439501Y-88247876D01*
X137445908Y-88307483D01*
X137496202Y-88442328D01*
X137496206Y-88442335D01*
X137582452Y-88557544D01*
X137582455Y-88557547D01*
X137697664Y-88643793D01*
X137697671Y-88643797D01*
X137832517Y-88694091D01*
X137832516Y-88694091D01*
X137839444Y-88694835D01*
X137892127Y-88700500D01*
X138787872Y-88700499D01*
X138847483Y-88694091D01*
X138982331Y-88643796D01*
X139097546Y-88557546D01*
X139183796Y-88442331D01*
X139234091Y-88307483D01*
X139240500Y-88247873D01*
X139240499Y-87152128D01*
X139234091Y-87092517D01*
X139231042Y-87084343D01*
X139183797Y-86957671D01*
X139183793Y-86957664D01*
X139097547Y-86842455D01*
X139097544Y-86842452D01*
X138982335Y-86756206D01*
X138982328Y-86756202D01*
X138847482Y-86705908D01*
X138847483Y-86705908D01*
X138787883Y-86699501D01*
X138787881Y-86699500D01*
X138787873Y-86699500D01*
X138787864Y-86699500D01*
X137892129Y-86699500D01*
X137892123Y-86699501D01*
X137832516Y-86705908D01*
X137697671Y-86756202D01*
X137697664Y-86756206D01*
X137582455Y-86842452D01*
X137582452Y-86842455D01*
X137496206Y-86957664D01*
X137496202Y-86957671D01*
X137445908Y-87092517D01*
X137439501Y-87152116D01*
X137439501Y-87152123D01*
X137439500Y-87152135D01*
X135803043Y-87152135D01*
X136524463Y-86904879D01*
X136578015Y-86888882D01*
X136586641Y-86883568D01*
X136596230Y-86880282D01*
X136640617Y-86850433D01*
X136644682Y-86847816D01*
X136690221Y-86819767D01*
X136697180Y-86812399D01*
X136705589Y-86806745D01*
X136742321Y-86764610D01*
X136780714Y-86723965D01*
X136785529Y-86715046D01*
X136792188Y-86707409D01*
X136816760Y-86657208D01*
X136843329Y-86608006D01*
X136844719Y-86602155D01*
X136845672Y-86598141D01*
X136850127Y-86589044D01*
X136860870Y-86534191D01*
X136873798Y-86479792D01*
X136873509Y-86469661D01*
X136875457Y-86459717D01*
X136871636Y-86403941D01*
X136870044Y-86348062D01*
X136870042Y-86348055D01*
X136868753Y-86340033D01*
X136868998Y-86339993D01*
X136868304Y-86336167D01*
X136868062Y-86336216D01*
X136866451Y-86328243D01*
X136866451Y-86328241D01*
X136851097Y-86283442D01*
X136849122Y-86277679D01*
X136847612Y-86272969D01*
X136816388Y-86168444D01*
X136762470Y-85987950D01*
X136761343Y-85983929D01*
X136740789Y-85905533D01*
X136666732Y-85623065D01*
X136665429Y-85617590D01*
X136629425Y-85449500D01*
X136573497Y-85188389D01*
X136572575Y-85183625D01*
X136532722Y-84953328D01*
X136532160Y-84949771D01*
X136496885Y-84702341D01*
X136496397Y-84698479D01*
X136467798Y-84438659D01*
X136467415Y-84434529D01*
X136446917Y-84163197D01*
X136446661Y-84158700D01*
X136446419Y-84152480D01*
X136435693Y-83876930D01*
X136435600Y-83872192D01*
X136435560Y-83580690D01*
X136435664Y-83575620D01*
X136436395Y-83557757D01*
X136447951Y-83275394D01*
X136448283Y-83270090D01*
X136474300Y-82961869D01*
X136474898Y-82956308D01*
X136516031Y-82641016D01*
X136516922Y-82635266D01*
X136567514Y-82353038D01*
X136571532Y-82343494D01*
X136579115Y-82288320D01*
X136588941Y-82233512D01*
X136588941Y-82233508D01*
X136588067Y-82223189D01*
X136589478Y-82212937D01*
X136582524Y-82157690D01*
X136577829Y-82102197D01*
X136574314Y-82092455D01*
X136573022Y-82082184D01*
X136552005Y-82030617D01*
X136533108Y-81978233D01*
X136529054Y-81972408D01*
X136527192Y-81969733D01*
X136523286Y-81960147D01*
X136489638Y-81915774D01*
X136457826Y-81870066D01*
X136449913Y-81863387D01*
X136443658Y-81855139D01*
X136399696Y-81821005D01*
X136397750Y-81819363D01*
X136397749Y-81819361D01*
X136357120Y-81785073D01*
X136357116Y-81785071D01*
X136347742Y-81780667D01*
X136339566Y-81774319D01*
X136288248Y-81752719D01*
X136285958Y-81751643D01*
X136285957Y-81751642D01*
X136237839Y-81729037D01*
X136237835Y-81729036D01*
X136227641Y-81727208D01*
X136218103Y-81723194D01*
X136162993Y-81715618D01*
X136160471Y-81715166D01*
X136160467Y-81715166D01*
X136108122Y-81705784D01*
X136099998Y-81705406D01*
X136100007Y-81705197D01*
X136084170Y-81704783D01*
X135803573Y-81666212D01*
X135799470Y-81665578D01*
X135472874Y-81609486D01*
X135468679Y-81608691D01*
X135154446Y-81543512D01*
X135150170Y-81542546D01*
X134848102Y-81468666D01*
X134843759Y-81467520D01*
X134553570Y-81385300D01*
X134549176Y-81383966D01*
X134270682Y-81293793D01*
X134266250Y-81292265D01*
X133999104Y-81194465D01*
X133994657Y-81192739D01*
X133738691Y-81087699D01*
X133734245Y-81085773D01*
X133489053Y-80973770D01*
X133484630Y-80971642D01*
X133250084Y-80853067D01*
X133245704Y-80850742D01*
X133021430Y-80725860D01*
X133017114Y-80723341D01*
X132802912Y-80592492D01*
X132798681Y-80589789D01*
X132594189Y-80453206D01*
X132590061Y-80450326D01*
X132395047Y-80308300D01*
X132391043Y-80305257D01*
X132205290Y-80158087D01*
X132201424Y-80154895D01*
X132024632Y-80002798D01*
X132020920Y-79999472D01*
X131956612Y-79939484D01*
X131956606Y-79939480D01*
X131862971Y-79852135D01*
X137439500Y-79852135D01*
X137439500Y-80947870D01*
X137439501Y-80947876D01*
X137445908Y-81007483D01*
X137496202Y-81142328D01*
X137496206Y-81142335D01*
X137582452Y-81257544D01*
X137582455Y-81257547D01*
X137697664Y-81343793D01*
X137697671Y-81343797D01*
X137832517Y-81394091D01*
X137832516Y-81394091D01*
X137839444Y-81394835D01*
X137892127Y-81400500D01*
X138787872Y-81400499D01*
X138847483Y-81394091D01*
X138982331Y-81343796D01*
X139097546Y-81257546D01*
X139183796Y-81142331D01*
X139234091Y-81007483D01*
X139240500Y-80947873D01*
X139240499Y-79852128D01*
X139234091Y-79792517D01*
X139224093Y-79765712D01*
X139183797Y-79657671D01*
X139183793Y-79657664D01*
X139097547Y-79542455D01*
X139097544Y-79542452D01*
X138982335Y-79456206D01*
X138982328Y-79456202D01*
X138847482Y-79405908D01*
X138847483Y-79405908D01*
X138787883Y-79399501D01*
X138787881Y-79399500D01*
X138787873Y-79399500D01*
X138787864Y-79399500D01*
X137892129Y-79399500D01*
X137892123Y-79399501D01*
X137832516Y-79405908D01*
X137697671Y-79456202D01*
X137697664Y-79456206D01*
X137582455Y-79542452D01*
X137582452Y-79542455D01*
X137496206Y-79657664D01*
X137496202Y-79657671D01*
X137445908Y-79792517D01*
X137440692Y-79841041D01*
X137439501Y-79852123D01*
X137439500Y-79852135D01*
X131862971Y-79852135D01*
X131852879Y-79842721D01*
X131849332Y-79839277D01*
X131689807Y-79678106D01*
X131686436Y-79674563D01*
X131535200Y-79509205D01*
X131532011Y-79505580D01*
X131388879Y-79336296D01*
X131385878Y-79332605D01*
X131250644Y-79159618D01*
X131247833Y-79155879D01*
X131123641Y-78984031D01*
X131119822Y-78978427D01*
X130884121Y-78611246D01*
X130879632Y-78603672D01*
X130826186Y-78505742D01*
X130676185Y-78230890D01*
X130672402Y-78223361D01*
X130496810Y-77842118D01*
X130493686Y-77834712D01*
X130344887Y-77447386D01*
X130342361Y-77440151D01*
X130284348Y-77255861D01*
X130218737Y-77047436D01*
X130216931Y-77041115D01*
X130200385Y-76976803D01*
X130142712Y-76752630D01*
X130141411Y-76747041D01*
X130080804Y-76456324D01*
X130079765Y-76450690D01*
X130066159Y-76366015D01*
X130033097Y-76160265D01*
X130032329Y-76154665D01*
X129999379Y-75864878D01*
X129998867Y-75859212D01*
X129991586Y-75751030D01*
X129979444Y-75570620D01*
X129979193Y-75564950D01*
X129979041Y-75557800D01*
X129973082Y-75277886D01*
X129973090Y-75272258D01*
X129980094Y-74987129D01*
X129980361Y-74981521D01*
X130000275Y-74698866D01*
X130000797Y-74693274D01*
X130033423Y-74413462D01*
X130034208Y-74407860D01*
X130079334Y-74131418D01*
X130080373Y-74125859D01*
X130088424Y-74087636D01*
X130095897Y-74052155D01*
X132100000Y-74052155D01*
X132100000Y-74750000D01*
X133124722Y-74750000D01*
X133080667Y-74826306D01*
X133050000Y-74940756D01*
X133050000Y-75059244D01*
X133080667Y-75173694D01*
X133124722Y-75250000D01*
X132100000Y-75250000D01*
X132100000Y-75947844D01*
X132106401Y-76007372D01*
X132106403Y-76007379D01*
X132156645Y-76142086D01*
X132156649Y-76142093D01*
X132242809Y-76257187D01*
X132242812Y-76257190D01*
X132357906Y-76343350D01*
X132357913Y-76343354D01*
X132492620Y-76393596D01*
X132492627Y-76393598D01*
X132552155Y-76399999D01*
X132552172Y-76400000D01*
X133250000Y-76400000D01*
X133250000Y-75375277D01*
X133326306Y-75419333D01*
X133440756Y-75450000D01*
X133559244Y-75450000D01*
X133673694Y-75419333D01*
X133750000Y-75375277D01*
X133750000Y-76400000D01*
X134447828Y-76400000D01*
X134447844Y-76399999D01*
X134507372Y-76393598D01*
X134507379Y-76393596D01*
X134642086Y-76343354D01*
X134642093Y-76343350D01*
X134757187Y-76257190D01*
X134757190Y-76257187D01*
X134843350Y-76142093D01*
X134843354Y-76142086D01*
X134873213Y-76062031D01*
X134915084Y-76006097D01*
X134980548Y-75981680D01*
X135048821Y-75996531D01*
X135077076Y-76017683D01*
X135127636Y-76068243D01*
X135127641Y-76068247D01*
X135277196Y-76176904D01*
X135305978Y-76197815D01*
X135422501Y-76257187D01*
X135502393Y-76297895D01*
X135502396Y-76297896D01*
X135607221Y-76331955D01*
X135712049Y-76366015D01*
X135929778Y-76400500D01*
X135929779Y-76400500D01*
X136150221Y-76400500D01*
X136150222Y-76400500D01*
X136367951Y-76366015D01*
X136577606Y-76297895D01*
X136774022Y-76197815D01*
X136952365Y-76068242D01*
X137108242Y-75912365D01*
X137237815Y-75734022D01*
X137244651Y-75720606D01*
X137292625Y-75669810D01*
X137355136Y-75652900D01*
X138178197Y-75652900D01*
X138245236Y-75672585D01*
X138265878Y-75689219D01*
X142610781Y-80034121D01*
X142644266Y-80095444D01*
X142647100Y-80121802D01*
X142647100Y-81199516D01*
X142627415Y-81266555D01*
X142574611Y-81312310D01*
X142505453Y-81322254D01*
X142441897Y-81293229D01*
X142406918Y-81242850D01*
X142393796Y-81207669D01*
X142393793Y-81207664D01*
X142307547Y-81092455D01*
X142307544Y-81092452D01*
X142192335Y-81006206D01*
X142192328Y-81006202D01*
X142057482Y-80955908D01*
X142057483Y-80955908D01*
X141997883Y-80949501D01*
X141997881Y-80949500D01*
X141997873Y-80949500D01*
X141997865Y-80949500D01*
X141574500Y-80949500D01*
X141507461Y-80929815D01*
X141461706Y-80877011D01*
X141450500Y-80825500D01*
X141450499Y-79852129D01*
X141450498Y-79852123D01*
X141450497Y-79852116D01*
X141444091Y-79792517D01*
X141434093Y-79765712D01*
X141393797Y-79657671D01*
X141393793Y-79657664D01*
X141307547Y-79542455D01*
X141307544Y-79542452D01*
X141192335Y-79456206D01*
X141192328Y-79456202D01*
X141057482Y-79405908D01*
X141057483Y-79405908D01*
X140997883Y-79399501D01*
X140997881Y-79399500D01*
X140997873Y-79399500D01*
X140997864Y-79399500D01*
X140102129Y-79399500D01*
X140102123Y-79399501D01*
X140042516Y-79405908D01*
X139907671Y-79456202D01*
X139907664Y-79456206D01*
X139792455Y-79542452D01*
X139792452Y-79542455D01*
X139706206Y-79657664D01*
X139706202Y-79657671D01*
X139655908Y-79792517D01*
X139650692Y-79841041D01*
X139649501Y-79852123D01*
X139649500Y-79852135D01*
X139649500Y-80947870D01*
X139649501Y-80947876D01*
X139655908Y-81007483D01*
X139706202Y-81142328D01*
X139706206Y-81142335D01*
X139760237Y-81214510D01*
X139792454Y-81257546D01*
X139899811Y-81337914D01*
X139941682Y-81393847D01*
X139949500Y-81437180D01*
X139949500Y-81817319D01*
X139929815Y-81884358D01*
X139877011Y-81930113D01*
X139807853Y-81940057D01*
X139777968Y-81930279D01*
X139777440Y-81931556D01*
X139644332Y-81876421D01*
X139644322Y-81876418D01*
X139508995Y-81849500D01*
X139508993Y-81849500D01*
X139371007Y-81849500D01*
X139371005Y-81849500D01*
X139235677Y-81876418D01*
X139235667Y-81876421D01*
X139108195Y-81929221D01*
X139108182Y-81929228D01*
X138993458Y-82005885D01*
X138993454Y-82005888D01*
X138895888Y-82103454D01*
X138895885Y-82103458D01*
X138819228Y-82218182D01*
X138819221Y-82218195D01*
X138766421Y-82345667D01*
X138766418Y-82345677D01*
X138739500Y-82481004D01*
X138739500Y-82481007D01*
X138739500Y-82618993D01*
X138739500Y-82618995D01*
X138739499Y-82618995D01*
X138766418Y-82754322D01*
X138766421Y-82754332D01*
X138819221Y-82881804D01*
X138819228Y-82881817D01*
X138895885Y-82996541D01*
X138895888Y-82996545D01*
X138993454Y-83094111D01*
X138993458Y-83094114D01*
X139108182Y-83170771D01*
X139108195Y-83170778D01*
X139235667Y-83223578D01*
X139235672Y-83223580D01*
X139235676Y-83223580D01*
X139235677Y-83223581D01*
X139371004Y-83250500D01*
X139371007Y-83250500D01*
X139508995Y-83250500D01*
X139600041Y-83232389D01*
X139644328Y-83223580D01*
X139692768Y-83203515D01*
X139777440Y-83168444D01*
X139778486Y-83170969D01*
X139835289Y-83159066D01*
X139900565Y-83183981D01*
X139942009Y-83240233D01*
X139949500Y-83282679D01*
X139949500Y-83697870D01*
X139949501Y-83697876D01*
X139955908Y-83757483D01*
X140006202Y-83892328D01*
X140006206Y-83892335D01*
X140092452Y-84007544D01*
X140092455Y-84007547D01*
X140207664Y-84093793D01*
X140207671Y-84093797D01*
X140342517Y-84144091D01*
X140342516Y-84144091D01*
X140349444Y-84144835D01*
X140402127Y-84150500D01*
X141997872Y-84150499D01*
X142057483Y-84144091D01*
X142192331Y-84093796D01*
X142307546Y-84007546D01*
X142393796Y-83892331D01*
X142444091Y-83757483D01*
X142450500Y-83697873D01*
X142450499Y-83424201D01*
X142470183Y-83357163D01*
X142486813Y-83336526D01*
X143807140Y-82016200D01*
X143878592Y-81909264D01*
X143880375Y-81904961D01*
X143916677Y-81817319D01*
X143927809Y-81790444D01*
X143928878Y-81785071D01*
X143931104Y-81773884D01*
X143947809Y-81689898D01*
X143952900Y-81664305D01*
X143952900Y-79735695D01*
X143952900Y-79735692D01*
X143927810Y-79609561D01*
X143927809Y-79609560D01*
X143927809Y-79609556D01*
X143900014Y-79542452D01*
X143878593Y-79490737D01*
X143860162Y-79463154D01*
X143860162Y-79463153D01*
X143807141Y-79383801D01*
X143807135Y-79383794D01*
X140287922Y-75864581D01*
X140254437Y-75803258D01*
X140259421Y-75733566D01*
X140301293Y-75677633D01*
X140366757Y-75653216D01*
X140375603Y-75652900D01*
X158064307Y-75652900D01*
X158166358Y-75632600D01*
X158190444Y-75627809D01*
X158309264Y-75578592D01*
X158319682Y-75571631D01*
X158416200Y-75507141D01*
X158602409Y-75320932D01*
X158812385Y-75110957D01*
X160334121Y-73589219D01*
X160395444Y-73555734D01*
X160421802Y-73552900D01*
X166097256Y-73552900D01*
X166164295Y-73572585D01*
X166210050Y-73625389D01*
X166219994Y-73694547D01*
X166196523Y-73751211D01*
X166116646Y-73857911D01*
X166116645Y-73857913D01*
X166066403Y-73992620D01*
X166066401Y-73992627D01*
X166060000Y-74052155D01*
X166060000Y-74750000D01*
X167084722Y-74750000D01*
X167040667Y-74826306D01*
X167010000Y-74940756D01*
X167010000Y-75059244D01*
X167040667Y-75173694D01*
X167084722Y-75250000D01*
X166060000Y-75250000D01*
X166060000Y-75947844D01*
X166066401Y-76007372D01*
X166066403Y-76007379D01*
X166116645Y-76142086D01*
X166116649Y-76142093D01*
X166202809Y-76257187D01*
X166202812Y-76257190D01*
X166317906Y-76343350D01*
X166317913Y-76343354D01*
X166452620Y-76393596D01*
X166452627Y-76393598D01*
X166512155Y-76399999D01*
X166512172Y-76400000D01*
X167210000Y-76400000D01*
X167210000Y-75375277D01*
X167286306Y-75419333D01*
X167400756Y-75450000D01*
X167519244Y-75450000D01*
X167633694Y-75419333D01*
X167710000Y-75375277D01*
X167710000Y-76400000D01*
X168407828Y-76400000D01*
X168407844Y-76399999D01*
X168467372Y-76393598D01*
X168467379Y-76393596D01*
X168602086Y-76343354D01*
X168602093Y-76343350D01*
X168717187Y-76257190D01*
X168717190Y-76257187D01*
X168803350Y-76142093D01*
X168803354Y-76142086D01*
X168833213Y-76062031D01*
X168875084Y-76006097D01*
X168940548Y-75981680D01*
X169008821Y-75996531D01*
X169037076Y-76017683D01*
X169087636Y-76068243D01*
X169087641Y-76068247D01*
X169237196Y-76176904D01*
X169265978Y-76197815D01*
X169382501Y-76257187D01*
X169462393Y-76297895D01*
X169462396Y-76297896D01*
X169567221Y-76331955D01*
X169672049Y-76366015D01*
X169889778Y-76400500D01*
X169889779Y-76400500D01*
X170110221Y-76400500D01*
X170110222Y-76400500D01*
X170327951Y-76366015D01*
X170537606Y-76297895D01*
X170734022Y-76197815D01*
X170912365Y-76068242D01*
X171068242Y-75912365D01*
X171197815Y-75734022D01*
X171297895Y-75537606D01*
X171366015Y-75327951D01*
X171400500Y-75110222D01*
X171400500Y-74889778D01*
X171366015Y-74672049D01*
X171327473Y-74553427D01*
X171297896Y-74462396D01*
X171297895Y-74462393D01*
X171228260Y-74325730D01*
X171197815Y-74265978D01*
X171103381Y-74136000D01*
X171068247Y-74087641D01*
X171068243Y-74087636D01*
X170912363Y-73931756D01*
X170912358Y-73931752D01*
X170734025Y-73802187D01*
X170734024Y-73802186D01*
X170734022Y-73802185D01*
X170633981Y-73751211D01*
X170537606Y-73702104D01*
X170537603Y-73702103D01*
X170327952Y-73633985D01*
X170166338Y-73608388D01*
X170110222Y-73599500D01*
X169889778Y-73599500D01*
X169846232Y-73606397D01*
X169672045Y-73633985D01*
X169657726Y-73638638D01*
X169587885Y-73640633D01*
X169531728Y-73608388D01*
X168316205Y-72392863D01*
X168316204Y-72392862D01*
X168316200Y-72392859D01*
X168209264Y-72321408D01*
X168187589Y-72312430D01*
X168090444Y-72272191D01*
X168090442Y-72272190D01*
X168083308Y-72270771D01*
X168078531Y-72269821D01*
X168078529Y-72269820D01*
X168078529Y-72269821D01*
X167964307Y-72247100D01*
X167964305Y-72247100D01*
X160035695Y-72247100D01*
X160035693Y-72247100D01*
X159943304Y-72265478D01*
X159921471Y-72269821D01*
X159909556Y-72272191D01*
X159909555Y-72272191D01*
X159790737Y-72321407D01*
X159683797Y-72392861D01*
X159683796Y-72392862D01*
X157765878Y-74310781D01*
X157704555Y-74344266D01*
X157678197Y-74347100D01*
X137355136Y-74347100D01*
X137288097Y-74327415D01*
X137244651Y-74279394D01*
X137237814Y-74265976D01*
X137108247Y-74087641D01*
X137108243Y-74087636D01*
X136952363Y-73931756D01*
X136952358Y-73931752D01*
X136774025Y-73802187D01*
X136774024Y-73802186D01*
X136774022Y-73802185D01*
X136673981Y-73751211D01*
X136577606Y-73702104D01*
X136577603Y-73702103D01*
X136367952Y-73633985D01*
X136206338Y-73608388D01*
X136150222Y-73599500D01*
X135929778Y-73599500D01*
X135873662Y-73608388D01*
X135712047Y-73633985D01*
X135502396Y-73702103D01*
X135502393Y-73702104D01*
X135305974Y-73802187D01*
X135127641Y-73931752D01*
X135127636Y-73931756D01*
X135077075Y-73982317D01*
X135015752Y-74015801D01*
X134946060Y-74010816D01*
X134890127Y-73968945D01*
X134873213Y-73937968D01*
X134843354Y-73857913D01*
X134843350Y-73857906D01*
X134757190Y-73742812D01*
X134757187Y-73742809D01*
X134642093Y-73656649D01*
X134642086Y-73656645D01*
X134507379Y-73606403D01*
X134507372Y-73606401D01*
X134447844Y-73600000D01*
X133750000Y-73600000D01*
X133750000Y-74624722D01*
X133673694Y-74580667D01*
X133559244Y-74550000D01*
X133440756Y-74550000D01*
X133326306Y-74580667D01*
X133250000Y-74624722D01*
X133250000Y-73600000D01*
X132552155Y-73600000D01*
X132492627Y-73606401D01*
X132492620Y-73606403D01*
X132357913Y-73656645D01*
X132357906Y-73656649D01*
X132242812Y-73742809D01*
X132242809Y-73742812D01*
X132156649Y-73857906D01*
X132156645Y-73857913D01*
X132106403Y-73992620D01*
X132106401Y-73992627D01*
X132100000Y-74052155D01*
X130095897Y-74052155D01*
X130137805Y-73853166D01*
X130139087Y-73847702D01*
X130208620Y-73579197D01*
X130210169Y-73573737D01*
X130210525Y-73572585D01*
X130291585Y-73309923D01*
X130293372Y-73304574D01*
X130386470Y-73045859D01*
X130388509Y-73040578D01*
X130493082Y-72787410D01*
X130495381Y-72782193D01*
X130611199Y-72535050D01*
X130613744Y-72529936D01*
X130740582Y-72289282D01*
X130743421Y-72284191D01*
X130881063Y-72050452D01*
X130884143Y-72045495D01*
X131032420Y-71819036D01*
X131035759Y-71814195D01*
X131194406Y-71595521D01*
X131198036Y-71590766D01*
X131198576Y-71590093D01*
X131366857Y-71380277D01*
X131370710Y-71375707D01*
X131549551Y-71173761D01*
X131553678Y-71169326D01*
X131742252Y-70976430D01*
X131746662Y-70972138D01*
X131944860Y-70788608D01*
X131949482Y-70784538D01*
X132157136Y-70610776D01*
X132162008Y-70606905D01*
X132378897Y-70443347D01*
X132384004Y-70439697D01*
X132610000Y-70286718D01*
X132615369Y-70283282D01*
X132850343Y-70141271D01*
X132855900Y-70138107D01*
X133099749Y-70007452D01*
X133105487Y-70004565D01*
X133358129Y-69885659D01*
X133363982Y-69883089D01*
X133625305Y-69776358D01*
X133631281Y-69774096D01*
X133901360Y-69679910D01*
X133907416Y-69677973D01*
X134209114Y-69590004D01*
X134259522Y-69575306D01*
X134265864Y-69573638D01*
X134632542Y-69487466D01*
X134639210Y-69486092D01*
X135018715Y-69418850D01*
X135025840Y-69417801D01*
X135416717Y-69371799D01*
X135424216Y-69371148D01*
X135825228Y-69348644D01*
X135833135Y-69348454D01*
X136243047Y-69351692D01*
X136251296Y-69352032D01*
X136669096Y-69383268D01*
X136677595Y-69384200D01*
X137073450Y-69441550D01*
X137102295Y-69445729D01*
X137111006Y-69447311D01*
X137541775Y-69541510D01*
X137550535Y-69543764D01*
X137986697Y-69673142D01*
X137995392Y-69676075D01*
X138436222Y-69843260D01*
X138444685Y-69846835D01*
X138865843Y-70043562D01*
X138889525Y-70054624D01*
X138897699Y-70058818D01*
X139345757Y-70310113D01*
X139353476Y-70314821D01*
X139546429Y-70442403D01*
X139808589Y-70615745D01*
X139814029Y-70619555D01*
X140035445Y-70783644D01*
X140038899Y-70786299D01*
X140264953Y-70966466D01*
X140268255Y-70969192D01*
X140494442Y-71162605D01*
X140497556Y-71165360D01*
X140709048Y-71358980D01*
X140732268Y-71386057D01*
X140757442Y-71403284D01*
X140763907Y-71409203D01*
X140763908Y-71409204D01*
X140779942Y-71423883D01*
X140779941Y-71423883D01*
X140804940Y-71436882D01*
X140817765Y-71444567D01*
X140821163Y-71446892D01*
X140841024Y-71460484D01*
X140861535Y-71467700D01*
X140877579Y-71474654D01*
X140896865Y-71484683D01*
X140931690Y-71492387D01*
X140965336Y-71504226D01*
X140995750Y-71506558D01*
X141025538Y-71513148D01*
X141061174Y-71511575D01*
X141096735Y-71514303D01*
X141126715Y-71508684D01*
X141157194Y-71507340D01*
X141191207Y-71496598D01*
X141226264Y-71490029D01*
X141253770Y-71476841D01*
X141282861Y-71467655D01*
X141312936Y-71448475D01*
X141345097Y-71433057D01*
X141368251Y-71413200D01*
X141393975Y-71396797D01*
X141413003Y-71376011D01*
X141423738Y-71365618D01*
X141842013Y-71006929D01*
X141843345Y-71005804D01*
X142020782Y-70858388D01*
X142021961Y-70857423D01*
X142176861Y-70732575D01*
X142178575Y-70731220D01*
X142313673Y-70626516D01*
X142315823Y-70624889D01*
X142435492Y-70536526D01*
X142438056Y-70534685D01*
X142547006Y-70458644D01*
X142549772Y-70456770D01*
X142653417Y-70388671D01*
X142656082Y-70386969D01*
X142760301Y-70322355D01*
X142762449Y-70321055D01*
X142871947Y-70256381D01*
X142873768Y-70255327D01*
X142984704Y-70192472D01*
X143134666Y-70107505D01*
X143134808Y-70107424D01*
X143184051Y-70079609D01*
X143408350Y-69952913D01*
X143411898Y-69951944D01*
X143465702Y-69920517D01*
X143519896Y-69889907D01*
X143519900Y-69889902D01*
X143520295Y-69889606D01*
X143532316Y-69881609D01*
X143884514Y-69675901D01*
X143934532Y-69649082D01*
X143941276Y-69642748D01*
X143949273Y-69638078D01*
X143989230Y-69597716D01*
X144030598Y-69558870D01*
X144035474Y-69551005D01*
X144041989Y-69544425D01*
X144069048Y-69497006D01*
X144071297Y-69493228D01*
X144100043Y-69446868D01*
X144100044Y-69446861D01*
X144103391Y-69439453D01*
X144103748Y-69439614D01*
X144104596Y-69437641D01*
X144104232Y-69437493D01*
X144107301Y-69429974D01*
X144107306Y-69429967D01*
X144121724Y-69375053D01*
X144138132Y-69320708D01*
X144138422Y-69311457D01*
X144140774Y-69302503D01*
X144140499Y-69247976D01*
X144140557Y-69243508D01*
X144142272Y-69188988D01*
X144140158Y-69179977D01*
X144140112Y-69170721D01*
X144125143Y-69115959D01*
X144124629Y-69113767D01*
X144124629Y-69113765D01*
X144112179Y-69060688D01*
X144109304Y-69053079D01*
X144109670Y-69052940D01*
X144108872Y-69050941D01*
X144108511Y-69051093D01*
X144105363Y-69043598D01*
X144077860Y-68996511D01*
X144077860Y-68996510D01*
X144076718Y-68994555D01*
X144049903Y-68944545D01*
X144043569Y-68937800D01*
X144038899Y-68929804D01*
X144038898Y-68929803D01*
X144038898Y-68929802D01*
X144000145Y-68891437D01*
X143996993Y-68888201D01*
X143637297Y-68505165D01*
X143631065Y-68497997D01*
X143314770Y-68104752D01*
X143309254Y-68097346D01*
X143089091Y-67777515D01*
X143025371Y-67684949D01*
X143020626Y-67677498D01*
X142767241Y-67246448D01*
X142763237Y-67239075D01*
X142659382Y-67031407D01*
X142538657Y-66790006D01*
X142535369Y-66782876D01*
X142515757Y-66736530D01*
X142337977Y-66316404D01*
X142335338Y-66309616D01*
X142285778Y-66170173D01*
X142163701Y-65826690D01*
X142161627Y-65820314D01*
X142108938Y-65642062D01*
X142014299Y-65321889D01*
X142012724Y-65316034D01*
X141888305Y-64803295D01*
X141887120Y-64797882D01*
X141852442Y-64620775D01*
X141784171Y-64272096D01*
X141783323Y-64267251D01*
X141700369Y-63729754D01*
X141699769Y-63725341D01*
X141635292Y-63177545D01*
X141634892Y-63173608D01*
X141634620Y-63170425D01*
X141587309Y-62616798D01*
X141587071Y-62613448D01*
X141554973Y-62052514D01*
X141554801Y-62048201D01*
X141529754Y-60917458D01*
X141529916Y-60907826D01*
X141529972Y-60906805D01*
X141532691Y-60869614D01*
X141532190Y-60867000D01*
X141532344Y-60864254D01*
X141530309Y-60854211D01*
X141527868Y-60832328D01*
X141527638Y-60821898D01*
X141517499Y-60787157D01*
X141515162Y-60777813D01*
X141514947Y-60776785D01*
X141507949Y-60740173D01*
X141506785Y-60737768D01*
X141506223Y-60735080D01*
X141506138Y-60734909D01*
X141506138Y-60734908D01*
X141501660Y-60725909D01*
X141493643Y-60705412D01*
X141490719Y-60695391D01*
X141471934Y-60664457D01*
X141467256Y-60656033D01*
X141466778Y-60655088D01*
X141450549Y-60621547D01*
X141448803Y-60619526D01*
X141447560Y-60617067D01*
X141445071Y-60614249D01*
X141440778Y-60609388D01*
X141427731Y-60591668D01*
X141422316Y-60582750D01*
X141396157Y-60557725D01*
X141389470Y-60550810D01*
X141388761Y-60550017D01*
X141364402Y-60521818D01*
X141362187Y-60520313D01*
X141360343Y-60518252D01*
X141351800Y-60512587D01*
X141334607Y-60498842D01*
X141327090Y-60491650D01*
X141327089Y-60491649D01*
X141295356Y-60474253D01*
X141287097Y-60469299D01*
X141286176Y-60468696D01*
X141255379Y-60447784D01*
X141252854Y-60446905D01*
X141250525Y-60445382D01*
X141240795Y-60442117D01*
X141220634Y-60433292D01*
X141211533Y-60428303D01*
X141211531Y-60428302D01*
X141176385Y-60419714D01*
X141167107Y-60417060D01*
X141166031Y-60416706D01*
X141130909Y-60404490D01*
X141128269Y-60404297D01*
X141118675Y-60401144D01*
X141118567Y-60401069D01*
X141117946Y-60400902D01*
X140992377Y-60358773D01*
X140987407Y-60356987D01*
X140811819Y-60289630D01*
X140806877Y-60287611D01*
X140638566Y-60214587D01*
X140633684Y-60212342D01*
X140472370Y-60133883D01*
X140467572Y-60131419D01*
X140312965Y-60047719D01*
X140308278Y-60045048D01*
X140285431Y-60031362D01*
X140160183Y-59956336D01*
X140155633Y-59953475D01*
X140117054Y-59928031D01*
X148172500Y-59928031D01*
X148172500Y-60271969D01*
X148174259Y-60289824D01*
X148206210Y-60614249D01*
X148273308Y-60951572D01*
X148373150Y-61280706D01*
X148504770Y-61598464D01*
X148504772Y-61598469D01*
X148666893Y-61901775D01*
X148666904Y-61901793D01*
X148857975Y-62187751D01*
X148857985Y-62187765D01*
X149076176Y-62453632D01*
X149319367Y-62696823D01*
X149319372Y-62696827D01*
X149319373Y-62696828D01*
X149585240Y-62915019D01*
X149871213Y-63106100D01*
X149871222Y-63106105D01*
X149871224Y-63106106D01*
X150174530Y-63268227D01*
X150174532Y-63268227D01*
X150174538Y-63268231D01*
X150492295Y-63399850D01*
X150821422Y-63499690D01*
X151158750Y-63566789D01*
X151501031Y-63600500D01*
X151501034Y-63600500D01*
X151844966Y-63600500D01*
X151844969Y-63600500D01*
X152187250Y-63566789D01*
X152524578Y-63499690D01*
X152853705Y-63399850D01*
X153171462Y-63268231D01*
X153474787Y-63106100D01*
X153760760Y-62915019D01*
X154026627Y-62696828D01*
X154269828Y-62453627D01*
X154488019Y-62187760D01*
X154679100Y-61901787D01*
X154841231Y-61598462D01*
X154972850Y-61280705D01*
X155072690Y-60951578D01*
X155139789Y-60614250D01*
X155173500Y-60271969D01*
X155173500Y-59928031D01*
X155139789Y-59585750D01*
X155072690Y-59248422D01*
X154972850Y-58919295D01*
X154841231Y-58601538D01*
X154724399Y-58382962D01*
X154679106Y-58298224D01*
X154679105Y-58298222D01*
X154679100Y-58298213D01*
X154488019Y-58012240D01*
X154269828Y-57746373D01*
X154269827Y-57746372D01*
X154269823Y-57746367D01*
X154026632Y-57503176D01*
X153760765Y-57284985D01*
X153760764Y-57284984D01*
X153760760Y-57284981D01*
X153474787Y-57093900D01*
X153474782Y-57093897D01*
X153474775Y-57093893D01*
X153171469Y-56931772D01*
X153171464Y-56931770D01*
X152853706Y-56800150D01*
X152524572Y-56700308D01*
X152187248Y-56633210D01*
X152187249Y-56633210D01*
X151929456Y-56607821D01*
X151844969Y-56599500D01*
X151501031Y-56599500D01*
X151422966Y-56607188D01*
X151158750Y-56633210D01*
X150821427Y-56700308D01*
X150492293Y-56800150D01*
X150174535Y-56931770D01*
X150174530Y-56931772D01*
X149871224Y-57093893D01*
X149871206Y-57093904D01*
X149585248Y-57284975D01*
X149585234Y-57284985D01*
X149319367Y-57503176D01*
X149076176Y-57746367D01*
X148857985Y-58012234D01*
X148857975Y-58012248D01*
X148666904Y-58298206D01*
X148666893Y-58298224D01*
X148504772Y-58601530D01*
X148504770Y-58601535D01*
X148373150Y-58919293D01*
X148273308Y-59248427D01*
X148206210Y-59585750D01*
X148191140Y-59738768D01*
X148172500Y-59928031D01*
X140117054Y-59928031D01*
X140013758Y-59859903D01*
X140009367Y-59856869D01*
X139873521Y-59758632D01*
X139869305Y-59755444D01*
X139739249Y-59652676D01*
X139735251Y-59649379D01*
X139610802Y-59542245D01*
X139606997Y-59538829D01*
X139488015Y-59427511D01*
X139484411Y-59424000D01*
X139374933Y-59312909D01*
X139369953Y-59307547D01*
X139153666Y-59060479D01*
X139147773Y-59053212D01*
X138955336Y-58796679D01*
X138950293Y-58789433D01*
X138776758Y-58520112D01*
X138772507Y-58513003D01*
X138617257Y-58232543D01*
X138613730Y-58225674D01*
X138476182Y-57935848D01*
X138473275Y-57929232D01*
X138399212Y-57746367D01*
X138352897Y-57632015D01*
X138350549Y-57625731D01*
X138246751Y-57323121D01*
X138244879Y-57317177D01*
X138157068Y-57011349D01*
X138155584Y-57005672D01*
X138138130Y-56931772D01*
X138083123Y-56698876D01*
X138081981Y-56693499D01*
X138024549Y-56390024D01*
X138023568Y-56384042D01*
X137987455Y-56124201D01*
X137986711Y-56117530D01*
X137983660Y-56081276D01*
X137964991Y-55859448D01*
X137964612Y-55852837D01*
X137956785Y-55595852D01*
X137956761Y-55595087D01*
X137956736Y-55588582D01*
X137962500Y-55331672D01*
X137962813Y-55325240D01*
X137981939Y-55069672D01*
X137982577Y-55063355D01*
X138014812Y-54809632D01*
X138015769Y-54803385D01*
X138028026Y-54735056D01*
X138060841Y-54552105D01*
X138062105Y-54545963D01*
X138093195Y-54412034D01*
X138119768Y-54297561D01*
X138121313Y-54291587D01*
X138191304Y-54046600D01*
X138193124Y-54040783D01*
X138275150Y-53799819D01*
X138277248Y-53794121D01*
X138371036Y-53557700D01*
X138373426Y-53552087D01*
X138431842Y-53423714D01*
X138478647Y-53320857D01*
X138481298Y-53315393D01*
X138597668Y-53089855D01*
X138600583Y-53084532D01*
X138683920Y-52940872D01*
X138727790Y-52865245D01*
X138730968Y-52860065D01*
X138868696Y-52647577D01*
X138872154Y-52642522D01*
X139020084Y-52437373D01*
X139023788Y-52432498D01*
X139181581Y-52235240D01*
X139185583Y-52230491D01*
X139191392Y-52223936D01*
X139277849Y-52126364D01*
X139352868Y-52041702D01*
X139357152Y-52037106D01*
X139533669Y-51857214D01*
X139538187Y-51852841D01*
X139723575Y-51682395D01*
X139728393Y-51678192D01*
X139922309Y-51517700D01*
X139927412Y-51513697D01*
X140129562Y-51363622D01*
X140134960Y-51359834D01*
X140345022Y-51220659D01*
X140350676Y-51217130D01*
X140568410Y-51089286D01*
X140574314Y-51086033D01*
X140799456Y-50969974D01*
X140805619Y-50967012D01*
X141037893Y-50863205D01*
X141044311Y-50860552D01*
X141283481Y-50769454D01*
X141290129Y-50767137D01*
X141536085Y-50689167D01*
X141542870Y-50687230D01*
X141795424Y-50622867D01*
X141802366Y-50621310D01*
X142061393Y-50571036D01*
X142068466Y-50569875D01*
X142333800Y-50534203D01*
X142340951Y-50533451D01*
X142617044Y-50512561D01*
X142622442Y-50512272D01*
X142885383Y-50503918D01*
X142889446Y-50503856D01*
X143155664Y-50504363D01*
X143160539Y-50504469D01*
X143425248Y-50515462D01*
X143430805Y-50515819D01*
X143694798Y-50538753D01*
X143700909Y-50539439D01*
X143964877Y-50575775D01*
X143971507Y-50576873D01*
X144236325Y-50628143D01*
X144243328Y-50629710D01*
X144362478Y-50660022D01*
X144510006Y-50697554D01*
X144517165Y-50699607D01*
X144786825Y-50785834D01*
X144794027Y-50788385D01*
X145067713Y-50894944D01*
X145074799Y-50897961D01*
X145205361Y-50958388D01*
X145350677Y-51025644D01*
X145353508Y-51026954D01*
X145360304Y-51030356D01*
X145645022Y-51184065D01*
X145651409Y-51187766D01*
X145942794Y-51368462D01*
X145948759Y-51372404D01*
X146247432Y-51582458D01*
X146252880Y-51586519D01*
X146559265Y-51828262D01*
X146564194Y-51832364D01*
X146878567Y-52108067D01*
X146882981Y-52112131D01*
X147057131Y-52280519D01*
X147200024Y-52418684D01*
X147200023Y-52418684D01*
X147203141Y-52421699D01*
X147235519Y-52457701D01*
X147250350Y-52467345D01*
X147263067Y-52479641D01*
X147305406Y-52503145D01*
X147346001Y-52529542D01*
X147362819Y-52535017D01*
X147378288Y-52543605D01*
X147425270Y-52555350D01*
X147471310Y-52570340D01*
X147488973Y-52571276D01*
X147506137Y-52575567D01*
X147554558Y-52574752D01*
X147602910Y-52577315D01*
X147620211Y-52573647D01*
X147632146Y-52573447D01*
X147632150Y-52573446D01*
X147637903Y-52573350D01*
X147680333Y-52561212D01*
X147688667Y-52559139D01*
X149000753Y-52281060D01*
X149003416Y-52280528D01*
X149575658Y-52172749D01*
X149578369Y-52172270D01*
X150102505Y-52085590D01*
X150105922Y-52085075D01*
X150587205Y-52019590D01*
X150591531Y-52019079D01*
X151037225Y-51974412D01*
X151042344Y-51974007D01*
X151460326Y-51949658D01*
X151466122Y-51949457D01*
X151864871Y-51944951D01*
X151871068Y-51945035D01*
X152259493Y-51960082D01*
X152265731Y-51960481D01*
X152653093Y-51995117D01*
X152658989Y-51995786D01*
X153054406Y-52050385D01*
X153059630Y-52051222D01*
X153471745Y-52126365D01*
X153476186Y-52127259D01*
X153913047Y-52223546D01*
X153916582Y-52224380D01*
X154385829Y-52342318D01*
X154388455Y-52343009D01*
X154897115Y-52482863D01*
X154898820Y-52483345D01*
X155437988Y-52640607D01*
X155481243Y-52656999D01*
X155501021Y-52658992D01*
X155520100Y-52664557D01*
X155561492Y-52665467D01*
X155571152Y-52666059D01*
X155612363Y-52670213D01*
X155612369Y-52670212D01*
X155620725Y-52668852D01*
X155620726Y-52668851D01*
X155631981Y-52667019D01*
X155651853Y-52667457D01*
X155696782Y-52656471D01*
X155742436Y-52649040D01*
X155760560Y-52640877D01*
X155779865Y-52636157D01*
X155820419Y-52613918D01*
X155862596Y-52594923D01*
X155869159Y-52589560D01*
X155887989Y-52576865D01*
X155895417Y-52572792D01*
X155928841Y-52540806D01*
X155964655Y-52511550D01*
X155976266Y-52495422D01*
X155990629Y-52481679D01*
X156012123Y-52446270D01*
X156017464Y-52438203D01*
X156458427Y-51825771D01*
X156467313Y-51814805D01*
X156925640Y-51310967D01*
X156936508Y-51300399D01*
X157412025Y-50891561D01*
X157424793Y-50881944D01*
X157453316Y-50863214D01*
X157913607Y-50560949D01*
X157927951Y-50552841D01*
X158427292Y-50312864D01*
X158442674Y-50306702D01*
X158950520Y-50141799D01*
X158966366Y-50137788D01*
X159480927Y-50043145D01*
X159496621Y-50041284D01*
X160015724Y-50013145D01*
X160030806Y-50013246D01*
G37*
%TD.AperFunction*%
%TD*%
M02*
