G04 #@! TF.FileFunction,Legend,Top*
%FSLAX46Y46*%
G04 Gerber Fmt 4.6, Leading zero omitted, Abs format (unit mm)*
G04 Created by KiCad (PCBNEW 4.0.7) date 05/04/18 14:02:44*
%MOMM*%
%LPD*%
G01*
G04 APERTURE LIST*
%ADD10C,0.076200*%
%ADD11C,0.120000*%
%ADD12C,0.010000*%
G04 APERTURE END LIST*
D10*
D11*
X150918761Y-79820724D02*
G75*
G03X155222003Y-80138749I2243242J1080724D01*
G01*
X150918761Y-77659276D02*
G75*
G02X155222003Y-77341251I2243242J-1080724D01*
G01*
X151479290Y-79820961D02*
G75*
G03X154845333Y-79820000I1682713J1080961D01*
G01*
X151479290Y-77659039D02*
G75*
G02X154845333Y-77660000I1682713J-1080961D01*
G01*
X155222003Y-80139000D02*
X155222003Y-79820000D01*
X155222003Y-77660000D02*
X155222003Y-77341000D01*
D12*
G36*
X144712156Y-54596577D02*
X144885258Y-54610656D01*
X145381623Y-54684617D01*
X145866478Y-54805926D01*
X146335964Y-54972567D01*
X146786223Y-55182520D01*
X147213397Y-55433767D01*
X147613629Y-55724290D01*
X147983059Y-56052069D01*
X148305183Y-56399950D01*
X148610558Y-56801859D01*
X148871653Y-57224703D01*
X149088438Y-57665159D01*
X149260886Y-58119904D01*
X149388965Y-58585615D01*
X149472647Y-59058970D01*
X149511902Y-59536645D01*
X149506701Y-60015317D01*
X149457014Y-60491665D01*
X149362812Y-60962364D01*
X149224065Y-61424092D01*
X149040744Y-61873525D01*
X148812820Y-62307342D01*
X148540263Y-62722220D01*
X148363207Y-62951045D01*
X148253124Y-63076999D01*
X148115021Y-63222487D01*
X147960300Y-63376522D01*
X147800364Y-63528116D01*
X147646613Y-63666281D01*
X147510448Y-63780030D01*
X147472400Y-63809519D01*
X147267340Y-63953629D01*
X147035271Y-64098170D01*
X146788486Y-64236683D01*
X146539281Y-64362708D01*
X146299949Y-64469786D01*
X146082786Y-64551457D01*
X146026258Y-64569303D01*
X145960747Y-64592443D01*
X145933375Y-64617026D01*
X145932637Y-64655270D01*
X145934833Y-64666389D01*
X145953871Y-64774335D01*
X145974306Y-64922635D01*
X145995041Y-65100902D01*
X146014973Y-65298751D01*
X146033003Y-65505797D01*
X146048030Y-65711655D01*
X146051585Y-65768248D01*
X146065908Y-66383381D01*
X146036862Y-67014725D01*
X145965841Y-67654466D01*
X145854235Y-68294790D01*
X145703436Y-68927882D01*
X145514836Y-69545930D01*
X145289828Y-70141118D01*
X145260235Y-70211127D01*
X144985050Y-70805092D01*
X144679375Y-71369198D01*
X144338964Y-71909818D01*
X143959573Y-72433325D01*
X143536957Y-72946090D01*
X143172951Y-73344396D01*
X142929101Y-73600293D01*
X143111600Y-73698154D01*
X143565535Y-73954762D01*
X144032493Y-74243505D01*
X144502137Y-74556973D01*
X144964131Y-74887760D01*
X145408136Y-75228458D01*
X145823816Y-75571659D01*
X146200834Y-75909957D01*
X146209121Y-75917766D01*
X146382372Y-76081202D01*
X146425228Y-76019951D01*
X146572157Y-75825437D01*
X146751030Y-75613600D01*
X146951503Y-75395272D01*
X147163235Y-75181284D01*
X147375882Y-74982466D01*
X147579104Y-74809649D01*
X147586700Y-74803583D01*
X148026323Y-74485547D01*
X148494141Y-74208140D01*
X148985807Y-73972976D01*
X149496980Y-73781671D01*
X150023314Y-73635839D01*
X150560466Y-73537097D01*
X151104093Y-73487060D01*
X151130000Y-73485922D01*
X151689593Y-73487348D01*
X152239526Y-73537798D01*
X152777302Y-73636005D01*
X153300425Y-73780702D01*
X153806399Y-73970620D01*
X154292725Y-74204491D01*
X154756909Y-74481049D01*
X155196454Y-74799025D01*
X155608862Y-75157151D01*
X155991638Y-75554161D01*
X156342284Y-75988785D01*
X156500055Y-76212778D01*
X156604629Y-76379308D01*
X156718782Y-76580067D01*
X156835563Y-76801250D01*
X156948015Y-77029051D01*
X157049187Y-77249664D01*
X157132124Y-77449286D01*
X157158769Y-77520536D01*
X157318302Y-78036703D01*
X157432330Y-78566439D01*
X157500325Y-79103664D01*
X157521762Y-79642297D01*
X157496115Y-80176259D01*
X157430350Y-80658881D01*
X157367176Y-80974635D01*
X157295275Y-81263035D01*
X157209937Y-81538073D01*
X157106451Y-81813740D01*
X156980106Y-82104026D01*
X156857767Y-82359500D01*
X156706058Y-82654971D01*
X156560369Y-82912387D01*
X156412878Y-83142568D01*
X156255761Y-83356338D01*
X156081194Y-83564516D01*
X155881354Y-83777925D01*
X155707573Y-83950452D01*
X155277643Y-84334281D01*
X154828291Y-84671249D01*
X154358704Y-84961763D01*
X153868073Y-85206232D01*
X153355584Y-85405062D01*
X152820426Y-85558661D01*
X152298400Y-85661787D01*
X152186974Y-85675746D01*
X152038200Y-85689274D01*
X151865528Y-85701423D01*
X151682407Y-85711244D01*
X151504826Y-85717723D01*
X150977953Y-85731784D01*
X150996826Y-85874442D01*
X151003332Y-85953103D01*
X151008467Y-86075350D01*
X151012272Y-86233990D01*
X151014791Y-86421830D01*
X151016067Y-86631675D01*
X151016142Y-86856333D01*
X151015060Y-87088609D01*
X151012862Y-87321309D01*
X151009593Y-87547241D01*
X151005293Y-87759210D01*
X151000007Y-87950024D01*
X150993778Y-88112487D01*
X150986647Y-88239407D01*
X150982459Y-88290400D01*
X150900221Y-88977930D01*
X150787043Y-89673660D01*
X150646085Y-90360925D01*
X150480508Y-91023062D01*
X150430296Y-91201234D01*
X150426085Y-91227527D01*
X150438119Y-91244708D01*
X150475667Y-91256117D01*
X150547997Y-91265094D01*
X150626385Y-91271890D01*
X150743562Y-91283933D01*
X150888750Y-91302412D01*
X151040032Y-91324409D01*
X151130000Y-91338995D01*
X151743869Y-91468790D01*
X152338188Y-91645195D01*
X152911531Y-91867364D01*
X153462472Y-92134450D01*
X153989586Y-92445608D01*
X154491448Y-92799990D01*
X154966633Y-93196752D01*
X155413715Y-93635046D01*
X155831269Y-94114026D01*
X155856314Y-94145244D01*
X156034250Y-94371420D01*
X156183716Y-94570020D01*
X156310693Y-94750803D01*
X156421160Y-94923527D01*
X156521100Y-95097949D01*
X156616494Y-95283826D01*
X156713322Y-95490917D01*
X156795276Y-95677123D01*
X156978856Y-96127590D01*
X157129585Y-96556019D01*
X157250466Y-96975054D01*
X157344500Y-97397343D01*
X157414690Y-97835531D01*
X157464036Y-98302264D01*
X157483393Y-98575939D01*
X157493809Y-98763704D01*
X157499651Y-98914694D01*
X157500712Y-99042744D01*
X157496783Y-99161691D01*
X157487657Y-99285370D01*
X157473125Y-99427617D01*
X157470208Y-99453700D01*
X157402711Y-99962215D01*
X157318243Y-100431316D01*
X157214101Y-100870341D01*
X157087579Y-101288632D01*
X156935973Y-101695529D01*
X156756579Y-102100372D01*
X156630541Y-102353808D01*
X156327549Y-102887300D01*
X155986053Y-103388803D01*
X155603481Y-103861831D01*
X155258344Y-104229903D01*
X154799486Y-104655058D01*
X154316848Y-105035907D01*
X153809673Y-105372828D01*
X153277201Y-105666200D01*
X152718675Y-105916402D01*
X152133336Y-106123815D01*
X151520425Y-106288816D01*
X150901718Y-106408250D01*
X150712300Y-106431522D01*
X150484136Y-106448762D01*
X150228925Y-106459921D01*
X149958367Y-106464952D01*
X149684163Y-106463805D01*
X149418012Y-106456431D01*
X149171615Y-106442782D01*
X148956671Y-106422807D01*
X148907500Y-106416588D01*
X148289669Y-106308425D01*
X147688715Y-106153784D01*
X147106893Y-105954062D01*
X146546453Y-105710657D01*
X146009648Y-105424965D01*
X145498732Y-105098385D01*
X145015956Y-104732313D01*
X144563573Y-104328147D01*
X144143836Y-103887285D01*
X143758997Y-103411123D01*
X143524719Y-103077450D01*
X143219080Y-102581018D01*
X142960147Y-102083105D01*
X142744236Y-101575785D01*
X142567664Y-101051133D01*
X142542803Y-100965000D01*
X142509280Y-100849495D01*
X142479272Y-100752026D01*
X142456095Y-100682980D01*
X142443193Y-100652891D01*
X142415098Y-100655475D01*
X142349980Y-100676466D01*
X142256751Y-100712576D01*
X142144323Y-100760516D01*
X142110771Y-100775542D01*
X141322724Y-101104987D01*
X140515832Y-101389343D01*
X139693562Y-101628043D01*
X138859375Y-101820520D01*
X138016735Y-101966208D01*
X137169106Y-102064541D01*
X136319952Y-102114952D01*
X135472736Y-102116875D01*
X134630922Y-102069743D01*
X134357371Y-102043589D01*
X133560341Y-101938250D01*
X132765467Y-101791483D01*
X131980021Y-101605247D01*
X131211270Y-101381504D01*
X130466487Y-101122214D01*
X129752939Y-100829337D01*
X129602233Y-100761217D01*
X129508308Y-100720238D01*
X129432504Y-100691302D01*
X129385886Y-100678436D01*
X129377003Y-100679263D01*
X129364103Y-100714714D01*
X129362200Y-100738205D01*
X129354080Y-100782481D01*
X129331727Y-100865315D01*
X129298147Y-100977481D01*
X129256348Y-101109753D01*
X129209336Y-101252904D01*
X129160119Y-101397708D01*
X129111703Y-101534938D01*
X129067096Y-101655367D01*
X129044409Y-101713252D01*
X128792722Y-102270926D01*
X128499235Y-102801724D01*
X128166277Y-103303936D01*
X127796177Y-103775853D01*
X127391263Y-104215765D01*
X126953863Y-104621961D01*
X126486307Y-104992732D01*
X125990923Y-105326369D01*
X125470040Y-105621161D01*
X124925986Y-105875398D01*
X124361090Y-106087371D01*
X123777681Y-106255370D01*
X123178087Y-106377684D01*
X122593100Y-106450226D01*
X122433049Y-106460714D01*
X122245155Y-106467895D01*
X122041431Y-106471785D01*
X121833889Y-106472399D01*
X121634540Y-106469752D01*
X121455397Y-106463860D01*
X121308471Y-106454738D01*
X121246900Y-106448493D01*
X120638513Y-106355249D01*
X120063865Y-106228375D01*
X119516690Y-106065550D01*
X118990722Y-105864454D01*
X118479698Y-105622768D01*
X117977350Y-105338170D01*
X117614700Y-105103471D01*
X117115964Y-104734751D01*
X116656960Y-104334458D01*
X116237793Y-103902710D01*
X115858568Y-103439626D01*
X115519390Y-102945322D01*
X115224173Y-102427292D01*
X114981852Y-101917930D01*
X114777220Y-101397909D01*
X114607431Y-100858507D01*
X114469640Y-100290999D01*
X114390776Y-99872800D01*
X114353390Y-99646556D01*
X114324948Y-99459833D01*
X114305074Y-99302214D01*
X114293391Y-99163284D01*
X114289522Y-99032624D01*
X114293091Y-98899819D01*
X114303721Y-98754452D01*
X114307690Y-98715853D01*
X114610358Y-98715853D01*
X114611718Y-99035401D01*
X114613233Y-99085400D01*
X114658829Y-99697132D01*
X114753830Y-100298510D01*
X114897551Y-100887645D01*
X115089306Y-101462649D01*
X115328410Y-102021634D01*
X115614180Y-102562712D01*
X115945928Y-103083994D01*
X116179781Y-103403400D01*
X116306409Y-103557186D01*
X116464000Y-103732359D01*
X116643055Y-103919590D01*
X116834075Y-104109548D01*
X117027562Y-104292903D01*
X117214016Y-104460327D01*
X117383939Y-104602489D01*
X117462300Y-104663099D01*
X117914584Y-104972606D01*
X118403645Y-105255516D01*
X118921085Y-105508473D01*
X119458508Y-105728123D01*
X120007519Y-105911109D01*
X120559721Y-106054077D01*
X121106718Y-106153671D01*
X121234200Y-106170492D01*
X121346249Y-106184152D01*
X121450013Y-106196780D01*
X121526685Y-106206090D01*
X121539000Y-106207580D01*
X121622379Y-106213001D01*
X121746226Y-106215049D01*
X121900342Y-106214071D01*
X122074530Y-106210412D01*
X122258593Y-106204419D01*
X122442333Y-106196437D01*
X122615554Y-106186813D01*
X122768059Y-106175892D01*
X122889649Y-106164019D01*
X122914086Y-106160935D01*
X123523556Y-106054053D01*
X124115405Y-105900217D01*
X124687578Y-105700750D01*
X125238020Y-105456976D01*
X125764676Y-105170216D01*
X126265491Y-104841795D01*
X126738411Y-104473034D01*
X127181380Y-104065257D01*
X127592343Y-103619787D01*
X127969245Y-103137947D01*
X128242910Y-102730300D01*
X128347409Y-102553316D01*
X128461592Y-102342852D01*
X128578335Y-102113369D01*
X128690517Y-101879325D01*
X128791013Y-101655180D01*
X128872701Y-101455394D01*
X128878707Y-101439580D01*
X128925713Y-101309176D01*
X128974077Y-101165116D01*
X129020856Y-101017328D01*
X129063108Y-100875738D01*
X129097887Y-100750273D01*
X129122253Y-100650861D01*
X129133260Y-100587428D01*
X129133600Y-100579878D01*
X129115098Y-100545843D01*
X129057043Y-100501730D01*
X128955613Y-100444783D01*
X128924050Y-100428728D01*
X128757879Y-100342272D01*
X128568634Y-100238449D01*
X128363326Y-100121562D01*
X128148964Y-99995912D01*
X127932560Y-99865799D01*
X127721123Y-99735526D01*
X127521663Y-99609394D01*
X127341192Y-99491703D01*
X127186718Y-99386756D01*
X127065253Y-99298854D01*
X127006350Y-99252076D01*
X126946916Y-99182127D01*
X126925550Y-99112507D01*
X126940743Y-99053835D01*
X126990985Y-99016728D01*
X127040871Y-99009200D01*
X127081540Y-99023289D01*
X127153857Y-99061905D01*
X127248474Y-99119570D01*
X127356047Y-99190807D01*
X127385041Y-99210915D01*
X127532805Y-99311732D01*
X127699851Y-99421174D01*
X127880636Y-99536008D01*
X128069615Y-99653001D01*
X128261244Y-99768920D01*
X128449980Y-99880531D01*
X128630278Y-99984601D01*
X128796594Y-100077897D01*
X128943385Y-100157187D01*
X129065106Y-100219237D01*
X129156213Y-100260813D01*
X129211163Y-100278684D01*
X129216784Y-100279133D01*
X129260174Y-100290149D01*
X129333806Y-100319221D01*
X129423101Y-100360489D01*
X129439481Y-100368644D01*
X129889472Y-100581080D01*
X130379153Y-100786419D01*
X130897531Y-100981032D01*
X131433613Y-101161287D01*
X131976408Y-101323553D01*
X132514923Y-101464198D01*
X133038166Y-101579593D01*
X133197600Y-101610046D01*
X133984917Y-101731769D01*
X134787210Y-101811728D01*
X135595090Y-101849589D01*
X136399173Y-101845020D01*
X137190071Y-101797689D01*
X137528300Y-101763592D01*
X138393160Y-101640100D01*
X139242831Y-101468143D01*
X140077118Y-101247794D01*
X140895830Y-100979122D01*
X141698776Y-100662199D01*
X142485763Y-100297096D01*
X143256598Y-99883883D01*
X144011091Y-99422633D01*
X144207783Y-99292684D01*
X144355847Y-99193976D01*
X144468308Y-99121033D01*
X144551244Y-99070580D01*
X144610734Y-99039342D01*
X144652854Y-99024044D01*
X144683684Y-99021410D01*
X144703083Y-99025786D01*
X144754298Y-99060493D01*
X144774889Y-99126068D01*
X144775094Y-99128103D01*
X144775956Y-99159901D01*
X144767650Y-99188579D01*
X144744166Y-99219897D01*
X144699496Y-99259618D01*
X144627629Y-99313503D01*
X144522555Y-99387314D01*
X144458797Y-99431350D01*
X144091454Y-99675708D01*
X143697576Y-99921837D01*
X143299094Y-100156286D01*
X143056790Y-100291268D01*
X142692480Y-100489390D01*
X142709771Y-100604696D01*
X142727813Y-100689538D01*
X142760787Y-100811221D01*
X142805269Y-100959219D01*
X142857834Y-101123005D01*
X142915057Y-101292052D01*
X142973514Y-101455835D01*
X143029780Y-101603827D01*
X143055461Y-101667262D01*
X143310572Y-102215572D01*
X143610114Y-102740985D01*
X143951876Y-103240735D01*
X144333649Y-103712053D01*
X144753221Y-104152174D01*
X145208382Y-104558329D01*
X145612810Y-104868519D01*
X146079784Y-105173435D01*
X146575563Y-105443058D01*
X147094242Y-105675590D01*
X147629919Y-105869238D01*
X148176687Y-106022206D01*
X148728642Y-106132699D01*
X149279881Y-106198921D01*
X149824499Y-106219078D01*
X150037800Y-106213898D01*
X150533444Y-106172113D01*
X151046732Y-106089631D01*
X151568981Y-105969200D01*
X152091508Y-105813568D01*
X152605630Y-105625485D01*
X153102666Y-105407699D01*
X153573932Y-105162958D01*
X153822400Y-105015745D01*
X154184192Y-104771688D01*
X154548031Y-104490233D01*
X154901133Y-104182568D01*
X155230711Y-103859881D01*
X155523980Y-103533361D01*
X155543965Y-103509260D01*
X155872710Y-103073036D01*
X156172074Y-102599120D01*
X156439201Y-102093145D01*
X156671234Y-101560744D01*
X156865316Y-101007551D01*
X156937148Y-100761943D01*
X157023180Y-100423904D01*
X157096145Y-100085656D01*
X157154439Y-99757052D01*
X157196456Y-99447950D01*
X157220593Y-99168203D01*
X157226000Y-98988090D01*
X157217532Y-98754006D01*
X157193253Y-98481334D01*
X157154852Y-98179180D01*
X157104014Y-97856647D01*
X157042429Y-97522840D01*
X156971783Y-97186863D01*
X156893763Y-96857821D01*
X156810058Y-96544817D01*
X156722355Y-96256956D01*
X156716462Y-96239046D01*
X156574251Y-95852192D01*
X156411045Y-95485034D01*
X156230062Y-95142676D01*
X156034521Y-94830222D01*
X155827642Y-94552776D01*
X155612642Y-94315442D01*
X155392741Y-94123325D01*
X155372779Y-94108396D01*
X155090572Y-93930146D01*
X154794098Y-93800154D01*
X154485224Y-93718511D01*
X154165815Y-93685305D01*
X153837736Y-93700625D01*
X153502852Y-93764559D01*
X153163029Y-93877197D01*
X152910896Y-93991241D01*
X152564028Y-94191168D01*
X152222123Y-94437401D01*
X151889045Y-94725457D01*
X151568663Y-95050854D01*
X151264841Y-95409108D01*
X150981447Y-95795739D01*
X150722347Y-96206262D01*
X150491406Y-96636196D01*
X150335396Y-96977200D01*
X150131181Y-97516168D01*
X149972963Y-98057631D01*
X149860511Y-98598970D01*
X149793595Y-99137565D01*
X149771986Y-99670797D01*
X149795454Y-100196047D01*
X149863768Y-100710697D01*
X149976699Y-101212127D01*
X150134017Y-101697718D01*
X150335492Y-102164851D01*
X150580893Y-102610906D01*
X150866783Y-103029033D01*
X150921198Y-103103979D01*
X150960732Y-103164322D01*
X150977480Y-103197923D01*
X150977600Y-103199191D01*
X150959063Y-103227843D01*
X150912416Y-103271863D01*
X150888640Y-103290867D01*
X150849446Y-103319527D01*
X150816690Y-103335305D01*
X150785258Y-103333844D01*
X150750037Y-103310788D01*
X150705914Y-103261783D01*
X150647775Y-103182472D01*
X150570507Y-103068499D01*
X150496209Y-102956568D01*
X150228991Y-102518877D01*
X150007286Y-102078642D01*
X149827597Y-101626845D01*
X149686427Y-101154468D01*
X149580278Y-100652492D01*
X149563499Y-100551257D01*
X149543448Y-100384545D01*
X149528865Y-100179297D01*
X149519749Y-99947477D01*
X149516100Y-99701053D01*
X149517917Y-99451993D01*
X149525199Y-99212263D01*
X149537945Y-98993830D01*
X149556155Y-98808661D01*
X149563622Y-98755200D01*
X149682772Y-98134561D01*
X149845897Y-97538938D01*
X150053625Y-96966860D01*
X150306586Y-96416854D01*
X150605407Y-95887450D01*
X150950715Y-95377174D01*
X151075621Y-95211900D01*
X151171354Y-95097080D01*
X151296177Y-94960082D01*
X151441635Y-94809089D01*
X151599275Y-94652289D01*
X151760641Y-94497868D01*
X151917280Y-94354013D01*
X152060737Y-94228909D01*
X152182558Y-94130743D01*
X152222200Y-94101654D01*
X152574617Y-93876219D01*
X152929492Y-93695156D01*
X153284087Y-93559058D01*
X153635666Y-93468520D01*
X153981489Y-93424137D01*
X154318820Y-93426504D01*
X154644921Y-93476214D01*
X154843909Y-93532290D01*
X154916436Y-93555923D01*
X154962795Y-93567576D01*
X154980969Y-93563796D01*
X154968945Y-93541130D01*
X154924708Y-93496126D01*
X154846242Y-93425331D01*
X154731534Y-93325292D01*
X154714477Y-93310499D01*
X154227810Y-92920854D01*
X153719710Y-92577091D01*
X153191043Y-92279577D01*
X152642678Y-92028677D01*
X152075482Y-91824760D01*
X151490322Y-91668192D01*
X150888068Y-91559339D01*
X150460214Y-91512013D01*
X150331130Y-91500990D01*
X150221492Y-91490964D01*
X150140575Y-91482834D01*
X150097652Y-91477499D01*
X150093275Y-91476427D01*
X150097354Y-91451368D01*
X150113581Y-91385356D01*
X150139886Y-91286209D01*
X150174197Y-91161744D01*
X150211567Y-91029808D01*
X150414140Y-90237982D01*
X150574697Y-89425176D01*
X150691463Y-88601411D01*
X150748076Y-87998300D01*
X150760332Y-87785370D01*
X150768656Y-87541212D01*
X150773189Y-87274940D01*
X150774069Y-86995668D01*
X150771438Y-86712511D01*
X150765433Y-86434584D01*
X150756197Y-86171000D01*
X150743868Y-85930876D01*
X150728585Y-85723325D01*
X150710646Y-85558604D01*
X150696603Y-85455709D01*
X151338751Y-85457004D01*
X151564772Y-85456587D01*
X151749083Y-85454031D01*
X151900744Y-85448894D01*
X152028816Y-85440732D01*
X152142362Y-85429102D01*
X152250441Y-85413562D01*
X152260300Y-85411942D01*
X152516593Y-85363678D01*
X152786033Y-85302815D01*
X153049397Y-85234133D01*
X153287467Y-85162416D01*
X153355474Y-85139499D01*
X153467038Y-85097255D01*
X153598924Y-85041747D01*
X153744637Y-84976297D01*
X153897682Y-84904222D01*
X154051562Y-84828843D01*
X154199782Y-84753479D01*
X154335846Y-84681449D01*
X154453259Y-84616072D01*
X154545524Y-84560669D01*
X154606147Y-84518559D01*
X154628631Y-84493060D01*
X154627393Y-84489527D01*
X154599342Y-84488884D01*
X154533269Y-84496136D01*
X154441087Y-84509839D01*
X154394066Y-84517760D01*
X154088708Y-84551043D01*
X153759222Y-84550885D01*
X153418681Y-84518437D01*
X153148571Y-84467700D01*
X154660600Y-84467700D01*
X154673300Y-84480400D01*
X154686000Y-84467700D01*
X154673300Y-84455000D01*
X154660600Y-84467700D01*
X153148571Y-84467700D01*
X153080160Y-84454850D01*
X152806400Y-84378041D01*
X152639208Y-84316262D01*
X152444022Y-84232969D01*
X152234941Y-84135086D01*
X152026068Y-84029536D01*
X151831501Y-83923242D01*
X151665342Y-83823127D01*
X151632829Y-83801838D01*
X151190020Y-83477059D01*
X150774200Y-83113334D01*
X150387930Y-82714745D01*
X150033774Y-82285374D01*
X149714294Y-81829301D01*
X149432054Y-81350608D01*
X149189615Y-80853377D01*
X148989540Y-80341689D01*
X148834392Y-79819625D01*
X148726734Y-79291267D01*
X148704930Y-79138749D01*
X148687307Y-78961184D01*
X148675116Y-78752333D01*
X148668486Y-78526755D01*
X148667549Y-78299012D01*
X148672436Y-78083664D01*
X148683277Y-77895270D01*
X148692903Y-77799533D01*
X148778847Y-77297888D01*
X148910372Y-76814174D01*
X149088286Y-76346687D01*
X149313396Y-75893722D01*
X149586509Y-75453574D01*
X149908432Y-75024536D01*
X150126852Y-74770069D01*
X150350740Y-74521239D01*
X150447012Y-74615246D01*
X150543285Y-74709253D01*
X150375508Y-74889476D01*
X150031147Y-75290484D01*
X149735227Y-75702716D01*
X149485980Y-76129650D01*
X149281641Y-76574765D01*
X149120443Y-77041540D01*
X149000620Y-77533452D01*
X148981476Y-77635100D01*
X148959202Y-77800877D01*
X148943667Y-78004025D01*
X148934886Y-78231561D01*
X148932875Y-78470504D01*
X148937652Y-78707869D01*
X148949232Y-78930674D01*
X148967631Y-79125938D01*
X148979509Y-79209900D01*
X149093379Y-79756722D01*
X149254138Y-80292360D01*
X149459422Y-80809990D01*
X149701228Y-81292700D01*
X149970308Y-81735821D01*
X150267816Y-82152979D01*
X150590418Y-82541464D01*
X150934778Y-82898566D01*
X151297562Y-83221574D01*
X151675435Y-83507779D01*
X152065062Y-83754469D01*
X152463109Y-83958935D01*
X152866240Y-84118466D01*
X153271120Y-84230353D01*
X153331182Y-84242738D01*
X153476498Y-84264141D01*
X153650813Y-84278617D01*
X153839514Y-84285995D01*
X154027986Y-84286102D01*
X154201616Y-84278765D01*
X154345790Y-84263814D01*
X154393900Y-84255253D01*
X154751029Y-84156837D01*
X155079758Y-84017363D01*
X155382756Y-83835204D01*
X155662694Y-83608737D01*
X155922240Y-83336336D01*
X155941718Y-83313095D01*
X156189818Y-82984393D01*
X156411707Y-82626257D01*
X156608553Y-82235787D01*
X156781523Y-81810082D01*
X156931786Y-81346244D01*
X157060510Y-80841370D01*
X157168863Y-80292561D01*
X157176736Y-80246378D01*
X157212289Y-80020176D01*
X157235528Y-79828486D01*
X157246912Y-79656654D01*
X157246899Y-79490025D01*
X157235947Y-79313942D01*
X157214515Y-79113752D01*
X157212629Y-79098422D01*
X157119336Y-78524498D01*
X156985305Y-77980489D01*
X156810613Y-77466570D01*
X156595341Y-76982916D01*
X156339567Y-76529704D01*
X156043371Y-76107108D01*
X155706830Y-75715305D01*
X155678623Y-75685771D01*
X155356688Y-75370987D01*
X155033437Y-75096427D01*
X154696720Y-74852684D01*
X154334387Y-74630349D01*
X154266900Y-74592643D01*
X153901075Y-74406484D01*
X153513854Y-74238001D01*
X153113852Y-74089668D01*
X152709683Y-73963958D01*
X152309962Y-73863345D01*
X151923302Y-73790303D01*
X151558318Y-73747305D01*
X151284489Y-73736199D01*
X150782628Y-73761209D01*
X150282548Y-73834776D01*
X149788293Y-73954710D01*
X149303909Y-74118819D01*
X148833442Y-74324910D01*
X148380938Y-74570794D01*
X147950441Y-74854278D01*
X147545997Y-75173170D01*
X147171652Y-75525279D01*
X146831452Y-75908414D01*
X146538014Y-76307464D01*
X146424191Y-76478429D01*
X146141845Y-76207854D01*
X145586006Y-75705207D01*
X144989213Y-75222100D01*
X144359398Y-74764251D01*
X143704489Y-74337373D01*
X143032416Y-73947185D01*
X142925800Y-73889599D01*
X142796653Y-73820127D01*
X142682886Y-73758121D01*
X142592185Y-73707835D01*
X142532238Y-73673525D01*
X142511287Y-73660175D01*
X142520625Y-73636775D01*
X142561523Y-73587213D01*
X142627351Y-73518830D01*
X142708745Y-73441471D01*
X142949117Y-73208659D01*
X143201620Y-72940723D01*
X143456963Y-72648600D01*
X143705853Y-72343227D01*
X143938998Y-72035541D01*
X144109371Y-71792947D01*
X144484753Y-71192656D01*
X144814550Y-70572420D01*
X145098229Y-69934617D01*
X145335253Y-69281623D01*
X145525089Y-68615817D01*
X145667201Y-67939575D01*
X145761056Y-67255276D01*
X145806117Y-66565295D01*
X145801850Y-65872011D01*
X145747721Y-65177801D01*
X145691035Y-64761493D01*
X145672421Y-64639540D01*
X145658117Y-64537334D01*
X145649365Y-64464425D01*
X145647405Y-64430361D01*
X145647873Y-64429088D01*
X145673831Y-64418890D01*
X145738093Y-64395957D01*
X145830813Y-64363748D01*
X145935700Y-64327911D01*
X146395252Y-64148138D01*
X146822311Y-63930822D01*
X147221377Y-63673233D01*
X147596950Y-63372642D01*
X147761274Y-63220904D01*
X148035957Y-62938622D01*
X148272352Y-62655133D01*
X148480955Y-62356119D01*
X148672260Y-62027260D01*
X148757502Y-61861700D01*
X148953726Y-61411187D01*
X149101869Y-60948562D01*
X149202183Y-60477352D01*
X149254919Y-60001085D01*
X149260329Y-59523287D01*
X149218664Y-59047486D01*
X149130176Y-58577210D01*
X148995117Y-58115985D01*
X148813738Y-57667339D01*
X148586291Y-57234799D01*
X148407476Y-56954632D01*
X148104622Y-56557508D01*
X147768098Y-56198041D01*
X147399542Y-55877367D01*
X147000598Y-55596624D01*
X146572905Y-55356948D01*
X146118105Y-55159476D01*
X145637838Y-55005345D01*
X145567400Y-54986969D01*
X145089755Y-54891557D01*
X144609247Y-54845648D01*
X144129286Y-54848332D01*
X143653286Y-54898703D01*
X143184658Y-54995852D01*
X142726814Y-55138871D01*
X142283168Y-55326851D01*
X141857132Y-55558884D01*
X141452118Y-55834063D01*
X141071537Y-56151478D01*
X141023461Y-56196340D01*
X140896377Y-56324548D01*
X140755259Y-56480135D01*
X140613294Y-56647590D01*
X140483668Y-56811400D01*
X140387076Y-56944920D01*
X140283584Y-57097319D01*
X140683942Y-57300199D01*
X141265000Y-57620134D01*
X141828716Y-57982819D01*
X142306580Y-58333609D01*
X142416305Y-58423023D01*
X142486728Y-58492494D01*
X142521919Y-58548532D01*
X142525946Y-58597647D01*
X142502878Y-58646346D01*
X142502452Y-58646956D01*
X142459472Y-58686829D01*
X142404696Y-58693688D01*
X142332058Y-58665872D01*
X142235491Y-58601722D01*
X142180483Y-58558845D01*
X141945729Y-58378529D01*
X141680135Y-58189484D01*
X141399657Y-58002754D01*
X141169632Y-57859041D01*
X141031942Y-57777750D01*
X140882928Y-57693220D01*
X140729933Y-57609260D01*
X140580302Y-57529677D01*
X140441382Y-57458278D01*
X140320516Y-57398872D01*
X140225050Y-57355265D01*
X140162328Y-57331267D01*
X140144889Y-57327800D01*
X140105899Y-57318057D01*
X140031806Y-57291642D01*
X139933815Y-57252770D01*
X139839797Y-57212954D01*
X139223569Y-56971272D01*
X138583457Y-56771596D01*
X137926636Y-56615732D01*
X137260281Y-56505489D01*
X136857025Y-56461831D01*
X136695464Y-56451729D01*
X136496661Y-56445452D01*
X136270896Y-56442797D01*
X136028449Y-56443565D01*
X135779600Y-56447556D01*
X135534628Y-56454567D01*
X135303813Y-56464399D01*
X135097435Y-56476851D01*
X134925774Y-56491723D01*
X134848600Y-56501038D01*
X134213412Y-56605591D01*
X133612395Y-56738898D01*
X133036231Y-56903453D01*
X132475606Y-57101751D01*
X132222703Y-57204005D01*
X131618897Y-57482988D01*
X131030674Y-57805025D01*
X130465014Y-58165616D01*
X129928897Y-58560263D01*
X129429301Y-58984465D01*
X129355932Y-59052245D01*
X129236725Y-59159911D01*
X129145330Y-59232467D01*
X129075925Y-59272872D01*
X129022688Y-59284087D01*
X128979798Y-59269071D01*
X128960879Y-59253119D01*
X128931584Y-59207711D01*
X128932878Y-59154998D01*
X128967599Y-59089321D01*
X129038586Y-59005020D01*
X129131819Y-58912348D01*
X129555946Y-58535511D01*
X130015948Y-58173947D01*
X130498948Y-57836791D01*
X130992066Y-57533183D01*
X131349750Y-57338640D01*
X131455251Y-57282563D01*
X131541804Y-57232729D01*
X131600589Y-57194489D01*
X131622789Y-57173192D01*
X131622800Y-57172962D01*
X131606335Y-57125659D01*
X131560392Y-57047783D01*
X131490142Y-56945906D01*
X131400760Y-56826602D01*
X131297420Y-56696444D01*
X131185295Y-56562004D01*
X131069558Y-56429854D01*
X130955383Y-56306568D01*
X130882171Y-56232035D01*
X130520100Y-55908785D01*
X130131598Y-55627100D01*
X129720269Y-55387576D01*
X129289721Y-55190808D01*
X128843558Y-55037393D01*
X128385388Y-54927928D01*
X127918815Y-54863008D01*
X127447446Y-54843231D01*
X126974886Y-54869192D01*
X126504743Y-54941488D01*
X126040620Y-55060715D01*
X125586126Y-55227469D01*
X125378097Y-55321836D01*
X124943229Y-55558724D01*
X124541295Y-55832159D01*
X124173571Y-56139132D01*
X123841334Y-56476634D01*
X123545860Y-56841658D01*
X123288427Y-57231195D01*
X123070309Y-57642237D01*
X122892784Y-58071775D01*
X122757129Y-58516801D01*
X122664619Y-58974307D01*
X122616531Y-59441285D01*
X122614142Y-59914725D01*
X122658728Y-60391620D01*
X122751565Y-60868962D01*
X122862157Y-61251308D01*
X123041946Y-61712049D01*
X123266055Y-62148545D01*
X123533411Y-62559353D01*
X123842940Y-62943034D01*
X124193571Y-63298147D01*
X124584229Y-63623253D01*
X124684008Y-63696785D01*
X124854707Y-63809413D01*
X125059893Y-63928523D01*
X125285135Y-64046891D01*
X125516004Y-64157293D01*
X125738071Y-64252507D01*
X125936905Y-64325307D01*
X125944259Y-64327679D01*
X126243170Y-64423498D01*
X126227115Y-64514199D01*
X126126941Y-65204688D01*
X126073864Y-65881301D01*
X126067804Y-66549005D01*
X126108680Y-67212770D01*
X126175559Y-67747131D01*
X126307126Y-68439922D01*
X126486882Y-69118590D01*
X126713596Y-69780756D01*
X126986037Y-70424044D01*
X127302973Y-71046074D01*
X127663172Y-71644468D01*
X128065402Y-72216848D01*
X128508433Y-72760834D01*
X128991033Y-73274050D01*
X129085163Y-73366021D01*
X129388943Y-73658901D01*
X129102521Y-73802165D01*
X128560734Y-74091488D01*
X128010638Y-74420177D01*
X127462551Y-74780900D01*
X126926792Y-75166323D01*
X126413680Y-75569112D01*
X125933534Y-75981933D01*
X125613206Y-76282065D01*
X125432913Y-76457767D01*
X125346506Y-76322602D01*
X125249896Y-76182562D01*
X125126212Y-76019981D01*
X124985485Y-75847012D01*
X124837750Y-75675808D01*
X124693037Y-75518523D01*
X124626671Y-75450615D01*
X124224931Y-75084898D01*
X123793598Y-74759753D01*
X123335258Y-74476445D01*
X122852500Y-74236238D01*
X122347910Y-74040398D01*
X121824076Y-73890190D01*
X121283585Y-73786878D01*
X121200145Y-73775362D01*
X120741883Y-73738857D01*
X120271766Y-73748244D01*
X119787992Y-73803754D01*
X119288761Y-73905617D01*
X118772271Y-74054063D01*
X118622312Y-74104705D01*
X118092714Y-74309907D01*
X117604741Y-74542483D01*
X117156238Y-74804045D01*
X116745046Y-75096205D01*
X116369011Y-75420574D01*
X116025974Y-75778765D01*
X115713778Y-76172389D01*
X115563639Y-76390500D01*
X115289832Y-76853475D01*
X115061402Y-77336708D01*
X114878822Y-77836699D01*
X114742565Y-78349947D01*
X114653104Y-78872954D01*
X114610914Y-79402220D01*
X114616467Y-79934244D01*
X114670238Y-80465527D01*
X114772700Y-80992570D01*
X114886225Y-81396902D01*
X115045600Y-81829061D01*
X115243972Y-82256556D01*
X115475900Y-82670527D01*
X115735947Y-83062111D01*
X116018675Y-83422450D01*
X116318645Y-83742682D01*
X116336558Y-83759934D01*
X116528747Y-83913140D01*
X116762592Y-84046690D01*
X117031759Y-84157597D01*
X117329916Y-84242872D01*
X117386100Y-84255253D01*
X117513227Y-84273389D01*
X117675935Y-84283887D01*
X117859611Y-84286918D01*
X118049638Y-84282649D01*
X118231402Y-84271251D01*
X118390287Y-84252892D01*
X118447626Y-84242961D01*
X118856282Y-84137403D01*
X119261359Y-83984128D01*
X119659822Y-83786214D01*
X120048637Y-83546740D01*
X120424769Y-83268788D01*
X120785184Y-82955434D01*
X121126848Y-82609760D01*
X121446725Y-82234844D01*
X121741782Y-81833765D01*
X122008983Y-81409603D01*
X122245295Y-80965437D01*
X122447682Y-80504347D01*
X122613111Y-80029412D01*
X122618968Y-80010000D01*
X122742612Y-79517230D01*
X122820280Y-79020175D01*
X122852078Y-78523451D01*
X122838114Y-78031675D01*
X122778495Y-77549464D01*
X122673327Y-77081434D01*
X122541833Y-76681414D01*
X122356989Y-76259883D01*
X122127566Y-75843087D01*
X121859572Y-75440371D01*
X121559018Y-75061077D01*
X121357342Y-74840099D01*
X121233801Y-74712098D01*
X121331530Y-74616669D01*
X121429259Y-74521239D01*
X121652525Y-74770069D01*
X122001259Y-75189615D01*
X122300675Y-75616766D01*
X122552007Y-76054109D01*
X122756490Y-76504226D01*
X122915357Y-76969703D01*
X123029842Y-77453122D01*
X123078142Y-77755876D01*
X123096746Y-77950523D01*
X123107090Y-78179132D01*
X123109483Y-78427971D01*
X123104238Y-78683307D01*
X123091665Y-78931410D01*
X123072076Y-79158549D01*
X123045781Y-79350991D01*
X123041467Y-79375000D01*
X122911206Y-79938382D01*
X122734165Y-80487212D01*
X122512442Y-81018283D01*
X122248133Y-81528388D01*
X121943334Y-82014321D01*
X121600143Y-82472874D01*
X121220657Y-82900841D01*
X120806971Y-83295014D01*
X120361183Y-83652187D01*
X120146399Y-83802857D01*
X119989408Y-83900437D01*
X119799431Y-84006210D01*
X119590978Y-84113063D01*
X119378559Y-84213883D01*
X119176682Y-84301555D01*
X118999859Y-84368968D01*
X118973600Y-84377814D01*
X118695772Y-84455011D01*
X118400865Y-84511498D01*
X118102553Y-84545907D01*
X117814512Y-84556871D01*
X117550415Y-84543022D01*
X117452781Y-84529943D01*
X117368114Y-84517977D01*
X117305709Y-84512484D01*
X117280184Y-84514348D01*
X117290191Y-84527165D01*
X117332338Y-84556460D01*
X117409400Y-84603913D01*
X117524151Y-84671205D01*
X117679367Y-84760014D01*
X117779800Y-84816841D01*
X117891478Y-84874287D01*
X118037866Y-84941548D01*
X118205293Y-85012946D01*
X118380088Y-85082801D01*
X118548580Y-85145436D01*
X118669975Y-85186632D01*
X119131243Y-85316228D01*
X119582825Y-85404742D01*
X120038714Y-85454089D01*
X120512901Y-85466181D01*
X120683434Y-85462051D01*
X120845041Y-85456534D01*
X120962564Y-85453638D01*
X121042674Y-85453790D01*
X121092040Y-85457416D01*
X121117330Y-85464940D01*
X121125215Y-85476790D01*
X121123342Y-85490136D01*
X121107299Y-85573433D01*
X121092841Y-85700848D01*
X121080084Y-85865723D01*
X121069141Y-86061396D01*
X121060128Y-86281208D01*
X121053160Y-86518499D01*
X121048352Y-86766609D01*
X121045819Y-87018878D01*
X121045674Y-87268646D01*
X121048035Y-87509253D01*
X121053014Y-87734040D01*
X121060728Y-87936346D01*
X121071291Y-88109511D01*
X121076999Y-88176100D01*
X121124665Y-88617334D01*
X121182355Y-89055808D01*
X121247468Y-89472695D01*
X121285178Y-89684225D01*
X121317973Y-89849609D01*
X121358747Y-90039960D01*
X121405164Y-90245672D01*
X121454888Y-90457139D01*
X121505583Y-90664755D01*
X121554913Y-90858911D01*
X121600542Y-91030003D01*
X121640134Y-91168423D01*
X121665309Y-91247491D01*
X121699156Y-91347868D01*
X121714249Y-91414906D01*
X121704290Y-91456058D01*
X121662978Y-91478776D01*
X121584015Y-91490515D01*
X121461101Y-91498727D01*
X121452533Y-91499249D01*
X120886999Y-91558681D01*
X120321295Y-91666732D01*
X119760626Y-91821504D01*
X119210196Y-92021100D01*
X118675211Y-92263624D01*
X118160876Y-92547178D01*
X117672394Y-92869866D01*
X117652800Y-92884045D01*
X117556290Y-92956232D01*
X117444554Y-93043168D01*
X117324918Y-93138770D01*
X117204708Y-93236955D01*
X117091248Y-93331639D01*
X116991865Y-93416740D01*
X116913885Y-93486174D01*
X116864634Y-93533859D01*
X116852423Y-93548647D01*
X116866095Y-93553460D01*
X116915880Y-93542837D01*
X116976254Y-93523985D01*
X117208782Y-93464023D01*
X117470940Y-93430955D01*
X117749144Y-93424973D01*
X118029809Y-93446266D01*
X118299351Y-93495025D01*
X118338600Y-93504881D01*
X118713446Y-93627390D01*
X119081214Y-93797457D01*
X119443148Y-94015848D01*
X119800491Y-94283329D01*
X120154486Y-94600667D01*
X120219620Y-94664813D01*
X120611153Y-95091420D01*
X120965456Y-95550895D01*
X121281123Y-96040094D01*
X121556754Y-96555872D01*
X121790945Y-97095084D01*
X121982292Y-97654585D01*
X122129394Y-98231232D01*
X122230847Y-98821878D01*
X122276357Y-99275296D01*
X122288528Y-99798004D01*
X122253382Y-100323634D01*
X122172341Y-100845956D01*
X122046825Y-101358738D01*
X121878256Y-101855750D01*
X121668054Y-102330761D01*
X121514210Y-102617094D01*
X121449520Y-102724647D01*
X121374175Y-102842810D01*
X121293510Y-102964025D01*
X121212858Y-103080739D01*
X121137551Y-103185393D01*
X121072922Y-103270433D01*
X121024304Y-103328302D01*
X120997030Y-103351445D01*
X120995839Y-103351567D01*
X120960552Y-103335551D01*
X120905268Y-103296485D01*
X120881519Y-103277004D01*
X120795539Y-103203472D01*
X120871132Y-103106586D01*
X121147120Y-102713745D01*
X121390973Y-102285705D01*
X121600004Y-101828656D01*
X121771529Y-101348792D01*
X121902861Y-100852304D01*
X121948670Y-100622100D01*
X121968095Y-100507064D01*
X121982818Y-100401450D01*
X121993465Y-100295165D01*
X122000665Y-100178113D01*
X122005044Y-100040200D01*
X122007230Y-99871330D01*
X122007847Y-99669600D01*
X122006011Y-99402702D01*
X121999352Y-99173888D01*
X121986435Y-98970552D01*
X121965827Y-98780092D01*
X121936093Y-98589903D01*
X121895800Y-98387382D01*
X121843514Y-98159924D01*
X121829540Y-98102342D01*
X121669200Y-97544403D01*
X121466341Y-97004573D01*
X121223215Y-96486850D01*
X120942072Y-95995236D01*
X120625164Y-95533731D01*
X120274744Y-95106335D01*
X119959543Y-94779875D01*
X119696847Y-94541764D01*
X119441012Y-94340547D01*
X119178561Y-94166569D01*
X118896014Y-94010175D01*
X118859300Y-93991724D01*
X118509944Y-93840591D01*
X118169657Y-93739327D01*
X117838539Y-93687932D01*
X117516687Y-93686408D01*
X117204199Y-93734755D01*
X116901175Y-93832974D01*
X116628853Y-93968544D01*
X116460180Y-94078507D01*
X116305068Y-94205143D01*
X116156271Y-94355929D01*
X116006547Y-94538344D01*
X115848653Y-94759864D01*
X115818121Y-94805500D01*
X115513219Y-95309916D01*
X115253862Y-95834624D01*
X115041351Y-96376644D01*
X114876990Y-96932998D01*
X114863110Y-96989900D01*
X114773904Y-97386147D01*
X114705240Y-97746677D01*
X114655905Y-98081680D01*
X114624683Y-98401342D01*
X114610358Y-98715853D01*
X114307690Y-98715853D01*
X114321035Y-98586106D01*
X114338734Y-98433848D01*
X114383286Y-98078771D01*
X114428045Y-97764580D01*
X114475102Y-97481394D01*
X114526543Y-97219336D01*
X114584459Y-96968523D01*
X114650936Y-96719078D01*
X114728065Y-96461121D01*
X114807751Y-96215200D01*
X114968469Y-95769997D01*
X115137979Y-95372463D01*
X115317575Y-95020021D01*
X115508552Y-94710096D01*
X115682210Y-94476430D01*
X116005505Y-94090233D01*
X116314243Y-93745275D01*
X116613873Y-93436100D01*
X116909839Y-93157252D01*
X117207591Y-92903274D01*
X117412935Y-92742689D01*
X117899161Y-92406615D01*
X118415729Y-92108285D01*
X118956922Y-91849977D01*
X119517023Y-91633973D01*
X120090314Y-91462550D01*
X120671079Y-91337991D01*
X121081800Y-91279589D01*
X121207573Y-91264749D01*
X121291067Y-91252150D01*
X121340595Y-91239428D01*
X121364467Y-91224219D01*
X121370996Y-91204162D01*
X121370852Y-91197403D01*
X121363573Y-91156683D01*
X121345463Y-91076515D01*
X121318829Y-90966523D01*
X121285976Y-90836332D01*
X121264541Y-90753683D01*
X121101336Y-90058258D01*
X120967689Y-89330004D01*
X120862866Y-88564752D01*
X120835743Y-88315800D01*
X120824033Y-88171005D01*
X120814082Y-87987477D01*
X120805952Y-87773764D01*
X120799705Y-87538417D01*
X120795402Y-87289987D01*
X120793106Y-87037025D01*
X120792876Y-86788080D01*
X120794776Y-86551703D01*
X120798867Y-86336445D01*
X120805210Y-86150856D01*
X120813867Y-86003487D01*
X120818694Y-85950408D01*
X120842031Y-85731316D01*
X120358665Y-85718457D01*
X119859351Y-85689500D01*
X119390812Y-85628486D01*
X118942457Y-85532846D01*
X118503696Y-85400010D01*
X118063937Y-85227407D01*
X117765304Y-85089136D01*
X117479013Y-84937794D01*
X117187995Y-84763362D01*
X116908839Y-84576507D01*
X116658134Y-84387894D01*
X116598700Y-84339078D01*
X116485231Y-84245974D01*
X116358799Y-84145422D01*
X116241167Y-84054640D01*
X116205000Y-84027545D01*
X116105177Y-83948207D01*
X115987881Y-83846777D01*
X115870218Y-83738378D01*
X115798600Y-83668275D01*
X115534204Y-83367778D01*
X115290700Y-83022278D01*
X115068840Y-82633407D01*
X114869372Y-82202799D01*
X114693048Y-81732085D01*
X114540617Y-81222900D01*
X114412829Y-80676875D01*
X114403823Y-80632300D01*
X114353039Y-80369832D01*
X114314280Y-80148254D01*
X114286718Y-79959307D01*
X114269526Y-79794733D01*
X114261878Y-79646274D01*
X114262947Y-79505671D01*
X114271906Y-79364667D01*
X114274297Y-79338566D01*
X114352149Y-78740355D01*
X114468799Y-78174382D01*
X114624728Y-77639534D01*
X114820418Y-77134696D01*
X115056348Y-76658756D01*
X115332999Y-76210598D01*
X115650853Y-75789108D01*
X115951000Y-75453861D01*
X116374668Y-75048774D01*
X116819521Y-74688928D01*
X117284282Y-74374855D01*
X117767674Y-74107081D01*
X118268422Y-73886136D01*
X118785249Y-73712550D01*
X119316879Y-73586850D01*
X119862035Y-73509567D01*
X120419441Y-73481228D01*
X120700800Y-73485521D01*
X121259495Y-73530947D01*
X121805359Y-73624893D01*
X122336068Y-73766350D01*
X122849298Y-73954304D01*
X123342725Y-74187746D01*
X123814025Y-74465664D01*
X124260873Y-74787046D01*
X124680947Y-75150882D01*
X124804338Y-75271100D01*
X124897473Y-75367980D01*
X125005051Y-75485640D01*
X125118776Y-75614405D01*
X125230350Y-75744599D01*
X125331476Y-75866547D01*
X125413856Y-75970573D01*
X125467434Y-76044340D01*
X125487412Y-76031565D01*
X125538536Y-75990166D01*
X125614315Y-75925636D01*
X125708256Y-75843467D01*
X125773306Y-75785595D01*
X126278582Y-75353466D01*
X126809213Y-74937743D01*
X127355508Y-74545225D01*
X127907773Y-74182714D01*
X128456318Y-73857010D01*
X128746250Y-73699523D01*
X128831202Y-73653069D01*
X128895423Y-73614368D01*
X128928259Y-73589967D01*
X128930399Y-73586322D01*
X128913413Y-73562587D01*
X128867657Y-73511999D01*
X128800936Y-73442964D01*
X128750471Y-73392618D01*
X128627773Y-73267171D01*
X128485177Y-73113856D01*
X128333711Y-72945109D01*
X128184406Y-72773362D01*
X128048289Y-72611050D01*
X127962519Y-72504300D01*
X127546645Y-71933198D01*
X127173433Y-71336898D01*
X126843648Y-70718183D01*
X126558056Y-70079837D01*
X126317421Y-69424644D01*
X126122509Y-68755388D01*
X125974083Y-68074852D01*
X125872909Y-67385821D01*
X125819752Y-66691078D01*
X125815377Y-65993408D01*
X125860548Y-65295593D01*
X125896760Y-64985900D01*
X125912980Y-64867206D01*
X125927952Y-64763113D01*
X125939785Y-64686455D01*
X125945659Y-64653789D01*
X125945323Y-64621381D01*
X125920461Y-64596410D01*
X125860993Y-64571268D01*
X125817417Y-64556973D01*
X125671749Y-64504824D01*
X125497487Y-64432625D01*
X125309202Y-64347104D01*
X125121468Y-64254993D01*
X124948856Y-64163022D01*
X124884334Y-64126031D01*
X124461519Y-63848035D01*
X124069811Y-63531045D01*
X123711731Y-63178061D01*
X123389799Y-62792083D01*
X123106536Y-62376111D01*
X122864464Y-61933144D01*
X122679539Y-61502318D01*
X122529436Y-61032921D01*
X122426488Y-60552030D01*
X122370276Y-60064094D01*
X122360378Y-59573561D01*
X122396375Y-59084879D01*
X122477847Y-58602497D01*
X122604372Y-58130863D01*
X122775531Y-57674426D01*
X122990904Y-57237633D01*
X123100021Y-57052079D01*
X123389766Y-56630422D01*
X123713809Y-56243702D01*
X124069243Y-55893486D01*
X124453160Y-55581342D01*
X124862654Y-55308839D01*
X125294818Y-55077543D01*
X125746745Y-54889022D01*
X126215529Y-54744845D01*
X126698261Y-54646578D01*
X127192037Y-54595791D01*
X127660400Y-54592612D01*
X128174811Y-54637579D01*
X128674714Y-54730688D01*
X129157983Y-54871016D01*
X129622490Y-55057637D01*
X130066110Y-55289628D01*
X130486714Y-55566066D01*
X130882177Y-55886025D01*
X131090840Y-56082852D01*
X131256058Y-56253128D01*
X131402877Y-56418399D01*
X131541387Y-56591276D01*
X131681681Y-56784367D01*
X131833850Y-57010280D01*
X131837300Y-57015551D01*
X131860663Y-57008353D01*
X131922614Y-56985009D01*
X132014791Y-56948777D01*
X132128833Y-56902914D01*
X132181395Y-56881500D01*
X132837635Y-56640458D01*
X133509151Y-56447344D01*
X134193762Y-56302380D01*
X134889289Y-56205788D01*
X135593550Y-56157790D01*
X136304365Y-56158606D01*
X137019553Y-56208460D01*
X137736935Y-56307572D01*
X137769600Y-56313258D01*
X138057730Y-56370400D01*
X138374346Y-56444600D01*
X138705900Y-56531956D01*
X139038843Y-56628569D01*
X139359628Y-56730538D01*
X139654707Y-56833963D01*
X139870087Y-56917990D01*
X140052874Y-56993594D01*
X140136787Y-56862510D01*
X140192203Y-56780931D01*
X140266406Y-56678300D01*
X140346061Y-56572921D01*
X140371270Y-56540662D01*
X140700734Y-56163277D01*
X141062910Y-55822508D01*
X141454249Y-55519871D01*
X141871204Y-55256885D01*
X142310226Y-55035066D01*
X142767767Y-54855931D01*
X143240279Y-54720998D01*
X143724213Y-54631783D01*
X144216022Y-54589804D01*
X144712156Y-54596577D01*
X144712156Y-54596577D01*
G37*
X144712156Y-54596577D02*
X144885258Y-54610656D01*
X145381623Y-54684617D01*
X145866478Y-54805926D01*
X146335964Y-54972567D01*
X146786223Y-55182520D01*
X147213397Y-55433767D01*
X147613629Y-55724290D01*
X147983059Y-56052069D01*
X148305183Y-56399950D01*
X148610558Y-56801859D01*
X148871653Y-57224703D01*
X149088438Y-57665159D01*
X149260886Y-58119904D01*
X149388965Y-58585615D01*
X149472647Y-59058970D01*
X149511902Y-59536645D01*
X149506701Y-60015317D01*
X149457014Y-60491665D01*
X149362812Y-60962364D01*
X149224065Y-61424092D01*
X149040744Y-61873525D01*
X148812820Y-62307342D01*
X148540263Y-62722220D01*
X148363207Y-62951045D01*
X148253124Y-63076999D01*
X148115021Y-63222487D01*
X147960300Y-63376522D01*
X147800364Y-63528116D01*
X147646613Y-63666281D01*
X147510448Y-63780030D01*
X147472400Y-63809519D01*
X147267340Y-63953629D01*
X147035271Y-64098170D01*
X146788486Y-64236683D01*
X146539281Y-64362708D01*
X146299949Y-64469786D01*
X146082786Y-64551457D01*
X146026258Y-64569303D01*
X145960747Y-64592443D01*
X145933375Y-64617026D01*
X145932637Y-64655270D01*
X145934833Y-64666389D01*
X145953871Y-64774335D01*
X145974306Y-64922635D01*
X145995041Y-65100902D01*
X146014973Y-65298751D01*
X146033003Y-65505797D01*
X146048030Y-65711655D01*
X146051585Y-65768248D01*
X146065908Y-66383381D01*
X146036862Y-67014725D01*
X145965841Y-67654466D01*
X145854235Y-68294790D01*
X145703436Y-68927882D01*
X145514836Y-69545930D01*
X145289828Y-70141118D01*
X145260235Y-70211127D01*
X144985050Y-70805092D01*
X144679375Y-71369198D01*
X144338964Y-71909818D01*
X143959573Y-72433325D01*
X143536957Y-72946090D01*
X143172951Y-73344396D01*
X142929101Y-73600293D01*
X143111600Y-73698154D01*
X143565535Y-73954762D01*
X144032493Y-74243505D01*
X144502137Y-74556973D01*
X144964131Y-74887760D01*
X145408136Y-75228458D01*
X145823816Y-75571659D01*
X146200834Y-75909957D01*
X146209121Y-75917766D01*
X146382372Y-76081202D01*
X146425228Y-76019951D01*
X146572157Y-75825437D01*
X146751030Y-75613600D01*
X146951503Y-75395272D01*
X147163235Y-75181284D01*
X147375882Y-74982466D01*
X147579104Y-74809649D01*
X147586700Y-74803583D01*
X148026323Y-74485547D01*
X148494141Y-74208140D01*
X148985807Y-73972976D01*
X149496980Y-73781671D01*
X150023314Y-73635839D01*
X150560466Y-73537097D01*
X151104093Y-73487060D01*
X151130000Y-73485922D01*
X151689593Y-73487348D01*
X152239526Y-73537798D01*
X152777302Y-73636005D01*
X153300425Y-73780702D01*
X153806399Y-73970620D01*
X154292725Y-74204491D01*
X154756909Y-74481049D01*
X155196454Y-74799025D01*
X155608862Y-75157151D01*
X155991638Y-75554161D01*
X156342284Y-75988785D01*
X156500055Y-76212778D01*
X156604629Y-76379308D01*
X156718782Y-76580067D01*
X156835563Y-76801250D01*
X156948015Y-77029051D01*
X157049187Y-77249664D01*
X157132124Y-77449286D01*
X157158769Y-77520536D01*
X157318302Y-78036703D01*
X157432330Y-78566439D01*
X157500325Y-79103664D01*
X157521762Y-79642297D01*
X157496115Y-80176259D01*
X157430350Y-80658881D01*
X157367176Y-80974635D01*
X157295275Y-81263035D01*
X157209937Y-81538073D01*
X157106451Y-81813740D01*
X156980106Y-82104026D01*
X156857767Y-82359500D01*
X156706058Y-82654971D01*
X156560369Y-82912387D01*
X156412878Y-83142568D01*
X156255761Y-83356338D01*
X156081194Y-83564516D01*
X155881354Y-83777925D01*
X155707573Y-83950452D01*
X155277643Y-84334281D01*
X154828291Y-84671249D01*
X154358704Y-84961763D01*
X153868073Y-85206232D01*
X153355584Y-85405062D01*
X152820426Y-85558661D01*
X152298400Y-85661787D01*
X152186974Y-85675746D01*
X152038200Y-85689274D01*
X151865528Y-85701423D01*
X151682407Y-85711244D01*
X151504826Y-85717723D01*
X150977953Y-85731784D01*
X150996826Y-85874442D01*
X151003332Y-85953103D01*
X151008467Y-86075350D01*
X151012272Y-86233990D01*
X151014791Y-86421830D01*
X151016067Y-86631675D01*
X151016142Y-86856333D01*
X151015060Y-87088609D01*
X151012862Y-87321309D01*
X151009593Y-87547241D01*
X151005293Y-87759210D01*
X151000007Y-87950024D01*
X150993778Y-88112487D01*
X150986647Y-88239407D01*
X150982459Y-88290400D01*
X150900221Y-88977930D01*
X150787043Y-89673660D01*
X150646085Y-90360925D01*
X150480508Y-91023062D01*
X150430296Y-91201234D01*
X150426085Y-91227527D01*
X150438119Y-91244708D01*
X150475667Y-91256117D01*
X150547997Y-91265094D01*
X150626385Y-91271890D01*
X150743562Y-91283933D01*
X150888750Y-91302412D01*
X151040032Y-91324409D01*
X151130000Y-91338995D01*
X151743869Y-91468790D01*
X152338188Y-91645195D01*
X152911531Y-91867364D01*
X153462472Y-92134450D01*
X153989586Y-92445608D01*
X154491448Y-92799990D01*
X154966633Y-93196752D01*
X155413715Y-93635046D01*
X155831269Y-94114026D01*
X155856314Y-94145244D01*
X156034250Y-94371420D01*
X156183716Y-94570020D01*
X156310693Y-94750803D01*
X156421160Y-94923527D01*
X156521100Y-95097949D01*
X156616494Y-95283826D01*
X156713322Y-95490917D01*
X156795276Y-95677123D01*
X156978856Y-96127590D01*
X157129585Y-96556019D01*
X157250466Y-96975054D01*
X157344500Y-97397343D01*
X157414690Y-97835531D01*
X157464036Y-98302264D01*
X157483393Y-98575939D01*
X157493809Y-98763704D01*
X157499651Y-98914694D01*
X157500712Y-99042744D01*
X157496783Y-99161691D01*
X157487657Y-99285370D01*
X157473125Y-99427617D01*
X157470208Y-99453700D01*
X157402711Y-99962215D01*
X157318243Y-100431316D01*
X157214101Y-100870341D01*
X157087579Y-101288632D01*
X156935973Y-101695529D01*
X156756579Y-102100372D01*
X156630541Y-102353808D01*
X156327549Y-102887300D01*
X155986053Y-103388803D01*
X155603481Y-103861831D01*
X155258344Y-104229903D01*
X154799486Y-104655058D01*
X154316848Y-105035907D01*
X153809673Y-105372828D01*
X153277201Y-105666200D01*
X152718675Y-105916402D01*
X152133336Y-106123815D01*
X151520425Y-106288816D01*
X150901718Y-106408250D01*
X150712300Y-106431522D01*
X150484136Y-106448762D01*
X150228925Y-106459921D01*
X149958367Y-106464952D01*
X149684163Y-106463805D01*
X149418012Y-106456431D01*
X149171615Y-106442782D01*
X148956671Y-106422807D01*
X148907500Y-106416588D01*
X148289669Y-106308425D01*
X147688715Y-106153784D01*
X147106893Y-105954062D01*
X146546453Y-105710657D01*
X146009648Y-105424965D01*
X145498732Y-105098385D01*
X145015956Y-104732313D01*
X144563573Y-104328147D01*
X144143836Y-103887285D01*
X143758997Y-103411123D01*
X143524719Y-103077450D01*
X143219080Y-102581018D01*
X142960147Y-102083105D01*
X142744236Y-101575785D01*
X142567664Y-101051133D01*
X142542803Y-100965000D01*
X142509280Y-100849495D01*
X142479272Y-100752026D01*
X142456095Y-100682980D01*
X142443193Y-100652891D01*
X142415098Y-100655475D01*
X142349980Y-100676466D01*
X142256751Y-100712576D01*
X142144323Y-100760516D01*
X142110771Y-100775542D01*
X141322724Y-101104987D01*
X140515832Y-101389343D01*
X139693562Y-101628043D01*
X138859375Y-101820520D01*
X138016735Y-101966208D01*
X137169106Y-102064541D01*
X136319952Y-102114952D01*
X135472736Y-102116875D01*
X134630922Y-102069743D01*
X134357371Y-102043589D01*
X133560341Y-101938250D01*
X132765467Y-101791483D01*
X131980021Y-101605247D01*
X131211270Y-101381504D01*
X130466487Y-101122214D01*
X129752939Y-100829337D01*
X129602233Y-100761217D01*
X129508308Y-100720238D01*
X129432504Y-100691302D01*
X129385886Y-100678436D01*
X129377003Y-100679263D01*
X129364103Y-100714714D01*
X129362200Y-100738205D01*
X129354080Y-100782481D01*
X129331727Y-100865315D01*
X129298147Y-100977481D01*
X129256348Y-101109753D01*
X129209336Y-101252904D01*
X129160119Y-101397708D01*
X129111703Y-101534938D01*
X129067096Y-101655367D01*
X129044409Y-101713252D01*
X128792722Y-102270926D01*
X128499235Y-102801724D01*
X128166277Y-103303936D01*
X127796177Y-103775853D01*
X127391263Y-104215765D01*
X126953863Y-104621961D01*
X126486307Y-104992732D01*
X125990923Y-105326369D01*
X125470040Y-105621161D01*
X124925986Y-105875398D01*
X124361090Y-106087371D01*
X123777681Y-106255370D01*
X123178087Y-106377684D01*
X122593100Y-106450226D01*
X122433049Y-106460714D01*
X122245155Y-106467895D01*
X122041431Y-106471785D01*
X121833889Y-106472399D01*
X121634540Y-106469752D01*
X121455397Y-106463860D01*
X121308471Y-106454738D01*
X121246900Y-106448493D01*
X120638513Y-106355249D01*
X120063865Y-106228375D01*
X119516690Y-106065550D01*
X118990722Y-105864454D01*
X118479698Y-105622768D01*
X117977350Y-105338170D01*
X117614700Y-105103471D01*
X117115964Y-104734751D01*
X116656960Y-104334458D01*
X116237793Y-103902710D01*
X115858568Y-103439626D01*
X115519390Y-102945322D01*
X115224173Y-102427292D01*
X114981852Y-101917930D01*
X114777220Y-101397909D01*
X114607431Y-100858507D01*
X114469640Y-100290999D01*
X114390776Y-99872800D01*
X114353390Y-99646556D01*
X114324948Y-99459833D01*
X114305074Y-99302214D01*
X114293391Y-99163284D01*
X114289522Y-99032624D01*
X114293091Y-98899819D01*
X114303721Y-98754452D01*
X114307690Y-98715853D01*
X114610358Y-98715853D01*
X114611718Y-99035401D01*
X114613233Y-99085400D01*
X114658829Y-99697132D01*
X114753830Y-100298510D01*
X114897551Y-100887645D01*
X115089306Y-101462649D01*
X115328410Y-102021634D01*
X115614180Y-102562712D01*
X115945928Y-103083994D01*
X116179781Y-103403400D01*
X116306409Y-103557186D01*
X116464000Y-103732359D01*
X116643055Y-103919590D01*
X116834075Y-104109548D01*
X117027562Y-104292903D01*
X117214016Y-104460327D01*
X117383939Y-104602489D01*
X117462300Y-104663099D01*
X117914584Y-104972606D01*
X118403645Y-105255516D01*
X118921085Y-105508473D01*
X119458508Y-105728123D01*
X120007519Y-105911109D01*
X120559721Y-106054077D01*
X121106718Y-106153671D01*
X121234200Y-106170492D01*
X121346249Y-106184152D01*
X121450013Y-106196780D01*
X121526685Y-106206090D01*
X121539000Y-106207580D01*
X121622379Y-106213001D01*
X121746226Y-106215049D01*
X121900342Y-106214071D01*
X122074530Y-106210412D01*
X122258593Y-106204419D01*
X122442333Y-106196437D01*
X122615554Y-106186813D01*
X122768059Y-106175892D01*
X122889649Y-106164019D01*
X122914086Y-106160935D01*
X123523556Y-106054053D01*
X124115405Y-105900217D01*
X124687578Y-105700750D01*
X125238020Y-105456976D01*
X125764676Y-105170216D01*
X126265491Y-104841795D01*
X126738411Y-104473034D01*
X127181380Y-104065257D01*
X127592343Y-103619787D01*
X127969245Y-103137947D01*
X128242910Y-102730300D01*
X128347409Y-102553316D01*
X128461592Y-102342852D01*
X128578335Y-102113369D01*
X128690517Y-101879325D01*
X128791013Y-101655180D01*
X128872701Y-101455394D01*
X128878707Y-101439580D01*
X128925713Y-101309176D01*
X128974077Y-101165116D01*
X129020856Y-101017328D01*
X129063108Y-100875738D01*
X129097887Y-100750273D01*
X129122253Y-100650861D01*
X129133260Y-100587428D01*
X129133600Y-100579878D01*
X129115098Y-100545843D01*
X129057043Y-100501730D01*
X128955613Y-100444783D01*
X128924050Y-100428728D01*
X128757879Y-100342272D01*
X128568634Y-100238449D01*
X128363326Y-100121562D01*
X128148964Y-99995912D01*
X127932560Y-99865799D01*
X127721123Y-99735526D01*
X127521663Y-99609394D01*
X127341192Y-99491703D01*
X127186718Y-99386756D01*
X127065253Y-99298854D01*
X127006350Y-99252076D01*
X126946916Y-99182127D01*
X126925550Y-99112507D01*
X126940743Y-99053835D01*
X126990985Y-99016728D01*
X127040871Y-99009200D01*
X127081540Y-99023289D01*
X127153857Y-99061905D01*
X127248474Y-99119570D01*
X127356047Y-99190807D01*
X127385041Y-99210915D01*
X127532805Y-99311732D01*
X127699851Y-99421174D01*
X127880636Y-99536008D01*
X128069615Y-99653001D01*
X128261244Y-99768920D01*
X128449980Y-99880531D01*
X128630278Y-99984601D01*
X128796594Y-100077897D01*
X128943385Y-100157187D01*
X129065106Y-100219237D01*
X129156213Y-100260813D01*
X129211163Y-100278684D01*
X129216784Y-100279133D01*
X129260174Y-100290149D01*
X129333806Y-100319221D01*
X129423101Y-100360489D01*
X129439481Y-100368644D01*
X129889472Y-100581080D01*
X130379153Y-100786419D01*
X130897531Y-100981032D01*
X131433613Y-101161287D01*
X131976408Y-101323553D01*
X132514923Y-101464198D01*
X133038166Y-101579593D01*
X133197600Y-101610046D01*
X133984917Y-101731769D01*
X134787210Y-101811728D01*
X135595090Y-101849589D01*
X136399173Y-101845020D01*
X137190071Y-101797689D01*
X137528300Y-101763592D01*
X138393160Y-101640100D01*
X139242831Y-101468143D01*
X140077118Y-101247794D01*
X140895830Y-100979122D01*
X141698776Y-100662199D01*
X142485763Y-100297096D01*
X143256598Y-99883883D01*
X144011091Y-99422633D01*
X144207783Y-99292684D01*
X144355847Y-99193976D01*
X144468308Y-99121033D01*
X144551244Y-99070580D01*
X144610734Y-99039342D01*
X144652854Y-99024044D01*
X144683684Y-99021410D01*
X144703083Y-99025786D01*
X144754298Y-99060493D01*
X144774889Y-99126068D01*
X144775094Y-99128103D01*
X144775956Y-99159901D01*
X144767650Y-99188579D01*
X144744166Y-99219897D01*
X144699496Y-99259618D01*
X144627629Y-99313503D01*
X144522555Y-99387314D01*
X144458797Y-99431350D01*
X144091454Y-99675708D01*
X143697576Y-99921837D01*
X143299094Y-100156286D01*
X143056790Y-100291268D01*
X142692480Y-100489390D01*
X142709771Y-100604696D01*
X142727813Y-100689538D01*
X142760787Y-100811221D01*
X142805269Y-100959219D01*
X142857834Y-101123005D01*
X142915057Y-101292052D01*
X142973514Y-101455835D01*
X143029780Y-101603827D01*
X143055461Y-101667262D01*
X143310572Y-102215572D01*
X143610114Y-102740985D01*
X143951876Y-103240735D01*
X144333649Y-103712053D01*
X144753221Y-104152174D01*
X145208382Y-104558329D01*
X145612810Y-104868519D01*
X146079784Y-105173435D01*
X146575563Y-105443058D01*
X147094242Y-105675590D01*
X147629919Y-105869238D01*
X148176687Y-106022206D01*
X148728642Y-106132699D01*
X149279881Y-106198921D01*
X149824499Y-106219078D01*
X150037800Y-106213898D01*
X150533444Y-106172113D01*
X151046732Y-106089631D01*
X151568981Y-105969200D01*
X152091508Y-105813568D01*
X152605630Y-105625485D01*
X153102666Y-105407699D01*
X153573932Y-105162958D01*
X153822400Y-105015745D01*
X154184192Y-104771688D01*
X154548031Y-104490233D01*
X154901133Y-104182568D01*
X155230711Y-103859881D01*
X155523980Y-103533361D01*
X155543965Y-103509260D01*
X155872710Y-103073036D01*
X156172074Y-102599120D01*
X156439201Y-102093145D01*
X156671234Y-101560744D01*
X156865316Y-101007551D01*
X156937148Y-100761943D01*
X157023180Y-100423904D01*
X157096145Y-100085656D01*
X157154439Y-99757052D01*
X157196456Y-99447950D01*
X157220593Y-99168203D01*
X157226000Y-98988090D01*
X157217532Y-98754006D01*
X157193253Y-98481334D01*
X157154852Y-98179180D01*
X157104014Y-97856647D01*
X157042429Y-97522840D01*
X156971783Y-97186863D01*
X156893763Y-96857821D01*
X156810058Y-96544817D01*
X156722355Y-96256956D01*
X156716462Y-96239046D01*
X156574251Y-95852192D01*
X156411045Y-95485034D01*
X156230062Y-95142676D01*
X156034521Y-94830222D01*
X155827642Y-94552776D01*
X155612642Y-94315442D01*
X155392741Y-94123325D01*
X155372779Y-94108396D01*
X155090572Y-93930146D01*
X154794098Y-93800154D01*
X154485224Y-93718511D01*
X154165815Y-93685305D01*
X153837736Y-93700625D01*
X153502852Y-93764559D01*
X153163029Y-93877197D01*
X152910896Y-93991241D01*
X152564028Y-94191168D01*
X152222123Y-94437401D01*
X151889045Y-94725457D01*
X151568663Y-95050854D01*
X151264841Y-95409108D01*
X150981447Y-95795739D01*
X150722347Y-96206262D01*
X150491406Y-96636196D01*
X150335396Y-96977200D01*
X150131181Y-97516168D01*
X149972963Y-98057631D01*
X149860511Y-98598970D01*
X149793595Y-99137565D01*
X149771986Y-99670797D01*
X149795454Y-100196047D01*
X149863768Y-100710697D01*
X149976699Y-101212127D01*
X150134017Y-101697718D01*
X150335492Y-102164851D01*
X150580893Y-102610906D01*
X150866783Y-103029033D01*
X150921198Y-103103979D01*
X150960732Y-103164322D01*
X150977480Y-103197923D01*
X150977600Y-103199191D01*
X150959063Y-103227843D01*
X150912416Y-103271863D01*
X150888640Y-103290867D01*
X150849446Y-103319527D01*
X150816690Y-103335305D01*
X150785258Y-103333844D01*
X150750037Y-103310788D01*
X150705914Y-103261783D01*
X150647775Y-103182472D01*
X150570507Y-103068499D01*
X150496209Y-102956568D01*
X150228991Y-102518877D01*
X150007286Y-102078642D01*
X149827597Y-101626845D01*
X149686427Y-101154468D01*
X149580278Y-100652492D01*
X149563499Y-100551257D01*
X149543448Y-100384545D01*
X149528865Y-100179297D01*
X149519749Y-99947477D01*
X149516100Y-99701053D01*
X149517917Y-99451993D01*
X149525199Y-99212263D01*
X149537945Y-98993830D01*
X149556155Y-98808661D01*
X149563622Y-98755200D01*
X149682772Y-98134561D01*
X149845897Y-97538938D01*
X150053625Y-96966860D01*
X150306586Y-96416854D01*
X150605407Y-95887450D01*
X150950715Y-95377174D01*
X151075621Y-95211900D01*
X151171354Y-95097080D01*
X151296177Y-94960082D01*
X151441635Y-94809089D01*
X151599275Y-94652289D01*
X151760641Y-94497868D01*
X151917280Y-94354013D01*
X152060737Y-94228909D01*
X152182558Y-94130743D01*
X152222200Y-94101654D01*
X152574617Y-93876219D01*
X152929492Y-93695156D01*
X153284087Y-93559058D01*
X153635666Y-93468520D01*
X153981489Y-93424137D01*
X154318820Y-93426504D01*
X154644921Y-93476214D01*
X154843909Y-93532290D01*
X154916436Y-93555923D01*
X154962795Y-93567576D01*
X154980969Y-93563796D01*
X154968945Y-93541130D01*
X154924708Y-93496126D01*
X154846242Y-93425331D01*
X154731534Y-93325292D01*
X154714477Y-93310499D01*
X154227810Y-92920854D01*
X153719710Y-92577091D01*
X153191043Y-92279577D01*
X152642678Y-92028677D01*
X152075482Y-91824760D01*
X151490322Y-91668192D01*
X150888068Y-91559339D01*
X150460214Y-91512013D01*
X150331130Y-91500990D01*
X150221492Y-91490964D01*
X150140575Y-91482834D01*
X150097652Y-91477499D01*
X150093275Y-91476427D01*
X150097354Y-91451368D01*
X150113581Y-91385356D01*
X150139886Y-91286209D01*
X150174197Y-91161744D01*
X150211567Y-91029808D01*
X150414140Y-90237982D01*
X150574697Y-89425176D01*
X150691463Y-88601411D01*
X150748076Y-87998300D01*
X150760332Y-87785370D01*
X150768656Y-87541212D01*
X150773189Y-87274940D01*
X150774069Y-86995668D01*
X150771438Y-86712511D01*
X150765433Y-86434584D01*
X150756197Y-86171000D01*
X150743868Y-85930876D01*
X150728585Y-85723325D01*
X150710646Y-85558604D01*
X150696603Y-85455709D01*
X151338751Y-85457004D01*
X151564772Y-85456587D01*
X151749083Y-85454031D01*
X151900744Y-85448894D01*
X152028816Y-85440732D01*
X152142362Y-85429102D01*
X152250441Y-85413562D01*
X152260300Y-85411942D01*
X152516593Y-85363678D01*
X152786033Y-85302815D01*
X153049397Y-85234133D01*
X153287467Y-85162416D01*
X153355474Y-85139499D01*
X153467038Y-85097255D01*
X153598924Y-85041747D01*
X153744637Y-84976297D01*
X153897682Y-84904222D01*
X154051562Y-84828843D01*
X154199782Y-84753479D01*
X154335846Y-84681449D01*
X154453259Y-84616072D01*
X154545524Y-84560669D01*
X154606147Y-84518559D01*
X154628631Y-84493060D01*
X154627393Y-84489527D01*
X154599342Y-84488884D01*
X154533269Y-84496136D01*
X154441087Y-84509839D01*
X154394066Y-84517760D01*
X154088708Y-84551043D01*
X153759222Y-84550885D01*
X153418681Y-84518437D01*
X153148571Y-84467700D01*
X154660600Y-84467700D01*
X154673300Y-84480400D01*
X154686000Y-84467700D01*
X154673300Y-84455000D01*
X154660600Y-84467700D01*
X153148571Y-84467700D01*
X153080160Y-84454850D01*
X152806400Y-84378041D01*
X152639208Y-84316262D01*
X152444022Y-84232969D01*
X152234941Y-84135086D01*
X152026068Y-84029536D01*
X151831501Y-83923242D01*
X151665342Y-83823127D01*
X151632829Y-83801838D01*
X151190020Y-83477059D01*
X150774200Y-83113334D01*
X150387930Y-82714745D01*
X150033774Y-82285374D01*
X149714294Y-81829301D01*
X149432054Y-81350608D01*
X149189615Y-80853377D01*
X148989540Y-80341689D01*
X148834392Y-79819625D01*
X148726734Y-79291267D01*
X148704930Y-79138749D01*
X148687307Y-78961184D01*
X148675116Y-78752333D01*
X148668486Y-78526755D01*
X148667549Y-78299012D01*
X148672436Y-78083664D01*
X148683277Y-77895270D01*
X148692903Y-77799533D01*
X148778847Y-77297888D01*
X148910372Y-76814174D01*
X149088286Y-76346687D01*
X149313396Y-75893722D01*
X149586509Y-75453574D01*
X149908432Y-75024536D01*
X150126852Y-74770069D01*
X150350740Y-74521239D01*
X150447012Y-74615246D01*
X150543285Y-74709253D01*
X150375508Y-74889476D01*
X150031147Y-75290484D01*
X149735227Y-75702716D01*
X149485980Y-76129650D01*
X149281641Y-76574765D01*
X149120443Y-77041540D01*
X149000620Y-77533452D01*
X148981476Y-77635100D01*
X148959202Y-77800877D01*
X148943667Y-78004025D01*
X148934886Y-78231561D01*
X148932875Y-78470504D01*
X148937652Y-78707869D01*
X148949232Y-78930674D01*
X148967631Y-79125938D01*
X148979509Y-79209900D01*
X149093379Y-79756722D01*
X149254138Y-80292360D01*
X149459422Y-80809990D01*
X149701228Y-81292700D01*
X149970308Y-81735821D01*
X150267816Y-82152979D01*
X150590418Y-82541464D01*
X150934778Y-82898566D01*
X151297562Y-83221574D01*
X151675435Y-83507779D01*
X152065062Y-83754469D01*
X152463109Y-83958935D01*
X152866240Y-84118466D01*
X153271120Y-84230353D01*
X153331182Y-84242738D01*
X153476498Y-84264141D01*
X153650813Y-84278617D01*
X153839514Y-84285995D01*
X154027986Y-84286102D01*
X154201616Y-84278765D01*
X154345790Y-84263814D01*
X154393900Y-84255253D01*
X154751029Y-84156837D01*
X155079758Y-84017363D01*
X155382756Y-83835204D01*
X155662694Y-83608737D01*
X155922240Y-83336336D01*
X155941718Y-83313095D01*
X156189818Y-82984393D01*
X156411707Y-82626257D01*
X156608553Y-82235787D01*
X156781523Y-81810082D01*
X156931786Y-81346244D01*
X157060510Y-80841370D01*
X157168863Y-80292561D01*
X157176736Y-80246378D01*
X157212289Y-80020176D01*
X157235528Y-79828486D01*
X157246912Y-79656654D01*
X157246899Y-79490025D01*
X157235947Y-79313942D01*
X157214515Y-79113752D01*
X157212629Y-79098422D01*
X157119336Y-78524498D01*
X156985305Y-77980489D01*
X156810613Y-77466570D01*
X156595341Y-76982916D01*
X156339567Y-76529704D01*
X156043371Y-76107108D01*
X155706830Y-75715305D01*
X155678623Y-75685771D01*
X155356688Y-75370987D01*
X155033437Y-75096427D01*
X154696720Y-74852684D01*
X154334387Y-74630349D01*
X154266900Y-74592643D01*
X153901075Y-74406484D01*
X153513854Y-74238001D01*
X153113852Y-74089668D01*
X152709683Y-73963958D01*
X152309962Y-73863345D01*
X151923302Y-73790303D01*
X151558318Y-73747305D01*
X151284489Y-73736199D01*
X150782628Y-73761209D01*
X150282548Y-73834776D01*
X149788293Y-73954710D01*
X149303909Y-74118819D01*
X148833442Y-74324910D01*
X148380938Y-74570794D01*
X147950441Y-74854278D01*
X147545997Y-75173170D01*
X147171652Y-75525279D01*
X146831452Y-75908414D01*
X146538014Y-76307464D01*
X146424191Y-76478429D01*
X146141845Y-76207854D01*
X145586006Y-75705207D01*
X144989213Y-75222100D01*
X144359398Y-74764251D01*
X143704489Y-74337373D01*
X143032416Y-73947185D01*
X142925800Y-73889599D01*
X142796653Y-73820127D01*
X142682886Y-73758121D01*
X142592185Y-73707835D01*
X142532238Y-73673525D01*
X142511287Y-73660175D01*
X142520625Y-73636775D01*
X142561523Y-73587213D01*
X142627351Y-73518830D01*
X142708745Y-73441471D01*
X142949117Y-73208659D01*
X143201620Y-72940723D01*
X143456963Y-72648600D01*
X143705853Y-72343227D01*
X143938998Y-72035541D01*
X144109371Y-71792947D01*
X144484753Y-71192656D01*
X144814550Y-70572420D01*
X145098229Y-69934617D01*
X145335253Y-69281623D01*
X145525089Y-68615817D01*
X145667201Y-67939575D01*
X145761056Y-67255276D01*
X145806117Y-66565295D01*
X145801850Y-65872011D01*
X145747721Y-65177801D01*
X145691035Y-64761493D01*
X145672421Y-64639540D01*
X145658117Y-64537334D01*
X145649365Y-64464425D01*
X145647405Y-64430361D01*
X145647873Y-64429088D01*
X145673831Y-64418890D01*
X145738093Y-64395957D01*
X145830813Y-64363748D01*
X145935700Y-64327911D01*
X146395252Y-64148138D01*
X146822311Y-63930822D01*
X147221377Y-63673233D01*
X147596950Y-63372642D01*
X147761274Y-63220904D01*
X148035957Y-62938622D01*
X148272352Y-62655133D01*
X148480955Y-62356119D01*
X148672260Y-62027260D01*
X148757502Y-61861700D01*
X148953726Y-61411187D01*
X149101869Y-60948562D01*
X149202183Y-60477352D01*
X149254919Y-60001085D01*
X149260329Y-59523287D01*
X149218664Y-59047486D01*
X149130176Y-58577210D01*
X148995117Y-58115985D01*
X148813738Y-57667339D01*
X148586291Y-57234799D01*
X148407476Y-56954632D01*
X148104622Y-56557508D01*
X147768098Y-56198041D01*
X147399542Y-55877367D01*
X147000598Y-55596624D01*
X146572905Y-55356948D01*
X146118105Y-55159476D01*
X145637838Y-55005345D01*
X145567400Y-54986969D01*
X145089755Y-54891557D01*
X144609247Y-54845648D01*
X144129286Y-54848332D01*
X143653286Y-54898703D01*
X143184658Y-54995852D01*
X142726814Y-55138871D01*
X142283168Y-55326851D01*
X141857132Y-55558884D01*
X141452118Y-55834063D01*
X141071537Y-56151478D01*
X141023461Y-56196340D01*
X140896377Y-56324548D01*
X140755259Y-56480135D01*
X140613294Y-56647590D01*
X140483668Y-56811400D01*
X140387076Y-56944920D01*
X140283584Y-57097319D01*
X140683942Y-57300199D01*
X141265000Y-57620134D01*
X141828716Y-57982819D01*
X142306580Y-58333609D01*
X142416305Y-58423023D01*
X142486728Y-58492494D01*
X142521919Y-58548532D01*
X142525946Y-58597647D01*
X142502878Y-58646346D01*
X142502452Y-58646956D01*
X142459472Y-58686829D01*
X142404696Y-58693688D01*
X142332058Y-58665872D01*
X142235491Y-58601722D01*
X142180483Y-58558845D01*
X141945729Y-58378529D01*
X141680135Y-58189484D01*
X141399657Y-58002754D01*
X141169632Y-57859041D01*
X141031942Y-57777750D01*
X140882928Y-57693220D01*
X140729933Y-57609260D01*
X140580302Y-57529677D01*
X140441382Y-57458278D01*
X140320516Y-57398872D01*
X140225050Y-57355265D01*
X140162328Y-57331267D01*
X140144889Y-57327800D01*
X140105899Y-57318057D01*
X140031806Y-57291642D01*
X139933815Y-57252770D01*
X139839797Y-57212954D01*
X139223569Y-56971272D01*
X138583457Y-56771596D01*
X137926636Y-56615732D01*
X137260281Y-56505489D01*
X136857025Y-56461831D01*
X136695464Y-56451729D01*
X136496661Y-56445452D01*
X136270896Y-56442797D01*
X136028449Y-56443565D01*
X135779600Y-56447556D01*
X135534628Y-56454567D01*
X135303813Y-56464399D01*
X135097435Y-56476851D01*
X134925774Y-56491723D01*
X134848600Y-56501038D01*
X134213412Y-56605591D01*
X133612395Y-56738898D01*
X133036231Y-56903453D01*
X132475606Y-57101751D01*
X132222703Y-57204005D01*
X131618897Y-57482988D01*
X131030674Y-57805025D01*
X130465014Y-58165616D01*
X129928897Y-58560263D01*
X129429301Y-58984465D01*
X129355932Y-59052245D01*
X129236725Y-59159911D01*
X129145330Y-59232467D01*
X129075925Y-59272872D01*
X129022688Y-59284087D01*
X128979798Y-59269071D01*
X128960879Y-59253119D01*
X128931584Y-59207711D01*
X128932878Y-59154998D01*
X128967599Y-59089321D01*
X129038586Y-59005020D01*
X129131819Y-58912348D01*
X129555946Y-58535511D01*
X130015948Y-58173947D01*
X130498948Y-57836791D01*
X130992066Y-57533183D01*
X131349750Y-57338640D01*
X131455251Y-57282563D01*
X131541804Y-57232729D01*
X131600589Y-57194489D01*
X131622789Y-57173192D01*
X131622800Y-57172962D01*
X131606335Y-57125659D01*
X131560392Y-57047783D01*
X131490142Y-56945906D01*
X131400760Y-56826602D01*
X131297420Y-56696444D01*
X131185295Y-56562004D01*
X131069558Y-56429854D01*
X130955383Y-56306568D01*
X130882171Y-56232035D01*
X130520100Y-55908785D01*
X130131598Y-55627100D01*
X129720269Y-55387576D01*
X129289721Y-55190808D01*
X128843558Y-55037393D01*
X128385388Y-54927928D01*
X127918815Y-54863008D01*
X127447446Y-54843231D01*
X126974886Y-54869192D01*
X126504743Y-54941488D01*
X126040620Y-55060715D01*
X125586126Y-55227469D01*
X125378097Y-55321836D01*
X124943229Y-55558724D01*
X124541295Y-55832159D01*
X124173571Y-56139132D01*
X123841334Y-56476634D01*
X123545860Y-56841658D01*
X123288427Y-57231195D01*
X123070309Y-57642237D01*
X122892784Y-58071775D01*
X122757129Y-58516801D01*
X122664619Y-58974307D01*
X122616531Y-59441285D01*
X122614142Y-59914725D01*
X122658728Y-60391620D01*
X122751565Y-60868962D01*
X122862157Y-61251308D01*
X123041946Y-61712049D01*
X123266055Y-62148545D01*
X123533411Y-62559353D01*
X123842940Y-62943034D01*
X124193571Y-63298147D01*
X124584229Y-63623253D01*
X124684008Y-63696785D01*
X124854707Y-63809413D01*
X125059893Y-63928523D01*
X125285135Y-64046891D01*
X125516004Y-64157293D01*
X125738071Y-64252507D01*
X125936905Y-64325307D01*
X125944259Y-64327679D01*
X126243170Y-64423498D01*
X126227115Y-64514199D01*
X126126941Y-65204688D01*
X126073864Y-65881301D01*
X126067804Y-66549005D01*
X126108680Y-67212770D01*
X126175559Y-67747131D01*
X126307126Y-68439922D01*
X126486882Y-69118590D01*
X126713596Y-69780756D01*
X126986037Y-70424044D01*
X127302973Y-71046074D01*
X127663172Y-71644468D01*
X128065402Y-72216848D01*
X128508433Y-72760834D01*
X128991033Y-73274050D01*
X129085163Y-73366021D01*
X129388943Y-73658901D01*
X129102521Y-73802165D01*
X128560734Y-74091488D01*
X128010638Y-74420177D01*
X127462551Y-74780900D01*
X126926792Y-75166323D01*
X126413680Y-75569112D01*
X125933534Y-75981933D01*
X125613206Y-76282065D01*
X125432913Y-76457767D01*
X125346506Y-76322602D01*
X125249896Y-76182562D01*
X125126212Y-76019981D01*
X124985485Y-75847012D01*
X124837750Y-75675808D01*
X124693037Y-75518523D01*
X124626671Y-75450615D01*
X124224931Y-75084898D01*
X123793598Y-74759753D01*
X123335258Y-74476445D01*
X122852500Y-74236238D01*
X122347910Y-74040398D01*
X121824076Y-73890190D01*
X121283585Y-73786878D01*
X121200145Y-73775362D01*
X120741883Y-73738857D01*
X120271766Y-73748244D01*
X119787992Y-73803754D01*
X119288761Y-73905617D01*
X118772271Y-74054063D01*
X118622312Y-74104705D01*
X118092714Y-74309907D01*
X117604741Y-74542483D01*
X117156238Y-74804045D01*
X116745046Y-75096205D01*
X116369011Y-75420574D01*
X116025974Y-75778765D01*
X115713778Y-76172389D01*
X115563639Y-76390500D01*
X115289832Y-76853475D01*
X115061402Y-77336708D01*
X114878822Y-77836699D01*
X114742565Y-78349947D01*
X114653104Y-78872954D01*
X114610914Y-79402220D01*
X114616467Y-79934244D01*
X114670238Y-80465527D01*
X114772700Y-80992570D01*
X114886225Y-81396902D01*
X115045600Y-81829061D01*
X115243972Y-82256556D01*
X115475900Y-82670527D01*
X115735947Y-83062111D01*
X116018675Y-83422450D01*
X116318645Y-83742682D01*
X116336558Y-83759934D01*
X116528747Y-83913140D01*
X116762592Y-84046690D01*
X117031759Y-84157597D01*
X117329916Y-84242872D01*
X117386100Y-84255253D01*
X117513227Y-84273389D01*
X117675935Y-84283887D01*
X117859611Y-84286918D01*
X118049638Y-84282649D01*
X118231402Y-84271251D01*
X118390287Y-84252892D01*
X118447626Y-84242961D01*
X118856282Y-84137403D01*
X119261359Y-83984128D01*
X119659822Y-83786214D01*
X120048637Y-83546740D01*
X120424769Y-83268788D01*
X120785184Y-82955434D01*
X121126848Y-82609760D01*
X121446725Y-82234844D01*
X121741782Y-81833765D01*
X122008983Y-81409603D01*
X122245295Y-80965437D01*
X122447682Y-80504347D01*
X122613111Y-80029412D01*
X122618968Y-80010000D01*
X122742612Y-79517230D01*
X122820280Y-79020175D01*
X122852078Y-78523451D01*
X122838114Y-78031675D01*
X122778495Y-77549464D01*
X122673327Y-77081434D01*
X122541833Y-76681414D01*
X122356989Y-76259883D01*
X122127566Y-75843087D01*
X121859572Y-75440371D01*
X121559018Y-75061077D01*
X121357342Y-74840099D01*
X121233801Y-74712098D01*
X121331530Y-74616669D01*
X121429259Y-74521239D01*
X121652525Y-74770069D01*
X122001259Y-75189615D01*
X122300675Y-75616766D01*
X122552007Y-76054109D01*
X122756490Y-76504226D01*
X122915357Y-76969703D01*
X123029842Y-77453122D01*
X123078142Y-77755876D01*
X123096746Y-77950523D01*
X123107090Y-78179132D01*
X123109483Y-78427971D01*
X123104238Y-78683307D01*
X123091665Y-78931410D01*
X123072076Y-79158549D01*
X123045781Y-79350991D01*
X123041467Y-79375000D01*
X122911206Y-79938382D01*
X122734165Y-80487212D01*
X122512442Y-81018283D01*
X122248133Y-81528388D01*
X121943334Y-82014321D01*
X121600143Y-82472874D01*
X121220657Y-82900841D01*
X120806971Y-83295014D01*
X120361183Y-83652187D01*
X120146399Y-83802857D01*
X119989408Y-83900437D01*
X119799431Y-84006210D01*
X119590978Y-84113063D01*
X119378559Y-84213883D01*
X119176682Y-84301555D01*
X118999859Y-84368968D01*
X118973600Y-84377814D01*
X118695772Y-84455011D01*
X118400865Y-84511498D01*
X118102553Y-84545907D01*
X117814512Y-84556871D01*
X117550415Y-84543022D01*
X117452781Y-84529943D01*
X117368114Y-84517977D01*
X117305709Y-84512484D01*
X117280184Y-84514348D01*
X117290191Y-84527165D01*
X117332338Y-84556460D01*
X117409400Y-84603913D01*
X117524151Y-84671205D01*
X117679367Y-84760014D01*
X117779800Y-84816841D01*
X117891478Y-84874287D01*
X118037866Y-84941548D01*
X118205293Y-85012946D01*
X118380088Y-85082801D01*
X118548580Y-85145436D01*
X118669975Y-85186632D01*
X119131243Y-85316228D01*
X119582825Y-85404742D01*
X120038714Y-85454089D01*
X120512901Y-85466181D01*
X120683434Y-85462051D01*
X120845041Y-85456534D01*
X120962564Y-85453638D01*
X121042674Y-85453790D01*
X121092040Y-85457416D01*
X121117330Y-85464940D01*
X121125215Y-85476790D01*
X121123342Y-85490136D01*
X121107299Y-85573433D01*
X121092841Y-85700848D01*
X121080084Y-85865723D01*
X121069141Y-86061396D01*
X121060128Y-86281208D01*
X121053160Y-86518499D01*
X121048352Y-86766609D01*
X121045819Y-87018878D01*
X121045674Y-87268646D01*
X121048035Y-87509253D01*
X121053014Y-87734040D01*
X121060728Y-87936346D01*
X121071291Y-88109511D01*
X121076999Y-88176100D01*
X121124665Y-88617334D01*
X121182355Y-89055808D01*
X121247468Y-89472695D01*
X121285178Y-89684225D01*
X121317973Y-89849609D01*
X121358747Y-90039960D01*
X121405164Y-90245672D01*
X121454888Y-90457139D01*
X121505583Y-90664755D01*
X121554913Y-90858911D01*
X121600542Y-91030003D01*
X121640134Y-91168423D01*
X121665309Y-91247491D01*
X121699156Y-91347868D01*
X121714249Y-91414906D01*
X121704290Y-91456058D01*
X121662978Y-91478776D01*
X121584015Y-91490515D01*
X121461101Y-91498727D01*
X121452533Y-91499249D01*
X120886999Y-91558681D01*
X120321295Y-91666732D01*
X119760626Y-91821504D01*
X119210196Y-92021100D01*
X118675211Y-92263624D01*
X118160876Y-92547178D01*
X117672394Y-92869866D01*
X117652800Y-92884045D01*
X117556290Y-92956232D01*
X117444554Y-93043168D01*
X117324918Y-93138770D01*
X117204708Y-93236955D01*
X117091248Y-93331639D01*
X116991865Y-93416740D01*
X116913885Y-93486174D01*
X116864634Y-93533859D01*
X116852423Y-93548647D01*
X116866095Y-93553460D01*
X116915880Y-93542837D01*
X116976254Y-93523985D01*
X117208782Y-93464023D01*
X117470940Y-93430955D01*
X117749144Y-93424973D01*
X118029809Y-93446266D01*
X118299351Y-93495025D01*
X118338600Y-93504881D01*
X118713446Y-93627390D01*
X119081214Y-93797457D01*
X119443148Y-94015848D01*
X119800491Y-94283329D01*
X120154486Y-94600667D01*
X120219620Y-94664813D01*
X120611153Y-95091420D01*
X120965456Y-95550895D01*
X121281123Y-96040094D01*
X121556754Y-96555872D01*
X121790945Y-97095084D01*
X121982292Y-97654585D01*
X122129394Y-98231232D01*
X122230847Y-98821878D01*
X122276357Y-99275296D01*
X122288528Y-99798004D01*
X122253382Y-100323634D01*
X122172341Y-100845956D01*
X122046825Y-101358738D01*
X121878256Y-101855750D01*
X121668054Y-102330761D01*
X121514210Y-102617094D01*
X121449520Y-102724647D01*
X121374175Y-102842810D01*
X121293510Y-102964025D01*
X121212858Y-103080739D01*
X121137551Y-103185393D01*
X121072922Y-103270433D01*
X121024304Y-103328302D01*
X120997030Y-103351445D01*
X120995839Y-103351567D01*
X120960552Y-103335551D01*
X120905268Y-103296485D01*
X120881519Y-103277004D01*
X120795539Y-103203472D01*
X120871132Y-103106586D01*
X121147120Y-102713745D01*
X121390973Y-102285705D01*
X121600004Y-101828656D01*
X121771529Y-101348792D01*
X121902861Y-100852304D01*
X121948670Y-100622100D01*
X121968095Y-100507064D01*
X121982818Y-100401450D01*
X121993465Y-100295165D01*
X122000665Y-100178113D01*
X122005044Y-100040200D01*
X122007230Y-99871330D01*
X122007847Y-99669600D01*
X122006011Y-99402702D01*
X121999352Y-99173888D01*
X121986435Y-98970552D01*
X121965827Y-98780092D01*
X121936093Y-98589903D01*
X121895800Y-98387382D01*
X121843514Y-98159924D01*
X121829540Y-98102342D01*
X121669200Y-97544403D01*
X121466341Y-97004573D01*
X121223215Y-96486850D01*
X120942072Y-95995236D01*
X120625164Y-95533731D01*
X120274744Y-95106335D01*
X119959543Y-94779875D01*
X119696847Y-94541764D01*
X119441012Y-94340547D01*
X119178561Y-94166569D01*
X118896014Y-94010175D01*
X118859300Y-93991724D01*
X118509944Y-93840591D01*
X118169657Y-93739327D01*
X117838539Y-93687932D01*
X117516687Y-93686408D01*
X117204199Y-93734755D01*
X116901175Y-93832974D01*
X116628853Y-93968544D01*
X116460180Y-94078507D01*
X116305068Y-94205143D01*
X116156271Y-94355929D01*
X116006547Y-94538344D01*
X115848653Y-94759864D01*
X115818121Y-94805500D01*
X115513219Y-95309916D01*
X115253862Y-95834624D01*
X115041351Y-96376644D01*
X114876990Y-96932998D01*
X114863110Y-96989900D01*
X114773904Y-97386147D01*
X114705240Y-97746677D01*
X114655905Y-98081680D01*
X114624683Y-98401342D01*
X114610358Y-98715853D01*
X114307690Y-98715853D01*
X114321035Y-98586106D01*
X114338734Y-98433848D01*
X114383286Y-98078771D01*
X114428045Y-97764580D01*
X114475102Y-97481394D01*
X114526543Y-97219336D01*
X114584459Y-96968523D01*
X114650936Y-96719078D01*
X114728065Y-96461121D01*
X114807751Y-96215200D01*
X114968469Y-95769997D01*
X115137979Y-95372463D01*
X115317575Y-95020021D01*
X115508552Y-94710096D01*
X115682210Y-94476430D01*
X116005505Y-94090233D01*
X116314243Y-93745275D01*
X116613873Y-93436100D01*
X116909839Y-93157252D01*
X117207591Y-92903274D01*
X117412935Y-92742689D01*
X117899161Y-92406615D01*
X118415729Y-92108285D01*
X118956922Y-91849977D01*
X119517023Y-91633973D01*
X120090314Y-91462550D01*
X120671079Y-91337991D01*
X121081800Y-91279589D01*
X121207573Y-91264749D01*
X121291067Y-91252150D01*
X121340595Y-91239428D01*
X121364467Y-91224219D01*
X121370996Y-91204162D01*
X121370852Y-91197403D01*
X121363573Y-91156683D01*
X121345463Y-91076515D01*
X121318829Y-90966523D01*
X121285976Y-90836332D01*
X121264541Y-90753683D01*
X121101336Y-90058258D01*
X120967689Y-89330004D01*
X120862866Y-88564752D01*
X120835743Y-88315800D01*
X120824033Y-88171005D01*
X120814082Y-87987477D01*
X120805952Y-87773764D01*
X120799705Y-87538417D01*
X120795402Y-87289987D01*
X120793106Y-87037025D01*
X120792876Y-86788080D01*
X120794776Y-86551703D01*
X120798867Y-86336445D01*
X120805210Y-86150856D01*
X120813867Y-86003487D01*
X120818694Y-85950408D01*
X120842031Y-85731316D01*
X120358665Y-85718457D01*
X119859351Y-85689500D01*
X119390812Y-85628486D01*
X118942457Y-85532846D01*
X118503696Y-85400010D01*
X118063937Y-85227407D01*
X117765304Y-85089136D01*
X117479013Y-84937794D01*
X117187995Y-84763362D01*
X116908839Y-84576507D01*
X116658134Y-84387894D01*
X116598700Y-84339078D01*
X116485231Y-84245974D01*
X116358799Y-84145422D01*
X116241167Y-84054640D01*
X116205000Y-84027545D01*
X116105177Y-83948207D01*
X115987881Y-83846777D01*
X115870218Y-83738378D01*
X115798600Y-83668275D01*
X115534204Y-83367778D01*
X115290700Y-83022278D01*
X115068840Y-82633407D01*
X114869372Y-82202799D01*
X114693048Y-81732085D01*
X114540617Y-81222900D01*
X114412829Y-80676875D01*
X114403823Y-80632300D01*
X114353039Y-80369832D01*
X114314280Y-80148254D01*
X114286718Y-79959307D01*
X114269526Y-79794733D01*
X114261878Y-79646274D01*
X114262947Y-79505671D01*
X114271906Y-79364667D01*
X114274297Y-79338566D01*
X114352149Y-78740355D01*
X114468799Y-78174382D01*
X114624728Y-77639534D01*
X114820418Y-77134696D01*
X115056348Y-76658756D01*
X115332999Y-76210598D01*
X115650853Y-75789108D01*
X115951000Y-75453861D01*
X116374668Y-75048774D01*
X116819521Y-74688928D01*
X117284282Y-74374855D01*
X117767674Y-74107081D01*
X118268422Y-73886136D01*
X118785249Y-73712550D01*
X119316879Y-73586850D01*
X119862035Y-73509567D01*
X120419441Y-73481228D01*
X120700800Y-73485521D01*
X121259495Y-73530947D01*
X121805359Y-73624893D01*
X122336068Y-73766350D01*
X122849298Y-73954304D01*
X123342725Y-74187746D01*
X123814025Y-74465664D01*
X124260873Y-74787046D01*
X124680947Y-75150882D01*
X124804338Y-75271100D01*
X124897473Y-75367980D01*
X125005051Y-75485640D01*
X125118776Y-75614405D01*
X125230350Y-75744599D01*
X125331476Y-75866547D01*
X125413856Y-75970573D01*
X125467434Y-76044340D01*
X125487412Y-76031565D01*
X125538536Y-75990166D01*
X125614315Y-75925636D01*
X125708256Y-75843467D01*
X125773306Y-75785595D01*
X126278582Y-75353466D01*
X126809213Y-74937743D01*
X127355508Y-74545225D01*
X127907773Y-74182714D01*
X128456318Y-73857010D01*
X128746250Y-73699523D01*
X128831202Y-73653069D01*
X128895423Y-73614368D01*
X128928259Y-73589967D01*
X128930399Y-73586322D01*
X128913413Y-73562587D01*
X128867657Y-73511999D01*
X128800936Y-73442964D01*
X128750471Y-73392618D01*
X128627773Y-73267171D01*
X128485177Y-73113856D01*
X128333711Y-72945109D01*
X128184406Y-72773362D01*
X128048289Y-72611050D01*
X127962519Y-72504300D01*
X127546645Y-71933198D01*
X127173433Y-71336898D01*
X126843648Y-70718183D01*
X126558056Y-70079837D01*
X126317421Y-69424644D01*
X126122509Y-68755388D01*
X125974083Y-68074852D01*
X125872909Y-67385821D01*
X125819752Y-66691078D01*
X125815377Y-65993408D01*
X125860548Y-65295593D01*
X125896760Y-64985900D01*
X125912980Y-64867206D01*
X125927952Y-64763113D01*
X125939785Y-64686455D01*
X125945659Y-64653789D01*
X125945323Y-64621381D01*
X125920461Y-64596410D01*
X125860993Y-64571268D01*
X125817417Y-64556973D01*
X125671749Y-64504824D01*
X125497487Y-64432625D01*
X125309202Y-64347104D01*
X125121468Y-64254993D01*
X124948856Y-64163022D01*
X124884334Y-64126031D01*
X124461519Y-63848035D01*
X124069811Y-63531045D01*
X123711731Y-63178061D01*
X123389799Y-62792083D01*
X123106536Y-62376111D01*
X122864464Y-61933144D01*
X122679539Y-61502318D01*
X122529436Y-61032921D01*
X122426488Y-60552030D01*
X122370276Y-60064094D01*
X122360378Y-59573561D01*
X122396375Y-59084879D01*
X122477847Y-58602497D01*
X122604372Y-58130863D01*
X122775531Y-57674426D01*
X122990904Y-57237633D01*
X123100021Y-57052079D01*
X123389766Y-56630422D01*
X123713809Y-56243702D01*
X124069243Y-55893486D01*
X124453160Y-55581342D01*
X124862654Y-55308839D01*
X125294818Y-55077543D01*
X125746745Y-54889022D01*
X126215529Y-54744845D01*
X126698261Y-54646578D01*
X127192037Y-54595791D01*
X127660400Y-54592612D01*
X128174811Y-54637579D01*
X128674714Y-54730688D01*
X129157983Y-54871016D01*
X129622490Y-55057637D01*
X130066110Y-55289628D01*
X130486714Y-55566066D01*
X130882177Y-55886025D01*
X131090840Y-56082852D01*
X131256058Y-56253128D01*
X131402877Y-56418399D01*
X131541387Y-56591276D01*
X131681681Y-56784367D01*
X131833850Y-57010280D01*
X131837300Y-57015551D01*
X131860663Y-57008353D01*
X131922614Y-56985009D01*
X132014791Y-56948777D01*
X132128833Y-56902914D01*
X132181395Y-56881500D01*
X132837635Y-56640458D01*
X133509151Y-56447344D01*
X134193762Y-56302380D01*
X134889289Y-56205788D01*
X135593550Y-56157790D01*
X136304365Y-56158606D01*
X137019553Y-56208460D01*
X137736935Y-56307572D01*
X137769600Y-56313258D01*
X138057730Y-56370400D01*
X138374346Y-56444600D01*
X138705900Y-56531956D01*
X139038843Y-56628569D01*
X139359628Y-56730538D01*
X139654707Y-56833963D01*
X139870087Y-56917990D01*
X140052874Y-56993594D01*
X140136787Y-56862510D01*
X140192203Y-56780931D01*
X140266406Y-56678300D01*
X140346061Y-56572921D01*
X140371270Y-56540662D01*
X140700734Y-56163277D01*
X141062910Y-55822508D01*
X141454249Y-55519871D01*
X141871204Y-55256885D01*
X142310226Y-55035066D01*
X142767767Y-54855931D01*
X143240279Y-54720998D01*
X143724213Y-54631783D01*
X144216022Y-54589804D01*
X144712156Y-54596577D01*
G36*
X136112174Y-67299250D02*
X136267788Y-67301789D01*
X136391872Y-67306578D01*
X136494057Y-67314283D01*
X136583975Y-67325572D01*
X136671256Y-67341111D01*
X136737230Y-67355161D01*
X137133448Y-67461799D01*
X137537172Y-67604809D01*
X137929237Y-67777329D01*
X137964474Y-67794653D01*
X138111511Y-67868734D01*
X138218928Y-67928080D01*
X138292938Y-67979861D01*
X138339755Y-68031249D01*
X138365591Y-68089416D01*
X138376660Y-68161535D01*
X138379176Y-68254775D01*
X138379200Y-68273356D01*
X138355613Y-68434147D01*
X138285388Y-68612266D01*
X138169324Y-68806873D01*
X138008224Y-69017128D01*
X137802886Y-69242189D01*
X137554114Y-69481216D01*
X137262706Y-69733370D01*
X136929465Y-69997809D01*
X136555191Y-70273693D01*
X136309100Y-70445855D01*
X136210431Y-70513690D01*
X136128057Y-70570448D01*
X136070425Y-70610301D01*
X136045984Y-70627417D01*
X136045852Y-70627518D01*
X136050899Y-70650367D01*
X136081806Y-70708263D01*
X136139583Y-70802879D01*
X136225242Y-70935888D01*
X136304835Y-71056500D01*
X136539226Y-71381724D01*
X136784524Y-71669914D01*
X137038106Y-71919197D01*
X137297350Y-72127702D01*
X137559633Y-72293559D01*
X137822331Y-72414896D01*
X138082822Y-72489842D01*
X138338483Y-72516526D01*
X138351513Y-72516558D01*
X138607684Y-72496054D01*
X138856060Y-72434645D01*
X139100616Y-72330417D01*
X139345326Y-72181459D01*
X139594167Y-71985859D01*
X139747345Y-71845085D01*
X139916408Y-71675050D01*
X140068861Y-71505933D01*
X140214491Y-71325690D01*
X140363087Y-71122274D01*
X140506796Y-70910417D01*
X140720717Y-70586534D01*
X140826308Y-70649500D01*
X140886964Y-70688869D01*
X140923396Y-70718739D01*
X140928409Y-70727481D01*
X140910031Y-70766602D01*
X140867893Y-70838511D01*
X140807650Y-70934576D01*
X140734955Y-71046166D01*
X140655460Y-71164648D01*
X140574820Y-71281392D01*
X140498687Y-71387766D01*
X140474624Y-71420318D01*
X140211886Y-71746297D01*
X139942449Y-72030374D01*
X139668916Y-72270213D01*
X139393891Y-72463477D01*
X139183359Y-72578787D01*
X138974561Y-72668966D01*
X138782852Y-72728063D01*
X138589055Y-72760570D01*
X138373993Y-72770979D01*
X138362590Y-72771000D01*
X138056646Y-72745822D01*
X137755678Y-72670268D01*
X137459642Y-72544309D01*
X137168491Y-72367912D01*
X136882181Y-72141047D01*
X136600667Y-71863683D01*
X136323904Y-71535791D01*
X136100499Y-71229232D01*
X135922882Y-70970164D01*
X135862013Y-71102232D01*
X135777638Y-71261458D01*
X135664452Y-71440545D01*
X135532090Y-71626150D01*
X135390187Y-71804929D01*
X135248377Y-71963536D01*
X135217037Y-71995511D01*
X134941516Y-72242602D01*
X134655470Y-72444306D01*
X134361316Y-72599624D01*
X134061473Y-72707557D01*
X133758360Y-72767106D01*
X133454395Y-72777272D01*
X133345178Y-72768646D01*
X133048686Y-72710893D01*
X132761756Y-72603916D01*
X132485360Y-72448559D01*
X132220471Y-72245666D01*
X131968062Y-71996080D01*
X131729106Y-71700647D01*
X131504575Y-71360211D01*
X131307960Y-71000761D01*
X131253879Y-70891838D01*
X131209241Y-70800211D01*
X131178399Y-70734939D01*
X131165704Y-70705080D01*
X131165600Y-70704411D01*
X131186930Y-70688757D01*
X131238993Y-70665118D01*
X131303894Y-70640215D01*
X131363739Y-70620767D01*
X131400636Y-70613493D01*
X131404549Y-70614682D01*
X131418934Y-70640100D01*
X131450971Y-70701468D01*
X131495734Y-70789232D01*
X131541880Y-70880996D01*
X131742914Y-71246379D01*
X131957546Y-71566657D01*
X132184556Y-71841312D01*
X132422727Y-72069828D01*
X132670841Y-72251686D01*
X132927681Y-72386368D01*
X133192028Y-72473358D01*
X133462666Y-72512138D01*
X133738375Y-72502191D01*
X134017939Y-72442998D01*
X134300140Y-72334042D01*
X134583760Y-72174806D01*
X134584754Y-72174159D01*
X134864225Y-71964053D01*
X135122899Y-71713309D01*
X135353457Y-71430270D01*
X135548577Y-71123278D01*
X135610122Y-71005700D01*
X135678014Y-70868982D01*
X135723668Y-70769230D01*
X135744788Y-70696688D01*
X135739076Y-70641600D01*
X135704233Y-70594208D01*
X135637963Y-70544756D01*
X135537967Y-70483487D01*
X135478764Y-70447894D01*
X135115522Y-70221816D01*
X134773190Y-69996629D01*
X134454744Y-69774743D01*
X134163157Y-69558563D01*
X133901404Y-69350499D01*
X133672460Y-69152957D01*
X133479299Y-68968345D01*
X133324895Y-68799071D01*
X133212224Y-68647542D01*
X133174167Y-68582447D01*
X133112020Y-68431936D01*
X133085569Y-68290374D01*
X133095628Y-68166696D01*
X133129141Y-68088703D01*
X133182830Y-68036913D01*
X133279520Y-67975030D01*
X133412964Y-67905428D01*
X133576917Y-67830486D01*
X133765134Y-67752580D01*
X133971367Y-67674087D01*
X134189373Y-67597382D01*
X134412905Y-67524843D01*
X134635718Y-67458845D01*
X134851566Y-67401767D01*
X135054204Y-67355984D01*
X135055288Y-67355764D01*
X135159182Y-67335924D01*
X135254765Y-67321106D01*
X135352270Y-67310625D01*
X135461929Y-67303798D01*
X135593973Y-67299942D01*
X135758634Y-67298373D01*
X135915400Y-67298296D01*
X136112174Y-67299250D01*
X136112174Y-67299250D01*
G37*
X136112174Y-67299250D02*
X136267788Y-67301789D01*
X136391872Y-67306578D01*
X136494057Y-67314283D01*
X136583975Y-67325572D01*
X136671256Y-67341111D01*
X136737230Y-67355161D01*
X137133448Y-67461799D01*
X137537172Y-67604809D01*
X137929237Y-67777329D01*
X137964474Y-67794653D01*
X138111511Y-67868734D01*
X138218928Y-67928080D01*
X138292938Y-67979861D01*
X138339755Y-68031249D01*
X138365591Y-68089416D01*
X138376660Y-68161535D01*
X138379176Y-68254775D01*
X138379200Y-68273356D01*
X138355613Y-68434147D01*
X138285388Y-68612266D01*
X138169324Y-68806873D01*
X138008224Y-69017128D01*
X137802886Y-69242189D01*
X137554114Y-69481216D01*
X137262706Y-69733370D01*
X136929465Y-69997809D01*
X136555191Y-70273693D01*
X136309100Y-70445855D01*
X136210431Y-70513690D01*
X136128057Y-70570448D01*
X136070425Y-70610301D01*
X136045984Y-70627417D01*
X136045852Y-70627518D01*
X136050899Y-70650367D01*
X136081806Y-70708263D01*
X136139583Y-70802879D01*
X136225242Y-70935888D01*
X136304835Y-71056500D01*
X136539226Y-71381724D01*
X136784524Y-71669914D01*
X137038106Y-71919197D01*
X137297350Y-72127702D01*
X137559633Y-72293559D01*
X137822331Y-72414896D01*
X138082822Y-72489842D01*
X138338483Y-72516526D01*
X138351513Y-72516558D01*
X138607684Y-72496054D01*
X138856060Y-72434645D01*
X139100616Y-72330417D01*
X139345326Y-72181459D01*
X139594167Y-71985859D01*
X139747345Y-71845085D01*
X139916408Y-71675050D01*
X140068861Y-71505933D01*
X140214491Y-71325690D01*
X140363087Y-71122274D01*
X140506796Y-70910417D01*
X140720717Y-70586534D01*
X140826308Y-70649500D01*
X140886964Y-70688869D01*
X140923396Y-70718739D01*
X140928409Y-70727481D01*
X140910031Y-70766602D01*
X140867893Y-70838511D01*
X140807650Y-70934576D01*
X140734955Y-71046166D01*
X140655460Y-71164648D01*
X140574820Y-71281392D01*
X140498687Y-71387766D01*
X140474624Y-71420318D01*
X140211886Y-71746297D01*
X139942449Y-72030374D01*
X139668916Y-72270213D01*
X139393891Y-72463477D01*
X139183359Y-72578787D01*
X138974561Y-72668966D01*
X138782852Y-72728063D01*
X138589055Y-72760570D01*
X138373993Y-72770979D01*
X138362590Y-72771000D01*
X138056646Y-72745822D01*
X137755678Y-72670268D01*
X137459642Y-72544309D01*
X137168491Y-72367912D01*
X136882181Y-72141047D01*
X136600667Y-71863683D01*
X136323904Y-71535791D01*
X136100499Y-71229232D01*
X135922882Y-70970164D01*
X135862013Y-71102232D01*
X135777638Y-71261458D01*
X135664452Y-71440545D01*
X135532090Y-71626150D01*
X135390187Y-71804929D01*
X135248377Y-71963536D01*
X135217037Y-71995511D01*
X134941516Y-72242602D01*
X134655470Y-72444306D01*
X134361316Y-72599624D01*
X134061473Y-72707557D01*
X133758360Y-72767106D01*
X133454395Y-72777272D01*
X133345178Y-72768646D01*
X133048686Y-72710893D01*
X132761756Y-72603916D01*
X132485360Y-72448559D01*
X132220471Y-72245666D01*
X131968062Y-71996080D01*
X131729106Y-71700647D01*
X131504575Y-71360211D01*
X131307960Y-71000761D01*
X131253879Y-70891838D01*
X131209241Y-70800211D01*
X131178399Y-70734939D01*
X131165704Y-70705080D01*
X131165600Y-70704411D01*
X131186930Y-70688757D01*
X131238993Y-70665118D01*
X131303894Y-70640215D01*
X131363739Y-70620767D01*
X131400636Y-70613493D01*
X131404549Y-70614682D01*
X131418934Y-70640100D01*
X131450971Y-70701468D01*
X131495734Y-70789232D01*
X131541880Y-70880996D01*
X131742914Y-71246379D01*
X131957546Y-71566657D01*
X132184556Y-71841312D01*
X132422727Y-72069828D01*
X132670841Y-72251686D01*
X132927681Y-72386368D01*
X133192028Y-72473358D01*
X133462666Y-72512138D01*
X133738375Y-72502191D01*
X134017939Y-72442998D01*
X134300140Y-72334042D01*
X134583760Y-72174806D01*
X134584754Y-72174159D01*
X134864225Y-71964053D01*
X135122899Y-71713309D01*
X135353457Y-71430270D01*
X135548577Y-71123278D01*
X135610122Y-71005700D01*
X135678014Y-70868982D01*
X135723668Y-70769230D01*
X135744788Y-70696688D01*
X135739076Y-70641600D01*
X135704233Y-70594208D01*
X135637963Y-70544756D01*
X135537967Y-70483487D01*
X135478764Y-70447894D01*
X135115522Y-70221816D01*
X134773190Y-69996629D01*
X134454744Y-69774743D01*
X134163157Y-69558563D01*
X133901404Y-69350499D01*
X133672460Y-69152957D01*
X133479299Y-68968345D01*
X133324895Y-68799071D01*
X133212224Y-68647542D01*
X133174167Y-68582447D01*
X133112020Y-68431936D01*
X133085569Y-68290374D01*
X133095628Y-68166696D01*
X133129141Y-68088703D01*
X133182830Y-68036913D01*
X133279520Y-67975030D01*
X133412964Y-67905428D01*
X133576917Y-67830486D01*
X133765134Y-67752580D01*
X133971367Y-67674087D01*
X134189373Y-67597382D01*
X134412905Y-67524843D01*
X134635718Y-67458845D01*
X134851566Y-67401767D01*
X135054204Y-67355984D01*
X135055288Y-67355764D01*
X135159182Y-67335924D01*
X135254765Y-67321106D01*
X135352270Y-67310625D01*
X135461929Y-67303798D01*
X135593973Y-67299942D01*
X135758634Y-67298373D01*
X135915400Y-67298296D01*
X136112174Y-67299250D01*
G36*
X131310677Y-61785351D02*
X131489362Y-61794216D01*
X131645064Y-61811284D01*
X131749800Y-61832606D01*
X132060312Y-61944783D01*
X132349969Y-62100864D01*
X132615572Y-62297118D01*
X132853917Y-62529815D01*
X133061805Y-62795225D01*
X133236034Y-63089617D01*
X133373403Y-63409262D01*
X133470712Y-63750428D01*
X133492941Y-63863963D01*
X133519045Y-64093505D01*
X133524732Y-64349732D01*
X133510837Y-64613191D01*
X133478195Y-64864425D01*
X133442930Y-65029227D01*
X133331674Y-65366006D01*
X133180125Y-65680927D01*
X132991859Y-65969401D01*
X132770452Y-66226837D01*
X132519477Y-66448645D01*
X132242509Y-66630234D01*
X132163733Y-66671773D01*
X131923700Y-66770747D01*
X131659422Y-66842651D01*
X131385304Y-66885386D01*
X131115748Y-66896853D01*
X130865158Y-66874952D01*
X130822700Y-66867209D01*
X130497581Y-66777308D01*
X130193069Y-66642646D01*
X129912062Y-66466076D01*
X129657461Y-66250450D01*
X129432167Y-65998623D01*
X129239079Y-65713448D01*
X129081097Y-65397777D01*
X128961123Y-65054464D01*
X128954049Y-65028827D01*
X128920354Y-64863350D01*
X128897134Y-64663413D01*
X128884746Y-64444340D01*
X128884108Y-64325500D01*
X129148693Y-64325500D01*
X129151470Y-64547189D01*
X129161870Y-64730662D01*
X129182336Y-64888235D01*
X129215307Y-65032225D01*
X129263225Y-65174951D01*
X129328530Y-65328730D01*
X129361402Y-65398888D01*
X129456760Y-65584475D01*
X129553542Y-65739764D01*
X129664831Y-65883902D01*
X129779843Y-66011150D01*
X130018059Y-66227864D01*
X130277014Y-66401059D01*
X130552765Y-66529328D01*
X130841368Y-66611267D01*
X131138877Y-66645469D01*
X131441349Y-66630530D01*
X131495800Y-66622548D01*
X131797056Y-66548939D01*
X132078624Y-66429925D01*
X132338122Y-66267859D01*
X132573173Y-66065097D01*
X132781399Y-65823992D01*
X132960419Y-65546899D01*
X133107857Y-65236172D01*
X133213621Y-64922400D01*
X133232756Y-64840129D01*
X133246133Y-64746705D01*
X133254582Y-64631694D01*
X133258929Y-64484664D01*
X133260009Y-64338200D01*
X133259225Y-64170332D01*
X133255687Y-64041061D01*
X133248280Y-63938213D01*
X133235888Y-63849610D01*
X133217397Y-63763078D01*
X133201858Y-63703200D01*
X133088802Y-63374033D01*
X132936584Y-63070401D01*
X132748192Y-62796606D01*
X132526614Y-62556954D01*
X132274842Y-62355748D01*
X132258219Y-62344578D01*
X132005327Y-62200134D01*
X131745815Y-62101007D01*
X131470057Y-62044341D01*
X131188713Y-62027241D01*
X130886475Y-62051199D01*
X130596940Y-62122447D01*
X130323299Y-62238373D01*
X130068743Y-62396364D01*
X129836464Y-62593807D01*
X129629653Y-62828091D01*
X129451502Y-63096604D01*
X129305202Y-63396733D01*
X129218696Y-63639700D01*
X129193450Y-63726000D01*
X129175143Y-63801073D01*
X129162661Y-63875852D01*
X129154888Y-63961267D01*
X129150708Y-64068252D01*
X129149005Y-64207738D01*
X129148693Y-64325500D01*
X128884108Y-64325500D01*
X128883549Y-64221454D01*
X128893901Y-64010079D01*
X128916159Y-63825537D01*
X128924856Y-63779400D01*
X129019898Y-63434635D01*
X129155277Y-63111773D01*
X129327746Y-62814466D01*
X129534056Y-62546366D01*
X129770956Y-62311124D01*
X130035199Y-62112391D01*
X130323535Y-61953819D01*
X130632714Y-61839059D01*
X130657600Y-61832060D01*
X130782472Y-61808043D01*
X130942659Y-61792257D01*
X131123585Y-61784696D01*
X131310677Y-61785351D01*
X131310677Y-61785351D01*
G37*
X131310677Y-61785351D02*
X131489362Y-61794216D01*
X131645064Y-61811284D01*
X131749800Y-61832606D01*
X132060312Y-61944783D01*
X132349969Y-62100864D01*
X132615572Y-62297118D01*
X132853917Y-62529815D01*
X133061805Y-62795225D01*
X133236034Y-63089617D01*
X133373403Y-63409262D01*
X133470712Y-63750428D01*
X133492941Y-63863963D01*
X133519045Y-64093505D01*
X133524732Y-64349732D01*
X133510837Y-64613191D01*
X133478195Y-64864425D01*
X133442930Y-65029227D01*
X133331674Y-65366006D01*
X133180125Y-65680927D01*
X132991859Y-65969401D01*
X132770452Y-66226837D01*
X132519477Y-66448645D01*
X132242509Y-66630234D01*
X132163733Y-66671773D01*
X131923700Y-66770747D01*
X131659422Y-66842651D01*
X131385304Y-66885386D01*
X131115748Y-66896853D01*
X130865158Y-66874952D01*
X130822700Y-66867209D01*
X130497581Y-66777308D01*
X130193069Y-66642646D01*
X129912062Y-66466076D01*
X129657461Y-66250450D01*
X129432167Y-65998623D01*
X129239079Y-65713448D01*
X129081097Y-65397777D01*
X128961123Y-65054464D01*
X128954049Y-65028827D01*
X128920354Y-64863350D01*
X128897134Y-64663413D01*
X128884746Y-64444340D01*
X128884108Y-64325500D01*
X129148693Y-64325500D01*
X129151470Y-64547189D01*
X129161870Y-64730662D01*
X129182336Y-64888235D01*
X129215307Y-65032225D01*
X129263225Y-65174951D01*
X129328530Y-65328730D01*
X129361402Y-65398888D01*
X129456760Y-65584475D01*
X129553542Y-65739764D01*
X129664831Y-65883902D01*
X129779843Y-66011150D01*
X130018059Y-66227864D01*
X130277014Y-66401059D01*
X130552765Y-66529328D01*
X130841368Y-66611267D01*
X131138877Y-66645469D01*
X131441349Y-66630530D01*
X131495800Y-66622548D01*
X131797056Y-66548939D01*
X132078624Y-66429925D01*
X132338122Y-66267859D01*
X132573173Y-66065097D01*
X132781399Y-65823992D01*
X132960419Y-65546899D01*
X133107857Y-65236172D01*
X133213621Y-64922400D01*
X133232756Y-64840129D01*
X133246133Y-64746705D01*
X133254582Y-64631694D01*
X133258929Y-64484664D01*
X133260009Y-64338200D01*
X133259225Y-64170332D01*
X133255687Y-64041061D01*
X133248280Y-63938213D01*
X133235888Y-63849610D01*
X133217397Y-63763078D01*
X133201858Y-63703200D01*
X133088802Y-63374033D01*
X132936584Y-63070401D01*
X132748192Y-62796606D01*
X132526614Y-62556954D01*
X132274842Y-62355748D01*
X132258219Y-62344578D01*
X132005327Y-62200134D01*
X131745815Y-62101007D01*
X131470057Y-62044341D01*
X131188713Y-62027241D01*
X130886475Y-62051199D01*
X130596940Y-62122447D01*
X130323299Y-62238373D01*
X130068743Y-62396364D01*
X129836464Y-62593807D01*
X129629653Y-62828091D01*
X129451502Y-63096604D01*
X129305202Y-63396733D01*
X129218696Y-63639700D01*
X129193450Y-63726000D01*
X129175143Y-63801073D01*
X129162661Y-63875852D01*
X129154888Y-63961267D01*
X129150708Y-64068252D01*
X129149005Y-64207738D01*
X129148693Y-64325500D01*
X128884108Y-64325500D01*
X128883549Y-64221454D01*
X128893901Y-64010079D01*
X128916159Y-63825537D01*
X128924856Y-63779400D01*
X129019898Y-63434635D01*
X129155277Y-63111773D01*
X129327746Y-62814466D01*
X129534056Y-62546366D01*
X129770956Y-62311124D01*
X130035199Y-62112391D01*
X130323535Y-61953819D01*
X130632714Y-61839059D01*
X130657600Y-61832060D01*
X130782472Y-61808043D01*
X130942659Y-61792257D01*
X131123585Y-61784696D01*
X131310677Y-61785351D01*
G36*
X140890368Y-61788295D02*
X141211380Y-61844271D01*
X141516370Y-61948298D01*
X141806105Y-62100656D01*
X142081351Y-62301625D01*
X142157077Y-62367686D01*
X142346759Y-62566955D01*
X142522561Y-62805419D01*
X142677945Y-63072003D01*
X142806376Y-63355637D01*
X142892954Y-63614300D01*
X142918226Y-63708762D01*
X142936592Y-63789880D01*
X142949118Y-63868772D01*
X142956867Y-63956557D01*
X142960902Y-64064353D01*
X142962287Y-64203278D01*
X142962219Y-64338200D01*
X142959707Y-64545474D01*
X142951859Y-64714917D01*
X142936456Y-64859403D01*
X142911284Y-64991804D01*
X142874125Y-65124994D01*
X142822764Y-65271846D01*
X142784297Y-65371643D01*
X142643425Y-65665981D01*
X142461899Y-65943563D01*
X142246348Y-66197034D01*
X142003401Y-66419038D01*
X141739688Y-66602220D01*
X141612533Y-66671773D01*
X141398492Y-66760975D01*
X141159088Y-66830059D01*
X140908866Y-66876686D01*
X140662372Y-66898515D01*
X140434149Y-66893206D01*
X140326357Y-66878732D01*
X139992085Y-66792957D01*
X139680155Y-66662220D01*
X139392685Y-66488158D01*
X139131795Y-66272410D01*
X138899602Y-66016615D01*
X138698226Y-65722411D01*
X138601312Y-65544700D01*
X138474227Y-65246793D01*
X138388311Y-64939056D01*
X138341938Y-64613272D01*
X138335331Y-64338200D01*
X138598261Y-64338200D01*
X138598989Y-64504144D01*
X138601617Y-64630596D01*
X138607301Y-64728857D01*
X138617198Y-64810229D01*
X138632467Y-64886013D01*
X138654263Y-64967510D01*
X138667180Y-65011300D01*
X138790243Y-65344885D01*
X138948593Y-65645834D01*
X139140041Y-65912060D01*
X139362400Y-66141475D01*
X139613480Y-66331992D01*
X139891093Y-66481525D01*
X140193051Y-66587987D01*
X140360400Y-66625900D01*
X140467564Y-66636938D01*
X140607670Y-66639087D01*
X140763813Y-66633251D01*
X140919090Y-66620338D01*
X141056594Y-66601251D01*
X141134184Y-66584443D01*
X141423154Y-66481400D01*
X141692302Y-66333044D01*
X141943692Y-66138090D01*
X142102721Y-65981293D01*
X142314239Y-65716737D01*
X142483790Y-65424030D01*
X142610511Y-65104872D01*
X142676478Y-64851332D01*
X142708690Y-64630096D01*
X142721340Y-64385815D01*
X142714987Y-64135338D01*
X142690186Y-63895516D01*
X142647493Y-63683200D01*
X142636639Y-63644795D01*
X142512989Y-63309671D01*
X142353522Y-63008132D01*
X142159748Y-62741845D01*
X141933175Y-62512475D01*
X141675312Y-62321689D01*
X141387666Y-62171155D01*
X141256034Y-62119513D01*
X141166527Y-62088630D01*
X141092240Y-62067015D01*
X141020629Y-62053022D01*
X140939153Y-62045004D01*
X140835267Y-62041315D01*
X140696429Y-62040307D01*
X140652500Y-62040281D01*
X140502285Y-62040863D01*
X140390347Y-62043701D01*
X140304164Y-62050429D01*
X140231216Y-62062684D01*
X140158982Y-62082103D01*
X140074943Y-62110321D01*
X140050674Y-62118923D01*
X139759363Y-62249139D01*
X139491955Y-62422141D01*
X139251653Y-62634328D01*
X139041660Y-62882096D01*
X138865178Y-63161842D01*
X138725410Y-63469963D01*
X138653895Y-63690500D01*
X138632579Y-63774738D01*
X138617363Y-63855824D01*
X138607286Y-63944917D01*
X138601391Y-64053182D01*
X138598718Y-64191779D01*
X138598261Y-64338200D01*
X138335331Y-64338200D01*
X138333482Y-64261224D01*
X138335571Y-64201161D01*
X138374830Y-63829893D01*
X138459618Y-63476578D01*
X138588623Y-63144303D01*
X138760533Y-62836158D01*
X138974036Y-62555231D01*
X139085033Y-62436814D01*
X139340471Y-62211806D01*
X139609580Y-62035109D01*
X139895413Y-61905358D01*
X140201023Y-61821186D01*
X140529463Y-61781228D01*
X140552569Y-61780088D01*
X140890368Y-61788295D01*
X140890368Y-61788295D01*
G37*
X140890368Y-61788295D02*
X141211380Y-61844271D01*
X141516370Y-61948298D01*
X141806105Y-62100656D01*
X142081351Y-62301625D01*
X142157077Y-62367686D01*
X142346759Y-62566955D01*
X142522561Y-62805419D01*
X142677945Y-63072003D01*
X142806376Y-63355637D01*
X142892954Y-63614300D01*
X142918226Y-63708762D01*
X142936592Y-63789880D01*
X142949118Y-63868772D01*
X142956867Y-63956557D01*
X142960902Y-64064353D01*
X142962287Y-64203278D01*
X142962219Y-64338200D01*
X142959707Y-64545474D01*
X142951859Y-64714917D01*
X142936456Y-64859403D01*
X142911284Y-64991804D01*
X142874125Y-65124994D01*
X142822764Y-65271846D01*
X142784297Y-65371643D01*
X142643425Y-65665981D01*
X142461899Y-65943563D01*
X142246348Y-66197034D01*
X142003401Y-66419038D01*
X141739688Y-66602220D01*
X141612533Y-66671773D01*
X141398492Y-66760975D01*
X141159088Y-66830059D01*
X140908866Y-66876686D01*
X140662372Y-66898515D01*
X140434149Y-66893206D01*
X140326357Y-66878732D01*
X139992085Y-66792957D01*
X139680155Y-66662220D01*
X139392685Y-66488158D01*
X139131795Y-66272410D01*
X138899602Y-66016615D01*
X138698226Y-65722411D01*
X138601312Y-65544700D01*
X138474227Y-65246793D01*
X138388311Y-64939056D01*
X138341938Y-64613272D01*
X138335331Y-64338200D01*
X138598261Y-64338200D01*
X138598989Y-64504144D01*
X138601617Y-64630596D01*
X138607301Y-64728857D01*
X138617198Y-64810229D01*
X138632467Y-64886013D01*
X138654263Y-64967510D01*
X138667180Y-65011300D01*
X138790243Y-65344885D01*
X138948593Y-65645834D01*
X139140041Y-65912060D01*
X139362400Y-66141475D01*
X139613480Y-66331992D01*
X139891093Y-66481525D01*
X140193051Y-66587987D01*
X140360400Y-66625900D01*
X140467564Y-66636938D01*
X140607670Y-66639087D01*
X140763813Y-66633251D01*
X140919090Y-66620338D01*
X141056594Y-66601251D01*
X141134184Y-66584443D01*
X141423154Y-66481400D01*
X141692302Y-66333044D01*
X141943692Y-66138090D01*
X142102721Y-65981293D01*
X142314239Y-65716737D01*
X142483790Y-65424030D01*
X142610511Y-65104872D01*
X142676478Y-64851332D01*
X142708690Y-64630096D01*
X142721340Y-64385815D01*
X142714987Y-64135338D01*
X142690186Y-63895516D01*
X142647493Y-63683200D01*
X142636639Y-63644795D01*
X142512989Y-63309671D01*
X142353522Y-63008132D01*
X142159748Y-62741845D01*
X141933175Y-62512475D01*
X141675312Y-62321689D01*
X141387666Y-62171155D01*
X141256034Y-62119513D01*
X141166527Y-62088630D01*
X141092240Y-62067015D01*
X141020629Y-62053022D01*
X140939153Y-62045004D01*
X140835267Y-62041315D01*
X140696429Y-62040307D01*
X140652500Y-62040281D01*
X140502285Y-62040863D01*
X140390347Y-62043701D01*
X140304164Y-62050429D01*
X140231216Y-62062684D01*
X140158982Y-62082103D01*
X140074943Y-62110321D01*
X140050674Y-62118923D01*
X139759363Y-62249139D01*
X139491955Y-62422141D01*
X139251653Y-62634328D01*
X139041660Y-62882096D01*
X138865178Y-63161842D01*
X138725410Y-63469963D01*
X138653895Y-63690500D01*
X138632579Y-63774738D01*
X138617363Y-63855824D01*
X138607286Y-63944917D01*
X138601391Y-64053182D01*
X138598718Y-64191779D01*
X138598261Y-64338200D01*
X138335331Y-64338200D01*
X138333482Y-64261224D01*
X138335571Y-64201161D01*
X138374830Y-63829893D01*
X138459618Y-63476578D01*
X138588623Y-63144303D01*
X138760533Y-62836158D01*
X138974036Y-62555231D01*
X139085033Y-62436814D01*
X139340471Y-62211806D01*
X139609580Y-62035109D01*
X139895413Y-61905358D01*
X140201023Y-61821186D01*
X140529463Y-61781228D01*
X140552569Y-61780088D01*
X140890368Y-61788295D01*
G36*
X131461962Y-63198363D02*
X131682735Y-63262284D01*
X131892775Y-63367506D01*
X132087463Y-63512933D01*
X132262179Y-63697470D01*
X132412304Y-63920020D01*
X132473487Y-64038355D01*
X132558988Y-64244364D01*
X132615255Y-64444737D01*
X132647785Y-64661494D01*
X132656130Y-64770000D01*
X132650864Y-65063572D01*
X132602048Y-65348619D01*
X132512520Y-65618915D01*
X132385120Y-65868232D01*
X132222685Y-66090343D01*
X132028056Y-66279022D01*
X131937264Y-66346888D01*
X131740487Y-66454242D01*
X131520200Y-66526251D01*
X131290244Y-66560201D01*
X131064459Y-66553381D01*
X130969071Y-66536556D01*
X130746165Y-66460703D01*
X130534763Y-66340140D01*
X130340474Y-66180617D01*
X130168910Y-65987882D01*
X130025682Y-65767681D01*
X129916401Y-65525765D01*
X129883528Y-65424473D01*
X129824789Y-65139146D01*
X129809483Y-64848837D01*
X129835814Y-64560683D01*
X129901985Y-64281821D01*
X130006200Y-64019386D01*
X130146661Y-63780514D01*
X130321573Y-63572342D01*
X130358783Y-63536636D01*
X130563930Y-63377611D01*
X130781440Y-63265367D01*
X131006696Y-63198809D01*
X131235076Y-63176839D01*
X131461962Y-63198363D01*
X131461962Y-63198363D01*
G37*
X131461962Y-63198363D02*
X131682735Y-63262284D01*
X131892775Y-63367506D01*
X132087463Y-63512933D01*
X132262179Y-63697470D01*
X132412304Y-63920020D01*
X132473487Y-64038355D01*
X132558988Y-64244364D01*
X132615255Y-64444737D01*
X132647785Y-64661494D01*
X132656130Y-64770000D01*
X132650864Y-65063572D01*
X132602048Y-65348619D01*
X132512520Y-65618915D01*
X132385120Y-65868232D01*
X132222685Y-66090343D01*
X132028056Y-66279022D01*
X131937264Y-66346888D01*
X131740487Y-66454242D01*
X131520200Y-66526251D01*
X131290244Y-66560201D01*
X131064459Y-66553381D01*
X130969071Y-66536556D01*
X130746165Y-66460703D01*
X130534763Y-66340140D01*
X130340474Y-66180617D01*
X130168910Y-65987882D01*
X130025682Y-65767681D01*
X129916401Y-65525765D01*
X129883528Y-65424473D01*
X129824789Y-65139146D01*
X129809483Y-64848837D01*
X129835814Y-64560683D01*
X129901985Y-64281821D01*
X130006200Y-64019386D01*
X130146661Y-63780514D01*
X130321573Y-63572342D01*
X130358783Y-63536636D01*
X130563930Y-63377611D01*
X130781440Y-63265367D01*
X131006696Y-63198809D01*
X131235076Y-63176839D01*
X131461962Y-63198363D01*
G36*
X140859275Y-63205904D02*
X141083712Y-63281228D01*
X141294831Y-63398267D01*
X141487397Y-63554013D01*
X141656177Y-63745454D01*
X141795937Y-63969583D01*
X141817148Y-64012207D01*
X141912588Y-64239286D01*
X141973724Y-64458208D01*
X142004955Y-64688595D01*
X142011400Y-64878901D01*
X141990292Y-65171747D01*
X141928976Y-65449227D01*
X141830458Y-65706639D01*
X141697746Y-65939283D01*
X141533846Y-66142460D01*
X141341765Y-66311469D01*
X141124513Y-66441609D01*
X140972452Y-66502726D01*
X140863888Y-66530001D01*
X140732495Y-66550645D01*
X140597474Y-66562767D01*
X140478025Y-66564478D01*
X140411200Y-66557976D01*
X140355961Y-66543766D01*
X140271010Y-66517508D01*
X140174288Y-66484759D01*
X140169900Y-66483205D01*
X139955171Y-66381359D01*
X139754342Y-66235934D01*
X139574648Y-66053710D01*
X139423326Y-65841470D01*
X139359138Y-65723307D01*
X139279657Y-65540236D01*
X139225136Y-65360590D01*
X139191042Y-65165922D01*
X139174582Y-64972035D01*
X139179255Y-64676929D01*
X139224321Y-64396089D01*
X139306875Y-64133765D01*
X139424010Y-63894205D01*
X139572822Y-63681661D01*
X139750404Y-63500380D01*
X139953851Y-63354614D01*
X140180258Y-63248609D01*
X140391386Y-63192440D01*
X140626755Y-63175305D01*
X140859275Y-63205904D01*
X140859275Y-63205904D01*
G37*
X140859275Y-63205904D02*
X141083712Y-63281228D01*
X141294831Y-63398267D01*
X141487397Y-63554013D01*
X141656177Y-63745454D01*
X141795937Y-63969583D01*
X141817148Y-64012207D01*
X141912588Y-64239286D01*
X141973724Y-64458208D01*
X142004955Y-64688595D01*
X142011400Y-64878901D01*
X141990292Y-65171747D01*
X141928976Y-65449227D01*
X141830458Y-65706639D01*
X141697746Y-65939283D01*
X141533846Y-66142460D01*
X141341765Y-66311469D01*
X141124513Y-66441609D01*
X140972452Y-66502726D01*
X140863888Y-66530001D01*
X140732495Y-66550645D01*
X140597474Y-66562767D01*
X140478025Y-66564478D01*
X140411200Y-66557976D01*
X140355961Y-66543766D01*
X140271010Y-66517508D01*
X140174288Y-66484759D01*
X140169900Y-66483205D01*
X139955171Y-66381359D01*
X139754342Y-66235934D01*
X139574648Y-66053710D01*
X139423326Y-65841470D01*
X139359138Y-65723307D01*
X139279657Y-65540236D01*
X139225136Y-65360590D01*
X139191042Y-65165922D01*
X139174582Y-64972035D01*
X139179255Y-64676929D01*
X139224321Y-64396089D01*
X139306875Y-64133765D01*
X139424010Y-63894205D01*
X139572822Y-63681661D01*
X139750404Y-63500380D01*
X139953851Y-63354614D01*
X140180258Y-63248609D01*
X140391386Y-63192440D01*
X140626755Y-63175305D01*
X140859275Y-63205904D01*
D11*
X120861242Y-77659276D02*
G75*
G03X116558000Y-77341251I-2243242J-1080724D01*
G01*
X120861242Y-79820724D02*
G75*
G02X116558000Y-80138749I-2243242J1080724D01*
G01*
X120300713Y-77659039D02*
G75*
G03X116934670Y-77660000I-1682713J-1080961D01*
G01*
X120300713Y-79820961D02*
G75*
G02X116934670Y-79820000I-1682713J1080961D01*
G01*
X116558000Y-77341000D02*
X116558000Y-77660000D01*
X116558000Y-79820000D02*
X116558000Y-80139000D01*
M02*
