G04 #@! TF.FileFunction,Legend,Bot*
%FSLAX46Y46*%
G04 Gerber Fmt 4.6, Leading zero omitted, Abs format (unit mm)*
G04 Created by KiCad (PCBNEW 4.0.7) date 05/04/18 14:02:44*
%MOMM*%
%LPD*%
G01*
G04 APERTURE LIST*
%ADD10C,0.076200*%
%ADD11C,0.300000*%
%ADD12C,0.150000*%
%ADD13C,0.100000*%
G04 APERTURE END LIST*
D10*
D11*
X141370142Y-80786857D02*
X141155856Y-80858286D01*
X141084428Y-80929714D01*
X141012999Y-81072571D01*
X141012999Y-81286857D01*
X141084428Y-81429714D01*
X141155856Y-81501143D01*
X141298714Y-81572571D01*
X141870142Y-81572571D01*
X141870142Y-80072571D01*
X141370142Y-80072571D01*
X141227285Y-80144000D01*
X141155856Y-80215429D01*
X141084428Y-80358286D01*
X141084428Y-80501143D01*
X141155856Y-80644000D01*
X141227285Y-80715429D01*
X141370142Y-80786857D01*
X141870142Y-80786857D01*
X140155856Y-81572571D02*
X140298714Y-81501143D01*
X140370142Y-81358286D01*
X140370142Y-80072571D01*
X139584428Y-81572571D02*
X139584428Y-80572571D01*
X139584428Y-80072571D02*
X139655857Y-80144000D01*
X139584428Y-80215429D01*
X139513000Y-80144000D01*
X139584428Y-80072571D01*
X139584428Y-80215429D01*
X138870142Y-80572571D02*
X138870142Y-81572571D01*
X138870142Y-80715429D02*
X138798714Y-80644000D01*
X138655856Y-80572571D01*
X138441571Y-80572571D01*
X138298714Y-80644000D01*
X138227285Y-80786857D01*
X138227285Y-81572571D01*
X137512999Y-81572571D02*
X137512999Y-80072571D01*
X137370142Y-81001143D02*
X136941571Y-81572571D01*
X136941571Y-80572571D02*
X137512999Y-81144000D01*
X136441570Y-80572571D02*
X136084427Y-81572571D01*
X135727285Y-80572571D02*
X136084427Y-81572571D01*
X136227285Y-81929714D01*
X136298713Y-82001143D01*
X136441570Y-82072571D01*
X133512999Y-80786857D02*
X133298713Y-80858286D01*
X133227285Y-80929714D01*
X133155856Y-81072571D01*
X133155856Y-81286857D01*
X133227285Y-81429714D01*
X133298713Y-81501143D01*
X133441571Y-81572571D01*
X134012999Y-81572571D01*
X134012999Y-80072571D01*
X133512999Y-80072571D01*
X133370142Y-80144000D01*
X133298713Y-80215429D01*
X133227285Y-80358286D01*
X133227285Y-80501143D01*
X133298713Y-80644000D01*
X133370142Y-80715429D01*
X133512999Y-80786857D01*
X134012999Y-80786857D01*
X131941571Y-81501143D02*
X132084428Y-81572571D01*
X132370142Y-81572571D01*
X132512999Y-81501143D01*
X132584428Y-81358286D01*
X132584428Y-80786857D01*
X132512999Y-80644000D01*
X132370142Y-80572571D01*
X132084428Y-80572571D01*
X131941571Y-80644000D01*
X131870142Y-80786857D01*
X131870142Y-80929714D01*
X132584428Y-81072571D01*
X130584428Y-81572571D02*
X130584428Y-80786857D01*
X130655857Y-80644000D01*
X130798714Y-80572571D01*
X131084428Y-80572571D01*
X131227285Y-80644000D01*
X130584428Y-81501143D02*
X130727285Y-81572571D01*
X131084428Y-81572571D01*
X131227285Y-81501143D01*
X131298714Y-81358286D01*
X131298714Y-81215429D01*
X131227285Y-81072571D01*
X131084428Y-81001143D01*
X130727285Y-81001143D01*
X130584428Y-80929714D01*
X129870142Y-81572571D02*
X129870142Y-80572571D01*
X129870142Y-80858286D02*
X129798714Y-80715429D01*
X129727285Y-80644000D01*
X129584428Y-80572571D01*
X129441571Y-80572571D01*
X138084428Y-82765429D02*
X138012999Y-82694000D01*
X137870142Y-82622571D01*
X137512999Y-82622571D01*
X137370142Y-82694000D01*
X137298713Y-82765429D01*
X137227285Y-82908286D01*
X137227285Y-83051143D01*
X137298713Y-83265429D01*
X138155856Y-84122571D01*
X137227285Y-84122571D01*
X135870142Y-84122571D02*
X136584428Y-84122571D01*
X136584428Y-82622571D01*
X135727285Y-84265429D02*
X134584428Y-84265429D01*
X133441571Y-84122571D02*
X134298714Y-84122571D01*
X133870142Y-84122571D02*
X133870142Y-82622571D01*
X134012999Y-82836857D01*
X134155857Y-82979714D01*
X134298714Y-83051143D01*
X122618428Y-78847143D02*
X121475571Y-78847143D01*
X122047000Y-79418571D02*
X122047000Y-78275714D01*
X150304428Y-78720143D02*
X149161571Y-78720143D01*
X149733000Y-79291571D02*
X149733000Y-78148714D01*
D12*
X123728000Y-92250000D02*
X123728000Y-85550000D01*
X121128000Y-92250000D02*
X123728000Y-92250000D01*
X121128000Y-85550000D02*
X121128000Y-92250000D01*
X121128000Y-85550000D02*
X123728000Y-85550000D01*
X128905000Y-97536000D02*
X131940300Y-101104700D01*
X142113000Y-97536000D02*
X139077700Y-101104700D01*
X128905000Y-96291400D02*
X128905000Y-97536000D01*
X142113000Y-89039700D02*
X128905000Y-89039700D01*
X139077700Y-101104700D02*
X131940300Y-101104700D01*
X142113000Y-96291400D02*
X142113000Y-97536000D01*
X128905000Y-89039700D02*
X128905000Y-92430600D01*
X142113000Y-89039700D02*
X142113000Y-92430600D01*
D13*
G36*
X132712622Y-76091418D02*
X132714762Y-76685076D01*
X132715000Y-76869945D01*
X132716968Y-77510217D01*
X132723635Y-78000453D01*
X132736144Y-78359914D01*
X132755639Y-78607861D01*
X132783265Y-78763554D01*
X132820165Y-78846252D01*
X132833169Y-78859670D01*
X133000404Y-78931142D01*
X133138333Y-78961474D01*
X133138333Y-78507748D01*
X133138333Y-76914371D01*
X133142389Y-76393909D01*
X133153750Y-75944332D01*
X133171205Y-75590665D01*
X133193547Y-75357937D01*
X133217725Y-75271926D01*
X133329173Y-75241092D01*
X133571448Y-75194619D01*
X133907507Y-75139095D01*
X134254892Y-75087485D01*
X134883360Y-75025536D01*
X135610949Y-74997245D01*
X136380863Y-75001497D01*
X137136308Y-75037179D01*
X137820486Y-75103176D01*
X138218333Y-75165237D01*
X138768667Y-75269859D01*
X138791634Y-76891143D01*
X138814601Y-78512426D01*
X138241301Y-78603198D01*
X137905387Y-78655928D01*
X137600576Y-78703002D01*
X137414000Y-78731091D01*
X137173831Y-78748739D01*
X136802475Y-78755161D01*
X136337617Y-78751617D01*
X135816943Y-78739364D01*
X135278138Y-78719660D01*
X134758888Y-78693761D01*
X134296878Y-78662926D01*
X133929794Y-78628412D01*
X133794500Y-78610306D01*
X133138333Y-78507748D01*
X133138333Y-78961474D01*
X133309725Y-78999166D01*
X133733887Y-79061037D01*
X134245644Y-79114051D01*
X134817751Y-79155504D01*
X135422961Y-79182692D01*
X136034031Y-79192910D01*
X136186333Y-79192483D01*
X136671331Y-79187260D01*
X137110111Y-79179201D01*
X137468846Y-79169183D01*
X137713708Y-79158080D01*
X137795000Y-79150816D01*
X138301572Y-79067236D01*
X138709361Y-78984708D01*
X138994538Y-78908632D01*
X139128500Y-78848674D01*
X139165535Y-78770849D01*
X139193694Y-78595790D01*
X139213802Y-78308075D01*
X139226683Y-77892284D01*
X139233163Y-77332996D01*
X139234333Y-76869945D01*
X139233382Y-76253599D01*
X139229423Y-75785164D01*
X139220800Y-75443224D01*
X139205856Y-75206362D01*
X139182934Y-75053160D01*
X139150378Y-74962203D01*
X139106532Y-74912073D01*
X139081688Y-74896597D01*
X138815800Y-74803179D01*
X138410239Y-74723175D01*
X137894227Y-74657830D01*
X137296985Y-74608389D01*
X136647736Y-74576099D01*
X135975702Y-74562204D01*
X135310104Y-74567950D01*
X134680166Y-74594582D01*
X134115109Y-74643346D01*
X133876807Y-74674783D01*
X133511342Y-74726423D01*
X133231238Y-74771352D01*
X133025234Y-74830847D01*
X132882071Y-74926182D01*
X132790488Y-75078632D01*
X132739225Y-75309471D01*
X132717023Y-75639975D01*
X132712622Y-76091418D01*
X132712622Y-76091418D01*
X132712622Y-76091418D01*
G37*
X132712622Y-76091418D02*
X132714762Y-76685076D01*
X132715000Y-76869945D01*
X132716968Y-77510217D01*
X132723635Y-78000453D01*
X132736144Y-78359914D01*
X132755639Y-78607861D01*
X132783265Y-78763554D01*
X132820165Y-78846252D01*
X132833169Y-78859670D01*
X133000404Y-78931142D01*
X133138333Y-78961474D01*
X133138333Y-78507748D01*
X133138333Y-76914371D01*
X133142389Y-76393909D01*
X133153750Y-75944332D01*
X133171205Y-75590665D01*
X133193547Y-75357937D01*
X133217725Y-75271926D01*
X133329173Y-75241092D01*
X133571448Y-75194619D01*
X133907507Y-75139095D01*
X134254892Y-75087485D01*
X134883360Y-75025536D01*
X135610949Y-74997245D01*
X136380863Y-75001497D01*
X137136308Y-75037179D01*
X137820486Y-75103176D01*
X138218333Y-75165237D01*
X138768667Y-75269859D01*
X138791634Y-76891143D01*
X138814601Y-78512426D01*
X138241301Y-78603198D01*
X137905387Y-78655928D01*
X137600576Y-78703002D01*
X137414000Y-78731091D01*
X137173831Y-78748739D01*
X136802475Y-78755161D01*
X136337617Y-78751617D01*
X135816943Y-78739364D01*
X135278138Y-78719660D01*
X134758888Y-78693761D01*
X134296878Y-78662926D01*
X133929794Y-78628412D01*
X133794500Y-78610306D01*
X133138333Y-78507748D01*
X133138333Y-78961474D01*
X133309725Y-78999166D01*
X133733887Y-79061037D01*
X134245644Y-79114051D01*
X134817751Y-79155504D01*
X135422961Y-79182692D01*
X136034031Y-79192910D01*
X136186333Y-79192483D01*
X136671331Y-79187260D01*
X137110111Y-79179201D01*
X137468846Y-79169183D01*
X137713708Y-79158080D01*
X137795000Y-79150816D01*
X138301572Y-79067236D01*
X138709361Y-78984708D01*
X138994538Y-78908632D01*
X139128500Y-78848674D01*
X139165535Y-78770849D01*
X139193694Y-78595790D01*
X139213802Y-78308075D01*
X139226683Y-77892284D01*
X139233163Y-77332996D01*
X139234333Y-76869945D01*
X139233382Y-76253599D01*
X139229423Y-75785164D01*
X139220800Y-75443224D01*
X139205856Y-75206362D01*
X139182934Y-75053160D01*
X139150378Y-74962203D01*
X139106532Y-74912073D01*
X139081688Y-74896597D01*
X138815800Y-74803179D01*
X138410239Y-74723175D01*
X137894227Y-74657830D01*
X137296985Y-74608389D01*
X136647736Y-74576099D01*
X135975702Y-74562204D01*
X135310104Y-74567950D01*
X134680166Y-74594582D01*
X134115109Y-74643346D01*
X133876807Y-74674783D01*
X133511342Y-74726423D01*
X133231238Y-74771352D01*
X133025234Y-74830847D01*
X132882071Y-74926182D01*
X132790488Y-75078632D01*
X132739225Y-75309471D01*
X132717023Y-75639975D01*
X132712622Y-76091418D01*
X132712622Y-76091418D01*
G36*
X135674330Y-77236396D02*
X135721811Y-77619950D01*
X135886553Y-77969481D01*
X136160839Y-78238811D01*
X136302097Y-78312168D01*
X136490433Y-78362105D01*
X136761285Y-78393878D01*
X137150089Y-78412742D01*
X137371667Y-78418393D01*
X137768061Y-78422691D01*
X138106353Y-78418729D01*
X138348130Y-78407450D01*
X138451167Y-78391953D01*
X138540029Y-78274885D01*
X138548116Y-78096760D01*
X138480306Y-77942596D01*
X138423075Y-77902391D01*
X138284273Y-77880378D01*
X138020201Y-77863077D01*
X137674907Y-77852813D01*
X137449409Y-77851000D01*
X136967865Y-77835429D01*
X136631329Y-77781481D01*
X136417728Y-77678299D01*
X136304987Y-77515028D01*
X136271033Y-77280811D01*
X136271000Y-77271455D01*
X136337498Y-77007492D01*
X136542142Y-76820644D01*
X136892658Y-76705320D01*
X137094076Y-76675904D01*
X137369639Y-76640063D01*
X137516307Y-76594056D01*
X137574127Y-76516255D01*
X137583333Y-76411666D01*
X137572369Y-76297268D01*
X137514036Y-76230955D01*
X137370176Y-76196166D01*
X137102631Y-76176341D01*
X137033000Y-76172817D01*
X136616720Y-76176844D01*
X136317020Y-76241245D01*
X136222721Y-76283786D01*
X135926058Y-76528094D01*
X135742837Y-76859037D01*
X135674330Y-77236396D01*
X135674330Y-77236396D01*
X135674330Y-77236396D01*
G37*
X135674330Y-77236396D02*
X135721811Y-77619950D01*
X135886553Y-77969481D01*
X136160839Y-78238811D01*
X136302097Y-78312168D01*
X136490433Y-78362105D01*
X136761285Y-78393878D01*
X137150089Y-78412742D01*
X137371667Y-78418393D01*
X137768061Y-78422691D01*
X138106353Y-78418729D01*
X138348130Y-78407450D01*
X138451167Y-78391953D01*
X138540029Y-78274885D01*
X138548116Y-78096760D01*
X138480306Y-77942596D01*
X138423075Y-77902391D01*
X138284273Y-77880378D01*
X138020201Y-77863077D01*
X137674907Y-77852813D01*
X137449409Y-77851000D01*
X136967865Y-77835429D01*
X136631329Y-77781481D01*
X136417728Y-77678299D01*
X136304987Y-77515028D01*
X136271033Y-77280811D01*
X136271000Y-77271455D01*
X136337498Y-77007492D01*
X136542142Y-76820644D01*
X136892658Y-76705320D01*
X137094076Y-76675904D01*
X137369639Y-76640063D01*
X137516307Y-76594056D01*
X137574127Y-76516255D01*
X137583333Y-76411666D01*
X137572369Y-76297268D01*
X137514036Y-76230955D01*
X137370176Y-76196166D01*
X137102631Y-76176341D01*
X137033000Y-76172817D01*
X136616720Y-76176844D01*
X136317020Y-76241245D01*
X136222721Y-76283786D01*
X135926058Y-76528094D01*
X135742837Y-76859037D01*
X135674330Y-77236396D01*
X135674330Y-77236396D01*
G36*
X133477932Y-77327399D02*
X133497862Y-77850157D01*
X133558661Y-78213069D01*
X133659706Y-78414846D01*
X133800376Y-78454203D01*
X133968067Y-78342066D01*
X134021318Y-78196488D01*
X134055314Y-77889882D01*
X134069324Y-77429537D01*
X134069667Y-77330050D01*
X134078236Y-76932735D01*
X134101370Y-76580407D01*
X134135210Y-76318877D01*
X134163759Y-76213124D01*
X134307325Y-76043654D01*
X134541672Y-75896565D01*
X134587092Y-75877284D01*
X134808162Y-75766786D01*
X134902993Y-75640972D01*
X134916333Y-75535685D01*
X134852361Y-75359243D01*
X134684431Y-75275667D01*
X134448525Y-75282481D01*
X134180626Y-75377205D01*
X133916716Y-75557361D01*
X133862722Y-75608255D01*
X133711440Y-75784985D01*
X133604784Y-75984797D01*
X133535483Y-76240186D01*
X133496263Y-76583649D01*
X133479851Y-77047682D01*
X133477932Y-77327399D01*
X133477932Y-77327399D01*
X133477932Y-77327399D01*
G37*
X133477932Y-77327399D02*
X133497862Y-77850157D01*
X133558661Y-78213069D01*
X133659706Y-78414846D01*
X133800376Y-78454203D01*
X133968067Y-78342066D01*
X134021318Y-78196488D01*
X134055314Y-77889882D01*
X134069324Y-77429537D01*
X134069667Y-77330050D01*
X134078236Y-76932735D01*
X134101370Y-76580407D01*
X134135210Y-76318877D01*
X134163759Y-76213124D01*
X134307325Y-76043654D01*
X134541672Y-75896565D01*
X134587092Y-75877284D01*
X134808162Y-75766786D01*
X134902993Y-75640972D01*
X134916333Y-75535685D01*
X134852361Y-75359243D01*
X134684431Y-75275667D01*
X134448525Y-75282481D01*
X134180626Y-75377205D01*
X133916716Y-75557361D01*
X133862722Y-75608255D01*
X133711440Y-75784985D01*
X133604784Y-75984797D01*
X133535483Y-76240186D01*
X133496263Y-76583649D01*
X133479851Y-77047682D01*
X133477932Y-77327399D01*
X133477932Y-77327399D01*
G36*
X134821801Y-76961520D02*
X134845826Y-77258519D01*
X134897783Y-77468327D01*
X134958667Y-77542951D01*
X135150695Y-77573023D01*
X135271143Y-77476621D01*
X135329889Y-77239874D01*
X135339667Y-77007909D01*
X135374746Y-76512412D01*
X135482015Y-76162937D01*
X135664521Y-75950931D01*
X135728865Y-75915336D01*
X135906306Y-75872401D01*
X136201414Y-75839319D01*
X136562592Y-75821058D01*
X136729233Y-75819000D01*
X137120858Y-75824548D01*
X137385654Y-75846080D01*
X137565902Y-75890927D01*
X137703886Y-75966422D01*
X137741249Y-75994478D01*
X137920246Y-76223739D01*
X137957798Y-76486950D01*
X137850614Y-76733950D01*
X137793688Y-76793854D01*
X137570794Y-76908454D01*
X137221358Y-76979508D01*
X137137521Y-76987644D01*
X136773152Y-77044077D01*
X136572352Y-77141606D01*
X136534192Y-77281155D01*
X136657743Y-77463647D01*
X136658048Y-77463952D01*
X136855147Y-77561949D01*
X137177777Y-77579715D01*
X137637879Y-77517860D01*
X137654249Y-77514719D01*
X138033998Y-77368080D01*
X138312444Y-77116501D01*
X138485504Y-76793686D01*
X138549099Y-76433335D01*
X138499146Y-76069151D01*
X138331565Y-75734837D01*
X138042274Y-75464094D01*
X137911472Y-75390569D01*
X137728140Y-75311187D01*
X137544711Y-75260824D01*
X137319663Y-75234875D01*
X137011472Y-75228734D01*
X136578616Y-75237796D01*
X136543509Y-75238852D01*
X136050514Y-75261266D01*
X135692565Y-75301823D01*
X135435477Y-75372716D01*
X135245068Y-75486137D01*
X135087155Y-75654277D01*
X134989375Y-75793171D01*
X134909495Y-75993154D01*
X134854418Y-76284259D01*
X134824926Y-76621907D01*
X134821801Y-76961520D01*
X134821801Y-76961520D01*
X134821801Y-76961520D01*
G37*
X134821801Y-76961520D02*
X134845826Y-77258519D01*
X134897783Y-77468327D01*
X134958667Y-77542951D01*
X135150695Y-77573023D01*
X135271143Y-77476621D01*
X135329889Y-77239874D01*
X135339667Y-77007909D01*
X135374746Y-76512412D01*
X135482015Y-76162937D01*
X135664521Y-75950931D01*
X135728865Y-75915336D01*
X135906306Y-75872401D01*
X136201414Y-75839319D01*
X136562592Y-75821058D01*
X136729233Y-75819000D01*
X137120858Y-75824548D01*
X137385654Y-75846080D01*
X137565902Y-75890927D01*
X137703886Y-75966422D01*
X137741249Y-75994478D01*
X137920246Y-76223739D01*
X137957798Y-76486950D01*
X137850614Y-76733950D01*
X137793688Y-76793854D01*
X137570794Y-76908454D01*
X137221358Y-76979508D01*
X137137521Y-76987644D01*
X136773152Y-77044077D01*
X136572352Y-77141606D01*
X136534192Y-77281155D01*
X136657743Y-77463647D01*
X136658048Y-77463952D01*
X136855147Y-77561949D01*
X137177777Y-77579715D01*
X137637879Y-77517860D01*
X137654249Y-77514719D01*
X138033998Y-77368080D01*
X138312444Y-77116501D01*
X138485504Y-76793686D01*
X138549099Y-76433335D01*
X138499146Y-76069151D01*
X138331565Y-75734837D01*
X138042274Y-75464094D01*
X137911472Y-75390569D01*
X137728140Y-75311187D01*
X137544711Y-75260824D01*
X137319663Y-75234875D01*
X137011472Y-75228734D01*
X136578616Y-75237796D01*
X136543509Y-75238852D01*
X136050514Y-75261266D01*
X135692565Y-75301823D01*
X135435477Y-75372716D01*
X135245068Y-75486137D01*
X135087155Y-75654277D01*
X134989375Y-75793171D01*
X134909495Y-75993154D01*
X134854418Y-76284259D01*
X134824926Y-76621907D01*
X134821801Y-76961520D01*
X134821801Y-76961520D01*
D12*
X123761333Y-84859762D02*
X123618476Y-84907381D01*
X123380380Y-84907381D01*
X123285142Y-84859762D01*
X123237523Y-84812143D01*
X123189904Y-84716905D01*
X123189904Y-84621667D01*
X123237523Y-84526429D01*
X123285142Y-84478810D01*
X123380380Y-84431190D01*
X123570857Y-84383571D01*
X123666095Y-84335952D01*
X123713714Y-84288333D01*
X123761333Y-84193095D01*
X123761333Y-84097857D01*
X123713714Y-84002619D01*
X123666095Y-83955000D01*
X123570857Y-83907381D01*
X123332761Y-83907381D01*
X123189904Y-83955000D01*
X122856571Y-83907381D02*
X122618476Y-84907381D01*
X122427999Y-84193095D01*
X122237523Y-84907381D01*
X121999428Y-83907381D01*
X121094666Y-84907381D02*
X121666095Y-84907381D01*
X121380381Y-84907381D02*
X121380381Y-83907381D01*
X121475619Y-84050238D01*
X121570857Y-84145476D01*
X121666095Y-84193095D01*
X137604238Y-88368143D02*
X137651857Y-88415762D01*
X137794714Y-88463381D01*
X137889952Y-88463381D01*
X138032810Y-88415762D01*
X138128048Y-88320524D01*
X138175667Y-88225286D01*
X138223286Y-88034810D01*
X138223286Y-87891952D01*
X138175667Y-87701476D01*
X138128048Y-87606238D01*
X138032810Y-87511000D01*
X137889952Y-87463381D01*
X137794714Y-87463381D01*
X137651857Y-87511000D01*
X137604238Y-87558619D01*
X136604238Y-88463381D02*
X136937572Y-87987190D01*
X137175667Y-88463381D02*
X137175667Y-87463381D01*
X136794714Y-87463381D01*
X136699476Y-87511000D01*
X136651857Y-87558619D01*
X136604238Y-87653857D01*
X136604238Y-87796714D01*
X136651857Y-87891952D01*
X136699476Y-87939571D01*
X136794714Y-87987190D01*
X137175667Y-87987190D01*
X135651857Y-88463381D02*
X136223286Y-88463381D01*
X135937572Y-88463381D02*
X135937572Y-87463381D01*
X136032810Y-87606238D01*
X136128048Y-87701476D01*
X136223286Y-87749095D01*
X135270905Y-87558619D02*
X135223286Y-87511000D01*
X135128048Y-87463381D01*
X134889952Y-87463381D01*
X134794714Y-87511000D01*
X134747095Y-87558619D01*
X134699476Y-87653857D01*
X134699476Y-87749095D01*
X134747095Y-87891952D01*
X135318524Y-88463381D01*
X134699476Y-88463381D01*
X134318524Y-87558619D02*
X134270905Y-87511000D01*
X134175667Y-87463381D01*
X133937571Y-87463381D01*
X133842333Y-87511000D01*
X133794714Y-87558619D01*
X133747095Y-87653857D01*
X133747095Y-87749095D01*
X133794714Y-87891952D01*
X134366143Y-88463381D01*
X133747095Y-88463381D01*
X133128048Y-87463381D02*
X133032809Y-87463381D01*
X132937571Y-87511000D01*
X132889952Y-87558619D01*
X132842333Y-87653857D01*
X132794714Y-87844333D01*
X132794714Y-88082429D01*
X132842333Y-88272905D01*
X132889952Y-88368143D01*
X132937571Y-88415762D01*
X133032809Y-88463381D01*
X133128048Y-88463381D01*
X133223286Y-88415762D01*
X133270905Y-88368143D01*
X133318524Y-88272905D01*
X133366143Y-88082429D01*
X133366143Y-87844333D01*
X133318524Y-87653857D01*
X133270905Y-87558619D01*
X133223286Y-87511000D01*
X133128048Y-87463381D01*
M02*
