G04 #@! TF.FileFunction,Copper,L2,Bot,Signal*
%FSLAX46Y46*%
G04 Gerber Fmt 4.6, Leading zero omitted, Abs format (unit mm)*
G04 Created by KiCad (PCBNEW 4.0.7) date 05/04/18 14:02:44*
%MOMM*%
%LPD*%
G01*
G04 APERTURE LIST*
%ADD10C,0.076200*%
%ADD11R,1.800000X1.800000*%
%ADD12C,1.800000*%
%ADD13R,16.000000X5.000000*%
%ADD14R,1.000000X0.700000*%
%ADD15R,3.175000X3.175000*%
%ADD16C,6.350000*%
%ADD17C,0.609600*%
%ADD18C,0.250000*%
%ADD19C,1.219200*%
%ADD20C,0.152400*%
G04 APERTURE END LIST*
D10*
D11*
X154432003Y-78740000D03*
D12*
X151892003Y-78740000D03*
D11*
X117348000Y-78740000D03*
D12*
X119888000Y-78740000D03*
D13*
X135890000Y-61849000D03*
D14*
X124428000Y-91150000D03*
X124428000Y-88150000D03*
X124428000Y-86650000D03*
D15*
X143383000Y-94361000D03*
X127635000Y-94361000D03*
D16*
X135509000Y-94361000D03*
D17*
X124428000Y-86650000D02*
X124428000Y-83280000D01*
X124428000Y-83280000D02*
X119888000Y-78740000D01*
D18*
X134105000Y-94361000D02*
X135509000Y-94361000D01*
D17*
X127635000Y-94361000D02*
X127635000Y-91207000D01*
X127635000Y-91207000D02*
X124578000Y-88150000D01*
X124578000Y-88150000D02*
X124428000Y-88150000D01*
D19*
X141109700Y-99441000D02*
X129908300Y-99441000D01*
X129908300Y-99441000D02*
X127635000Y-97167700D01*
X127635000Y-97167700D02*
X127635000Y-94361000D01*
X143383000Y-94361000D02*
X143383000Y-97167700D01*
X143383000Y-97167700D02*
X141109700Y-99441000D01*
D20*
G36*
X128010403Y-54732307D02*
X128480411Y-54809291D01*
X128939352Y-54930700D01*
X129383754Y-55094942D01*
X129810101Y-55300393D01*
X130214923Y-55545441D01*
X130594743Y-55828470D01*
X130946104Y-56147845D01*
X131265521Y-56501934D01*
X131550863Y-56890868D01*
X131605601Y-56973433D01*
X131605967Y-56973980D01*
X131659586Y-57053359D01*
X131660233Y-57054301D01*
X131697823Y-57108189D01*
X131700559Y-57111871D01*
X131716268Y-57131728D01*
X131739370Y-57151253D01*
X131768248Y-57160253D01*
X131794645Y-57158342D01*
X131795677Y-57158082D01*
X131805132Y-57155032D01*
X131836301Y-57142681D01*
X131837556Y-57142171D01*
X131904963Y-57114064D01*
X131905358Y-57113898D01*
X132000050Y-57073787D01*
X132000297Y-57073682D01*
X132112908Y-57025513D01*
X132318967Y-56940321D01*
X132907891Y-56730220D01*
X133523377Y-56556940D01*
X134158990Y-56421867D01*
X134807423Y-56326658D01*
X135461689Y-56272927D01*
X135885396Y-56262163D01*
X136541560Y-56283870D01*
X137202062Y-56350407D01*
X137859719Y-56460452D01*
X138506833Y-56612640D01*
X139135746Y-56805569D01*
X139740290Y-57038376D01*
X139842616Y-57081864D01*
X139843002Y-57082027D01*
X139933234Y-57119792D01*
X139933883Y-57120060D01*
X139996558Y-57145615D01*
X139999046Y-57146579D01*
X140024619Y-57155976D01*
X140054516Y-57160566D01*
X140083844Y-57153163D01*
X140100520Y-57142283D01*
X140104689Y-57138706D01*
X140115432Y-57127382D01*
X140142062Y-57092819D01*
X140144056Y-57090109D01*
X140188602Y-57026686D01*
X140189468Y-57025426D01*
X140244381Y-56943810D01*
X140446174Y-56662723D01*
X140676562Y-56383742D01*
X140924965Y-56118221D01*
X141180059Y-55878213D01*
X141431620Y-55674665D01*
X141483256Y-55637116D01*
X141901516Y-55366872D01*
X142335367Y-55143153D01*
X142783067Y-54965023D01*
X143241443Y-54832464D01*
X143707397Y-54745451D01*
X144177761Y-54703971D01*
X144649402Y-54708011D01*
X145119149Y-54757568D01*
X145583889Y-54852640D01*
X146040461Y-54993226D01*
X146485720Y-55179329D01*
X146916556Y-55410980D01*
X147330942Y-55688954D01*
X147359363Y-55710668D01*
X147483515Y-55814180D01*
X147627562Y-55944735D01*
X147781753Y-56092680D01*
X147935855Y-56247838D01*
X148079814Y-56400145D01*
X148203433Y-56539322D01*
X148297080Y-56655571D01*
X148367633Y-56752851D01*
X148633824Y-57170983D01*
X148854506Y-57605894D01*
X149030135Y-58055472D01*
X149160425Y-58516455D01*
X149245075Y-58985583D01*
X149283794Y-59459561D01*
X149276275Y-59935098D01*
X149222210Y-60408951D01*
X149121299Y-60877823D01*
X148973226Y-61338472D01*
X148777038Y-61789080D01*
X148726613Y-61888537D01*
X148543754Y-62213244D01*
X148343156Y-62513074D01*
X148109733Y-62811017D01*
X148096858Y-62826295D01*
X147812230Y-63129498D01*
X147490489Y-63414613D01*
X147139906Y-63676201D01*
X146770119Y-63907571D01*
X146390954Y-64102065D01*
X146009960Y-64254126D01*
X145943578Y-64277096D01*
X145942472Y-64277489D01*
X145848580Y-64311607D01*
X145846692Y-64312321D01*
X145778214Y-64339278D01*
X145772724Y-64341693D01*
X145741082Y-64357125D01*
X145717067Y-64375517D01*
X145707074Y-64390084D01*
X145705293Y-64393463D01*
X145696593Y-64425295D01*
X145694570Y-64466936D01*
X145694648Y-64475690D01*
X145699934Y-64555188D01*
X145700217Y-64558413D01*
X145711979Y-64666007D01*
X145712245Y-64668157D01*
X145729646Y-64794076D01*
X145757542Y-64998042D01*
X145801552Y-65453761D01*
X145825078Y-65929484D01*
X145827861Y-66408937D01*
X145809640Y-66875214D01*
X145770155Y-67312349D01*
X145748235Y-67482660D01*
X145626805Y-68187688D01*
X145458798Y-68874254D01*
X145244755Y-69541881D01*
X144985363Y-70189166D01*
X144681319Y-70814654D01*
X144333296Y-71416942D01*
X143941966Y-71994603D01*
X143508012Y-72546185D01*
X143031193Y-73071253D01*
X142634961Y-73477983D01*
X142618574Y-73503408D01*
X142613370Y-73533205D01*
X142620168Y-73562679D01*
X142637898Y-73587186D01*
X142653542Y-73598316D01*
X142960605Y-73762913D01*
X143560420Y-74101862D01*
X144235910Y-74527235D01*
X144883064Y-74982579D01*
X145495263Y-75463172D01*
X146066717Y-75965018D01*
X146337716Y-76217286D01*
X146363506Y-76233091D01*
X146393414Y-76237617D01*
X146422726Y-76230152D01*
X146451064Y-76206600D01*
X146602444Y-76000362D01*
X146727626Y-75836106D01*
X147078491Y-75432159D01*
X147463608Y-75062632D01*
X147880156Y-74729162D01*
X148324574Y-74434216D01*
X148793289Y-74180249D01*
X149282738Y-73969695D01*
X149790814Y-73804501D01*
X149985271Y-73752615D01*
X150178745Y-73705699D01*
X150353943Y-73670092D01*
X150522729Y-73644185D01*
X150697051Y-73626448D01*
X150888834Y-73615472D01*
X151109574Y-73609939D01*
X151370715Y-73608511D01*
X151439741Y-73608618D01*
X151675622Y-73610506D01*
X151873256Y-73615666D01*
X152043566Y-73625295D01*
X152197457Y-73640567D01*
X152346225Y-73662741D01*
X152501318Y-73693204D01*
X152673921Y-73733405D01*
X152873241Y-73784291D01*
X153356432Y-73932866D01*
X153853221Y-74135531D01*
X154327106Y-74382753D01*
X154778040Y-74674478D01*
X155205801Y-75010622D01*
X155610343Y-75391310D01*
X155905939Y-75717233D01*
X156235489Y-76146743D01*
X156521784Y-76601428D01*
X156764709Y-77080867D01*
X156963900Y-77584355D01*
X157119001Y-78111279D01*
X157229680Y-78661414D01*
X157245715Y-78786877D01*
X157262221Y-78993082D01*
X157272464Y-79227867D01*
X157276380Y-79477976D01*
X157273951Y-79729989D01*
X157265189Y-79970811D01*
X157250168Y-80186866D01*
X157229006Y-80365261D01*
X157192099Y-80578920D01*
X157064785Y-81117899D01*
X156891980Y-81635275D01*
X156673056Y-82133082D01*
X156407583Y-82612337D01*
X156094420Y-83074989D01*
X156061282Y-83118521D01*
X155930361Y-83276851D01*
X155772162Y-83452583D01*
X155596152Y-83636200D01*
X155412231Y-83817804D01*
X155230316Y-83987517D01*
X155060424Y-84135453D01*
X154912041Y-84252282D01*
X154803818Y-84329646D01*
X154334075Y-84629302D01*
X153850020Y-84881701D01*
X153352413Y-85086987D01*
X152843038Y-85244627D01*
X152323682Y-85354075D01*
X151796064Y-85414784D01*
X151260183Y-85426200D01*
X150859341Y-85416130D01*
X150829553Y-85421387D01*
X150804158Y-85437819D01*
X150787156Y-85462836D01*
X150781833Y-85501895D01*
X150796352Y-85616353D01*
X150817109Y-85815872D01*
X150835264Y-86080748D01*
X150847684Y-86377605D01*
X150854324Y-86696196D01*
X150855154Y-87026390D01*
X150850156Y-87357745D01*
X150839318Y-87680253D01*
X150822645Y-87983542D01*
X150800115Y-88258036D01*
X150794043Y-88317793D01*
X150745644Y-88725077D01*
X150684481Y-89145401D01*
X150612552Y-89568457D01*
X150531937Y-89983389D01*
X150444715Y-90379456D01*
X150353036Y-90745638D01*
X150258795Y-91071997D01*
X150258537Y-91072819D01*
X150258300Y-91073588D01*
X150233419Y-91155956D01*
X150232875Y-91157847D01*
X150216532Y-91217472D01*
X150214999Y-91224266D01*
X150210715Y-91248342D01*
X150211432Y-91278581D01*
X150223858Y-91306159D01*
X150246034Y-91326730D01*
X150271621Y-91336572D01*
X150278883Y-91337941D01*
X150283073Y-91338611D01*
X150330980Y-91344905D01*
X150331842Y-91345013D01*
X150416897Y-91355203D01*
X150417258Y-91355245D01*
X150530599Y-91368275D01*
X150530842Y-91368303D01*
X150662162Y-91382974D01*
X151256840Y-91472292D01*
X151841901Y-91608360D01*
X152407415Y-91788504D01*
X152951596Y-92010898D01*
X153472559Y-92273686D01*
X153968523Y-92575065D01*
X154437592Y-92913171D01*
X154877946Y-93286190D01*
X155287717Y-93692273D01*
X155665073Y-94129596D01*
X156008147Y-94596314D01*
X156315086Y-95090593D01*
X156584039Y-95610600D01*
X156813168Y-96154529D01*
X157000609Y-96720538D01*
X157144504Y-97306793D01*
X157243080Y-97911930D01*
X157254360Y-98032678D01*
X157264107Y-98206435D01*
X157270714Y-98409717D01*
X157274138Y-98630667D01*
X157274354Y-98857711D01*
X157271362Y-99079342D01*
X157265170Y-99283951D01*
X157255824Y-99459783D01*
X157243396Y-99595549D01*
X157223988Y-99740951D01*
X157111834Y-100354200D01*
X156953946Y-100947513D01*
X156750899Y-101520502D01*
X156503488Y-102071572D01*
X156212457Y-102599234D01*
X155878582Y-103101900D01*
X155502569Y-103578067D01*
X155084481Y-104026898D01*
X154929770Y-104176290D01*
X154516802Y-104538202D01*
X154089966Y-104858491D01*
X153638718Y-105144833D01*
X153152657Y-105404484D01*
X152817088Y-105560043D01*
X152248782Y-105782519D01*
X151676879Y-105955166D01*
X151098940Y-106078792D01*
X150513044Y-106153929D01*
X149933230Y-106180688D01*
X149332063Y-106159948D01*
X148733952Y-106090716D01*
X148142911Y-105973786D01*
X147563009Y-105809975D01*
X146998238Y-105600078D01*
X146452082Y-105344651D01*
X146150467Y-105179011D01*
X145640254Y-104854496D01*
X145160363Y-104491276D01*
X144712397Y-104091349D01*
X144298512Y-103657045D01*
X143920896Y-103190755D01*
X143581710Y-102694819D01*
X143283132Y-102171615D01*
X143026786Y-101622346D01*
X142993549Y-101540881D01*
X142911780Y-101326417D01*
X142832235Y-101099881D01*
X142759701Y-100875780D01*
X142699121Y-100669214D01*
X142655091Y-100494180D01*
X142653758Y-100488155D01*
X142653485Y-100486969D01*
X142637473Y-100419693D01*
X142632934Y-100406293D01*
X142614750Y-100365529D01*
X142597190Y-100340901D01*
X142580323Y-100328970D01*
X142551253Y-100313849D01*
X142522182Y-100305495D01*
X142501265Y-100306707D01*
X142452607Y-100316358D01*
X142436981Y-100321251D01*
X142360024Y-100354800D01*
X142356590Y-100356400D01*
X142242699Y-100412944D01*
X142230173Y-100419146D01*
X142137594Y-100462920D01*
X142015236Y-100518404D01*
X141877343Y-100579212D01*
X141738938Y-100638611D01*
X141472232Y-100748358D01*
X140653914Y-101049531D01*
X139827165Y-101301295D01*
X138992861Y-101503912D01*
X138152707Y-101657340D01*
X137308275Y-101761575D01*
X136461212Y-101816582D01*
X135613185Y-101822345D01*
X134765774Y-101778833D01*
X133920636Y-101686018D01*
X133079413Y-101543872D01*
X132243711Y-101352363D01*
X131415184Y-101111456D01*
X130594628Y-100820822D01*
X130444998Y-100761926D01*
X130198726Y-100660947D01*
X129958910Y-100558012D01*
X129739696Y-100459247D01*
X129554660Y-100370545D01*
X129359295Y-100272864D01*
X129330094Y-100264976D01*
X129300125Y-100269070D01*
X129274109Y-100284502D01*
X129251414Y-100322061D01*
X129223823Y-100429466D01*
X129172701Y-100621155D01*
X128994926Y-101194067D01*
X128788795Y-101728139D01*
X128551557Y-102228899D01*
X128280593Y-102701222D01*
X127973201Y-103150000D01*
X127626637Y-103580039D01*
X127237489Y-103996776D01*
X127129788Y-104102738D01*
X126749553Y-104447612D01*
X126358916Y-104755253D01*
X125943986Y-105036193D01*
X125491891Y-105299989D01*
X124997231Y-105543707D01*
X124453387Y-105759020D01*
X123890973Y-105930997D01*
X123314974Y-106058719D01*
X122730504Y-106141255D01*
X122142609Y-106177712D01*
X121556393Y-106167207D01*
X120976655Y-106108862D01*
X120419009Y-106008029D01*
X119827639Y-105853485D01*
X119256235Y-105653418D01*
X118706263Y-105408616D01*
X118179322Y-105119893D01*
X117677017Y-104788048D01*
X117200966Y-104413879D01*
X116752065Y-103997498D01*
X116558950Y-103797207D01*
X116219887Y-103409194D01*
X115919581Y-103011537D01*
X115649466Y-102592625D01*
X115401422Y-102141160D01*
X115186661Y-101687033D01*
X114987490Y-101181524D01*
X114830144Y-100671599D01*
X114711110Y-100145788D01*
X114626975Y-99592213D01*
X114617780Y-99503128D01*
X114603795Y-99306549D01*
X114594155Y-99082587D01*
X114589000Y-98844346D01*
X114588444Y-98604852D01*
X114592576Y-98377514D01*
X114601454Y-98175505D01*
X114615034Y-98012619D01*
X114702176Y-97426219D01*
X114834952Y-96835574D01*
X115011103Y-96268186D01*
X115231935Y-95720655D01*
X115498791Y-95189647D01*
X115813073Y-94671879D01*
X116176633Y-94163529D01*
X116211684Y-94119314D01*
X116326635Y-93984577D01*
X116468641Y-93828735D01*
X116629322Y-93660235D01*
X116799834Y-93487963D01*
X116971612Y-93320487D01*
X117135898Y-93166537D01*
X117283875Y-93034867D01*
X117407277Y-92933668D01*
X117441872Y-92907224D01*
X117953030Y-92546537D01*
X118472962Y-92235499D01*
X119005375Y-91972226D01*
X119553115Y-91755515D01*
X120118978Y-91584241D01*
X120705875Y-91457298D01*
X121318119Y-91373471D01*
X121413401Y-91363522D01*
X121414222Y-91363432D01*
X121510520Y-91352320D01*
X121511929Y-91352144D01*
X121578824Y-91343159D01*
X121584049Y-91342271D01*
X121610948Y-91336732D01*
X121638774Y-91324873D01*
X121659793Y-91303122D01*
X121671772Y-91261036D01*
X121671686Y-91254864D01*
X121670087Y-91240363D01*
X121660689Y-91195319D01*
X121660026Y-91192425D01*
X121639769Y-91111286D01*
X121639474Y-91110144D01*
X121610602Y-91001667D01*
X121610391Y-91000889D01*
X121575237Y-90874218D01*
X121487564Y-90544292D01*
X121699274Y-90544292D01*
X121809963Y-90812179D01*
X122014742Y-91017317D01*
X122282437Y-91128473D01*
X122572292Y-91128726D01*
X122840179Y-91018037D01*
X123045317Y-90813258D01*
X123050822Y-90800000D01*
X123694922Y-90800000D01*
X123694922Y-91500000D01*
X123710862Y-91584714D01*
X123760928Y-91662518D01*
X123837320Y-91714715D01*
X123928000Y-91733078D01*
X124928000Y-91733078D01*
X125012714Y-91717138D01*
X125090518Y-91667072D01*
X125142715Y-91590680D01*
X125161078Y-91500000D01*
X125161078Y-90800000D01*
X125145138Y-90715286D01*
X125095072Y-90637482D01*
X125018680Y-90585285D01*
X124928000Y-90566922D01*
X123928000Y-90566922D01*
X123843286Y-90582862D01*
X123765482Y-90632928D01*
X123713285Y-90709320D01*
X123694922Y-90800000D01*
X123050822Y-90800000D01*
X123156473Y-90545563D01*
X123156726Y-90255708D01*
X123046037Y-89987821D01*
X122841258Y-89782683D01*
X122573563Y-89671527D01*
X122283708Y-89671274D01*
X122015821Y-89781963D01*
X121810683Y-89986742D01*
X121699527Y-90254437D01*
X121699274Y-90544292D01*
X121487564Y-90544292D01*
X121469519Y-90476390D01*
X121315451Y-89786005D01*
X121192860Y-89080120D01*
X121102854Y-88368395D01*
X121046626Y-87661059D01*
X121043038Y-87544292D01*
X121699274Y-87544292D01*
X121809963Y-87812179D01*
X122014742Y-88017317D01*
X122282437Y-88128473D01*
X122572292Y-88128726D01*
X122840179Y-88018037D01*
X123045317Y-87813258D01*
X123050822Y-87800000D01*
X123694922Y-87800000D01*
X123694922Y-88500000D01*
X123710862Y-88584714D01*
X123760928Y-88662518D01*
X123837320Y-88714715D01*
X123928000Y-88733078D01*
X124406736Y-88733078D01*
X127101600Y-91427942D01*
X127101600Y-92540422D01*
X126047500Y-92540422D01*
X125962786Y-92556362D01*
X125884982Y-92606428D01*
X125832785Y-92682820D01*
X125814422Y-92773500D01*
X125814422Y-95948500D01*
X125830362Y-96033214D01*
X125880428Y-96111018D01*
X125956820Y-96163215D01*
X126047500Y-96181578D01*
X126796800Y-96181578D01*
X126796800Y-97167700D01*
X126860604Y-97488466D01*
X127042303Y-97760397D01*
X129315603Y-100033697D01*
X129587535Y-100215396D01*
X129908300Y-100279200D01*
X141109700Y-100279200D01*
X141430466Y-100215396D01*
X141702397Y-100033697D01*
X143975697Y-97760397D01*
X144157396Y-97488465D01*
X144221200Y-97167700D01*
X144221200Y-96181578D01*
X144970500Y-96181578D01*
X145055214Y-96165638D01*
X145133018Y-96115572D01*
X145185215Y-96039180D01*
X145203578Y-95948500D01*
X145203578Y-92773500D01*
X145187638Y-92688786D01*
X145137572Y-92610982D01*
X145061180Y-92558785D01*
X144970500Y-92540422D01*
X141795500Y-92540422D01*
X141710786Y-92556362D01*
X141632982Y-92606428D01*
X141580785Y-92682820D01*
X141562422Y-92773500D01*
X141562422Y-95948500D01*
X141578362Y-96033214D01*
X141628428Y-96111018D01*
X141704820Y-96163215D01*
X141795500Y-96181578D01*
X142544800Y-96181578D01*
X142544800Y-96820506D01*
X140762506Y-98602800D01*
X130255494Y-98602800D01*
X128743343Y-97090649D01*
X133030798Y-97090649D01*
X133402378Y-97563009D01*
X134788090Y-98125440D01*
X136283556Y-98114769D01*
X137615622Y-97563009D01*
X137987202Y-97090649D01*
X135509000Y-94612447D01*
X133030798Y-97090649D01*
X128743343Y-97090649D01*
X128473200Y-96820506D01*
X128473200Y-96181578D01*
X129222500Y-96181578D01*
X129307214Y-96165638D01*
X129385018Y-96115572D01*
X129437215Y-96039180D01*
X129455578Y-95948500D01*
X129455578Y-93640090D01*
X131744560Y-93640090D01*
X131755231Y-95135556D01*
X132306991Y-96467622D01*
X132779351Y-96839202D01*
X135257553Y-94361000D01*
X135760447Y-94361000D01*
X138238649Y-96839202D01*
X138711009Y-96467622D01*
X139273440Y-95081910D01*
X139262769Y-93586444D01*
X138711009Y-92254378D01*
X138238649Y-91882798D01*
X135760447Y-94361000D01*
X135257553Y-94361000D01*
X132779351Y-91882798D01*
X132306991Y-92254378D01*
X131744560Y-93640090D01*
X129455578Y-93640090D01*
X129455578Y-92773500D01*
X129439638Y-92688786D01*
X129389572Y-92610982D01*
X129313180Y-92558785D01*
X129222500Y-92540422D01*
X128168400Y-92540422D01*
X128168400Y-91631351D01*
X133030798Y-91631351D01*
X135509000Y-94109553D01*
X137987202Y-91631351D01*
X137615622Y-91158991D01*
X136229910Y-90596560D01*
X134734444Y-90607231D01*
X133402378Y-91158991D01*
X133030798Y-91631351D01*
X128168400Y-91631351D01*
X128168400Y-91207000D01*
X128127797Y-91002877D01*
X128012171Y-90829829D01*
X125161078Y-87978736D01*
X125161078Y-87800000D01*
X125145138Y-87715286D01*
X125095072Y-87637482D01*
X125018680Y-87585285D01*
X124928000Y-87566922D01*
X123928000Y-87566922D01*
X123843286Y-87582862D01*
X123765482Y-87632928D01*
X123713285Y-87709320D01*
X123694922Y-87800000D01*
X123050822Y-87800000D01*
X123156473Y-87545563D01*
X123156726Y-87255708D01*
X123046037Y-86987821D01*
X122841258Y-86782683D01*
X122573563Y-86671527D01*
X122283708Y-86671274D01*
X122015821Y-86781963D01*
X121810683Y-86986742D01*
X121699527Y-87254437D01*
X121699274Y-87544292D01*
X121043038Y-87544292D01*
X121025333Y-86968218D01*
X121040129Y-86298980D01*
X121044980Y-86205648D01*
X121054428Y-86034856D01*
X121063663Y-85880491D01*
X121072144Y-85750900D01*
X121079285Y-85655290D01*
X121084441Y-85602815D01*
X121098585Y-85500613D01*
X121096702Y-85470424D01*
X121083222Y-85443345D01*
X121060269Y-85423645D01*
X121020909Y-85413999D01*
X120615473Y-85425683D01*
X120522701Y-85427623D01*
X119981705Y-85409985D01*
X119450656Y-85343873D01*
X118930864Y-85230395D01*
X118425173Y-85070721D01*
X117936424Y-84866017D01*
X117467414Y-84617426D01*
X117020992Y-84326114D01*
X116599959Y-83993208D01*
X116206851Y-83619575D01*
X115917775Y-83297559D01*
X115586798Y-82864174D01*
X115300746Y-82408299D01*
X115059228Y-81929408D01*
X114862119Y-81427243D01*
X114709326Y-80901489D01*
X114600620Y-80350835D01*
X114593349Y-80299397D01*
X114572974Y-80095693D01*
X114559589Y-79860096D01*
X114553255Y-79605973D01*
X114554034Y-79347367D01*
X114561930Y-79098370D01*
X114564224Y-79063850D01*
X115863800Y-79063850D01*
X115863800Y-79756204D01*
X115952739Y-79970922D01*
X116117077Y-80135261D01*
X116331795Y-80224200D01*
X117024150Y-80224200D01*
X117170200Y-80078150D01*
X117170200Y-78917800D01*
X116009850Y-78917800D01*
X115863800Y-79063850D01*
X114564224Y-79063850D01*
X114576897Y-78873185D01*
X114598764Y-78686019D01*
X114689210Y-78210878D01*
X114822837Y-77723796D01*
X115863800Y-77723796D01*
X115863800Y-78416150D01*
X116009850Y-78562200D01*
X117170200Y-78562200D01*
X117170200Y-77401850D01*
X117525800Y-77401850D01*
X117525800Y-78562200D01*
X117545800Y-78562200D01*
X117545800Y-78917800D01*
X117525800Y-78917800D01*
X117525800Y-80078150D01*
X117671850Y-80224200D01*
X118364205Y-80224200D01*
X118578923Y-80135261D01*
X118743261Y-79970922D01*
X118832200Y-79756204D01*
X118832200Y-79140172D01*
X118930661Y-79378466D01*
X119247865Y-79696223D01*
X119662523Y-79868404D01*
X120111508Y-79868796D01*
X120218320Y-79824662D01*
X123894600Y-83500941D01*
X123894600Y-86073207D01*
X123843286Y-86082862D01*
X123765482Y-86132928D01*
X123713285Y-86209320D01*
X123694922Y-86300000D01*
X123694922Y-87000000D01*
X123710862Y-87084714D01*
X123760928Y-87162518D01*
X123837320Y-87214715D01*
X123928000Y-87233078D01*
X124928000Y-87233078D01*
X125012714Y-87217138D01*
X125090518Y-87167072D01*
X125142715Y-87090680D01*
X125161078Y-87000000D01*
X125161078Y-86300000D01*
X125145138Y-86215286D01*
X125095072Y-86137482D01*
X125018680Y-86085285D01*
X124961400Y-86073686D01*
X124961400Y-83280005D01*
X124961401Y-83280000D01*
X124920797Y-83075877D01*
X124901706Y-83047305D01*
X124805171Y-82902829D01*
X124805168Y-82902827D01*
X120972808Y-79070467D01*
X121016404Y-78965477D01*
X121016405Y-78963508D01*
X150763207Y-78963508D01*
X150934664Y-79378466D01*
X151251868Y-79696223D01*
X151666526Y-79868404D01*
X152115511Y-79868796D01*
X152530469Y-79697339D01*
X152848226Y-79380135D01*
X152947803Y-79140327D01*
X152947803Y-79756204D01*
X153036742Y-79970922D01*
X153201080Y-80135261D01*
X153415798Y-80224200D01*
X154108153Y-80224200D01*
X154254203Y-80078150D01*
X154254203Y-78917800D01*
X154609803Y-78917800D01*
X154609803Y-80078150D01*
X154755853Y-80224200D01*
X155448208Y-80224200D01*
X155662926Y-80135261D01*
X155827264Y-79970922D01*
X155916203Y-79756204D01*
X155916203Y-79063850D01*
X155770153Y-78917800D01*
X154609803Y-78917800D01*
X154254203Y-78917800D01*
X154234203Y-78917800D01*
X154234203Y-78562200D01*
X154254203Y-78562200D01*
X154254203Y-77401850D01*
X154609803Y-77401850D01*
X154609803Y-78562200D01*
X155770153Y-78562200D01*
X155916203Y-78416150D01*
X155916203Y-77723796D01*
X155827264Y-77509078D01*
X155662926Y-77344739D01*
X155448208Y-77255800D01*
X154755853Y-77255800D01*
X154609803Y-77401850D01*
X154254203Y-77401850D01*
X154108153Y-77255800D01*
X153415798Y-77255800D01*
X153201080Y-77344739D01*
X153036742Y-77509078D01*
X152947803Y-77723796D01*
X152947803Y-78339828D01*
X152849342Y-78101534D01*
X152532138Y-77783777D01*
X152117480Y-77611596D01*
X151668495Y-77611204D01*
X151253537Y-77782661D01*
X150935780Y-78099865D01*
X150763599Y-78514523D01*
X150763207Y-78963508D01*
X121016405Y-78963508D01*
X121016796Y-78516492D01*
X120845339Y-78101534D01*
X120528135Y-77783777D01*
X120113477Y-77611596D01*
X119664492Y-77611204D01*
X119249534Y-77782661D01*
X118931777Y-78099865D01*
X118832200Y-78339673D01*
X118832200Y-77723796D01*
X118743261Y-77509078D01*
X118578923Y-77344739D01*
X118364205Y-77255800D01*
X117671850Y-77255800D01*
X117525800Y-77401850D01*
X117170200Y-77401850D01*
X117024150Y-77255800D01*
X116331795Y-77255800D01*
X116117077Y-77344739D01*
X115952739Y-77509078D01*
X115863800Y-77723796D01*
X114822837Y-77723796D01*
X114834918Y-77679760D01*
X115023822Y-77174300D01*
X115256250Y-76693560D01*
X115532499Y-76236884D01*
X115852939Y-75803609D01*
X116218418Y-75392609D01*
X116446949Y-75168622D01*
X116863526Y-74813872D01*
X117303501Y-74503573D01*
X117766882Y-74237511D01*
X118253184Y-74015923D01*
X118761961Y-73839091D01*
X119293658Y-73707114D01*
X119555264Y-73659603D01*
X119811844Y-73625426D01*
X120069872Y-73605212D01*
X120346088Y-73597709D01*
X120657154Y-73601761D01*
X120809477Y-73606998D01*
X121050662Y-73620719D01*
X121265483Y-73641774D01*
X121470791Y-73672300D01*
X121683593Y-73714607D01*
X121919424Y-73770783D01*
X122351151Y-73898347D01*
X122845486Y-74091437D01*
X123321279Y-74328461D01*
X123774893Y-74606883D01*
X124202364Y-74924004D01*
X124599806Y-75277149D01*
X124963338Y-75663619D01*
X125290204Y-76082140D01*
X125390782Y-76224167D01*
X125412814Y-76244891D01*
X125441174Y-76255411D01*
X125471392Y-76254068D01*
X125504533Y-76236231D01*
X125794526Y-75969691D01*
X126263215Y-75555502D01*
X126897824Y-75043930D01*
X127549277Y-74572576D01*
X128212781Y-74144825D01*
X128884322Y-73763635D01*
X129182372Y-73605878D01*
X129205766Y-73586703D01*
X129219856Y-73559938D01*
X129222423Y-73529799D01*
X129213062Y-73501036D01*
X129201336Y-73485388D01*
X128825054Y-73098705D01*
X128688722Y-72955976D01*
X128217332Y-72417280D01*
X127790601Y-71854704D01*
X127408006Y-71267815D01*
X127069717Y-70656969D01*
X126775850Y-70022396D01*
X126526593Y-69364440D01*
X126322101Y-68683333D01*
X126162437Y-67978781D01*
X126116607Y-67715350D01*
X126049368Y-67185792D01*
X126010323Y-66639574D01*
X125999541Y-66088099D01*
X126017107Y-65543333D01*
X126063061Y-65017257D01*
X126137591Y-64520417D01*
X126137749Y-64519562D01*
X126138926Y-64509357D01*
X126141940Y-64445796D01*
X126137348Y-64415899D01*
X126123590Y-64392490D01*
X126100951Y-64366176D01*
X126066456Y-64343313D01*
X125847535Y-64273107D01*
X125525859Y-64143025D01*
X125196053Y-63981063D01*
X124869738Y-63793459D01*
X124558826Y-63586718D01*
X124274200Y-63366705D01*
X124190633Y-63294835D01*
X123848216Y-62960420D01*
X123543666Y-62596168D01*
X123277126Y-62204663D01*
X123049851Y-61789590D01*
X122863115Y-61354664D01*
X122718171Y-60903603D01*
X122616261Y-60440116D01*
X122558621Y-59967945D01*
X122546477Y-59490798D01*
X122556719Y-59349000D01*
X127656922Y-59349000D01*
X127656922Y-64349000D01*
X127672862Y-64433714D01*
X127722928Y-64511518D01*
X127799320Y-64563715D01*
X127890000Y-64582078D01*
X143890000Y-64582078D01*
X143974714Y-64566138D01*
X144052518Y-64516072D01*
X144104715Y-64439680D01*
X144123078Y-64349000D01*
X144123078Y-59349000D01*
X144107138Y-59264286D01*
X144057072Y-59186482D01*
X143980680Y-59134285D01*
X143890000Y-59115922D01*
X127890000Y-59115922D01*
X127805286Y-59131862D01*
X127727482Y-59181928D01*
X127675285Y-59258320D01*
X127656922Y-59349000D01*
X122556719Y-59349000D01*
X122581034Y-59012375D01*
X122663632Y-58535682D01*
X122745111Y-58222750D01*
X122905908Y-57763893D01*
X123108508Y-57328601D01*
X123350613Y-56918517D01*
X123629740Y-56535869D01*
X123943353Y-56182938D01*
X124288965Y-55861961D01*
X124664057Y-55575211D01*
X125066088Y-55324964D01*
X125492580Y-55113454D01*
X125941016Y-54942944D01*
X126408886Y-54815692D01*
X126895009Y-54733731D01*
X127049765Y-54718020D01*
X127532820Y-54701341D01*
X128010403Y-54732307D01*
X128010403Y-54732307D01*
G37*
X128010403Y-54732307D02*
X128480411Y-54809291D01*
X128939352Y-54930700D01*
X129383754Y-55094942D01*
X129810101Y-55300393D01*
X130214923Y-55545441D01*
X130594743Y-55828470D01*
X130946104Y-56147845D01*
X131265521Y-56501934D01*
X131550863Y-56890868D01*
X131605601Y-56973433D01*
X131605967Y-56973980D01*
X131659586Y-57053359D01*
X131660233Y-57054301D01*
X131697823Y-57108189D01*
X131700559Y-57111871D01*
X131716268Y-57131728D01*
X131739370Y-57151253D01*
X131768248Y-57160253D01*
X131794645Y-57158342D01*
X131795677Y-57158082D01*
X131805132Y-57155032D01*
X131836301Y-57142681D01*
X131837556Y-57142171D01*
X131904963Y-57114064D01*
X131905358Y-57113898D01*
X132000050Y-57073787D01*
X132000297Y-57073682D01*
X132112908Y-57025513D01*
X132318967Y-56940321D01*
X132907891Y-56730220D01*
X133523377Y-56556940D01*
X134158990Y-56421867D01*
X134807423Y-56326658D01*
X135461689Y-56272927D01*
X135885396Y-56262163D01*
X136541560Y-56283870D01*
X137202062Y-56350407D01*
X137859719Y-56460452D01*
X138506833Y-56612640D01*
X139135746Y-56805569D01*
X139740290Y-57038376D01*
X139842616Y-57081864D01*
X139843002Y-57082027D01*
X139933234Y-57119792D01*
X139933883Y-57120060D01*
X139996558Y-57145615D01*
X139999046Y-57146579D01*
X140024619Y-57155976D01*
X140054516Y-57160566D01*
X140083844Y-57153163D01*
X140100520Y-57142283D01*
X140104689Y-57138706D01*
X140115432Y-57127382D01*
X140142062Y-57092819D01*
X140144056Y-57090109D01*
X140188602Y-57026686D01*
X140189468Y-57025426D01*
X140244381Y-56943810D01*
X140446174Y-56662723D01*
X140676562Y-56383742D01*
X140924965Y-56118221D01*
X141180059Y-55878213D01*
X141431620Y-55674665D01*
X141483256Y-55637116D01*
X141901516Y-55366872D01*
X142335367Y-55143153D01*
X142783067Y-54965023D01*
X143241443Y-54832464D01*
X143707397Y-54745451D01*
X144177761Y-54703971D01*
X144649402Y-54708011D01*
X145119149Y-54757568D01*
X145583889Y-54852640D01*
X146040461Y-54993226D01*
X146485720Y-55179329D01*
X146916556Y-55410980D01*
X147330942Y-55688954D01*
X147359363Y-55710668D01*
X147483515Y-55814180D01*
X147627562Y-55944735D01*
X147781753Y-56092680D01*
X147935855Y-56247838D01*
X148079814Y-56400145D01*
X148203433Y-56539322D01*
X148297080Y-56655571D01*
X148367633Y-56752851D01*
X148633824Y-57170983D01*
X148854506Y-57605894D01*
X149030135Y-58055472D01*
X149160425Y-58516455D01*
X149245075Y-58985583D01*
X149283794Y-59459561D01*
X149276275Y-59935098D01*
X149222210Y-60408951D01*
X149121299Y-60877823D01*
X148973226Y-61338472D01*
X148777038Y-61789080D01*
X148726613Y-61888537D01*
X148543754Y-62213244D01*
X148343156Y-62513074D01*
X148109733Y-62811017D01*
X148096858Y-62826295D01*
X147812230Y-63129498D01*
X147490489Y-63414613D01*
X147139906Y-63676201D01*
X146770119Y-63907571D01*
X146390954Y-64102065D01*
X146009960Y-64254126D01*
X145943578Y-64277096D01*
X145942472Y-64277489D01*
X145848580Y-64311607D01*
X145846692Y-64312321D01*
X145778214Y-64339278D01*
X145772724Y-64341693D01*
X145741082Y-64357125D01*
X145717067Y-64375517D01*
X145707074Y-64390084D01*
X145705293Y-64393463D01*
X145696593Y-64425295D01*
X145694570Y-64466936D01*
X145694648Y-64475690D01*
X145699934Y-64555188D01*
X145700217Y-64558413D01*
X145711979Y-64666007D01*
X145712245Y-64668157D01*
X145729646Y-64794076D01*
X145757542Y-64998042D01*
X145801552Y-65453761D01*
X145825078Y-65929484D01*
X145827861Y-66408937D01*
X145809640Y-66875214D01*
X145770155Y-67312349D01*
X145748235Y-67482660D01*
X145626805Y-68187688D01*
X145458798Y-68874254D01*
X145244755Y-69541881D01*
X144985363Y-70189166D01*
X144681319Y-70814654D01*
X144333296Y-71416942D01*
X143941966Y-71994603D01*
X143508012Y-72546185D01*
X143031193Y-73071253D01*
X142634961Y-73477983D01*
X142618574Y-73503408D01*
X142613370Y-73533205D01*
X142620168Y-73562679D01*
X142637898Y-73587186D01*
X142653542Y-73598316D01*
X142960605Y-73762913D01*
X143560420Y-74101862D01*
X144235910Y-74527235D01*
X144883064Y-74982579D01*
X145495263Y-75463172D01*
X146066717Y-75965018D01*
X146337716Y-76217286D01*
X146363506Y-76233091D01*
X146393414Y-76237617D01*
X146422726Y-76230152D01*
X146451064Y-76206600D01*
X146602444Y-76000362D01*
X146727626Y-75836106D01*
X147078491Y-75432159D01*
X147463608Y-75062632D01*
X147880156Y-74729162D01*
X148324574Y-74434216D01*
X148793289Y-74180249D01*
X149282738Y-73969695D01*
X149790814Y-73804501D01*
X149985271Y-73752615D01*
X150178745Y-73705699D01*
X150353943Y-73670092D01*
X150522729Y-73644185D01*
X150697051Y-73626448D01*
X150888834Y-73615472D01*
X151109574Y-73609939D01*
X151370715Y-73608511D01*
X151439741Y-73608618D01*
X151675622Y-73610506D01*
X151873256Y-73615666D01*
X152043566Y-73625295D01*
X152197457Y-73640567D01*
X152346225Y-73662741D01*
X152501318Y-73693204D01*
X152673921Y-73733405D01*
X152873241Y-73784291D01*
X153356432Y-73932866D01*
X153853221Y-74135531D01*
X154327106Y-74382753D01*
X154778040Y-74674478D01*
X155205801Y-75010622D01*
X155610343Y-75391310D01*
X155905939Y-75717233D01*
X156235489Y-76146743D01*
X156521784Y-76601428D01*
X156764709Y-77080867D01*
X156963900Y-77584355D01*
X157119001Y-78111279D01*
X157229680Y-78661414D01*
X157245715Y-78786877D01*
X157262221Y-78993082D01*
X157272464Y-79227867D01*
X157276380Y-79477976D01*
X157273951Y-79729989D01*
X157265189Y-79970811D01*
X157250168Y-80186866D01*
X157229006Y-80365261D01*
X157192099Y-80578920D01*
X157064785Y-81117899D01*
X156891980Y-81635275D01*
X156673056Y-82133082D01*
X156407583Y-82612337D01*
X156094420Y-83074989D01*
X156061282Y-83118521D01*
X155930361Y-83276851D01*
X155772162Y-83452583D01*
X155596152Y-83636200D01*
X155412231Y-83817804D01*
X155230316Y-83987517D01*
X155060424Y-84135453D01*
X154912041Y-84252282D01*
X154803818Y-84329646D01*
X154334075Y-84629302D01*
X153850020Y-84881701D01*
X153352413Y-85086987D01*
X152843038Y-85244627D01*
X152323682Y-85354075D01*
X151796064Y-85414784D01*
X151260183Y-85426200D01*
X150859341Y-85416130D01*
X150829553Y-85421387D01*
X150804158Y-85437819D01*
X150787156Y-85462836D01*
X150781833Y-85501895D01*
X150796352Y-85616353D01*
X150817109Y-85815872D01*
X150835264Y-86080748D01*
X150847684Y-86377605D01*
X150854324Y-86696196D01*
X150855154Y-87026390D01*
X150850156Y-87357745D01*
X150839318Y-87680253D01*
X150822645Y-87983542D01*
X150800115Y-88258036D01*
X150794043Y-88317793D01*
X150745644Y-88725077D01*
X150684481Y-89145401D01*
X150612552Y-89568457D01*
X150531937Y-89983389D01*
X150444715Y-90379456D01*
X150353036Y-90745638D01*
X150258795Y-91071997D01*
X150258537Y-91072819D01*
X150258300Y-91073588D01*
X150233419Y-91155956D01*
X150232875Y-91157847D01*
X150216532Y-91217472D01*
X150214999Y-91224266D01*
X150210715Y-91248342D01*
X150211432Y-91278581D01*
X150223858Y-91306159D01*
X150246034Y-91326730D01*
X150271621Y-91336572D01*
X150278883Y-91337941D01*
X150283073Y-91338611D01*
X150330980Y-91344905D01*
X150331842Y-91345013D01*
X150416897Y-91355203D01*
X150417258Y-91355245D01*
X150530599Y-91368275D01*
X150530842Y-91368303D01*
X150662162Y-91382974D01*
X151256840Y-91472292D01*
X151841901Y-91608360D01*
X152407415Y-91788504D01*
X152951596Y-92010898D01*
X153472559Y-92273686D01*
X153968523Y-92575065D01*
X154437592Y-92913171D01*
X154877946Y-93286190D01*
X155287717Y-93692273D01*
X155665073Y-94129596D01*
X156008147Y-94596314D01*
X156315086Y-95090593D01*
X156584039Y-95610600D01*
X156813168Y-96154529D01*
X157000609Y-96720538D01*
X157144504Y-97306793D01*
X157243080Y-97911930D01*
X157254360Y-98032678D01*
X157264107Y-98206435D01*
X157270714Y-98409717D01*
X157274138Y-98630667D01*
X157274354Y-98857711D01*
X157271362Y-99079342D01*
X157265170Y-99283951D01*
X157255824Y-99459783D01*
X157243396Y-99595549D01*
X157223988Y-99740951D01*
X157111834Y-100354200D01*
X156953946Y-100947513D01*
X156750899Y-101520502D01*
X156503488Y-102071572D01*
X156212457Y-102599234D01*
X155878582Y-103101900D01*
X155502569Y-103578067D01*
X155084481Y-104026898D01*
X154929770Y-104176290D01*
X154516802Y-104538202D01*
X154089966Y-104858491D01*
X153638718Y-105144833D01*
X153152657Y-105404484D01*
X152817088Y-105560043D01*
X152248782Y-105782519D01*
X151676879Y-105955166D01*
X151098940Y-106078792D01*
X150513044Y-106153929D01*
X149933230Y-106180688D01*
X149332063Y-106159948D01*
X148733952Y-106090716D01*
X148142911Y-105973786D01*
X147563009Y-105809975D01*
X146998238Y-105600078D01*
X146452082Y-105344651D01*
X146150467Y-105179011D01*
X145640254Y-104854496D01*
X145160363Y-104491276D01*
X144712397Y-104091349D01*
X144298512Y-103657045D01*
X143920896Y-103190755D01*
X143581710Y-102694819D01*
X143283132Y-102171615D01*
X143026786Y-101622346D01*
X142993549Y-101540881D01*
X142911780Y-101326417D01*
X142832235Y-101099881D01*
X142759701Y-100875780D01*
X142699121Y-100669214D01*
X142655091Y-100494180D01*
X142653758Y-100488155D01*
X142653485Y-100486969D01*
X142637473Y-100419693D01*
X142632934Y-100406293D01*
X142614750Y-100365529D01*
X142597190Y-100340901D01*
X142580323Y-100328970D01*
X142551253Y-100313849D01*
X142522182Y-100305495D01*
X142501265Y-100306707D01*
X142452607Y-100316358D01*
X142436981Y-100321251D01*
X142360024Y-100354800D01*
X142356590Y-100356400D01*
X142242699Y-100412944D01*
X142230173Y-100419146D01*
X142137594Y-100462920D01*
X142015236Y-100518404D01*
X141877343Y-100579212D01*
X141738938Y-100638611D01*
X141472232Y-100748358D01*
X140653914Y-101049531D01*
X139827165Y-101301295D01*
X138992861Y-101503912D01*
X138152707Y-101657340D01*
X137308275Y-101761575D01*
X136461212Y-101816582D01*
X135613185Y-101822345D01*
X134765774Y-101778833D01*
X133920636Y-101686018D01*
X133079413Y-101543872D01*
X132243711Y-101352363D01*
X131415184Y-101111456D01*
X130594628Y-100820822D01*
X130444998Y-100761926D01*
X130198726Y-100660947D01*
X129958910Y-100558012D01*
X129739696Y-100459247D01*
X129554660Y-100370545D01*
X129359295Y-100272864D01*
X129330094Y-100264976D01*
X129300125Y-100269070D01*
X129274109Y-100284502D01*
X129251414Y-100322061D01*
X129223823Y-100429466D01*
X129172701Y-100621155D01*
X128994926Y-101194067D01*
X128788795Y-101728139D01*
X128551557Y-102228899D01*
X128280593Y-102701222D01*
X127973201Y-103150000D01*
X127626637Y-103580039D01*
X127237489Y-103996776D01*
X127129788Y-104102738D01*
X126749553Y-104447612D01*
X126358916Y-104755253D01*
X125943986Y-105036193D01*
X125491891Y-105299989D01*
X124997231Y-105543707D01*
X124453387Y-105759020D01*
X123890973Y-105930997D01*
X123314974Y-106058719D01*
X122730504Y-106141255D01*
X122142609Y-106177712D01*
X121556393Y-106167207D01*
X120976655Y-106108862D01*
X120419009Y-106008029D01*
X119827639Y-105853485D01*
X119256235Y-105653418D01*
X118706263Y-105408616D01*
X118179322Y-105119893D01*
X117677017Y-104788048D01*
X117200966Y-104413879D01*
X116752065Y-103997498D01*
X116558950Y-103797207D01*
X116219887Y-103409194D01*
X115919581Y-103011537D01*
X115649466Y-102592625D01*
X115401422Y-102141160D01*
X115186661Y-101687033D01*
X114987490Y-101181524D01*
X114830144Y-100671599D01*
X114711110Y-100145788D01*
X114626975Y-99592213D01*
X114617780Y-99503128D01*
X114603795Y-99306549D01*
X114594155Y-99082587D01*
X114589000Y-98844346D01*
X114588444Y-98604852D01*
X114592576Y-98377514D01*
X114601454Y-98175505D01*
X114615034Y-98012619D01*
X114702176Y-97426219D01*
X114834952Y-96835574D01*
X115011103Y-96268186D01*
X115231935Y-95720655D01*
X115498791Y-95189647D01*
X115813073Y-94671879D01*
X116176633Y-94163529D01*
X116211684Y-94119314D01*
X116326635Y-93984577D01*
X116468641Y-93828735D01*
X116629322Y-93660235D01*
X116799834Y-93487963D01*
X116971612Y-93320487D01*
X117135898Y-93166537D01*
X117283875Y-93034867D01*
X117407277Y-92933668D01*
X117441872Y-92907224D01*
X117953030Y-92546537D01*
X118472962Y-92235499D01*
X119005375Y-91972226D01*
X119553115Y-91755515D01*
X120118978Y-91584241D01*
X120705875Y-91457298D01*
X121318119Y-91373471D01*
X121413401Y-91363522D01*
X121414222Y-91363432D01*
X121510520Y-91352320D01*
X121511929Y-91352144D01*
X121578824Y-91343159D01*
X121584049Y-91342271D01*
X121610948Y-91336732D01*
X121638774Y-91324873D01*
X121659793Y-91303122D01*
X121671772Y-91261036D01*
X121671686Y-91254864D01*
X121670087Y-91240363D01*
X121660689Y-91195319D01*
X121660026Y-91192425D01*
X121639769Y-91111286D01*
X121639474Y-91110144D01*
X121610602Y-91001667D01*
X121610391Y-91000889D01*
X121575237Y-90874218D01*
X121487564Y-90544292D01*
X121699274Y-90544292D01*
X121809963Y-90812179D01*
X122014742Y-91017317D01*
X122282437Y-91128473D01*
X122572292Y-91128726D01*
X122840179Y-91018037D01*
X123045317Y-90813258D01*
X123050822Y-90800000D01*
X123694922Y-90800000D01*
X123694922Y-91500000D01*
X123710862Y-91584714D01*
X123760928Y-91662518D01*
X123837320Y-91714715D01*
X123928000Y-91733078D01*
X124928000Y-91733078D01*
X125012714Y-91717138D01*
X125090518Y-91667072D01*
X125142715Y-91590680D01*
X125161078Y-91500000D01*
X125161078Y-90800000D01*
X125145138Y-90715286D01*
X125095072Y-90637482D01*
X125018680Y-90585285D01*
X124928000Y-90566922D01*
X123928000Y-90566922D01*
X123843286Y-90582862D01*
X123765482Y-90632928D01*
X123713285Y-90709320D01*
X123694922Y-90800000D01*
X123050822Y-90800000D01*
X123156473Y-90545563D01*
X123156726Y-90255708D01*
X123046037Y-89987821D01*
X122841258Y-89782683D01*
X122573563Y-89671527D01*
X122283708Y-89671274D01*
X122015821Y-89781963D01*
X121810683Y-89986742D01*
X121699527Y-90254437D01*
X121699274Y-90544292D01*
X121487564Y-90544292D01*
X121469519Y-90476390D01*
X121315451Y-89786005D01*
X121192860Y-89080120D01*
X121102854Y-88368395D01*
X121046626Y-87661059D01*
X121043038Y-87544292D01*
X121699274Y-87544292D01*
X121809963Y-87812179D01*
X122014742Y-88017317D01*
X122282437Y-88128473D01*
X122572292Y-88128726D01*
X122840179Y-88018037D01*
X123045317Y-87813258D01*
X123050822Y-87800000D01*
X123694922Y-87800000D01*
X123694922Y-88500000D01*
X123710862Y-88584714D01*
X123760928Y-88662518D01*
X123837320Y-88714715D01*
X123928000Y-88733078D01*
X124406736Y-88733078D01*
X127101600Y-91427942D01*
X127101600Y-92540422D01*
X126047500Y-92540422D01*
X125962786Y-92556362D01*
X125884982Y-92606428D01*
X125832785Y-92682820D01*
X125814422Y-92773500D01*
X125814422Y-95948500D01*
X125830362Y-96033214D01*
X125880428Y-96111018D01*
X125956820Y-96163215D01*
X126047500Y-96181578D01*
X126796800Y-96181578D01*
X126796800Y-97167700D01*
X126860604Y-97488466D01*
X127042303Y-97760397D01*
X129315603Y-100033697D01*
X129587535Y-100215396D01*
X129908300Y-100279200D01*
X141109700Y-100279200D01*
X141430466Y-100215396D01*
X141702397Y-100033697D01*
X143975697Y-97760397D01*
X144157396Y-97488465D01*
X144221200Y-97167700D01*
X144221200Y-96181578D01*
X144970500Y-96181578D01*
X145055214Y-96165638D01*
X145133018Y-96115572D01*
X145185215Y-96039180D01*
X145203578Y-95948500D01*
X145203578Y-92773500D01*
X145187638Y-92688786D01*
X145137572Y-92610982D01*
X145061180Y-92558785D01*
X144970500Y-92540422D01*
X141795500Y-92540422D01*
X141710786Y-92556362D01*
X141632982Y-92606428D01*
X141580785Y-92682820D01*
X141562422Y-92773500D01*
X141562422Y-95948500D01*
X141578362Y-96033214D01*
X141628428Y-96111018D01*
X141704820Y-96163215D01*
X141795500Y-96181578D01*
X142544800Y-96181578D01*
X142544800Y-96820506D01*
X140762506Y-98602800D01*
X130255494Y-98602800D01*
X128743343Y-97090649D01*
X133030798Y-97090649D01*
X133402378Y-97563009D01*
X134788090Y-98125440D01*
X136283556Y-98114769D01*
X137615622Y-97563009D01*
X137987202Y-97090649D01*
X135509000Y-94612447D01*
X133030798Y-97090649D01*
X128743343Y-97090649D01*
X128473200Y-96820506D01*
X128473200Y-96181578D01*
X129222500Y-96181578D01*
X129307214Y-96165638D01*
X129385018Y-96115572D01*
X129437215Y-96039180D01*
X129455578Y-95948500D01*
X129455578Y-93640090D01*
X131744560Y-93640090D01*
X131755231Y-95135556D01*
X132306991Y-96467622D01*
X132779351Y-96839202D01*
X135257553Y-94361000D01*
X135760447Y-94361000D01*
X138238649Y-96839202D01*
X138711009Y-96467622D01*
X139273440Y-95081910D01*
X139262769Y-93586444D01*
X138711009Y-92254378D01*
X138238649Y-91882798D01*
X135760447Y-94361000D01*
X135257553Y-94361000D01*
X132779351Y-91882798D01*
X132306991Y-92254378D01*
X131744560Y-93640090D01*
X129455578Y-93640090D01*
X129455578Y-92773500D01*
X129439638Y-92688786D01*
X129389572Y-92610982D01*
X129313180Y-92558785D01*
X129222500Y-92540422D01*
X128168400Y-92540422D01*
X128168400Y-91631351D01*
X133030798Y-91631351D01*
X135509000Y-94109553D01*
X137987202Y-91631351D01*
X137615622Y-91158991D01*
X136229910Y-90596560D01*
X134734444Y-90607231D01*
X133402378Y-91158991D01*
X133030798Y-91631351D01*
X128168400Y-91631351D01*
X128168400Y-91207000D01*
X128127797Y-91002877D01*
X128012171Y-90829829D01*
X125161078Y-87978736D01*
X125161078Y-87800000D01*
X125145138Y-87715286D01*
X125095072Y-87637482D01*
X125018680Y-87585285D01*
X124928000Y-87566922D01*
X123928000Y-87566922D01*
X123843286Y-87582862D01*
X123765482Y-87632928D01*
X123713285Y-87709320D01*
X123694922Y-87800000D01*
X123050822Y-87800000D01*
X123156473Y-87545563D01*
X123156726Y-87255708D01*
X123046037Y-86987821D01*
X122841258Y-86782683D01*
X122573563Y-86671527D01*
X122283708Y-86671274D01*
X122015821Y-86781963D01*
X121810683Y-86986742D01*
X121699527Y-87254437D01*
X121699274Y-87544292D01*
X121043038Y-87544292D01*
X121025333Y-86968218D01*
X121040129Y-86298980D01*
X121044980Y-86205648D01*
X121054428Y-86034856D01*
X121063663Y-85880491D01*
X121072144Y-85750900D01*
X121079285Y-85655290D01*
X121084441Y-85602815D01*
X121098585Y-85500613D01*
X121096702Y-85470424D01*
X121083222Y-85443345D01*
X121060269Y-85423645D01*
X121020909Y-85413999D01*
X120615473Y-85425683D01*
X120522701Y-85427623D01*
X119981705Y-85409985D01*
X119450656Y-85343873D01*
X118930864Y-85230395D01*
X118425173Y-85070721D01*
X117936424Y-84866017D01*
X117467414Y-84617426D01*
X117020992Y-84326114D01*
X116599959Y-83993208D01*
X116206851Y-83619575D01*
X115917775Y-83297559D01*
X115586798Y-82864174D01*
X115300746Y-82408299D01*
X115059228Y-81929408D01*
X114862119Y-81427243D01*
X114709326Y-80901489D01*
X114600620Y-80350835D01*
X114593349Y-80299397D01*
X114572974Y-80095693D01*
X114559589Y-79860096D01*
X114553255Y-79605973D01*
X114554034Y-79347367D01*
X114561930Y-79098370D01*
X114564224Y-79063850D01*
X115863800Y-79063850D01*
X115863800Y-79756204D01*
X115952739Y-79970922D01*
X116117077Y-80135261D01*
X116331795Y-80224200D01*
X117024150Y-80224200D01*
X117170200Y-80078150D01*
X117170200Y-78917800D01*
X116009850Y-78917800D01*
X115863800Y-79063850D01*
X114564224Y-79063850D01*
X114576897Y-78873185D01*
X114598764Y-78686019D01*
X114689210Y-78210878D01*
X114822837Y-77723796D01*
X115863800Y-77723796D01*
X115863800Y-78416150D01*
X116009850Y-78562200D01*
X117170200Y-78562200D01*
X117170200Y-77401850D01*
X117525800Y-77401850D01*
X117525800Y-78562200D01*
X117545800Y-78562200D01*
X117545800Y-78917800D01*
X117525800Y-78917800D01*
X117525800Y-80078150D01*
X117671850Y-80224200D01*
X118364205Y-80224200D01*
X118578923Y-80135261D01*
X118743261Y-79970922D01*
X118832200Y-79756204D01*
X118832200Y-79140172D01*
X118930661Y-79378466D01*
X119247865Y-79696223D01*
X119662523Y-79868404D01*
X120111508Y-79868796D01*
X120218320Y-79824662D01*
X123894600Y-83500941D01*
X123894600Y-86073207D01*
X123843286Y-86082862D01*
X123765482Y-86132928D01*
X123713285Y-86209320D01*
X123694922Y-86300000D01*
X123694922Y-87000000D01*
X123710862Y-87084714D01*
X123760928Y-87162518D01*
X123837320Y-87214715D01*
X123928000Y-87233078D01*
X124928000Y-87233078D01*
X125012714Y-87217138D01*
X125090518Y-87167072D01*
X125142715Y-87090680D01*
X125161078Y-87000000D01*
X125161078Y-86300000D01*
X125145138Y-86215286D01*
X125095072Y-86137482D01*
X125018680Y-86085285D01*
X124961400Y-86073686D01*
X124961400Y-83280005D01*
X124961401Y-83280000D01*
X124920797Y-83075877D01*
X124901706Y-83047305D01*
X124805171Y-82902829D01*
X124805168Y-82902827D01*
X120972808Y-79070467D01*
X121016404Y-78965477D01*
X121016405Y-78963508D01*
X150763207Y-78963508D01*
X150934664Y-79378466D01*
X151251868Y-79696223D01*
X151666526Y-79868404D01*
X152115511Y-79868796D01*
X152530469Y-79697339D01*
X152848226Y-79380135D01*
X152947803Y-79140327D01*
X152947803Y-79756204D01*
X153036742Y-79970922D01*
X153201080Y-80135261D01*
X153415798Y-80224200D01*
X154108153Y-80224200D01*
X154254203Y-80078150D01*
X154254203Y-78917800D01*
X154609803Y-78917800D01*
X154609803Y-80078150D01*
X154755853Y-80224200D01*
X155448208Y-80224200D01*
X155662926Y-80135261D01*
X155827264Y-79970922D01*
X155916203Y-79756204D01*
X155916203Y-79063850D01*
X155770153Y-78917800D01*
X154609803Y-78917800D01*
X154254203Y-78917800D01*
X154234203Y-78917800D01*
X154234203Y-78562200D01*
X154254203Y-78562200D01*
X154254203Y-77401850D01*
X154609803Y-77401850D01*
X154609803Y-78562200D01*
X155770153Y-78562200D01*
X155916203Y-78416150D01*
X155916203Y-77723796D01*
X155827264Y-77509078D01*
X155662926Y-77344739D01*
X155448208Y-77255800D01*
X154755853Y-77255800D01*
X154609803Y-77401850D01*
X154254203Y-77401850D01*
X154108153Y-77255800D01*
X153415798Y-77255800D01*
X153201080Y-77344739D01*
X153036742Y-77509078D01*
X152947803Y-77723796D01*
X152947803Y-78339828D01*
X152849342Y-78101534D01*
X152532138Y-77783777D01*
X152117480Y-77611596D01*
X151668495Y-77611204D01*
X151253537Y-77782661D01*
X150935780Y-78099865D01*
X150763599Y-78514523D01*
X150763207Y-78963508D01*
X121016405Y-78963508D01*
X121016796Y-78516492D01*
X120845339Y-78101534D01*
X120528135Y-77783777D01*
X120113477Y-77611596D01*
X119664492Y-77611204D01*
X119249534Y-77782661D01*
X118931777Y-78099865D01*
X118832200Y-78339673D01*
X118832200Y-77723796D01*
X118743261Y-77509078D01*
X118578923Y-77344739D01*
X118364205Y-77255800D01*
X117671850Y-77255800D01*
X117525800Y-77401850D01*
X117170200Y-77401850D01*
X117024150Y-77255800D01*
X116331795Y-77255800D01*
X116117077Y-77344739D01*
X115952739Y-77509078D01*
X115863800Y-77723796D01*
X114822837Y-77723796D01*
X114834918Y-77679760D01*
X115023822Y-77174300D01*
X115256250Y-76693560D01*
X115532499Y-76236884D01*
X115852939Y-75803609D01*
X116218418Y-75392609D01*
X116446949Y-75168622D01*
X116863526Y-74813872D01*
X117303501Y-74503573D01*
X117766882Y-74237511D01*
X118253184Y-74015923D01*
X118761961Y-73839091D01*
X119293658Y-73707114D01*
X119555264Y-73659603D01*
X119811844Y-73625426D01*
X120069872Y-73605212D01*
X120346088Y-73597709D01*
X120657154Y-73601761D01*
X120809477Y-73606998D01*
X121050662Y-73620719D01*
X121265483Y-73641774D01*
X121470791Y-73672300D01*
X121683593Y-73714607D01*
X121919424Y-73770783D01*
X122351151Y-73898347D01*
X122845486Y-74091437D01*
X123321279Y-74328461D01*
X123774893Y-74606883D01*
X124202364Y-74924004D01*
X124599806Y-75277149D01*
X124963338Y-75663619D01*
X125290204Y-76082140D01*
X125390782Y-76224167D01*
X125412814Y-76244891D01*
X125441174Y-76255411D01*
X125471392Y-76254068D01*
X125504533Y-76236231D01*
X125794526Y-75969691D01*
X126263215Y-75555502D01*
X126897824Y-75043930D01*
X127549277Y-74572576D01*
X128212781Y-74144825D01*
X128884322Y-73763635D01*
X129182372Y-73605878D01*
X129205766Y-73586703D01*
X129219856Y-73559938D01*
X129222423Y-73529799D01*
X129213062Y-73501036D01*
X129201336Y-73485388D01*
X128825054Y-73098705D01*
X128688722Y-72955976D01*
X128217332Y-72417280D01*
X127790601Y-71854704D01*
X127408006Y-71267815D01*
X127069717Y-70656969D01*
X126775850Y-70022396D01*
X126526593Y-69364440D01*
X126322101Y-68683333D01*
X126162437Y-67978781D01*
X126116607Y-67715350D01*
X126049368Y-67185792D01*
X126010323Y-66639574D01*
X125999541Y-66088099D01*
X126017107Y-65543333D01*
X126063061Y-65017257D01*
X126137591Y-64520417D01*
X126137749Y-64519562D01*
X126138926Y-64509357D01*
X126141940Y-64445796D01*
X126137348Y-64415899D01*
X126123590Y-64392490D01*
X126100951Y-64366176D01*
X126066456Y-64343313D01*
X125847535Y-64273107D01*
X125525859Y-64143025D01*
X125196053Y-63981063D01*
X124869738Y-63793459D01*
X124558826Y-63586718D01*
X124274200Y-63366705D01*
X124190633Y-63294835D01*
X123848216Y-62960420D01*
X123543666Y-62596168D01*
X123277126Y-62204663D01*
X123049851Y-61789590D01*
X122863115Y-61354664D01*
X122718171Y-60903603D01*
X122616261Y-60440116D01*
X122558621Y-59967945D01*
X122546477Y-59490798D01*
X122556719Y-59349000D01*
X127656922Y-59349000D01*
X127656922Y-64349000D01*
X127672862Y-64433714D01*
X127722928Y-64511518D01*
X127799320Y-64563715D01*
X127890000Y-64582078D01*
X143890000Y-64582078D01*
X143974714Y-64566138D01*
X144052518Y-64516072D01*
X144104715Y-64439680D01*
X144123078Y-64349000D01*
X144123078Y-59349000D01*
X144107138Y-59264286D01*
X144057072Y-59186482D01*
X143980680Y-59134285D01*
X143890000Y-59115922D01*
X127890000Y-59115922D01*
X127805286Y-59131862D01*
X127727482Y-59181928D01*
X127675285Y-59258320D01*
X127656922Y-59349000D01*
X122556719Y-59349000D01*
X122581034Y-59012375D01*
X122663632Y-58535682D01*
X122745111Y-58222750D01*
X122905908Y-57763893D01*
X123108508Y-57328601D01*
X123350613Y-56918517D01*
X123629740Y-56535869D01*
X123943353Y-56182938D01*
X124288965Y-55861961D01*
X124664057Y-55575211D01*
X125066088Y-55324964D01*
X125492580Y-55113454D01*
X125941016Y-54942944D01*
X126408886Y-54815692D01*
X126895009Y-54733731D01*
X127049765Y-54718020D01*
X127532820Y-54701341D01*
X128010403Y-54732307D01*
M02*
