G04 #@! TF.GenerationSoftware,KiCad,Pcbnew,(5.1.10)-1*
G04 #@! TF.CreationDate,2021-11-20T15:44:22+01:00*
G04 #@! TF.ProjectId,BlinkyBear,426c696e-6b79-4426-9561-722e6b696361,rev?*
G04 #@! TF.SameCoordinates,Original*
G04 #@! TF.FileFunction,Copper,L2,Bot*
G04 #@! TF.FilePolarity,Positive*
%FSLAX46Y46*%
G04 Gerber Fmt 4.6, Leading zero omitted, Abs format (unit mm)*
G04 Created by KiCad (PCBNEW (5.1.10)-1) date 2021-11-20 15:44:22*
%MOMM*%
%LPD*%
G01*
G04 APERTURE LIST*
G04 #@! TA.AperFunction,ComponentPad*
%ADD10R,1.800000X1.800000*%
G04 #@! TD*
G04 #@! TA.AperFunction,ComponentPad*
%ADD11C,1.800000*%
G04 #@! TD*
G04 #@! TA.AperFunction,SMDPad,CuDef*
%ADD12R,16.000000X5.000000*%
G04 #@! TD*
G04 #@! TA.AperFunction,SMDPad,CuDef*
%ADD13R,3.175000X3.175000*%
G04 #@! TD*
G04 #@! TA.AperFunction,SMDPad,CuDef*
%ADD14C,6.350000*%
G04 #@! TD*
G04 #@! TA.AperFunction,SMDPad,CuDef*
%ADD15R,0.800000X1.000000*%
G04 #@! TD*
G04 #@! TA.AperFunction,SMDPad,CuDef*
%ADD16R,1.500000X0.700000*%
G04 #@! TD*
G04 #@! TA.AperFunction,Conductor*
%ADD17C,0.609600*%
G04 #@! TD*
G04 #@! TA.AperFunction,Conductor*
%ADD18C,0.250000*%
G04 #@! TD*
G04 #@! TA.AperFunction,Conductor*
%ADD19C,1.219200*%
G04 #@! TD*
G04 #@! TA.AperFunction,Conductor*
%ADD20C,0.152400*%
G04 #@! TD*
G04 #@! TA.AperFunction,Conductor*
%ADD21C,0.076200*%
G04 #@! TD*
G04 APERTURE END LIST*
D10*
X154432003Y-78740000D03*
D11*
X151892003Y-78740000D03*
D10*
X117348000Y-78740000D03*
D11*
X119888000Y-78740000D03*
D12*
X136067800Y-64846200D03*
D13*
X143383000Y-94361000D03*
X127635000Y-94361000D03*
D14*
X135509000Y-94361000D03*
D15*
X124960600Y-91483200D03*
X124960600Y-84183200D03*
X122750600Y-84183200D03*
X122750600Y-91483200D03*
D16*
X125610600Y-85583200D03*
X125610600Y-87083200D03*
X125610600Y-90083200D03*
D17*
X120787999Y-79639999D02*
X126452199Y-79639999D01*
X119888000Y-78740000D02*
X120787999Y-79639999D01*
X126452199Y-79639999D02*
X127660400Y-80848200D01*
X126010600Y-85583200D02*
X125610600Y-85583200D01*
X127660400Y-83933400D02*
X126010600Y-85583200D01*
X127660400Y-80848200D02*
X127660400Y-83933400D01*
D18*
X134105000Y-94361000D02*
X135509000Y-94361000D01*
D17*
X125172400Y-87107200D02*
X124772400Y-87107200D01*
X125731200Y-87081800D02*
X125331200Y-87081800D01*
D19*
X141109700Y-99441000D02*
X129908300Y-99441000D01*
X129908300Y-99441000D02*
X127635000Y-97167700D01*
X127635000Y-97167700D02*
X127635000Y-94361000D01*
X143383000Y-94361000D02*
X143383000Y-97167700D01*
X143383000Y-97167700D02*
X141109700Y-99441000D01*
D17*
X126010600Y-87083200D02*
X125610600Y-87083200D01*
X127635000Y-88707600D02*
X126010600Y-87083200D01*
X127635000Y-94361000D02*
X127635000Y-88707600D01*
D20*
X128010403Y-54732307D02*
X128480411Y-54809291D01*
X128939352Y-54930700D01*
X129383754Y-55094942D01*
X129810101Y-55300393D01*
X130214923Y-55545441D01*
X130594743Y-55828470D01*
X130946104Y-56147845D01*
X131265521Y-56501934D01*
X131550863Y-56890868D01*
X131605601Y-56973433D01*
X131605967Y-56973980D01*
X131659586Y-57053359D01*
X131660233Y-57054301D01*
X131697823Y-57108189D01*
X131700559Y-57111871D01*
X131716268Y-57131728D01*
X131726640Y-57142478D01*
X131738910Y-57150999D01*
X131752606Y-57156962D01*
X131767202Y-57160138D01*
X131782137Y-57160406D01*
X131794645Y-57158342D01*
X131795677Y-57158082D01*
X131805132Y-57155032D01*
X131836301Y-57142681D01*
X131837556Y-57142171D01*
X131904963Y-57114064D01*
X131905358Y-57113898D01*
X132000050Y-57073787D01*
X132000297Y-57073682D01*
X132112908Y-57025513D01*
X132318967Y-56940321D01*
X132907891Y-56730220D01*
X133523377Y-56556940D01*
X134158990Y-56421867D01*
X134807423Y-56326658D01*
X135461689Y-56272927D01*
X135885396Y-56262163D01*
X136541560Y-56283870D01*
X137202062Y-56350407D01*
X137859719Y-56460452D01*
X138506833Y-56612640D01*
X139135746Y-56805569D01*
X139740290Y-57038376D01*
X139842616Y-57081864D01*
X139843002Y-57082027D01*
X139933234Y-57119792D01*
X139933883Y-57120060D01*
X139996558Y-57145615D01*
X139999046Y-57146579D01*
X140024619Y-57155976D01*
X140039078Y-57159729D01*
X140053991Y-57160589D01*
X140068785Y-57158524D01*
X140082892Y-57153611D01*
X140100520Y-57142283D01*
X140104689Y-57138706D01*
X140115432Y-57127382D01*
X140142062Y-57092819D01*
X140144056Y-57090109D01*
X140188602Y-57026686D01*
X140189468Y-57025426D01*
X140244381Y-56943810D01*
X140446174Y-56662723D01*
X140676562Y-56383742D01*
X140924965Y-56118221D01*
X141180059Y-55878213D01*
X141431620Y-55674665D01*
X141483256Y-55637116D01*
X141901516Y-55366872D01*
X142335367Y-55143153D01*
X142783067Y-54965023D01*
X143241443Y-54832464D01*
X143707397Y-54745451D01*
X144177761Y-54703971D01*
X144649402Y-54708011D01*
X145119149Y-54757568D01*
X145583889Y-54852640D01*
X146040461Y-54993226D01*
X146485720Y-55179329D01*
X146916556Y-55410980D01*
X147330942Y-55688954D01*
X147359363Y-55710668D01*
X147483515Y-55814180D01*
X147627562Y-55944735D01*
X147781753Y-56092680D01*
X147935855Y-56247838D01*
X148079814Y-56400145D01*
X148203433Y-56539322D01*
X148297080Y-56655571D01*
X148367633Y-56752851D01*
X148633824Y-57170983D01*
X148854506Y-57605894D01*
X149030135Y-58055472D01*
X149160425Y-58516455D01*
X149245075Y-58985583D01*
X149283794Y-59459561D01*
X149276275Y-59935098D01*
X149222210Y-60408951D01*
X149121299Y-60877823D01*
X148973226Y-61338472D01*
X148777038Y-61789080D01*
X148726613Y-61888537D01*
X148543754Y-62213244D01*
X148343156Y-62513074D01*
X148109733Y-62811017D01*
X148096858Y-62826295D01*
X147812230Y-63129498D01*
X147490489Y-63414613D01*
X147139906Y-63676201D01*
X146770119Y-63907571D01*
X146390954Y-64102065D01*
X146009960Y-64254126D01*
X145943578Y-64277096D01*
X145942472Y-64277489D01*
X145848580Y-64311607D01*
X145846692Y-64312321D01*
X145778214Y-64339278D01*
X145772724Y-64341693D01*
X145741082Y-64357125D01*
X145728362Y-64364958D01*
X145717415Y-64375121D01*
X145707074Y-64390084D01*
X145705293Y-64393463D01*
X145699657Y-64407296D01*
X145696593Y-64425295D01*
X145694570Y-64466936D01*
X145694648Y-64475690D01*
X145699934Y-64555188D01*
X145700217Y-64558413D01*
X145711979Y-64666007D01*
X145712245Y-64668157D01*
X145729646Y-64794076D01*
X145757542Y-64998042D01*
X145801552Y-65453761D01*
X145825078Y-65929484D01*
X145827861Y-66408937D01*
X145809640Y-66875214D01*
X145770155Y-67312349D01*
X145748235Y-67482660D01*
X145626805Y-68187688D01*
X145458798Y-68874254D01*
X145244755Y-69541881D01*
X144985363Y-70189166D01*
X144681319Y-70814654D01*
X144333296Y-71416942D01*
X143941966Y-71994603D01*
X143508012Y-72546185D01*
X143031193Y-73071253D01*
X142634961Y-73477983D01*
X142625636Y-73489653D01*
X142618767Y-73502918D01*
X142614618Y-73517268D01*
X142613349Y-73532152D01*
X142615007Y-73546998D01*
X142619530Y-73561234D01*
X142626743Y-73574315D01*
X142636369Y-73585737D01*
X142653542Y-73598316D01*
X142960605Y-73762913D01*
X143560420Y-74101862D01*
X144235910Y-74527235D01*
X144883064Y-74982579D01*
X145495263Y-75463172D01*
X146066717Y-75965018D01*
X146337716Y-76217286D01*
X146349595Y-76226343D01*
X146363013Y-76232909D01*
X146377453Y-76236731D01*
X146392362Y-76237662D01*
X146407166Y-76235667D01*
X146421296Y-76230822D01*
X146434210Y-76223314D01*
X146445411Y-76213431D01*
X146451064Y-76206600D01*
X146602444Y-76000362D01*
X146727626Y-75836106D01*
X147078491Y-75432159D01*
X147463608Y-75062632D01*
X147880156Y-74729162D01*
X148324574Y-74434216D01*
X148793289Y-74180249D01*
X149282738Y-73969695D01*
X149790814Y-73804501D01*
X149985271Y-73752615D01*
X150178745Y-73705699D01*
X150353943Y-73670092D01*
X150522729Y-73644185D01*
X150697051Y-73626448D01*
X150888834Y-73615472D01*
X151109574Y-73609939D01*
X151370715Y-73608511D01*
X151439741Y-73608618D01*
X151675622Y-73610506D01*
X151873256Y-73615666D01*
X152043566Y-73625295D01*
X152197457Y-73640567D01*
X152346225Y-73662741D01*
X152501318Y-73693204D01*
X152673921Y-73733405D01*
X152873241Y-73784291D01*
X153356432Y-73932866D01*
X153853221Y-74135531D01*
X154327106Y-74382753D01*
X154778040Y-74674478D01*
X155205801Y-75010622D01*
X155610343Y-75391310D01*
X155905939Y-75717233D01*
X156235489Y-76146743D01*
X156521784Y-76601428D01*
X156764709Y-77080867D01*
X156963900Y-77584355D01*
X157119001Y-78111279D01*
X157229680Y-78661414D01*
X157245715Y-78786877D01*
X157262221Y-78993082D01*
X157272464Y-79227867D01*
X157276380Y-79477976D01*
X157273951Y-79729989D01*
X157265189Y-79970811D01*
X157250168Y-80186866D01*
X157229006Y-80365261D01*
X157192099Y-80578920D01*
X157064785Y-81117899D01*
X156891980Y-81635275D01*
X156673056Y-82133082D01*
X156407583Y-82612337D01*
X156094420Y-83074989D01*
X156061282Y-83118521D01*
X155930361Y-83276851D01*
X155772162Y-83452583D01*
X155596152Y-83636200D01*
X155412231Y-83817804D01*
X155230316Y-83987517D01*
X155060424Y-84135453D01*
X154912041Y-84252282D01*
X154803818Y-84329646D01*
X154334075Y-84629302D01*
X153850020Y-84881701D01*
X153352413Y-85086987D01*
X152843038Y-85244627D01*
X152323682Y-85354075D01*
X151796064Y-85414784D01*
X151260183Y-85426200D01*
X150859341Y-85416130D01*
X150844443Y-85417220D01*
X150830044Y-85421196D01*
X150816697Y-85427905D01*
X150804916Y-85437088D01*
X150795152Y-85448394D01*
X150787782Y-85461387D01*
X150783088Y-85475568D01*
X150781251Y-85490392D01*
X150781833Y-85501895D01*
X150796352Y-85616353D01*
X150817109Y-85815872D01*
X150835264Y-86080748D01*
X150847684Y-86377605D01*
X150854324Y-86696196D01*
X150855154Y-87026390D01*
X150850156Y-87357745D01*
X150839318Y-87680253D01*
X150822645Y-87983542D01*
X150800115Y-88258036D01*
X150794043Y-88317793D01*
X150745644Y-88725077D01*
X150684481Y-89145401D01*
X150612552Y-89568457D01*
X150531937Y-89983389D01*
X150444715Y-90379456D01*
X150353036Y-90745638D01*
X150258795Y-91071997D01*
X150258537Y-91072819D01*
X150258300Y-91073588D01*
X150233419Y-91155956D01*
X150232875Y-91157847D01*
X150216532Y-91217472D01*
X150214999Y-91224266D01*
X150210715Y-91248342D01*
X150209553Y-91263234D01*
X150211318Y-91278068D01*
X150215942Y-91292271D01*
X150223249Y-91305300D01*
X150232958Y-91316653D01*
X150244695Y-91325893D01*
X150258008Y-91332667D01*
X150271621Y-91336572D01*
X150278883Y-91337941D01*
X150283073Y-91338611D01*
X150330980Y-91344905D01*
X150331842Y-91345013D01*
X150416897Y-91355203D01*
X150417258Y-91355245D01*
X150530599Y-91368275D01*
X150530842Y-91368303D01*
X150662162Y-91382974D01*
X151256840Y-91472292D01*
X151841901Y-91608360D01*
X152407415Y-91788504D01*
X152951596Y-92010898D01*
X153472559Y-92273686D01*
X153968523Y-92575065D01*
X154437592Y-92913171D01*
X154877946Y-93286190D01*
X155287717Y-93692273D01*
X155665073Y-94129596D01*
X156008147Y-94596314D01*
X156315086Y-95090593D01*
X156584039Y-95610600D01*
X156813168Y-96154529D01*
X157000609Y-96720538D01*
X157144504Y-97306793D01*
X157243080Y-97911930D01*
X157254360Y-98032678D01*
X157264107Y-98206435D01*
X157270714Y-98409717D01*
X157274138Y-98630667D01*
X157274354Y-98857711D01*
X157271362Y-99079342D01*
X157265170Y-99283951D01*
X157255824Y-99459783D01*
X157243396Y-99595549D01*
X157223988Y-99740951D01*
X157111834Y-100354200D01*
X156953946Y-100947513D01*
X156750899Y-101520502D01*
X156503488Y-102071572D01*
X156212457Y-102599234D01*
X155878582Y-103101900D01*
X155502569Y-103578067D01*
X155084481Y-104026898D01*
X154929770Y-104176290D01*
X154516802Y-104538202D01*
X154089966Y-104858491D01*
X153638718Y-105144833D01*
X153152657Y-105404484D01*
X152817088Y-105560043D01*
X152248782Y-105782519D01*
X151676879Y-105955166D01*
X151098940Y-106078792D01*
X150513044Y-106153929D01*
X149933230Y-106180688D01*
X149332063Y-106159948D01*
X148733952Y-106090716D01*
X148142911Y-105973786D01*
X147563009Y-105809975D01*
X146998238Y-105600078D01*
X146452082Y-105344651D01*
X146150467Y-105179011D01*
X145640254Y-104854496D01*
X145160363Y-104491276D01*
X144712397Y-104091349D01*
X144298512Y-103657045D01*
X143920896Y-103190755D01*
X143581710Y-102694819D01*
X143283132Y-102171615D01*
X143026786Y-101622346D01*
X142993549Y-101540881D01*
X142911780Y-101326417D01*
X142832235Y-101099881D01*
X142759701Y-100875780D01*
X142699121Y-100669214D01*
X142655091Y-100494180D01*
X142653758Y-100488155D01*
X142653485Y-100486969D01*
X142637473Y-100419693D01*
X142632934Y-100406293D01*
X142614750Y-100365529D01*
X142607357Y-100352549D01*
X142597573Y-100341261D01*
X142580323Y-100328970D01*
X142551253Y-100313849D01*
X142537389Y-100308288D01*
X142522707Y-100305539D01*
X142501265Y-100306707D01*
X142452607Y-100316358D01*
X142436981Y-100321251D01*
X142360024Y-100354800D01*
X142356590Y-100356400D01*
X142242699Y-100412944D01*
X142230173Y-100419146D01*
X142137594Y-100462920D01*
X142015236Y-100518404D01*
X141877343Y-100579212D01*
X141738938Y-100638611D01*
X141472232Y-100748358D01*
X140653914Y-101049531D01*
X139827165Y-101301295D01*
X138992861Y-101503912D01*
X138152707Y-101657340D01*
X137308275Y-101761575D01*
X136461212Y-101816582D01*
X135613185Y-101822345D01*
X134765774Y-101778833D01*
X133920636Y-101686018D01*
X133079413Y-101543872D01*
X132243711Y-101352363D01*
X131415184Y-101111456D01*
X130594628Y-100820822D01*
X130444998Y-100761926D01*
X130198726Y-100660947D01*
X129958910Y-100558012D01*
X129739696Y-100459247D01*
X129554660Y-100370545D01*
X129359295Y-100272864D01*
X129345344Y-100267526D01*
X129330619Y-100265012D01*
X129315687Y-100265418D01*
X129301121Y-100268730D01*
X129287481Y-100274821D01*
X129275291Y-100283455D01*
X129265020Y-100294301D01*
X129257062Y-100306943D01*
X129251414Y-100322061D01*
X129223823Y-100429466D01*
X129172701Y-100621155D01*
X128994926Y-101194067D01*
X128788795Y-101728139D01*
X128551557Y-102228899D01*
X128280593Y-102701222D01*
X127973201Y-103150000D01*
X127626637Y-103580039D01*
X127237489Y-103996776D01*
X127129788Y-104102738D01*
X126749553Y-104447612D01*
X126358916Y-104755253D01*
X125943986Y-105036193D01*
X125491891Y-105299989D01*
X124997231Y-105543707D01*
X124453387Y-105759020D01*
X123890973Y-105930997D01*
X123314974Y-106058719D01*
X122730504Y-106141255D01*
X122142609Y-106177712D01*
X121556393Y-106167207D01*
X120976655Y-106108862D01*
X120419009Y-106008029D01*
X119827639Y-105853485D01*
X119256235Y-105653418D01*
X118706263Y-105408616D01*
X118179322Y-105119893D01*
X117677017Y-104788048D01*
X117200966Y-104413879D01*
X116752065Y-103997498D01*
X116558950Y-103797207D01*
X116219887Y-103409194D01*
X115919581Y-103011537D01*
X115649466Y-102592625D01*
X115401422Y-102141160D01*
X115186661Y-101687033D01*
X114987490Y-101181524D01*
X114830144Y-100671599D01*
X114711110Y-100145788D01*
X114626975Y-99592213D01*
X114617780Y-99503128D01*
X114603795Y-99306549D01*
X114594155Y-99082587D01*
X114589000Y-98844346D01*
X114588444Y-98604852D01*
X114592576Y-98377514D01*
X114601454Y-98175505D01*
X114615034Y-98012619D01*
X114702176Y-97426219D01*
X114834952Y-96835574D01*
X115011103Y-96268186D01*
X115231935Y-95720655D01*
X115498791Y-95189647D01*
X115813073Y-94671879D01*
X116176633Y-94163529D01*
X116211684Y-94119314D01*
X116326635Y-93984577D01*
X116468641Y-93828735D01*
X116629322Y-93660235D01*
X116799834Y-93487963D01*
X116971612Y-93320487D01*
X117135898Y-93166537D01*
X117283875Y-93034867D01*
X117407277Y-92933668D01*
X117441872Y-92907224D01*
X117953030Y-92546537D01*
X118472962Y-92235499D01*
X119005375Y-91972226D01*
X119553115Y-91755515D01*
X120118978Y-91584241D01*
X120705875Y-91457298D01*
X121318119Y-91373471D01*
X121413401Y-91363522D01*
X121414222Y-91363432D01*
X121510520Y-91352320D01*
X121511929Y-91352144D01*
X121578824Y-91343159D01*
X121584049Y-91342271D01*
X121610948Y-91336732D01*
X121625213Y-91332300D01*
X121638339Y-91325170D01*
X121649822Y-91315616D01*
X121659220Y-91304005D01*
X121666173Y-91290784D01*
X121670413Y-91276461D01*
X121671772Y-91261036D01*
X121671686Y-91254864D01*
X121670087Y-91240363D01*
X121660689Y-91195319D01*
X121660026Y-91192425D01*
X121639769Y-91111286D01*
X121639474Y-91110144D01*
X121610602Y-91001667D01*
X121610391Y-91000889D01*
X121605482Y-90983200D01*
X122120894Y-90983200D01*
X122120894Y-91983200D01*
X122125308Y-92028013D01*
X122138379Y-92071105D01*
X122159606Y-92110818D01*
X122188173Y-92145627D01*
X122222982Y-92174194D01*
X122262695Y-92195421D01*
X122305787Y-92208492D01*
X122350600Y-92212906D01*
X123150600Y-92212906D01*
X123195413Y-92208492D01*
X123238505Y-92195421D01*
X123278218Y-92174194D01*
X123313027Y-92145627D01*
X123341594Y-92110818D01*
X123362821Y-92071105D01*
X123375892Y-92028013D01*
X123380306Y-91983200D01*
X123380306Y-90983200D01*
X124330894Y-90983200D01*
X124330894Y-91983200D01*
X124335308Y-92028013D01*
X124348379Y-92071105D01*
X124369606Y-92110818D01*
X124398173Y-92145627D01*
X124432982Y-92174194D01*
X124472695Y-92195421D01*
X124515787Y-92208492D01*
X124560600Y-92212906D01*
X125360600Y-92212906D01*
X125405413Y-92208492D01*
X125448505Y-92195421D01*
X125488218Y-92174194D01*
X125523027Y-92145627D01*
X125551594Y-92110818D01*
X125572821Y-92071105D01*
X125585892Y-92028013D01*
X125590306Y-91983200D01*
X125590306Y-90983200D01*
X125585892Y-90938387D01*
X125572821Y-90895295D01*
X125551594Y-90855582D01*
X125523027Y-90820773D01*
X125488218Y-90792206D01*
X125448505Y-90770979D01*
X125405413Y-90757908D01*
X125360600Y-90753494D01*
X124560600Y-90753494D01*
X124515787Y-90757908D01*
X124472695Y-90770979D01*
X124432982Y-90792206D01*
X124398173Y-90820773D01*
X124369606Y-90855582D01*
X124348379Y-90895295D01*
X124335308Y-90938387D01*
X124330894Y-90983200D01*
X123380306Y-90983200D01*
X123375892Y-90938387D01*
X123362821Y-90895295D01*
X123341594Y-90855582D01*
X123313027Y-90820773D01*
X123278218Y-90792206D01*
X123238505Y-90770979D01*
X123195413Y-90757908D01*
X123150600Y-90753494D01*
X122350600Y-90753494D01*
X122305787Y-90757908D01*
X122262695Y-90770979D01*
X122222982Y-90792206D01*
X122188173Y-90820773D01*
X122159606Y-90855582D01*
X122138379Y-90895295D01*
X122125308Y-90938387D01*
X122120894Y-90983200D01*
X121605482Y-90983200D01*
X121575237Y-90874218D01*
X121469519Y-90476390D01*
X121315451Y-89786005D01*
X121225205Y-89266364D01*
X123172000Y-89266364D01*
X123172000Y-89400036D01*
X123198079Y-89531140D01*
X123249233Y-89654637D01*
X123323497Y-89765782D01*
X123418018Y-89860303D01*
X123529163Y-89934567D01*
X123652660Y-89985721D01*
X123783764Y-90011800D01*
X123917436Y-90011800D01*
X124048540Y-89985721D01*
X124172037Y-89934567D01*
X124283182Y-89860303D01*
X124377703Y-89765782D01*
X124399473Y-89733200D01*
X124630894Y-89733200D01*
X124630894Y-90433200D01*
X124635308Y-90478013D01*
X124648379Y-90521105D01*
X124669606Y-90560818D01*
X124698173Y-90595627D01*
X124732982Y-90624194D01*
X124772695Y-90645421D01*
X124815787Y-90658492D01*
X124860600Y-90662906D01*
X126360600Y-90662906D01*
X126405413Y-90658492D01*
X126448505Y-90645421D01*
X126488218Y-90624194D01*
X126523027Y-90595627D01*
X126551594Y-90560818D01*
X126572821Y-90521105D01*
X126585892Y-90478013D01*
X126590306Y-90433200D01*
X126590306Y-89733200D01*
X126585892Y-89688387D01*
X126572821Y-89645295D01*
X126551594Y-89605582D01*
X126523027Y-89570773D01*
X126488218Y-89542206D01*
X126448505Y-89520979D01*
X126405413Y-89507908D01*
X126360600Y-89503494D01*
X124860600Y-89503494D01*
X124815787Y-89507908D01*
X124772695Y-89520979D01*
X124732982Y-89542206D01*
X124698173Y-89570773D01*
X124669606Y-89605582D01*
X124648379Y-89645295D01*
X124635308Y-89688387D01*
X124630894Y-89733200D01*
X124399473Y-89733200D01*
X124451967Y-89654637D01*
X124503121Y-89531140D01*
X124529200Y-89400036D01*
X124529200Y-89266364D01*
X124503121Y-89135260D01*
X124451967Y-89011763D01*
X124377703Y-88900618D01*
X124283182Y-88806097D01*
X124172037Y-88731833D01*
X124048540Y-88680679D01*
X123917436Y-88654600D01*
X123783764Y-88654600D01*
X123652660Y-88680679D01*
X123529163Y-88731833D01*
X123418018Y-88806097D01*
X123323497Y-88900618D01*
X123249233Y-89011763D01*
X123198079Y-89135260D01*
X123172000Y-89266364D01*
X121225205Y-89266364D01*
X121192860Y-89080120D01*
X121102854Y-88368395D01*
X121046626Y-87661059D01*
X121025333Y-86968218D01*
X121040129Y-86298980D01*
X121041824Y-86266364D01*
X123172000Y-86266364D01*
X123172000Y-86400036D01*
X123198079Y-86531140D01*
X123249233Y-86654637D01*
X123323497Y-86765782D01*
X123418018Y-86860303D01*
X123529163Y-86934567D01*
X123652660Y-86985721D01*
X123783764Y-87011800D01*
X123917436Y-87011800D01*
X124048540Y-86985721D01*
X124172037Y-86934567D01*
X124283182Y-86860303D01*
X124318354Y-86825131D01*
X124277219Y-86902089D01*
X124246719Y-87002635D01*
X124236420Y-87107200D01*
X124246719Y-87211765D01*
X124277219Y-87312311D01*
X124326749Y-87404975D01*
X124393405Y-87486195D01*
X124474625Y-87552851D01*
X124567289Y-87602381D01*
X124667835Y-87632881D01*
X124746205Y-87640600D01*
X124763676Y-87640600D01*
X124772695Y-87645421D01*
X124815787Y-87658492D01*
X124860600Y-87662906D01*
X125835965Y-87662906D01*
X127101601Y-88928542D01*
X127101600Y-92543794D01*
X126047500Y-92543794D01*
X126002687Y-92548208D01*
X125959595Y-92561279D01*
X125919882Y-92582506D01*
X125885073Y-92611073D01*
X125856506Y-92645882D01*
X125835279Y-92685595D01*
X125822208Y-92728687D01*
X125817794Y-92773500D01*
X125817794Y-95948500D01*
X125822208Y-95993313D01*
X125835279Y-96036405D01*
X125856506Y-96076118D01*
X125885073Y-96110927D01*
X125919882Y-96139494D01*
X125959595Y-96160721D01*
X126002687Y-96173792D01*
X126047500Y-96178206D01*
X126796800Y-96178206D01*
X126796800Y-97126537D01*
X126792746Y-97167700D01*
X126796800Y-97208863D01*
X126796800Y-97208869D01*
X126808929Y-97332015D01*
X126856858Y-97490016D01*
X126934691Y-97635631D01*
X127039436Y-97763264D01*
X127071418Y-97789511D01*
X129286494Y-100004588D01*
X129312736Y-100036564D01*
X129344712Y-100062806D01*
X129344714Y-100062808D01*
X129402507Y-100110237D01*
X129440368Y-100141309D01*
X129585983Y-100219142D01*
X129743984Y-100267071D01*
X129867130Y-100279200D01*
X129867137Y-100279200D01*
X129908300Y-100283254D01*
X129949463Y-100279200D01*
X141068537Y-100279200D01*
X141109700Y-100283254D01*
X141150863Y-100279200D01*
X141150870Y-100279200D01*
X141274016Y-100267071D01*
X141432017Y-100219142D01*
X141577632Y-100141309D01*
X141705264Y-100036564D01*
X141731511Y-100004582D01*
X143946588Y-97789506D01*
X143978564Y-97763264D01*
X144020791Y-97711811D01*
X144083309Y-97635632D01*
X144161142Y-97490017D01*
X144209071Y-97332016D01*
X144210400Y-97318523D01*
X144221200Y-97208870D01*
X144221200Y-97208863D01*
X144225254Y-97167700D01*
X144221200Y-97126537D01*
X144221200Y-96178206D01*
X144970500Y-96178206D01*
X145015313Y-96173792D01*
X145058405Y-96160721D01*
X145098118Y-96139494D01*
X145132927Y-96110927D01*
X145161494Y-96076118D01*
X145182721Y-96036405D01*
X145195792Y-95993313D01*
X145200206Y-95948500D01*
X145200206Y-92773500D01*
X145195792Y-92728687D01*
X145182721Y-92685595D01*
X145161494Y-92645882D01*
X145132927Y-92611073D01*
X145098118Y-92582506D01*
X145058405Y-92561279D01*
X145015313Y-92548208D01*
X144970500Y-92543794D01*
X141795500Y-92543794D01*
X141750687Y-92548208D01*
X141707595Y-92561279D01*
X141667882Y-92582506D01*
X141633073Y-92611073D01*
X141604506Y-92645882D01*
X141583279Y-92685595D01*
X141570208Y-92728687D01*
X141565794Y-92773500D01*
X141565794Y-95948500D01*
X141570208Y-95993313D01*
X141583279Y-96036405D01*
X141604506Y-96076118D01*
X141633073Y-96110927D01*
X141667882Y-96139494D01*
X141707595Y-96160721D01*
X141750687Y-96173792D01*
X141795500Y-96178206D01*
X142544801Y-96178206D01*
X142544801Y-96820505D01*
X140762507Y-98602800D01*
X130255494Y-98602800D01*
X128704083Y-97051389D01*
X133070059Y-97051389D01*
X133435011Y-97518093D01*
X134090780Y-97862045D01*
X134801050Y-98071455D01*
X135538527Y-98138274D01*
X136274869Y-98059934D01*
X136981780Y-97839447D01*
X137582989Y-97518093D01*
X137947941Y-97051389D01*
X135509000Y-94612447D01*
X133070059Y-97051389D01*
X128704083Y-97051389D01*
X128473200Y-96820507D01*
X128473200Y-96178206D01*
X129222500Y-96178206D01*
X129267313Y-96173792D01*
X129310405Y-96160721D01*
X129350118Y-96139494D01*
X129384927Y-96110927D01*
X129413494Y-96076118D01*
X129434721Y-96036405D01*
X129447792Y-95993313D01*
X129452206Y-95948500D01*
X129452206Y-94390527D01*
X131731726Y-94390527D01*
X131810066Y-95126869D01*
X132030553Y-95833780D01*
X132351907Y-96434989D01*
X132818611Y-96799941D01*
X135257553Y-94361000D01*
X135760447Y-94361000D01*
X138199389Y-96799941D01*
X138666093Y-96434989D01*
X139010045Y-95779220D01*
X139219455Y-95068950D01*
X139286274Y-94331473D01*
X139207934Y-93595131D01*
X138987447Y-92888220D01*
X138666093Y-92287011D01*
X138199389Y-91922059D01*
X135760447Y-94361000D01*
X135257553Y-94361000D01*
X132818611Y-91922059D01*
X132351907Y-92287011D01*
X132007955Y-92942780D01*
X131798545Y-93653050D01*
X131731726Y-94390527D01*
X129452206Y-94390527D01*
X129452206Y-92773500D01*
X129447792Y-92728687D01*
X129434721Y-92685595D01*
X129413494Y-92645882D01*
X129384927Y-92611073D01*
X129350118Y-92582506D01*
X129310405Y-92561279D01*
X129267313Y-92548208D01*
X129222500Y-92543794D01*
X128168400Y-92543794D01*
X128168400Y-91670611D01*
X133070059Y-91670611D01*
X135509000Y-94109553D01*
X137947941Y-91670611D01*
X137582989Y-91203907D01*
X136927220Y-90859955D01*
X136216950Y-90650545D01*
X135479473Y-90583726D01*
X134743131Y-90662066D01*
X134036220Y-90882553D01*
X133435011Y-91203907D01*
X133070059Y-91670611D01*
X128168400Y-91670611D01*
X128168400Y-88733794D01*
X128170980Y-88707600D01*
X128168032Y-88677670D01*
X128160681Y-88603035D01*
X128130181Y-88502489D01*
X128080651Y-88409825D01*
X128013995Y-88328605D01*
X127993645Y-88311904D01*
X126590306Y-86908565D01*
X126590306Y-86733200D01*
X126585892Y-86688387D01*
X126572821Y-86645295D01*
X126551594Y-86605582D01*
X126523027Y-86570773D01*
X126488218Y-86542206D01*
X126448505Y-86520979D01*
X126405413Y-86507908D01*
X126360600Y-86503494D01*
X124860600Y-86503494D01*
X124815787Y-86507908D01*
X124772695Y-86520979D01*
X124732982Y-86542206D01*
X124698173Y-86570773D01*
X124691246Y-86579213D01*
X124667835Y-86581519D01*
X124567289Y-86612019D01*
X124474625Y-86661549D01*
X124414231Y-86711113D01*
X124451967Y-86654637D01*
X124503121Y-86531140D01*
X124529200Y-86400036D01*
X124529200Y-86266364D01*
X124503121Y-86135260D01*
X124451967Y-86011763D01*
X124377703Y-85900618D01*
X124283182Y-85806097D01*
X124172037Y-85731833D01*
X124048540Y-85680679D01*
X123917436Y-85654600D01*
X123783764Y-85654600D01*
X123652660Y-85680679D01*
X123529163Y-85731833D01*
X123418018Y-85806097D01*
X123323497Y-85900618D01*
X123249233Y-86011763D01*
X123198079Y-86135260D01*
X123172000Y-86266364D01*
X121041824Y-86266364D01*
X121044980Y-86205648D01*
X121054428Y-86034856D01*
X121063663Y-85880491D01*
X121072144Y-85750900D01*
X121079285Y-85655290D01*
X121084441Y-85602815D01*
X121098585Y-85500613D01*
X121099172Y-85485687D01*
X121096836Y-85470932D01*
X121091667Y-85456918D01*
X121083863Y-85444180D01*
X121073724Y-85433211D01*
X121061640Y-85424429D01*
X121048075Y-85418175D01*
X121033550Y-85414686D01*
X121020909Y-85413999D01*
X120615473Y-85425683D01*
X120522701Y-85427623D01*
X119981705Y-85409985D01*
X119450656Y-85343873D01*
X118930864Y-85230395D01*
X118425173Y-85070721D01*
X117936424Y-84866017D01*
X117467414Y-84617426D01*
X117020992Y-84326114D01*
X116599959Y-83993208D01*
X116273793Y-83683200D01*
X122120894Y-83683200D01*
X122120894Y-84683200D01*
X122125308Y-84728013D01*
X122138379Y-84771105D01*
X122159606Y-84810818D01*
X122188173Y-84845627D01*
X122222982Y-84874194D01*
X122262695Y-84895421D01*
X122305787Y-84908492D01*
X122350600Y-84912906D01*
X123150600Y-84912906D01*
X123195413Y-84908492D01*
X123238505Y-84895421D01*
X123278218Y-84874194D01*
X123313027Y-84845627D01*
X123341594Y-84810818D01*
X123362821Y-84771105D01*
X123375892Y-84728013D01*
X123380306Y-84683200D01*
X123380306Y-83683200D01*
X124330894Y-83683200D01*
X124330894Y-84683200D01*
X124335308Y-84728013D01*
X124348379Y-84771105D01*
X124369606Y-84810818D01*
X124398173Y-84845627D01*
X124432982Y-84874194D01*
X124472695Y-84895421D01*
X124515787Y-84908492D01*
X124560600Y-84912906D01*
X125360600Y-84912906D01*
X125405413Y-84908492D01*
X125448505Y-84895421D01*
X125488218Y-84874194D01*
X125523027Y-84845627D01*
X125551594Y-84810818D01*
X125572821Y-84771105D01*
X125585892Y-84728013D01*
X125590306Y-84683200D01*
X125590306Y-83683200D01*
X125585892Y-83638387D01*
X125572821Y-83595295D01*
X125551594Y-83555582D01*
X125523027Y-83520773D01*
X125488218Y-83492206D01*
X125448505Y-83470979D01*
X125405413Y-83457908D01*
X125360600Y-83453494D01*
X124560600Y-83453494D01*
X124515787Y-83457908D01*
X124472695Y-83470979D01*
X124432982Y-83492206D01*
X124398173Y-83520773D01*
X124369606Y-83555582D01*
X124348379Y-83595295D01*
X124335308Y-83638387D01*
X124330894Y-83683200D01*
X123380306Y-83683200D01*
X123375892Y-83638387D01*
X123362821Y-83595295D01*
X123341594Y-83555582D01*
X123313027Y-83520773D01*
X123278218Y-83492206D01*
X123238505Y-83470979D01*
X123195413Y-83457908D01*
X123150600Y-83453494D01*
X122350600Y-83453494D01*
X122305787Y-83457908D01*
X122262695Y-83470979D01*
X122222982Y-83492206D01*
X122188173Y-83520773D01*
X122159606Y-83555582D01*
X122138379Y-83595295D01*
X122125308Y-83638387D01*
X122120894Y-83683200D01*
X116273793Y-83683200D01*
X116206851Y-83619575D01*
X115917775Y-83297559D01*
X115586798Y-82864174D01*
X115300746Y-82408299D01*
X115059228Y-81929408D01*
X114862119Y-81427243D01*
X114709326Y-80901489D01*
X114600620Y-80350835D01*
X114593349Y-80299397D01*
X114572974Y-80095693D01*
X114559589Y-79860096D01*
X114554104Y-79640000D01*
X115860973Y-79640000D01*
X115872253Y-79754523D01*
X115905658Y-79864646D01*
X115959905Y-79966135D01*
X116032909Y-80055091D01*
X116121865Y-80128095D01*
X116223354Y-80182342D01*
X116333477Y-80215747D01*
X116448000Y-80227027D01*
X117024150Y-80224200D01*
X117170200Y-80078150D01*
X117170200Y-78917800D01*
X116009850Y-78917800D01*
X115863800Y-79063850D01*
X115860973Y-79640000D01*
X114554104Y-79640000D01*
X114553255Y-79605973D01*
X114554034Y-79347367D01*
X114561930Y-79098370D01*
X114576897Y-78873185D01*
X114598764Y-78686019D01*
X114689210Y-78210878D01*
X114790957Y-77840000D01*
X115860973Y-77840000D01*
X115863800Y-78416150D01*
X116009850Y-78562200D01*
X117170200Y-78562200D01*
X117170200Y-77401850D01*
X117525800Y-77401850D01*
X117525800Y-78562200D01*
X117545800Y-78562200D01*
X117545800Y-78917800D01*
X117525800Y-78917800D01*
X117525800Y-80078150D01*
X117671850Y-80224200D01*
X118248000Y-80227027D01*
X118362523Y-80215747D01*
X118472646Y-80182342D01*
X118574135Y-80128095D01*
X118663091Y-80055091D01*
X118736095Y-79966135D01*
X118790342Y-79864646D01*
X118823747Y-79754523D01*
X118835027Y-79640000D01*
X118832579Y-79141165D01*
X118887847Y-79274593D01*
X119011359Y-79459441D01*
X119168559Y-79616641D01*
X119353407Y-79740153D01*
X119558799Y-79825229D01*
X119776843Y-79868600D01*
X119999157Y-79868600D01*
X120217201Y-79825229D01*
X120218394Y-79824735D01*
X120392303Y-79998644D01*
X120409004Y-80018994D01*
X120490224Y-80085650D01*
X120582888Y-80135180D01*
X120683434Y-80165680D01*
X120761804Y-80173399D01*
X120761805Y-80173399D01*
X120787999Y-80175979D01*
X120814193Y-80173399D01*
X126231258Y-80173399D01*
X127127000Y-81069142D01*
X127127001Y-83712458D01*
X125835965Y-85003494D01*
X124860600Y-85003494D01*
X124815787Y-85007908D01*
X124772695Y-85020979D01*
X124732982Y-85042206D01*
X124698173Y-85070773D01*
X124669606Y-85105582D01*
X124648379Y-85145295D01*
X124635308Y-85188387D01*
X124630894Y-85233200D01*
X124630894Y-85933200D01*
X124635308Y-85978013D01*
X124648379Y-86021105D01*
X124669606Y-86060818D01*
X124698173Y-86095627D01*
X124732982Y-86124194D01*
X124772695Y-86145421D01*
X124815787Y-86158492D01*
X124860600Y-86162906D01*
X126360600Y-86162906D01*
X126405413Y-86158492D01*
X126448505Y-86145421D01*
X126488218Y-86124194D01*
X126523027Y-86095627D01*
X126551594Y-86060818D01*
X126572821Y-86021105D01*
X126585892Y-85978013D01*
X126590306Y-85933200D01*
X126590306Y-85757835D01*
X128019045Y-84329096D01*
X128039395Y-84312395D01*
X128106051Y-84231175D01*
X128155581Y-84138511D01*
X128186081Y-84037965D01*
X128193800Y-83959595D01*
X128193800Y-83959594D01*
X128196380Y-83933400D01*
X128193800Y-83907206D01*
X128193800Y-80874386D01*
X128196379Y-80848199D01*
X128193800Y-80822012D01*
X128193800Y-80822005D01*
X128186081Y-80743635D01*
X128155581Y-80643089D01*
X128106051Y-80550425D01*
X128104442Y-80548465D01*
X128056093Y-80489551D01*
X128056091Y-80489549D01*
X128039395Y-80469205D01*
X128019051Y-80452509D01*
X126847892Y-79281351D01*
X126831194Y-79261004D01*
X126749974Y-79194348D01*
X126657310Y-79144818D01*
X126556764Y-79114318D01*
X126478394Y-79106599D01*
X126478386Y-79106599D01*
X126452199Y-79104020D01*
X126426012Y-79106599D01*
X121008940Y-79106599D01*
X120972735Y-79070394D01*
X120973229Y-79069201D01*
X121016600Y-78851157D01*
X121016600Y-78628843D01*
X150763403Y-78628843D01*
X150763403Y-78851157D01*
X150806774Y-79069201D01*
X150891850Y-79274593D01*
X151015362Y-79459441D01*
X151172562Y-79616641D01*
X151357410Y-79740153D01*
X151562802Y-79825229D01*
X151780846Y-79868600D01*
X152003160Y-79868600D01*
X152221204Y-79825229D01*
X152426596Y-79740153D01*
X152611444Y-79616641D01*
X152768644Y-79459441D01*
X152892156Y-79274593D01*
X152947424Y-79141165D01*
X152944976Y-79640000D01*
X152956256Y-79754523D01*
X152989661Y-79864646D01*
X153043908Y-79966135D01*
X153116912Y-80055091D01*
X153205868Y-80128095D01*
X153307357Y-80182342D01*
X153417480Y-80215747D01*
X153532003Y-80227027D01*
X154108153Y-80224200D01*
X154254203Y-80078150D01*
X154254203Y-78917800D01*
X154609803Y-78917800D01*
X154609803Y-80078150D01*
X154755853Y-80224200D01*
X155332003Y-80227027D01*
X155446526Y-80215747D01*
X155556649Y-80182342D01*
X155658138Y-80128095D01*
X155747094Y-80055091D01*
X155820098Y-79966135D01*
X155874345Y-79864646D01*
X155907750Y-79754523D01*
X155919030Y-79640000D01*
X155916203Y-79063850D01*
X155770153Y-78917800D01*
X154609803Y-78917800D01*
X154254203Y-78917800D01*
X154234203Y-78917800D01*
X154234203Y-78562200D01*
X154254203Y-78562200D01*
X154254203Y-77401850D01*
X154609803Y-77401850D01*
X154609803Y-78562200D01*
X155770153Y-78562200D01*
X155916203Y-78416150D01*
X155919030Y-77840000D01*
X155907750Y-77725477D01*
X155874345Y-77615354D01*
X155820098Y-77513865D01*
X155747094Y-77424909D01*
X155658138Y-77351905D01*
X155556649Y-77297658D01*
X155446526Y-77264253D01*
X155332003Y-77252973D01*
X154755853Y-77255800D01*
X154609803Y-77401850D01*
X154254203Y-77401850D01*
X154108153Y-77255800D01*
X153532003Y-77252973D01*
X153417480Y-77264253D01*
X153307357Y-77297658D01*
X153205868Y-77351905D01*
X153116912Y-77424909D01*
X153043908Y-77513865D01*
X152989661Y-77615354D01*
X152956256Y-77725477D01*
X152944976Y-77840000D01*
X152947424Y-78338835D01*
X152892156Y-78205407D01*
X152768644Y-78020559D01*
X152611444Y-77863359D01*
X152426596Y-77739847D01*
X152221204Y-77654771D01*
X152003160Y-77611400D01*
X151780846Y-77611400D01*
X151562802Y-77654771D01*
X151357410Y-77739847D01*
X151172562Y-77863359D01*
X151015362Y-78020559D01*
X150891850Y-78205407D01*
X150806774Y-78410799D01*
X150763403Y-78628843D01*
X121016600Y-78628843D01*
X120973229Y-78410799D01*
X120888153Y-78205407D01*
X120764641Y-78020559D01*
X120607441Y-77863359D01*
X120422593Y-77739847D01*
X120217201Y-77654771D01*
X119999157Y-77611400D01*
X119776843Y-77611400D01*
X119558799Y-77654771D01*
X119353407Y-77739847D01*
X119168559Y-77863359D01*
X119011359Y-78020559D01*
X118887847Y-78205407D01*
X118832579Y-78338835D01*
X118835027Y-77840000D01*
X118823747Y-77725477D01*
X118790342Y-77615354D01*
X118736095Y-77513865D01*
X118663091Y-77424909D01*
X118574135Y-77351905D01*
X118472646Y-77297658D01*
X118362523Y-77264253D01*
X118248000Y-77252973D01*
X117671850Y-77255800D01*
X117525800Y-77401850D01*
X117170200Y-77401850D01*
X117024150Y-77255800D01*
X116448000Y-77252973D01*
X116333477Y-77264253D01*
X116223354Y-77297658D01*
X116121865Y-77351905D01*
X116032909Y-77424909D01*
X115959905Y-77513865D01*
X115905658Y-77615354D01*
X115872253Y-77725477D01*
X115860973Y-77840000D01*
X114790957Y-77840000D01*
X114834918Y-77679760D01*
X115023822Y-77174300D01*
X115256250Y-76693560D01*
X115532499Y-76236884D01*
X115852939Y-75803609D01*
X116218418Y-75392609D01*
X116446949Y-75168622D01*
X116863526Y-74813872D01*
X117303501Y-74503573D01*
X117766882Y-74237511D01*
X118253184Y-74015923D01*
X118761961Y-73839091D01*
X119293658Y-73707114D01*
X119555264Y-73659603D01*
X119811844Y-73625426D01*
X120069872Y-73605212D01*
X120346088Y-73597709D01*
X120657154Y-73601761D01*
X120809477Y-73606998D01*
X121050662Y-73620719D01*
X121265483Y-73641774D01*
X121470791Y-73672300D01*
X121683593Y-73714607D01*
X121919424Y-73770783D01*
X122351151Y-73898347D01*
X122845486Y-74091437D01*
X123321279Y-74328461D01*
X123774893Y-74606883D01*
X124202364Y-74924004D01*
X124599806Y-75277149D01*
X124963338Y-75663619D01*
X125290204Y-76082140D01*
X125390782Y-76224167D01*
X125400568Y-76235453D01*
X125412368Y-76244612D01*
X125425728Y-76251294D01*
X125440135Y-76255241D01*
X125455035Y-76256301D01*
X125469856Y-76254434D01*
X125484028Y-76249712D01*
X125497006Y-76242315D01*
X125504533Y-76236231D01*
X125794526Y-75969691D01*
X126263215Y-75555502D01*
X126897824Y-75043930D01*
X127549277Y-74572576D01*
X128212781Y-74144825D01*
X128884322Y-73763635D01*
X129182372Y-73605878D01*
X129194826Y-73597629D01*
X129205431Y-73587110D01*
X129213781Y-73574723D01*
X129219553Y-73560946D01*
X129222527Y-73546307D01*
X129222588Y-73531369D01*
X129219733Y-73516707D01*
X129214073Y-73502883D01*
X129201336Y-73485388D01*
X128825054Y-73098705D01*
X128688722Y-72955976D01*
X128217332Y-72417280D01*
X127790601Y-71854704D01*
X127408006Y-71267815D01*
X127069717Y-70656969D01*
X126775850Y-70022396D01*
X126526593Y-69364440D01*
X126322101Y-68683333D01*
X126162437Y-67978781D01*
X126116607Y-67715350D01*
X126049368Y-67185792D01*
X126010323Y-66639574D01*
X125999541Y-66088099D01*
X126017107Y-65543333D01*
X126063061Y-65017257D01*
X126137591Y-64520417D01*
X126137749Y-64519562D01*
X126138926Y-64509357D01*
X126141940Y-64445796D01*
X126141182Y-64430878D01*
X126137528Y-64416394D01*
X126131118Y-64402901D01*
X126123590Y-64392490D01*
X126100951Y-64366176D01*
X126090146Y-64355862D01*
X126077536Y-64347854D01*
X126066456Y-64343313D01*
X125847535Y-64273107D01*
X125525859Y-64143025D01*
X125196053Y-63981063D01*
X124869738Y-63793459D01*
X124558826Y-63586718D01*
X124274200Y-63366705D01*
X124190633Y-63294835D01*
X123848216Y-62960420D01*
X123543666Y-62596168D01*
X123373486Y-62346200D01*
X127838094Y-62346200D01*
X127838094Y-67346200D01*
X127842508Y-67391013D01*
X127855579Y-67434105D01*
X127876806Y-67473818D01*
X127905373Y-67508627D01*
X127940182Y-67537194D01*
X127979895Y-67558421D01*
X128022987Y-67571492D01*
X128067800Y-67575906D01*
X144067800Y-67575906D01*
X144112613Y-67571492D01*
X144155705Y-67558421D01*
X144195418Y-67537194D01*
X144230227Y-67508627D01*
X144258794Y-67473818D01*
X144280021Y-67434105D01*
X144293092Y-67391013D01*
X144297506Y-67346200D01*
X144297506Y-62346200D01*
X144293092Y-62301387D01*
X144280021Y-62258295D01*
X144258794Y-62218582D01*
X144230227Y-62183773D01*
X144195418Y-62155206D01*
X144155705Y-62133979D01*
X144112613Y-62120908D01*
X144067800Y-62116494D01*
X128067800Y-62116494D01*
X128022987Y-62120908D01*
X127979895Y-62133979D01*
X127940182Y-62155206D01*
X127905373Y-62183773D01*
X127876806Y-62218582D01*
X127855579Y-62258295D01*
X127842508Y-62301387D01*
X127838094Y-62346200D01*
X123373486Y-62346200D01*
X123277126Y-62204663D01*
X123049851Y-61789590D01*
X122863115Y-61354664D01*
X122718171Y-60903603D01*
X122616261Y-60440116D01*
X122558621Y-59967945D01*
X122546477Y-59490798D01*
X122581034Y-59012375D01*
X122663632Y-58535682D01*
X122745111Y-58222750D01*
X122905908Y-57763893D01*
X123108508Y-57328601D01*
X123350613Y-56918517D01*
X123629740Y-56535869D01*
X123943353Y-56182938D01*
X124288965Y-55861961D01*
X124664057Y-55575211D01*
X125066088Y-55324964D01*
X125492580Y-55113454D01*
X125941016Y-54942944D01*
X126408886Y-54815692D01*
X126895009Y-54733731D01*
X127049765Y-54718020D01*
X127532820Y-54701341D01*
X128010403Y-54732307D01*
G04 #@! TA.AperFunction,Conductor*
D21*
G36*
X128010403Y-54732307D02*
G01*
X128480411Y-54809291D01*
X128939352Y-54930700D01*
X129383754Y-55094942D01*
X129810101Y-55300393D01*
X130214923Y-55545441D01*
X130594743Y-55828470D01*
X130946104Y-56147845D01*
X131265521Y-56501934D01*
X131550863Y-56890868D01*
X131605601Y-56973433D01*
X131605967Y-56973980D01*
X131659586Y-57053359D01*
X131660233Y-57054301D01*
X131697823Y-57108189D01*
X131700559Y-57111871D01*
X131716268Y-57131728D01*
X131726640Y-57142478D01*
X131738910Y-57150999D01*
X131752606Y-57156962D01*
X131767202Y-57160138D01*
X131782137Y-57160406D01*
X131794645Y-57158342D01*
X131795677Y-57158082D01*
X131805132Y-57155032D01*
X131836301Y-57142681D01*
X131837556Y-57142171D01*
X131904963Y-57114064D01*
X131905358Y-57113898D01*
X132000050Y-57073787D01*
X132000297Y-57073682D01*
X132112908Y-57025513D01*
X132318967Y-56940321D01*
X132907891Y-56730220D01*
X133523377Y-56556940D01*
X134158990Y-56421867D01*
X134807423Y-56326658D01*
X135461689Y-56272927D01*
X135885396Y-56262163D01*
X136541560Y-56283870D01*
X137202062Y-56350407D01*
X137859719Y-56460452D01*
X138506833Y-56612640D01*
X139135746Y-56805569D01*
X139740290Y-57038376D01*
X139842616Y-57081864D01*
X139843002Y-57082027D01*
X139933234Y-57119792D01*
X139933883Y-57120060D01*
X139996558Y-57145615D01*
X139999046Y-57146579D01*
X140024619Y-57155976D01*
X140039078Y-57159729D01*
X140053991Y-57160589D01*
X140068785Y-57158524D01*
X140082892Y-57153611D01*
X140100520Y-57142283D01*
X140104689Y-57138706D01*
X140115432Y-57127382D01*
X140142062Y-57092819D01*
X140144056Y-57090109D01*
X140188602Y-57026686D01*
X140189468Y-57025426D01*
X140244381Y-56943810D01*
X140446174Y-56662723D01*
X140676562Y-56383742D01*
X140924965Y-56118221D01*
X141180059Y-55878213D01*
X141431620Y-55674665D01*
X141483256Y-55637116D01*
X141901516Y-55366872D01*
X142335367Y-55143153D01*
X142783067Y-54965023D01*
X143241443Y-54832464D01*
X143707397Y-54745451D01*
X144177761Y-54703971D01*
X144649402Y-54708011D01*
X145119149Y-54757568D01*
X145583889Y-54852640D01*
X146040461Y-54993226D01*
X146485720Y-55179329D01*
X146916556Y-55410980D01*
X147330942Y-55688954D01*
X147359363Y-55710668D01*
X147483515Y-55814180D01*
X147627562Y-55944735D01*
X147781753Y-56092680D01*
X147935855Y-56247838D01*
X148079814Y-56400145D01*
X148203433Y-56539322D01*
X148297080Y-56655571D01*
X148367633Y-56752851D01*
X148633824Y-57170983D01*
X148854506Y-57605894D01*
X149030135Y-58055472D01*
X149160425Y-58516455D01*
X149245075Y-58985583D01*
X149283794Y-59459561D01*
X149276275Y-59935098D01*
X149222210Y-60408951D01*
X149121299Y-60877823D01*
X148973226Y-61338472D01*
X148777038Y-61789080D01*
X148726613Y-61888537D01*
X148543754Y-62213244D01*
X148343156Y-62513074D01*
X148109733Y-62811017D01*
X148096858Y-62826295D01*
X147812230Y-63129498D01*
X147490489Y-63414613D01*
X147139906Y-63676201D01*
X146770119Y-63907571D01*
X146390954Y-64102065D01*
X146009960Y-64254126D01*
X145943578Y-64277096D01*
X145942472Y-64277489D01*
X145848580Y-64311607D01*
X145846692Y-64312321D01*
X145778214Y-64339278D01*
X145772724Y-64341693D01*
X145741082Y-64357125D01*
X145728362Y-64364958D01*
X145717415Y-64375121D01*
X145707074Y-64390084D01*
X145705293Y-64393463D01*
X145699657Y-64407296D01*
X145696593Y-64425295D01*
X145694570Y-64466936D01*
X145694648Y-64475690D01*
X145699934Y-64555188D01*
X145700217Y-64558413D01*
X145711979Y-64666007D01*
X145712245Y-64668157D01*
X145729646Y-64794076D01*
X145757542Y-64998042D01*
X145801552Y-65453761D01*
X145825078Y-65929484D01*
X145827861Y-66408937D01*
X145809640Y-66875214D01*
X145770155Y-67312349D01*
X145748235Y-67482660D01*
X145626805Y-68187688D01*
X145458798Y-68874254D01*
X145244755Y-69541881D01*
X144985363Y-70189166D01*
X144681319Y-70814654D01*
X144333296Y-71416942D01*
X143941966Y-71994603D01*
X143508012Y-72546185D01*
X143031193Y-73071253D01*
X142634961Y-73477983D01*
X142625636Y-73489653D01*
X142618767Y-73502918D01*
X142614618Y-73517268D01*
X142613349Y-73532152D01*
X142615007Y-73546998D01*
X142619530Y-73561234D01*
X142626743Y-73574315D01*
X142636369Y-73585737D01*
X142653542Y-73598316D01*
X142960605Y-73762913D01*
X143560420Y-74101862D01*
X144235910Y-74527235D01*
X144883064Y-74982579D01*
X145495263Y-75463172D01*
X146066717Y-75965018D01*
X146337716Y-76217286D01*
X146349595Y-76226343D01*
X146363013Y-76232909D01*
X146377453Y-76236731D01*
X146392362Y-76237662D01*
X146407166Y-76235667D01*
X146421296Y-76230822D01*
X146434210Y-76223314D01*
X146445411Y-76213431D01*
X146451064Y-76206600D01*
X146602444Y-76000362D01*
X146727626Y-75836106D01*
X147078491Y-75432159D01*
X147463608Y-75062632D01*
X147880156Y-74729162D01*
X148324574Y-74434216D01*
X148793289Y-74180249D01*
X149282738Y-73969695D01*
X149790814Y-73804501D01*
X149985271Y-73752615D01*
X150178745Y-73705699D01*
X150353943Y-73670092D01*
X150522729Y-73644185D01*
X150697051Y-73626448D01*
X150888834Y-73615472D01*
X151109574Y-73609939D01*
X151370715Y-73608511D01*
X151439741Y-73608618D01*
X151675622Y-73610506D01*
X151873256Y-73615666D01*
X152043566Y-73625295D01*
X152197457Y-73640567D01*
X152346225Y-73662741D01*
X152501318Y-73693204D01*
X152673921Y-73733405D01*
X152873241Y-73784291D01*
X153356432Y-73932866D01*
X153853221Y-74135531D01*
X154327106Y-74382753D01*
X154778040Y-74674478D01*
X155205801Y-75010622D01*
X155610343Y-75391310D01*
X155905939Y-75717233D01*
X156235489Y-76146743D01*
X156521784Y-76601428D01*
X156764709Y-77080867D01*
X156963900Y-77584355D01*
X157119001Y-78111279D01*
X157229680Y-78661414D01*
X157245715Y-78786877D01*
X157262221Y-78993082D01*
X157272464Y-79227867D01*
X157276380Y-79477976D01*
X157273951Y-79729989D01*
X157265189Y-79970811D01*
X157250168Y-80186866D01*
X157229006Y-80365261D01*
X157192099Y-80578920D01*
X157064785Y-81117899D01*
X156891980Y-81635275D01*
X156673056Y-82133082D01*
X156407583Y-82612337D01*
X156094420Y-83074989D01*
X156061282Y-83118521D01*
X155930361Y-83276851D01*
X155772162Y-83452583D01*
X155596152Y-83636200D01*
X155412231Y-83817804D01*
X155230316Y-83987517D01*
X155060424Y-84135453D01*
X154912041Y-84252282D01*
X154803818Y-84329646D01*
X154334075Y-84629302D01*
X153850020Y-84881701D01*
X153352413Y-85086987D01*
X152843038Y-85244627D01*
X152323682Y-85354075D01*
X151796064Y-85414784D01*
X151260183Y-85426200D01*
X150859341Y-85416130D01*
X150844443Y-85417220D01*
X150830044Y-85421196D01*
X150816697Y-85427905D01*
X150804916Y-85437088D01*
X150795152Y-85448394D01*
X150787782Y-85461387D01*
X150783088Y-85475568D01*
X150781251Y-85490392D01*
X150781833Y-85501895D01*
X150796352Y-85616353D01*
X150817109Y-85815872D01*
X150835264Y-86080748D01*
X150847684Y-86377605D01*
X150854324Y-86696196D01*
X150855154Y-87026390D01*
X150850156Y-87357745D01*
X150839318Y-87680253D01*
X150822645Y-87983542D01*
X150800115Y-88258036D01*
X150794043Y-88317793D01*
X150745644Y-88725077D01*
X150684481Y-89145401D01*
X150612552Y-89568457D01*
X150531937Y-89983389D01*
X150444715Y-90379456D01*
X150353036Y-90745638D01*
X150258795Y-91071997D01*
X150258537Y-91072819D01*
X150258300Y-91073588D01*
X150233419Y-91155956D01*
X150232875Y-91157847D01*
X150216532Y-91217472D01*
X150214999Y-91224266D01*
X150210715Y-91248342D01*
X150209553Y-91263234D01*
X150211318Y-91278068D01*
X150215942Y-91292271D01*
X150223249Y-91305300D01*
X150232958Y-91316653D01*
X150244695Y-91325893D01*
X150258008Y-91332667D01*
X150271621Y-91336572D01*
X150278883Y-91337941D01*
X150283073Y-91338611D01*
X150330980Y-91344905D01*
X150331842Y-91345013D01*
X150416897Y-91355203D01*
X150417258Y-91355245D01*
X150530599Y-91368275D01*
X150530842Y-91368303D01*
X150662162Y-91382974D01*
X151256840Y-91472292D01*
X151841901Y-91608360D01*
X152407415Y-91788504D01*
X152951596Y-92010898D01*
X153472559Y-92273686D01*
X153968523Y-92575065D01*
X154437592Y-92913171D01*
X154877946Y-93286190D01*
X155287717Y-93692273D01*
X155665073Y-94129596D01*
X156008147Y-94596314D01*
X156315086Y-95090593D01*
X156584039Y-95610600D01*
X156813168Y-96154529D01*
X157000609Y-96720538D01*
X157144504Y-97306793D01*
X157243080Y-97911930D01*
X157254360Y-98032678D01*
X157264107Y-98206435D01*
X157270714Y-98409717D01*
X157274138Y-98630667D01*
X157274354Y-98857711D01*
X157271362Y-99079342D01*
X157265170Y-99283951D01*
X157255824Y-99459783D01*
X157243396Y-99595549D01*
X157223988Y-99740951D01*
X157111834Y-100354200D01*
X156953946Y-100947513D01*
X156750899Y-101520502D01*
X156503488Y-102071572D01*
X156212457Y-102599234D01*
X155878582Y-103101900D01*
X155502569Y-103578067D01*
X155084481Y-104026898D01*
X154929770Y-104176290D01*
X154516802Y-104538202D01*
X154089966Y-104858491D01*
X153638718Y-105144833D01*
X153152657Y-105404484D01*
X152817088Y-105560043D01*
X152248782Y-105782519D01*
X151676879Y-105955166D01*
X151098940Y-106078792D01*
X150513044Y-106153929D01*
X149933230Y-106180688D01*
X149332063Y-106159948D01*
X148733952Y-106090716D01*
X148142911Y-105973786D01*
X147563009Y-105809975D01*
X146998238Y-105600078D01*
X146452082Y-105344651D01*
X146150467Y-105179011D01*
X145640254Y-104854496D01*
X145160363Y-104491276D01*
X144712397Y-104091349D01*
X144298512Y-103657045D01*
X143920896Y-103190755D01*
X143581710Y-102694819D01*
X143283132Y-102171615D01*
X143026786Y-101622346D01*
X142993549Y-101540881D01*
X142911780Y-101326417D01*
X142832235Y-101099881D01*
X142759701Y-100875780D01*
X142699121Y-100669214D01*
X142655091Y-100494180D01*
X142653758Y-100488155D01*
X142653485Y-100486969D01*
X142637473Y-100419693D01*
X142632934Y-100406293D01*
X142614750Y-100365529D01*
X142607357Y-100352549D01*
X142597573Y-100341261D01*
X142580323Y-100328970D01*
X142551253Y-100313849D01*
X142537389Y-100308288D01*
X142522707Y-100305539D01*
X142501265Y-100306707D01*
X142452607Y-100316358D01*
X142436981Y-100321251D01*
X142360024Y-100354800D01*
X142356590Y-100356400D01*
X142242699Y-100412944D01*
X142230173Y-100419146D01*
X142137594Y-100462920D01*
X142015236Y-100518404D01*
X141877343Y-100579212D01*
X141738938Y-100638611D01*
X141472232Y-100748358D01*
X140653914Y-101049531D01*
X139827165Y-101301295D01*
X138992861Y-101503912D01*
X138152707Y-101657340D01*
X137308275Y-101761575D01*
X136461212Y-101816582D01*
X135613185Y-101822345D01*
X134765774Y-101778833D01*
X133920636Y-101686018D01*
X133079413Y-101543872D01*
X132243711Y-101352363D01*
X131415184Y-101111456D01*
X130594628Y-100820822D01*
X130444998Y-100761926D01*
X130198726Y-100660947D01*
X129958910Y-100558012D01*
X129739696Y-100459247D01*
X129554660Y-100370545D01*
X129359295Y-100272864D01*
X129345344Y-100267526D01*
X129330619Y-100265012D01*
X129315687Y-100265418D01*
X129301121Y-100268730D01*
X129287481Y-100274821D01*
X129275291Y-100283455D01*
X129265020Y-100294301D01*
X129257062Y-100306943D01*
X129251414Y-100322061D01*
X129223823Y-100429466D01*
X129172701Y-100621155D01*
X128994926Y-101194067D01*
X128788795Y-101728139D01*
X128551557Y-102228899D01*
X128280593Y-102701222D01*
X127973201Y-103150000D01*
X127626637Y-103580039D01*
X127237489Y-103996776D01*
X127129788Y-104102738D01*
X126749553Y-104447612D01*
X126358916Y-104755253D01*
X125943986Y-105036193D01*
X125491891Y-105299989D01*
X124997231Y-105543707D01*
X124453387Y-105759020D01*
X123890973Y-105930997D01*
X123314974Y-106058719D01*
X122730504Y-106141255D01*
X122142609Y-106177712D01*
X121556393Y-106167207D01*
X120976655Y-106108862D01*
X120419009Y-106008029D01*
X119827639Y-105853485D01*
X119256235Y-105653418D01*
X118706263Y-105408616D01*
X118179322Y-105119893D01*
X117677017Y-104788048D01*
X117200966Y-104413879D01*
X116752065Y-103997498D01*
X116558950Y-103797207D01*
X116219887Y-103409194D01*
X115919581Y-103011537D01*
X115649466Y-102592625D01*
X115401422Y-102141160D01*
X115186661Y-101687033D01*
X114987490Y-101181524D01*
X114830144Y-100671599D01*
X114711110Y-100145788D01*
X114626975Y-99592213D01*
X114617780Y-99503128D01*
X114603795Y-99306549D01*
X114594155Y-99082587D01*
X114589000Y-98844346D01*
X114588444Y-98604852D01*
X114592576Y-98377514D01*
X114601454Y-98175505D01*
X114615034Y-98012619D01*
X114702176Y-97426219D01*
X114834952Y-96835574D01*
X115011103Y-96268186D01*
X115231935Y-95720655D01*
X115498791Y-95189647D01*
X115813073Y-94671879D01*
X116176633Y-94163529D01*
X116211684Y-94119314D01*
X116326635Y-93984577D01*
X116468641Y-93828735D01*
X116629322Y-93660235D01*
X116799834Y-93487963D01*
X116971612Y-93320487D01*
X117135898Y-93166537D01*
X117283875Y-93034867D01*
X117407277Y-92933668D01*
X117441872Y-92907224D01*
X117953030Y-92546537D01*
X118472962Y-92235499D01*
X119005375Y-91972226D01*
X119553115Y-91755515D01*
X120118978Y-91584241D01*
X120705875Y-91457298D01*
X121318119Y-91373471D01*
X121413401Y-91363522D01*
X121414222Y-91363432D01*
X121510520Y-91352320D01*
X121511929Y-91352144D01*
X121578824Y-91343159D01*
X121584049Y-91342271D01*
X121610948Y-91336732D01*
X121625213Y-91332300D01*
X121638339Y-91325170D01*
X121649822Y-91315616D01*
X121659220Y-91304005D01*
X121666173Y-91290784D01*
X121670413Y-91276461D01*
X121671772Y-91261036D01*
X121671686Y-91254864D01*
X121670087Y-91240363D01*
X121660689Y-91195319D01*
X121660026Y-91192425D01*
X121639769Y-91111286D01*
X121639474Y-91110144D01*
X121610602Y-91001667D01*
X121610391Y-91000889D01*
X121605482Y-90983200D01*
X122120894Y-90983200D01*
X122120894Y-91983200D01*
X122125308Y-92028013D01*
X122138379Y-92071105D01*
X122159606Y-92110818D01*
X122188173Y-92145627D01*
X122222982Y-92174194D01*
X122262695Y-92195421D01*
X122305787Y-92208492D01*
X122350600Y-92212906D01*
X123150600Y-92212906D01*
X123195413Y-92208492D01*
X123238505Y-92195421D01*
X123278218Y-92174194D01*
X123313027Y-92145627D01*
X123341594Y-92110818D01*
X123362821Y-92071105D01*
X123375892Y-92028013D01*
X123380306Y-91983200D01*
X123380306Y-90983200D01*
X124330894Y-90983200D01*
X124330894Y-91983200D01*
X124335308Y-92028013D01*
X124348379Y-92071105D01*
X124369606Y-92110818D01*
X124398173Y-92145627D01*
X124432982Y-92174194D01*
X124472695Y-92195421D01*
X124515787Y-92208492D01*
X124560600Y-92212906D01*
X125360600Y-92212906D01*
X125405413Y-92208492D01*
X125448505Y-92195421D01*
X125488218Y-92174194D01*
X125523027Y-92145627D01*
X125551594Y-92110818D01*
X125572821Y-92071105D01*
X125585892Y-92028013D01*
X125590306Y-91983200D01*
X125590306Y-90983200D01*
X125585892Y-90938387D01*
X125572821Y-90895295D01*
X125551594Y-90855582D01*
X125523027Y-90820773D01*
X125488218Y-90792206D01*
X125448505Y-90770979D01*
X125405413Y-90757908D01*
X125360600Y-90753494D01*
X124560600Y-90753494D01*
X124515787Y-90757908D01*
X124472695Y-90770979D01*
X124432982Y-90792206D01*
X124398173Y-90820773D01*
X124369606Y-90855582D01*
X124348379Y-90895295D01*
X124335308Y-90938387D01*
X124330894Y-90983200D01*
X123380306Y-90983200D01*
X123375892Y-90938387D01*
X123362821Y-90895295D01*
X123341594Y-90855582D01*
X123313027Y-90820773D01*
X123278218Y-90792206D01*
X123238505Y-90770979D01*
X123195413Y-90757908D01*
X123150600Y-90753494D01*
X122350600Y-90753494D01*
X122305787Y-90757908D01*
X122262695Y-90770979D01*
X122222982Y-90792206D01*
X122188173Y-90820773D01*
X122159606Y-90855582D01*
X122138379Y-90895295D01*
X122125308Y-90938387D01*
X122120894Y-90983200D01*
X121605482Y-90983200D01*
X121575237Y-90874218D01*
X121469519Y-90476390D01*
X121315451Y-89786005D01*
X121225205Y-89266364D01*
X123172000Y-89266364D01*
X123172000Y-89400036D01*
X123198079Y-89531140D01*
X123249233Y-89654637D01*
X123323497Y-89765782D01*
X123418018Y-89860303D01*
X123529163Y-89934567D01*
X123652660Y-89985721D01*
X123783764Y-90011800D01*
X123917436Y-90011800D01*
X124048540Y-89985721D01*
X124172037Y-89934567D01*
X124283182Y-89860303D01*
X124377703Y-89765782D01*
X124399473Y-89733200D01*
X124630894Y-89733200D01*
X124630894Y-90433200D01*
X124635308Y-90478013D01*
X124648379Y-90521105D01*
X124669606Y-90560818D01*
X124698173Y-90595627D01*
X124732982Y-90624194D01*
X124772695Y-90645421D01*
X124815787Y-90658492D01*
X124860600Y-90662906D01*
X126360600Y-90662906D01*
X126405413Y-90658492D01*
X126448505Y-90645421D01*
X126488218Y-90624194D01*
X126523027Y-90595627D01*
X126551594Y-90560818D01*
X126572821Y-90521105D01*
X126585892Y-90478013D01*
X126590306Y-90433200D01*
X126590306Y-89733200D01*
X126585892Y-89688387D01*
X126572821Y-89645295D01*
X126551594Y-89605582D01*
X126523027Y-89570773D01*
X126488218Y-89542206D01*
X126448505Y-89520979D01*
X126405413Y-89507908D01*
X126360600Y-89503494D01*
X124860600Y-89503494D01*
X124815787Y-89507908D01*
X124772695Y-89520979D01*
X124732982Y-89542206D01*
X124698173Y-89570773D01*
X124669606Y-89605582D01*
X124648379Y-89645295D01*
X124635308Y-89688387D01*
X124630894Y-89733200D01*
X124399473Y-89733200D01*
X124451967Y-89654637D01*
X124503121Y-89531140D01*
X124529200Y-89400036D01*
X124529200Y-89266364D01*
X124503121Y-89135260D01*
X124451967Y-89011763D01*
X124377703Y-88900618D01*
X124283182Y-88806097D01*
X124172037Y-88731833D01*
X124048540Y-88680679D01*
X123917436Y-88654600D01*
X123783764Y-88654600D01*
X123652660Y-88680679D01*
X123529163Y-88731833D01*
X123418018Y-88806097D01*
X123323497Y-88900618D01*
X123249233Y-89011763D01*
X123198079Y-89135260D01*
X123172000Y-89266364D01*
X121225205Y-89266364D01*
X121192860Y-89080120D01*
X121102854Y-88368395D01*
X121046626Y-87661059D01*
X121025333Y-86968218D01*
X121040129Y-86298980D01*
X121041824Y-86266364D01*
X123172000Y-86266364D01*
X123172000Y-86400036D01*
X123198079Y-86531140D01*
X123249233Y-86654637D01*
X123323497Y-86765782D01*
X123418018Y-86860303D01*
X123529163Y-86934567D01*
X123652660Y-86985721D01*
X123783764Y-87011800D01*
X123917436Y-87011800D01*
X124048540Y-86985721D01*
X124172037Y-86934567D01*
X124283182Y-86860303D01*
X124318354Y-86825131D01*
X124277219Y-86902089D01*
X124246719Y-87002635D01*
X124236420Y-87107200D01*
X124246719Y-87211765D01*
X124277219Y-87312311D01*
X124326749Y-87404975D01*
X124393405Y-87486195D01*
X124474625Y-87552851D01*
X124567289Y-87602381D01*
X124667835Y-87632881D01*
X124746205Y-87640600D01*
X124763676Y-87640600D01*
X124772695Y-87645421D01*
X124815787Y-87658492D01*
X124860600Y-87662906D01*
X125835965Y-87662906D01*
X127101601Y-88928542D01*
X127101600Y-92543794D01*
X126047500Y-92543794D01*
X126002687Y-92548208D01*
X125959595Y-92561279D01*
X125919882Y-92582506D01*
X125885073Y-92611073D01*
X125856506Y-92645882D01*
X125835279Y-92685595D01*
X125822208Y-92728687D01*
X125817794Y-92773500D01*
X125817794Y-95948500D01*
X125822208Y-95993313D01*
X125835279Y-96036405D01*
X125856506Y-96076118D01*
X125885073Y-96110927D01*
X125919882Y-96139494D01*
X125959595Y-96160721D01*
X126002687Y-96173792D01*
X126047500Y-96178206D01*
X126796800Y-96178206D01*
X126796800Y-97126537D01*
X126792746Y-97167700D01*
X126796800Y-97208863D01*
X126796800Y-97208869D01*
X126808929Y-97332015D01*
X126856858Y-97490016D01*
X126934691Y-97635631D01*
X127039436Y-97763264D01*
X127071418Y-97789511D01*
X129286494Y-100004588D01*
X129312736Y-100036564D01*
X129344712Y-100062806D01*
X129344714Y-100062808D01*
X129402507Y-100110237D01*
X129440368Y-100141309D01*
X129585983Y-100219142D01*
X129743984Y-100267071D01*
X129867130Y-100279200D01*
X129867137Y-100279200D01*
X129908300Y-100283254D01*
X129949463Y-100279200D01*
X141068537Y-100279200D01*
X141109700Y-100283254D01*
X141150863Y-100279200D01*
X141150870Y-100279200D01*
X141274016Y-100267071D01*
X141432017Y-100219142D01*
X141577632Y-100141309D01*
X141705264Y-100036564D01*
X141731511Y-100004582D01*
X143946588Y-97789506D01*
X143978564Y-97763264D01*
X144020791Y-97711811D01*
X144083309Y-97635632D01*
X144161142Y-97490017D01*
X144209071Y-97332016D01*
X144210400Y-97318523D01*
X144221200Y-97208870D01*
X144221200Y-97208863D01*
X144225254Y-97167700D01*
X144221200Y-97126537D01*
X144221200Y-96178206D01*
X144970500Y-96178206D01*
X145015313Y-96173792D01*
X145058405Y-96160721D01*
X145098118Y-96139494D01*
X145132927Y-96110927D01*
X145161494Y-96076118D01*
X145182721Y-96036405D01*
X145195792Y-95993313D01*
X145200206Y-95948500D01*
X145200206Y-92773500D01*
X145195792Y-92728687D01*
X145182721Y-92685595D01*
X145161494Y-92645882D01*
X145132927Y-92611073D01*
X145098118Y-92582506D01*
X145058405Y-92561279D01*
X145015313Y-92548208D01*
X144970500Y-92543794D01*
X141795500Y-92543794D01*
X141750687Y-92548208D01*
X141707595Y-92561279D01*
X141667882Y-92582506D01*
X141633073Y-92611073D01*
X141604506Y-92645882D01*
X141583279Y-92685595D01*
X141570208Y-92728687D01*
X141565794Y-92773500D01*
X141565794Y-95948500D01*
X141570208Y-95993313D01*
X141583279Y-96036405D01*
X141604506Y-96076118D01*
X141633073Y-96110927D01*
X141667882Y-96139494D01*
X141707595Y-96160721D01*
X141750687Y-96173792D01*
X141795500Y-96178206D01*
X142544801Y-96178206D01*
X142544801Y-96820505D01*
X140762507Y-98602800D01*
X130255494Y-98602800D01*
X128704083Y-97051389D01*
X133070059Y-97051389D01*
X133435011Y-97518093D01*
X134090780Y-97862045D01*
X134801050Y-98071455D01*
X135538527Y-98138274D01*
X136274869Y-98059934D01*
X136981780Y-97839447D01*
X137582989Y-97518093D01*
X137947941Y-97051389D01*
X135509000Y-94612447D01*
X133070059Y-97051389D01*
X128704083Y-97051389D01*
X128473200Y-96820507D01*
X128473200Y-96178206D01*
X129222500Y-96178206D01*
X129267313Y-96173792D01*
X129310405Y-96160721D01*
X129350118Y-96139494D01*
X129384927Y-96110927D01*
X129413494Y-96076118D01*
X129434721Y-96036405D01*
X129447792Y-95993313D01*
X129452206Y-95948500D01*
X129452206Y-94390527D01*
X131731726Y-94390527D01*
X131810066Y-95126869D01*
X132030553Y-95833780D01*
X132351907Y-96434989D01*
X132818611Y-96799941D01*
X135257553Y-94361000D01*
X135760447Y-94361000D01*
X138199389Y-96799941D01*
X138666093Y-96434989D01*
X139010045Y-95779220D01*
X139219455Y-95068950D01*
X139286274Y-94331473D01*
X139207934Y-93595131D01*
X138987447Y-92888220D01*
X138666093Y-92287011D01*
X138199389Y-91922059D01*
X135760447Y-94361000D01*
X135257553Y-94361000D01*
X132818611Y-91922059D01*
X132351907Y-92287011D01*
X132007955Y-92942780D01*
X131798545Y-93653050D01*
X131731726Y-94390527D01*
X129452206Y-94390527D01*
X129452206Y-92773500D01*
X129447792Y-92728687D01*
X129434721Y-92685595D01*
X129413494Y-92645882D01*
X129384927Y-92611073D01*
X129350118Y-92582506D01*
X129310405Y-92561279D01*
X129267313Y-92548208D01*
X129222500Y-92543794D01*
X128168400Y-92543794D01*
X128168400Y-91670611D01*
X133070059Y-91670611D01*
X135509000Y-94109553D01*
X137947941Y-91670611D01*
X137582989Y-91203907D01*
X136927220Y-90859955D01*
X136216950Y-90650545D01*
X135479473Y-90583726D01*
X134743131Y-90662066D01*
X134036220Y-90882553D01*
X133435011Y-91203907D01*
X133070059Y-91670611D01*
X128168400Y-91670611D01*
X128168400Y-88733794D01*
X128170980Y-88707600D01*
X128168032Y-88677670D01*
X128160681Y-88603035D01*
X128130181Y-88502489D01*
X128080651Y-88409825D01*
X128013995Y-88328605D01*
X127993645Y-88311904D01*
X126590306Y-86908565D01*
X126590306Y-86733200D01*
X126585892Y-86688387D01*
X126572821Y-86645295D01*
X126551594Y-86605582D01*
X126523027Y-86570773D01*
X126488218Y-86542206D01*
X126448505Y-86520979D01*
X126405413Y-86507908D01*
X126360600Y-86503494D01*
X124860600Y-86503494D01*
X124815787Y-86507908D01*
X124772695Y-86520979D01*
X124732982Y-86542206D01*
X124698173Y-86570773D01*
X124691246Y-86579213D01*
X124667835Y-86581519D01*
X124567289Y-86612019D01*
X124474625Y-86661549D01*
X124414231Y-86711113D01*
X124451967Y-86654637D01*
X124503121Y-86531140D01*
X124529200Y-86400036D01*
X124529200Y-86266364D01*
X124503121Y-86135260D01*
X124451967Y-86011763D01*
X124377703Y-85900618D01*
X124283182Y-85806097D01*
X124172037Y-85731833D01*
X124048540Y-85680679D01*
X123917436Y-85654600D01*
X123783764Y-85654600D01*
X123652660Y-85680679D01*
X123529163Y-85731833D01*
X123418018Y-85806097D01*
X123323497Y-85900618D01*
X123249233Y-86011763D01*
X123198079Y-86135260D01*
X123172000Y-86266364D01*
X121041824Y-86266364D01*
X121044980Y-86205648D01*
X121054428Y-86034856D01*
X121063663Y-85880491D01*
X121072144Y-85750900D01*
X121079285Y-85655290D01*
X121084441Y-85602815D01*
X121098585Y-85500613D01*
X121099172Y-85485687D01*
X121096836Y-85470932D01*
X121091667Y-85456918D01*
X121083863Y-85444180D01*
X121073724Y-85433211D01*
X121061640Y-85424429D01*
X121048075Y-85418175D01*
X121033550Y-85414686D01*
X121020909Y-85413999D01*
X120615473Y-85425683D01*
X120522701Y-85427623D01*
X119981705Y-85409985D01*
X119450656Y-85343873D01*
X118930864Y-85230395D01*
X118425173Y-85070721D01*
X117936424Y-84866017D01*
X117467414Y-84617426D01*
X117020992Y-84326114D01*
X116599959Y-83993208D01*
X116273793Y-83683200D01*
X122120894Y-83683200D01*
X122120894Y-84683200D01*
X122125308Y-84728013D01*
X122138379Y-84771105D01*
X122159606Y-84810818D01*
X122188173Y-84845627D01*
X122222982Y-84874194D01*
X122262695Y-84895421D01*
X122305787Y-84908492D01*
X122350600Y-84912906D01*
X123150600Y-84912906D01*
X123195413Y-84908492D01*
X123238505Y-84895421D01*
X123278218Y-84874194D01*
X123313027Y-84845627D01*
X123341594Y-84810818D01*
X123362821Y-84771105D01*
X123375892Y-84728013D01*
X123380306Y-84683200D01*
X123380306Y-83683200D01*
X124330894Y-83683200D01*
X124330894Y-84683200D01*
X124335308Y-84728013D01*
X124348379Y-84771105D01*
X124369606Y-84810818D01*
X124398173Y-84845627D01*
X124432982Y-84874194D01*
X124472695Y-84895421D01*
X124515787Y-84908492D01*
X124560600Y-84912906D01*
X125360600Y-84912906D01*
X125405413Y-84908492D01*
X125448505Y-84895421D01*
X125488218Y-84874194D01*
X125523027Y-84845627D01*
X125551594Y-84810818D01*
X125572821Y-84771105D01*
X125585892Y-84728013D01*
X125590306Y-84683200D01*
X125590306Y-83683200D01*
X125585892Y-83638387D01*
X125572821Y-83595295D01*
X125551594Y-83555582D01*
X125523027Y-83520773D01*
X125488218Y-83492206D01*
X125448505Y-83470979D01*
X125405413Y-83457908D01*
X125360600Y-83453494D01*
X124560600Y-83453494D01*
X124515787Y-83457908D01*
X124472695Y-83470979D01*
X124432982Y-83492206D01*
X124398173Y-83520773D01*
X124369606Y-83555582D01*
X124348379Y-83595295D01*
X124335308Y-83638387D01*
X124330894Y-83683200D01*
X123380306Y-83683200D01*
X123375892Y-83638387D01*
X123362821Y-83595295D01*
X123341594Y-83555582D01*
X123313027Y-83520773D01*
X123278218Y-83492206D01*
X123238505Y-83470979D01*
X123195413Y-83457908D01*
X123150600Y-83453494D01*
X122350600Y-83453494D01*
X122305787Y-83457908D01*
X122262695Y-83470979D01*
X122222982Y-83492206D01*
X122188173Y-83520773D01*
X122159606Y-83555582D01*
X122138379Y-83595295D01*
X122125308Y-83638387D01*
X122120894Y-83683200D01*
X116273793Y-83683200D01*
X116206851Y-83619575D01*
X115917775Y-83297559D01*
X115586798Y-82864174D01*
X115300746Y-82408299D01*
X115059228Y-81929408D01*
X114862119Y-81427243D01*
X114709326Y-80901489D01*
X114600620Y-80350835D01*
X114593349Y-80299397D01*
X114572974Y-80095693D01*
X114559589Y-79860096D01*
X114554104Y-79640000D01*
X115860973Y-79640000D01*
X115872253Y-79754523D01*
X115905658Y-79864646D01*
X115959905Y-79966135D01*
X116032909Y-80055091D01*
X116121865Y-80128095D01*
X116223354Y-80182342D01*
X116333477Y-80215747D01*
X116448000Y-80227027D01*
X117024150Y-80224200D01*
X117170200Y-80078150D01*
X117170200Y-78917800D01*
X116009850Y-78917800D01*
X115863800Y-79063850D01*
X115860973Y-79640000D01*
X114554104Y-79640000D01*
X114553255Y-79605973D01*
X114554034Y-79347367D01*
X114561930Y-79098370D01*
X114576897Y-78873185D01*
X114598764Y-78686019D01*
X114689210Y-78210878D01*
X114790957Y-77840000D01*
X115860973Y-77840000D01*
X115863800Y-78416150D01*
X116009850Y-78562200D01*
X117170200Y-78562200D01*
X117170200Y-77401850D01*
X117525800Y-77401850D01*
X117525800Y-78562200D01*
X117545800Y-78562200D01*
X117545800Y-78917800D01*
X117525800Y-78917800D01*
X117525800Y-80078150D01*
X117671850Y-80224200D01*
X118248000Y-80227027D01*
X118362523Y-80215747D01*
X118472646Y-80182342D01*
X118574135Y-80128095D01*
X118663091Y-80055091D01*
X118736095Y-79966135D01*
X118790342Y-79864646D01*
X118823747Y-79754523D01*
X118835027Y-79640000D01*
X118832579Y-79141165D01*
X118887847Y-79274593D01*
X119011359Y-79459441D01*
X119168559Y-79616641D01*
X119353407Y-79740153D01*
X119558799Y-79825229D01*
X119776843Y-79868600D01*
X119999157Y-79868600D01*
X120217201Y-79825229D01*
X120218394Y-79824735D01*
X120392303Y-79998644D01*
X120409004Y-80018994D01*
X120490224Y-80085650D01*
X120582888Y-80135180D01*
X120683434Y-80165680D01*
X120761804Y-80173399D01*
X120761805Y-80173399D01*
X120787999Y-80175979D01*
X120814193Y-80173399D01*
X126231258Y-80173399D01*
X127127000Y-81069142D01*
X127127001Y-83712458D01*
X125835965Y-85003494D01*
X124860600Y-85003494D01*
X124815787Y-85007908D01*
X124772695Y-85020979D01*
X124732982Y-85042206D01*
X124698173Y-85070773D01*
X124669606Y-85105582D01*
X124648379Y-85145295D01*
X124635308Y-85188387D01*
X124630894Y-85233200D01*
X124630894Y-85933200D01*
X124635308Y-85978013D01*
X124648379Y-86021105D01*
X124669606Y-86060818D01*
X124698173Y-86095627D01*
X124732982Y-86124194D01*
X124772695Y-86145421D01*
X124815787Y-86158492D01*
X124860600Y-86162906D01*
X126360600Y-86162906D01*
X126405413Y-86158492D01*
X126448505Y-86145421D01*
X126488218Y-86124194D01*
X126523027Y-86095627D01*
X126551594Y-86060818D01*
X126572821Y-86021105D01*
X126585892Y-85978013D01*
X126590306Y-85933200D01*
X126590306Y-85757835D01*
X128019045Y-84329096D01*
X128039395Y-84312395D01*
X128106051Y-84231175D01*
X128155581Y-84138511D01*
X128186081Y-84037965D01*
X128193800Y-83959595D01*
X128193800Y-83959594D01*
X128196380Y-83933400D01*
X128193800Y-83907206D01*
X128193800Y-80874386D01*
X128196379Y-80848199D01*
X128193800Y-80822012D01*
X128193800Y-80822005D01*
X128186081Y-80743635D01*
X128155581Y-80643089D01*
X128106051Y-80550425D01*
X128104442Y-80548465D01*
X128056093Y-80489551D01*
X128056091Y-80489549D01*
X128039395Y-80469205D01*
X128019051Y-80452509D01*
X126847892Y-79281351D01*
X126831194Y-79261004D01*
X126749974Y-79194348D01*
X126657310Y-79144818D01*
X126556764Y-79114318D01*
X126478394Y-79106599D01*
X126478386Y-79106599D01*
X126452199Y-79104020D01*
X126426012Y-79106599D01*
X121008940Y-79106599D01*
X120972735Y-79070394D01*
X120973229Y-79069201D01*
X121016600Y-78851157D01*
X121016600Y-78628843D01*
X150763403Y-78628843D01*
X150763403Y-78851157D01*
X150806774Y-79069201D01*
X150891850Y-79274593D01*
X151015362Y-79459441D01*
X151172562Y-79616641D01*
X151357410Y-79740153D01*
X151562802Y-79825229D01*
X151780846Y-79868600D01*
X152003160Y-79868600D01*
X152221204Y-79825229D01*
X152426596Y-79740153D01*
X152611444Y-79616641D01*
X152768644Y-79459441D01*
X152892156Y-79274593D01*
X152947424Y-79141165D01*
X152944976Y-79640000D01*
X152956256Y-79754523D01*
X152989661Y-79864646D01*
X153043908Y-79966135D01*
X153116912Y-80055091D01*
X153205868Y-80128095D01*
X153307357Y-80182342D01*
X153417480Y-80215747D01*
X153532003Y-80227027D01*
X154108153Y-80224200D01*
X154254203Y-80078150D01*
X154254203Y-78917800D01*
X154609803Y-78917800D01*
X154609803Y-80078150D01*
X154755853Y-80224200D01*
X155332003Y-80227027D01*
X155446526Y-80215747D01*
X155556649Y-80182342D01*
X155658138Y-80128095D01*
X155747094Y-80055091D01*
X155820098Y-79966135D01*
X155874345Y-79864646D01*
X155907750Y-79754523D01*
X155919030Y-79640000D01*
X155916203Y-79063850D01*
X155770153Y-78917800D01*
X154609803Y-78917800D01*
X154254203Y-78917800D01*
X154234203Y-78917800D01*
X154234203Y-78562200D01*
X154254203Y-78562200D01*
X154254203Y-77401850D01*
X154609803Y-77401850D01*
X154609803Y-78562200D01*
X155770153Y-78562200D01*
X155916203Y-78416150D01*
X155919030Y-77840000D01*
X155907750Y-77725477D01*
X155874345Y-77615354D01*
X155820098Y-77513865D01*
X155747094Y-77424909D01*
X155658138Y-77351905D01*
X155556649Y-77297658D01*
X155446526Y-77264253D01*
X155332003Y-77252973D01*
X154755853Y-77255800D01*
X154609803Y-77401850D01*
X154254203Y-77401850D01*
X154108153Y-77255800D01*
X153532003Y-77252973D01*
X153417480Y-77264253D01*
X153307357Y-77297658D01*
X153205868Y-77351905D01*
X153116912Y-77424909D01*
X153043908Y-77513865D01*
X152989661Y-77615354D01*
X152956256Y-77725477D01*
X152944976Y-77840000D01*
X152947424Y-78338835D01*
X152892156Y-78205407D01*
X152768644Y-78020559D01*
X152611444Y-77863359D01*
X152426596Y-77739847D01*
X152221204Y-77654771D01*
X152003160Y-77611400D01*
X151780846Y-77611400D01*
X151562802Y-77654771D01*
X151357410Y-77739847D01*
X151172562Y-77863359D01*
X151015362Y-78020559D01*
X150891850Y-78205407D01*
X150806774Y-78410799D01*
X150763403Y-78628843D01*
X121016600Y-78628843D01*
X120973229Y-78410799D01*
X120888153Y-78205407D01*
X120764641Y-78020559D01*
X120607441Y-77863359D01*
X120422593Y-77739847D01*
X120217201Y-77654771D01*
X119999157Y-77611400D01*
X119776843Y-77611400D01*
X119558799Y-77654771D01*
X119353407Y-77739847D01*
X119168559Y-77863359D01*
X119011359Y-78020559D01*
X118887847Y-78205407D01*
X118832579Y-78338835D01*
X118835027Y-77840000D01*
X118823747Y-77725477D01*
X118790342Y-77615354D01*
X118736095Y-77513865D01*
X118663091Y-77424909D01*
X118574135Y-77351905D01*
X118472646Y-77297658D01*
X118362523Y-77264253D01*
X118248000Y-77252973D01*
X117671850Y-77255800D01*
X117525800Y-77401850D01*
X117170200Y-77401850D01*
X117024150Y-77255800D01*
X116448000Y-77252973D01*
X116333477Y-77264253D01*
X116223354Y-77297658D01*
X116121865Y-77351905D01*
X116032909Y-77424909D01*
X115959905Y-77513865D01*
X115905658Y-77615354D01*
X115872253Y-77725477D01*
X115860973Y-77840000D01*
X114790957Y-77840000D01*
X114834918Y-77679760D01*
X115023822Y-77174300D01*
X115256250Y-76693560D01*
X115532499Y-76236884D01*
X115852939Y-75803609D01*
X116218418Y-75392609D01*
X116446949Y-75168622D01*
X116863526Y-74813872D01*
X117303501Y-74503573D01*
X117766882Y-74237511D01*
X118253184Y-74015923D01*
X118761961Y-73839091D01*
X119293658Y-73707114D01*
X119555264Y-73659603D01*
X119811844Y-73625426D01*
X120069872Y-73605212D01*
X120346088Y-73597709D01*
X120657154Y-73601761D01*
X120809477Y-73606998D01*
X121050662Y-73620719D01*
X121265483Y-73641774D01*
X121470791Y-73672300D01*
X121683593Y-73714607D01*
X121919424Y-73770783D01*
X122351151Y-73898347D01*
X122845486Y-74091437D01*
X123321279Y-74328461D01*
X123774893Y-74606883D01*
X124202364Y-74924004D01*
X124599806Y-75277149D01*
X124963338Y-75663619D01*
X125290204Y-76082140D01*
X125390782Y-76224167D01*
X125400568Y-76235453D01*
X125412368Y-76244612D01*
X125425728Y-76251294D01*
X125440135Y-76255241D01*
X125455035Y-76256301D01*
X125469856Y-76254434D01*
X125484028Y-76249712D01*
X125497006Y-76242315D01*
X125504533Y-76236231D01*
X125794526Y-75969691D01*
X126263215Y-75555502D01*
X126897824Y-75043930D01*
X127549277Y-74572576D01*
X128212781Y-74144825D01*
X128884322Y-73763635D01*
X129182372Y-73605878D01*
X129194826Y-73597629D01*
X129205431Y-73587110D01*
X129213781Y-73574723D01*
X129219553Y-73560946D01*
X129222527Y-73546307D01*
X129222588Y-73531369D01*
X129219733Y-73516707D01*
X129214073Y-73502883D01*
X129201336Y-73485388D01*
X128825054Y-73098705D01*
X128688722Y-72955976D01*
X128217332Y-72417280D01*
X127790601Y-71854704D01*
X127408006Y-71267815D01*
X127069717Y-70656969D01*
X126775850Y-70022396D01*
X126526593Y-69364440D01*
X126322101Y-68683333D01*
X126162437Y-67978781D01*
X126116607Y-67715350D01*
X126049368Y-67185792D01*
X126010323Y-66639574D01*
X125999541Y-66088099D01*
X126017107Y-65543333D01*
X126063061Y-65017257D01*
X126137591Y-64520417D01*
X126137749Y-64519562D01*
X126138926Y-64509357D01*
X126141940Y-64445796D01*
X126141182Y-64430878D01*
X126137528Y-64416394D01*
X126131118Y-64402901D01*
X126123590Y-64392490D01*
X126100951Y-64366176D01*
X126090146Y-64355862D01*
X126077536Y-64347854D01*
X126066456Y-64343313D01*
X125847535Y-64273107D01*
X125525859Y-64143025D01*
X125196053Y-63981063D01*
X124869738Y-63793459D01*
X124558826Y-63586718D01*
X124274200Y-63366705D01*
X124190633Y-63294835D01*
X123848216Y-62960420D01*
X123543666Y-62596168D01*
X123373486Y-62346200D01*
X127838094Y-62346200D01*
X127838094Y-67346200D01*
X127842508Y-67391013D01*
X127855579Y-67434105D01*
X127876806Y-67473818D01*
X127905373Y-67508627D01*
X127940182Y-67537194D01*
X127979895Y-67558421D01*
X128022987Y-67571492D01*
X128067800Y-67575906D01*
X144067800Y-67575906D01*
X144112613Y-67571492D01*
X144155705Y-67558421D01*
X144195418Y-67537194D01*
X144230227Y-67508627D01*
X144258794Y-67473818D01*
X144280021Y-67434105D01*
X144293092Y-67391013D01*
X144297506Y-67346200D01*
X144297506Y-62346200D01*
X144293092Y-62301387D01*
X144280021Y-62258295D01*
X144258794Y-62218582D01*
X144230227Y-62183773D01*
X144195418Y-62155206D01*
X144155705Y-62133979D01*
X144112613Y-62120908D01*
X144067800Y-62116494D01*
X128067800Y-62116494D01*
X128022987Y-62120908D01*
X127979895Y-62133979D01*
X127940182Y-62155206D01*
X127905373Y-62183773D01*
X127876806Y-62218582D01*
X127855579Y-62258295D01*
X127842508Y-62301387D01*
X127838094Y-62346200D01*
X123373486Y-62346200D01*
X123277126Y-62204663D01*
X123049851Y-61789590D01*
X122863115Y-61354664D01*
X122718171Y-60903603D01*
X122616261Y-60440116D01*
X122558621Y-59967945D01*
X122546477Y-59490798D01*
X122581034Y-59012375D01*
X122663632Y-58535682D01*
X122745111Y-58222750D01*
X122905908Y-57763893D01*
X123108508Y-57328601D01*
X123350613Y-56918517D01*
X123629740Y-56535869D01*
X123943353Y-56182938D01*
X124288965Y-55861961D01*
X124664057Y-55575211D01*
X125066088Y-55324964D01*
X125492580Y-55113454D01*
X125941016Y-54942944D01*
X126408886Y-54815692D01*
X126895009Y-54733731D01*
X127049765Y-54718020D01*
X127532820Y-54701341D01*
X128010403Y-54732307D01*
G37*
G04 #@! TD.AperFunction*
M02*
